<svg width="178" height="58" viewBox="0 0 178 58" fill="none" xmlns="http://www.w3.org/2000/svg">
<path d="M0 47.5138V0L17.3882 9.77528V58L0 47.5138ZM26.2748 47.5138V0L43.6629 9.77528V58L26.2748 47.5138ZM52.5495 47.5138V0L69.9377 9.77528V58L52.5495 47.5138ZM106.61 5.53933H113.067V34.8059H106.077L99.2043 23.6088C96.8345 19.8172 95.1165 16.8846 94.0501 14.7814C94.2278 18.1583 94.287 21.95 94.287 26.097V34.7763H87.8294V5.50971H94.998L102.463 17.714C104.536 21.0613 105.958 23.4903 106.788 25.001C106.669 22.6905 106.61 19.3432 106.61 14.8999V5.53933ZM130.87 23.7569V18.1583H144.793V34.8059H139.727L139.49 32.2881C137.802 34.4208 135.136 35.4872 131.463 35.4872C127.079 35.4872 123.583 34.0654 121.006 31.192C118.429 28.3187 117.126 24.6456 117.126 20.1134C117.066 15.6701 118.429 11.9969 121.154 9.12359C123.939 6.22063 127.582 4.76915 132.114 4.8284C134.662 4.8284 136.913 5.24311 138.868 6.07252C140.853 6.90194 142.838 8.29418 144.882 10.2789L140.675 14.6333C139.016 13.1818 137.565 12.1747 136.262 11.5822C134.958 11.0194 133.596 10.7232 132.114 10.7232C129.597 10.7232 127.582 11.523 126.101 13.1522C124.65 14.7814 123.909 17.0919 123.909 20.0838C123.909 23.1645 124.62 25.5342 126.042 27.2227C127.493 28.8815 129.478 29.6813 131.966 29.6813C134.099 29.6813 135.758 29.1777 136.943 28.1706C138.157 27.1338 138.75 25.712 138.75 23.8754V23.7569H130.87ZM163.129 4.79877C165.469 4.79877 167.454 5.15424 169.112 5.83555C170.801 6.54648 172.519 7.70174 174.267 9.30133L170.327 13.8927C168.875 12.6486 167.631 11.8192 166.565 11.3749C165.558 10.9009 164.373 10.6639 163.069 10.6639C160.611 10.6639 158.685 11.523 157.204 13.2114C155.782 14.8999 155.072 17.1808 155.072 20.0838C155.072 23.0163 155.782 25.3565 157.204 27.0449C158.656 28.7334 160.611 29.5924 163.01 29.5924C164.432 29.5924 165.676 29.3258 166.713 28.8223C167.779 28.3187 169.142 27.43 170.801 26.097L174.622 30.6292C172.815 32.3177 170.979 33.5322 169.142 34.332C167.335 35.1021 165.321 35.4872 163.099 35.4872C158.597 35.4872 154.983 34.0358 152.317 31.1624C149.621 28.2595 148.288 24.5271 148.288 19.9949C148.288 15.5516 149.621 11.8784 152.287 9.03473C154.953 6.22063 158.567 4.79877 163.129 4.79877ZM92.7171 54.1195L96.7753 42.1226H95.6793L92.1246 53.0827H92.0654L88.5404 42.1522H87.3851L91.4137 54.1491H92.7171V54.1195ZM104.832 54.3269C106.491 54.3269 107.706 53.4678 108.269 52.1941L107.528 51.6905C107.054 52.8458 106.106 53.4678 104.862 53.4678C103.055 53.4678 101.989 52.1941 101.989 50.3575V49.9132H108.506V49.4392C108.506 46.8621 107.054 45.1144 104.803 45.1144C102.463 45.1144 100.982 46.8325 100.982 49.7058C100.982 52.5792 102.492 54.3269 104.832 54.3269ZM104.803 45.9438C106.373 45.9438 107.439 47.1583 107.439 49.0245V49.1726H101.989V49.0838C102.018 47.2176 103.114 45.9438 104.803 45.9438ZM115.408 54.1195V47.9285C115.408 46.6251 116.563 46.0031 117.807 46.0031C119.258 46.0031 120.058 46.8621 120.058 48.6394V54.1195H121.036V48.4617C121.036 46.3289 119.94 45.1144 118.074 45.1144C116.652 45.1144 115.882 45.7957 115.467 46.714H115.408V45.3218H114.43V54.1195H115.408ZM130.811 54.1195V53.2605H128.945V46.1808H130.93V45.3218H128.945V42.8631H128.056V44.6405C128.056 45.144 127.908 45.3218 127.434 45.3218H126.427V46.1808H127.967V53.0235C127.967 53.6752 128.352 54.1195 129.063 54.1195H130.811ZM142.216 54.1195H143.193V45.3218H142.216V51.4831C142.216 52.8161 141.06 53.4382 139.846 53.4382C138.394 53.4382 137.594 52.5792 137.594 50.7722V45.3218H136.617V50.9796C136.617 53.1124 137.743 54.3269 139.609 54.3269C141.12 54.3269 141.83 53.5567 142.156 52.7273H142.216V54.1195ZM150.806 54.1195V48.1062C150.806 46.9806 151.843 46.2993 153.324 46.2993H154.094V45.3514H153.502C151.991 45.3514 151.221 46.0919 150.865 46.9214H150.806V45.3514H149.828V54.1491H150.806V54.1195ZM162.507 54.3269C164.165 54.3269 165.38 53.4678 165.943 52.1941L165.232 51.7201C164.758 52.8754 163.81 53.4975 162.566 53.4975C160.759 53.4975 159.693 52.2237 159.693 50.3871V49.9132H166.209V49.4392C166.209 46.8621 164.758 45.1144 162.507 45.1144C160.167 45.1144 158.685 46.8325 158.685 49.7058C158.685 52.5792 160.137 54.3269 162.507 54.3269ZM162.477 45.9438C164.047 45.9438 165.113 47.1583 165.113 49.0245V49.1726H159.663V49.0838C159.693 47.2176 160.789 45.9438 162.477 45.9438ZM174.592 54.3269C176.518 54.3269 177.703 53.3493 177.703 51.7201C177.703 50.2983 176.873 49.5281 175.066 49.2615L174.355 49.1726C173.111 48.9653 172.46 48.5802 172.46 47.573C172.46 46.5659 173.2 46.0031 174.444 46.0031C175.659 46.0031 176.37 46.5659 176.844 47.1287L177.495 46.5363C176.844 45.7365 175.955 45.1736 174.504 45.1736C172.815 45.1736 171.512 46.0031 171.512 47.6323C171.512 49.2022 172.608 49.8539 174.207 50.0909L174.918 50.2094C176.192 50.3871 176.725 50.9203 176.725 51.8682C176.725 52.9346 175.955 53.5271 174.622 53.5271C173.467 53.5271 172.608 53.0531 171.897 52.1052L171.186 52.668C172.015 53.7344 173.082 54.3269 174.592 54.3269Z" fill="#0B3460"/>
</svg>
