<svg width="200" height="60" viewBox="0 0 200 60" fill="none" xmlns="http://www.w3.org/2000/svg">
<path d="M59.3437 30V0H59.865H60.3864V30V60H59.865H59.3437V30Z" fill="black"/>
<path d="M13.496 54.8501C9.54 54.1775 5.81089 51.909 3.28768 48.6416C2.27282 47.3123 0.95947 44.6418 0.569447 43.1056C-0.310097 39.6113 -0.178761 36.5986 1.01917 33.2117C2.28874 29.598 5.17014 26.3306 8.70423 24.4641L9.87032 23.8512L9.81062 21.6424C9.76685 19.7917 9.81063 19.1629 10.0813 17.9252C11.514 11.2391 16.7236 6.22447 23.3063 5.14992C27.6204 4.44947 31.8589 5.40463 35.3214 7.83631C39.0545 10.4789 41.4424 14.3274 42.099 18.8366C42.3975 20.7907 42.3975 21.7936 42.115 23.5089C41.9956 24.2571 41.9518 24.866 42.0234 24.8979C42.099 24.9297 42.6801 25.3317 43.3368 25.8092C44.6223 26.7485 46.262 28.4797 47.1574 29.8249C51.4556 36.2722 50.592 44.8528 45.1118 50.333C40.1728 55.2879 32.635 56.4818 26.2911 53.3338L24.934 52.6612L23.6047 53.3338C20.4567 54.9178 16.9465 55.4391 13.4999 54.8581L13.496 54.8501ZM20.9581 49.1788C20.99 49.147 20.7791 48.8366 20.4965 48.4625C19.3463 46.9541 18.4509 45.0279 17.838 42.7594C17.5395 41.6092 17.4798 41.0719 17.4798 39.1019C17.4798 37.8323 17.5235 36.4155 17.5992 35.9658L17.7026 35.1459L17.1216 34.7878C16.1067 34.1589 14.3914 32.6386 13.5676 31.6397C12.895 30.8039 11.4185 28.5195 11.2394 28.0141C11.1956 27.9106 10.8653 28.1335 10.4633 28.5076C8.85148 30.0597 7.73315 31.9541 7.07648 34.2704C6.61482 35.926 6.61482 38.5527 7.07648 40.1964C7.73315 42.4967 8.60076 44.0488 10.1529 45.6447C12.0951 47.6585 14.4949 48.8525 17.4081 49.2704C18.1245 49.3619 20.8268 49.3022 20.9621 49.1788H20.9581ZM34.3901 48.8644C42.0314 46.6715 45.4779 38.1627 41.5538 31.194C41.2553 30.6567 40.8215 30 40.5827 29.7294L40.1648 29.22L39.5679 30.1751C38.2545 32.2486 35.5681 34.5927 33.1802 35.7588C32.3445 36.1767 32.3126 36.2086 32.4042 36.6702C32.5554 37.4622 32.5076 40.6859 32.3285 41.6848C31.8947 44.1165 30.4938 47.2685 29.1486 48.761L28.8502 49.0913L29.2083 49.1669C30.5217 49.4654 32.7464 49.3301 34.3861 48.8684L34.3901 48.8644ZM26.0921 46.8506C28.3925 45.1353 30.0481 42.5206 30.6013 39.7904C30.8719 38.4611 31.051 36.714 30.9157 36.714C30.856 36.714 30.2749 36.8652 29.6024 37.0443C28.6154 37.299 27.9308 37.3746 26.1399 37.3746C23.6764 37.3906 22.4824 37.1955 20.3492 36.4036C19.7085 36.1648 19.1394 35.9698 19.0956 35.9698C19.0518 35.9698 19.0518 36.7618 19.0956 37.7328C19.2309 40.5545 20.0826 42.8071 21.8417 44.9562C22.6018 45.8835 24.6037 47.5989 24.9459 47.5989C25.0375 47.6148 25.5429 47.2685 26.0961 46.8506H26.0921ZM28.6153 35.8066C29.9287 35.4763 30.6888 35.1499 30.6888 34.939C30.6888 34.8634 30.5376 34.342 30.3744 33.7888C29.5546 31.1024 27.8353 28.7901 25.4952 27.1783L25.0017 26.836L24.1818 27.3892C22.2277 28.7344 20.3174 31.3611 19.6289 33.6137L19.3583 34.5092L20.4766 35.0186C22.2078 35.8265 23.4774 36.0931 25.5509 36.1091C26.908 36.125 27.6403 36.0494 28.6114 35.8106L28.6153 35.8066ZM32.5275 33.9997C34.5413 32.5949 36.4238 30.0279 37.1083 27.7474L37.363 26.8957L36.7501 26.5654C35.1224 25.6859 33.1961 25.2202 31.1664 25.2202C29.7337 25.2202 27.9706 25.5028 27.0314 25.8928L26.51 26.1157L27.4055 26.9674C29.077 28.5195 30.6013 30.8039 31.449 33.0406C31.7196 33.7411 31.9584 34.3261 32.0022 34.3261C32.034 34.3261 32.2728 34.1749 32.5235 33.9958L32.5275 33.9997ZM18.5145 32.8934C19.1433 31.0586 21.2447 27.9982 22.6934 26.8042C23.0675 26.5057 23.3819 26.1913 23.3819 26.1316C23.3819 26.0719 23.0237 25.9087 22.6058 25.7734C20.007 24.9814 17.2609 25.0252 14.7854 25.9087L13.7268 26.2988L13.8462 26.8798C14.3078 28.9255 15.5018 31.0308 17.1295 32.6705C17.639 33.1799 18.1006 33.5819 18.1603 33.5819C18.2359 33.5819 18.3832 33.2675 18.5185 32.8934H18.5145ZM25.9489 24.5039C29.3516 22.697 34.0399 22.116 37.4267 23.0711C37.6217 23.1308 37.6376 23.0273 37.562 22.4304C36.981 18.2953 34.1274 14.5781 30.3227 12.9982C23.2466 10.0411 15.2351 14.2836 13.7546 21.714C13.6512 22.2831 13.5596 22.7607 13.5756 22.7726C13.5915 22.7885 14.1128 22.7288 14.7257 22.6532C16.1744 22.4901 18.025 22.6094 19.8 23.0114C21.3243 23.3417 23.7241 24.2651 24.3808 24.7586C24.6196 24.9217 24.8146 25.073 24.8305 25.073C24.8624 25.073 25.3678 24.8183 25.9489 24.5039Z" fill="black"/>
<path d="M88.2651 54.8939C88.0263 54.8183 87.8472 54.6551 87.8472 54.5357C87.8472 54.281 88.0263 54.2651 88.2492 54.4919C88.3408 54.5835 88.7706 54.671 89.1885 54.671C90.068 54.6869 90.3824 54.4322 90.3824 53.7158C90.3824 53.3139 90.3665 53.3139 89.9804 53.5208C88.1736 54.4601 86.6215 52.1319 88.2054 50.8623C88.5955 50.532 89.6103 50.52 90.0561 50.8305C90.3545 51.0414 90.3864 51.0414 90.3864 50.8305C90.3864 50.6952 90.4899 50.5917 90.6093 50.5917C90.7883 50.5917 90.8321 50.8902 90.8321 52.3667C90.8321 53.3537 90.7883 54.2611 90.7406 54.3964C90.5177 54.9775 89.2044 55.2322 88.2611 54.8899L88.2651 54.8939ZM90.2511 52.8204C90.3267 52.6572 90.3864 52.2672 90.3545 51.9687C90.3108 51.507 90.2192 51.3717 89.7735 51.1489C88.8462 50.6991 87.9985 51.1926 87.9985 52.2075C87.9985 52.6692 88.4761 53.2064 88.9696 53.3139C89.4034 53.4054 90.076 53.1507 90.255 52.8204H90.2511Z" fill="black"/>
<path d="M70.8334 51.714C70.8334 49.2823 70.909 49.1629 71.6851 50.1897C71.9398 50.532 72.2821 50.9499 72.4333 51.117C72.5846 51.2802 72.9706 51.7737 73.3009 52.2075L73.8979 52.9995L73.9417 51.2842C73.9735 49.8793 74.0173 49.5529 74.1964 49.5529C74.3914 49.5529 74.4193 49.9111 74.4193 51.718C74.4193 53.4651 74.3755 53.883 74.2083 53.883C74.0889 53.883 73.4004 53.1069 72.6841 52.1677L71.3548 50.4365L71.311 52.1677C71.2792 53.5567 71.2354 53.883 71.0563 53.883C70.8613 53.883 70.8334 53.5248 70.8334 51.718V51.714Z" fill="black"/>
<path d="M76.5803 53.7437C75.7605 53.3855 75.4023 52.3388 75.8202 51.4593C76.1027 50.8623 76.5803 50.5917 77.3445 50.5917C78.017 50.5917 78.7493 51.2921 78.7493 51.9488V52.3826H77.4042C75.9396 52.3826 75.7605 52.502 76.4052 53.099C76.7952 53.4731 77.822 53.5487 78.1205 53.2502C78.2399 53.1308 78.3434 53.1149 78.4508 53.2184C78.8409 53.6084 77.2848 54.0382 76.5843 53.7397L76.5803 53.7437ZM78.2956 51.8175C78.2956 51.0414 76.9664 50.727 76.3535 51.3399C75.7724 51.921 75.9515 52.0881 77.1733 52.0881C78.1603 52.0881 78.2916 52.0563 78.2916 51.8175H78.2956Z" fill="black"/>
<path d="M79.8199 53.2064C80.0906 52.8323 80.3731 52.4304 80.4488 52.3269C80.5522 52.1757 80.4328 51.9249 80.0468 51.4473C79.4339 50.6991 79.3901 50.5957 79.7045 50.5957C79.808 50.5957 80.0945 50.8663 80.3174 51.1926C80.5403 51.523 80.7791 51.7896 80.8268 51.7896C80.8865 51.7896 81.1253 51.519 81.38 51.1926C81.6188 50.8623 81.9332 50.5957 82.0805 50.5957C82.2914 50.5957 82.2158 50.7588 81.7382 51.3558C81.4079 51.7737 81.1412 52.1637 81.1412 52.2075C81.1412 52.2672 81.2766 52.4781 81.4556 52.6851C82.2636 53.6999 82.367 53.879 82.1282 53.879C82.0088 53.879 81.6785 53.5805 81.4119 53.2064C81.1412 52.8482 80.8905 52.5498 80.8428 52.5498C80.799 52.5498 80.5443 52.8482 80.2736 53.2064C80.003 53.5805 79.6767 53.879 79.5573 53.879C79.3941 53.879 79.4657 53.6999 79.8279 53.2064H79.8199Z" fill="black"/>
<path d="M83.6087 53.5527C83.4455 53.3298 83.3699 52.8642 83.3699 52.1359C83.3699 51.1489 83.3381 51.0454 83.0714 51.0454C82.9083 51.0454 82.7729 50.9419 82.7729 50.8225C82.7729 50.7031 82.9083 50.5996 83.0714 50.5996C83.2943 50.5996 83.3699 50.4962 83.3699 50.2255C83.3699 49.9867 83.4615 49.8514 83.5928 49.8514C83.7281 49.8514 83.8157 49.9867 83.8157 50.2255C83.8157 50.5559 83.8754 50.5996 84.337 50.5996C84.6952 50.5996 84.8584 50.6753 84.8584 50.8225C84.8584 50.9737 84.6952 51.0454 84.337 51.0454H83.8157V52.1637C83.8157 53.3736 84.0107 53.6561 84.6833 53.477C85.0574 53.3855 85.133 53.6561 84.7748 53.7914C84.3131 53.9705 83.8356 53.883 83.6087 53.5527Z" fill="black"/>
<path d="M92.9812 53.7318C92.8021 53.6721 92.5196 53.4174 92.3246 53.1786C92.0539 52.8363 92.0102 52.6254 92.0699 52.0443C92.1614 51.0892 92.5196 50.731 93.4747 50.6394C94.0279 50.5798 94.2667 50.6235 94.5055 50.8504C94.9075 51.1926 95.1622 51.6861 95.1622 52.0762C95.1622 52.3747 95.0707 52.3906 93.817 52.3906C92.3524 52.3906 92.1614 52.5259 92.8021 53.1388C93.1763 53.481 94.2349 53.5567 94.5334 53.2582C94.6687 53.1229 94.7563 53.1229 94.8756 53.2423C94.995 53.3617 94.9194 53.4651 94.5931 53.6442C94.0837 53.8989 93.4747 53.9427 92.9812 53.7358V53.7318ZM94.7125 51.8811C94.7125 51.4195 94.1911 51.0135 93.5941 51.0135C93.1762 51.0135 92.9375 51.1051 92.7425 51.3439C92.233 51.9727 92.3683 52.0921 93.5941 52.0921C94.4458 52.0921 94.7125 52.0483 94.7125 51.8811Z" fill="black"/>
<path d="M96.2049 52.2393C96.2049 50.8822 96.2487 50.5957 96.4278 50.5957C96.5472 50.5957 96.6507 50.731 96.6507 50.8941V51.1926L96.9491 50.8941C97.4108 50.4325 98.4257 50.4922 98.9032 50.9857C99.2176 51.316 99.2614 51.5389 99.3211 52.6294C99.3649 53.7039 99.337 53.883 99.1261 53.883C98.9311 53.883 98.8873 53.7039 98.8873 52.8841C98.8873 51.6463 98.6645 51.1369 98.0794 51.0772C96.9889 50.9419 96.6467 51.4195 96.6467 53.0035C96.6467 53.692 96.6029 53.883 96.4238 53.883C96.2447 53.883 96.2009 53.6004 96.2009 52.2393H96.2049Z" fill="black"/>
<path d="M101.339 53.7318C100.428 53.3736 100.113 52.1199 100.71 51.2523C101.502 50.1021 103.249 50.4763 103.472 51.8334L103.564 52.3866H102.191C100.714 52.3866 100.535 52.506 101.176 53.1029C101.566 53.477 102.593 53.5527 102.891 53.2542C103.026 53.1189 103.114 53.1189 103.233 53.2383C103.353 53.3576 103.277 53.4611 102.951 53.6402C102.441 53.8949 101.832 53.9387 101.339 53.7318ZM103.07 51.8811C103.07 51.5667 102.577 51.0613 102.25 51.0294C101.653 50.9857 101.43 51.0454 101.132 51.3438C100.551 51.9249 100.73 52.0921 101.952 52.0921C102.803 52.0921 103.07 52.0483 103.07 51.8811Z" fill="black"/>
<path d="M104.714 52.2393C104.714 51.2404 104.774 50.5957 104.865 50.5957C104.957 50.5957 105.016 50.7469 105.016 50.926V51.2563L105.315 50.926C105.673 50.5519 106.361 50.4763 106.361 50.8225C106.361 50.9578 106.226 51.0454 106.019 51.0454C105.378 51.0454 105.168 51.4792 105.168 52.7328C105.168 53.6601 105.124 53.883 104.945 53.883C104.766 53.883 104.722 53.6004 104.722 52.2393H104.714Z" fill="black"/>
<path d="M107.325 53.5049C106.907 53.103 106.875 52.9517 107.102 52.5338C107.265 52.2194 108.101 51.9369 108.865 51.9369C109.358 51.9369 109.418 51.8453 109.255 51.4155C109.092 51.0135 108.507 50.8782 107.85 51.1011C107.297 51.2961 107.102 51.2802 107.102 51.0414C107.102 50.8464 107.862 50.5917 108.459 50.5917C108.893 50.5917 109.159 50.6951 109.414 50.9658C109.756 51.2961 109.788 51.4434 109.788 52.6095C109.788 53.6402 109.744 53.879 109.565 53.879C109.446 53.879 109.342 53.7755 109.342 53.6402C109.342 53.4293 109.311 53.4293 109.012 53.6402C108.503 53.9984 107.742 53.9387 107.325 53.5049ZM108.952 53.2661C109.163 53.103 109.342 52.8323 109.342 52.6692C109.342 52.4304 109.239 52.3866 108.522 52.3866C107.882 52.3866 107.687 52.4463 107.551 52.6692C107.149 53.4293 108.18 53.879 108.956 53.2661H108.952Z" fill="black"/>
<path d="M111.547 53.7158C111.324 53.5965 111.277 53.3417 111.277 52.311C111.277 51.1449 111.245 51.0414 110.978 51.0414C110.815 51.0414 110.68 50.9379 110.68 50.8185C110.68 50.6991 110.815 50.5957 110.978 50.5957C111.201 50.5957 111.277 50.4922 111.277 50.2216C111.277 49.9828 111.368 49.8475 111.499 49.8475C111.635 49.8475 111.722 49.9828 111.722 50.2216C111.722 50.536 111.798 50.5957 112.172 50.5957C112.47 50.5957 112.622 50.6713 112.622 50.8185C112.622 50.9698 112.47 51.0414 112.172 51.0414H111.722V52.2354C111.722 53.4611 111.782 53.5487 112.379 53.4452C112.455 53.4293 112.618 53.4611 112.753 53.5049C112.948 53.5805 112.964 53.6084 112.769 53.7278C112.47 53.9228 111.858 53.9069 111.543 53.7119L111.547 53.7158Z" fill="black"/>
<path d="M113.816 52.2393C113.816 50.8822 113.859 50.5957 114.039 50.5957C114.218 50.5957 114.261 50.8782 114.261 52.2393C114.261 53.5964 114.218 53.883 114.039 53.883C113.859 53.883 113.816 53.6004 113.816 52.2393Z" fill="black"/>
<path d="M116.279 53.7159C115.726 53.3855 115.459 52.9239 115.459 52.2393C115.459 51.2404 115.921 50.731 116.924 50.6275C117.656 50.5678 117.732 50.5957 118.221 51.0892C118.91 51.7777 118.938 52.5378 118.325 53.2701C117.995 53.6601 117.788 53.7795 117.25 53.8233C116.876 53.8671 116.442 53.8074 116.279 53.7198V53.7159ZM117.983 53.0433C118.775 52.0284 117.847 50.6554 116.653 51.0573C116.116 51.2523 115.905 51.5946 115.905 52.2951C115.905 52.9955 116.367 53.4293 117.115 53.4293C117.549 53.4293 117.744 53.3378 117.983 53.0393V53.0433Z" fill="black"/>
<path d="M119.785 52.2393C119.785 50.8822 119.829 50.5957 120.008 50.5957C120.128 50.5957 120.231 50.6991 120.231 50.8344C120.231 51.0454 120.263 51.0454 120.562 50.8344C120.952 50.5638 121.755 50.52 122.205 50.7588C122.655 50.9976 122.922 51.8055 122.922 52.9079C122.922 53.6243 122.878 53.879 122.711 53.879C122.559 53.879 122.488 53.5646 122.44 52.701C122.396 52.0443 122.289 51.4036 122.169 51.2842C121.974 51.0454 121.035 50.9538 120.737 51.1648C120.394 51.3876 120.227 51.9568 120.227 52.896C120.227 53.6721 120.183 53.883 120.004 53.883C119.825 53.883 119.781 53.6004 119.781 52.2393H119.785Z" fill="black"/>
<path d="M126.205 51.714V49.549H127.697C128.593 49.549 129.19 49.6087 129.19 49.7002C129.19 49.7917 128.668 49.8514 127.92 49.8514H126.651V50.7469V51.6423H127.769C128.41 51.6423 128.887 51.7021 128.887 51.7936C128.887 51.8851 128.41 51.9448 127.769 51.9448H126.651V52.9159C126.651 53.676 126.607 53.887 126.428 53.887C126.233 53.887 126.205 53.5447 126.205 51.7219V51.714Z" fill="black"/>
<path d="M130.726 53.7318C130.217 53.5208 130.085 53.1029 130.085 51.8055C130.085 50.8344 130.129 50.5957 130.308 50.5957C130.487 50.5957 130.531 50.8185 130.531 51.7299C130.531 53.1786 130.666 53.4333 131.426 53.4333C132.294 53.4333 132.62 52.9398 132.62 51.6264C132.62 50.8066 132.664 50.5957 132.843 50.5957C133.022 50.5957 133.066 50.8782 133.066 52.2393C133.066 53.5964 133.022 53.883 132.843 53.883C132.724 53.883 132.62 53.7795 132.62 53.6601C132.62 53.4492 132.577 53.4492 132.171 53.6601C131.693 53.9148 131.216 53.9308 130.722 53.7357L130.726 53.7318Z" fill="black"/>
<path d="M134.411 52.2393C134.411 50.8822 134.455 50.5957 134.634 50.5957C134.754 50.5957 134.857 50.731 134.857 50.8941V51.1926L135.156 50.8941C135.605 50.4444 136.632 50.4922 137.082 50.9538C137.364 51.2523 137.44 51.5349 137.5 52.5975C137.591 53.8352 137.575 53.883 137.261 53.883C136.962 53.883 136.946 53.8074 136.946 52.6453C136.946 51.2404 136.843 51.0494 136.051 51.0494C135.124 51.0494 134.945 51.3041 134.885 52.6771C134.841 53.5885 134.766 53.887 134.614 53.887C134.451 53.887 134.403 53.5447 134.403 52.2433L134.411 52.2393Z" fill="black"/>
<path d="M139.322 53.6562C138.546 53.2383 138.351 51.6543 139.008 50.9976C139.426 50.5957 140.56 50.4763 141.054 50.8026L141.428 51.0414V50.146C141.428 49.4455 141.472 49.2505 141.651 49.2505C141.846 49.2505 141.874 49.6087 141.874 51.5628C141.874 53.5169 141.842 53.875 141.651 53.875C141.531 53.875 141.428 53.7716 141.428 53.6522C141.428 53.4412 141.384 53.4412 140.978 53.6522C140.441 53.9347 139.828 53.9347 139.322 53.6522V53.6562ZM141.086 53.103C141.476 52.7448 141.547 51.8772 141.221 51.4593C140.759 50.8305 139.533 50.8623 139.191 51.4911C138.936 51.9528 139.012 52.7607 139.342 53.103C139.76 53.5527 140.628 53.5527 141.089 53.103H141.086Z" fill="black"/>
<path d="M113.816 49.5529C113.816 49.3301 113.891 49.2545 114.086 49.2823C114.222 49.3142 114.341 49.4335 114.341 49.5529C114.341 49.6723 114.222 49.7917 114.086 49.8236C113.891 49.8554 113.816 49.7798 113.816 49.5529Z" fill="black"/>
<path d="M77.6987 43.9414C75.5655 43.5513 74.3397 42.9424 72.9826 41.5813C72.0712 40.6699 71.8642 40.3555 71.4304 39.2531C71.0285 38.2064 70.9369 37.7169 70.8772 36.4155C70.8335 35.4882 70.8613 34.5052 70.9688 34.0117C71.7289 30.398 75.0282 28.0578 79.3861 28.0578C80.7751 28.0578 82.4904 28.4757 83.4615 29.0289C84.15 29.4309 85.0295 30.3582 85.3877 31.0308L85.6265 31.4924H84.8067C84.0465 31.4924 83.955 31.4606 83.76 31.0586C83.4615 30.5054 82.7889 29.9403 81.9093 29.5224C81.2964 29.2398 80.9701 29.1921 79.3423 29.1801H77.4758L76.4012 29.7612C74.0293 31.0308 72.7597 33.4943 72.9667 36.4195C73.2214 39.5994 75.0998 42.031 77.9215 42.7793C78.8329 43.034 80.6995 43.0499 81.7581 42.823C82.6695 42.628 84.0107 41.9873 84.6674 41.4341C85.2046 40.9843 85.4872 40.9406 85.7738 41.2828C85.9528 41.5057 85.9091 41.5972 85.3837 42.043C84.0107 43.2369 82.1282 43.8777 79.7881 43.9533C78.8488 43.9851 77.9056 43.9851 77.6987 43.9374V43.9414Z" fill="black"/>
<path d="M87.2344 43.4041C87.4135 42.9544 90.2033 36.3279 90.458 35.7469C90.5615 35.5081 90.8759 34.7917 91.1306 34.1788C91.3853 33.5659 91.7276 32.7899 91.8629 32.4635C92.0141 32.1332 92.4599 31.0746 92.8618 30.1194L93.5941 28.3563H94.1632C94.7921 28.3563 94.5533 27.9663 96.4477 32.0297C96.7183 32.6108 97.4188 34.1351 98.0157 35.3887C98.5968 36.6583 99.2535 38.0592 99.4644 38.5089C99.6753 38.9586 100.284 40.2998 100.853 41.4938L101.868 43.6588L100.881 43.7026C100.344 43.7344 99.8345 43.6867 99.7748 43.627C99.6992 43.5513 99.2057 42.5524 98.6684 41.4182L97.6973 39.3287L93.8449 39.285L89.9924 39.2531L89.0531 41.4938L88.098 43.7344H87.6045C87.1428 43.7344 87.111 43.7026 87.2304 43.4041H87.2344ZM97.1004 38.1348C97.1004 38.0751 96.9213 37.6731 94.7881 33.1043C94.219 31.8785 93.7135 30.8955 93.6698 30.8955C93.5782 30.8955 90.5336 37.9119 90.5336 38.103C90.5336 38.1627 92.0102 38.2064 93.817 38.2064C95.6238 38.2064 97.1004 38.1746 97.1004 38.1308V38.1348Z" fill="black"/>
<path d="M105.16 36.0294V28.3285L108.638 28.3882C111.953 28.4319 112.132 28.4479 112.801 28.7901C113.907 29.3592 114.504 29.9403 114.95 30.8517C115.519 32.0178 115.547 33.749 115.01 34.8514C114.548 35.8225 113.664 36.6583 112.638 37.1518C111.889 37.494 111.623 37.5418 110.011 37.5418C109.024 37.5418 107.997 37.498 107.742 37.4383L107.249 37.3348V40.5306V43.7384H106.202H105.156V36.0374L105.16 36.0294ZM110.803 36.507C111.682 36.1926 112.295 35.6991 112.745 34.923C113.087 34.342 113.147 34.0873 113.147 33.0565C113.147 31.7432 112.936 31.174 112.132 30.3263C111.432 29.594 110.341 29.2518 108.67 29.2518H107.253V32.8336V36.3996L107.746 36.5508C108.495 36.7617 110.134 36.7458 110.807 36.507H110.803Z" fill="black"/>
<path d="M119.638 36.0454V28.3603H120.609H121.58V36.0454V43.7304H120.609H119.638V36.0454Z" fill="black"/>
<path d="M131.426 36.6424V29.5543H128.517H125.608V28.9573V28.3603H132.473H139.338V28.9573V29.5543H136.429H133.52V36.6424V43.7304H132.473H131.426V36.6424Z" fill="black"/>
<path d="M137.89 43.627C137.981 43.4479 138.351 42.628 138.889 41.3425C139.159 40.7296 139.47 39.9695 139.605 39.6392C139.756 39.3247 140.875 36.6702 142.096 33.745L144.337 28.4319L144.966 28.3882C145.487 28.3444 145.595 28.3882 145.682 28.6707C145.742 28.8498 146.16 29.7771 146.61 30.7323C147.059 31.6874 147.624 32.8655 147.847 33.359C148.07 33.8525 148.743 35.2852 149.324 36.5548C149.921 37.8084 150.621 39.3327 150.892 39.9138C151.174 40.4948 151.668 41.5694 152.01 42.2857C152.34 43.018 152.623 43.6309 152.623 43.6747C152.623 43.7066 152.145 43.7344 151.564 43.7344H150.518L150.024 42.6599C149.742 42.0629 149.276 41.048 148.993 40.4192L148.456 39.2531H144.636H140.815L140.516 39.9695C140.353 40.3595 140.158 40.8053 140.083 40.9684C139.991 41.1316 139.708 41.8042 139.442 42.4609C138.948 43.627 138.92 43.6548 138.383 43.6986C138.069 43.7304 137.846 43.6986 137.89 43.623V43.627ZM147.457 37.1637C147.175 36.5826 146.948 36.0891 146.948 36.0454C146.948 36.0135 146.53 35.0902 146.009 33.9997C145.487 32.9093 144.934 31.7153 144.771 31.3571L144.456 30.7164L143.903 32.0297C143.589 32.762 143.215 33.6256 143.067 33.9559C142.693 34.8076 141.591 37.4184 141.424 37.8522L141.273 38.2104H144.616H147.959L147.449 37.1637H147.457Z" fill="black"/>
<path d="M156.054 36.0454V28.3603H157.025H157.996V35.4484V42.5365H161.952H165.908V43.1335V43.7304H160.981H156.054V36.0454Z" fill="black"/>
<path d="M87.4015 16.0308C84.731 13.3603 81.969 10.6421 81.2527 9.9695L79.9393 8.77555V14.6856V20.5957H79.418H78.8966V12.7594C78.8966 8.44523 78.9404 4.92307 78.9881 4.92307C79.0478 4.92307 81.8695 7.65323 85.2564 10.9844L91.4371 17.0456V11.1356V5.22554H91.9584H92.4798V13.0618C92.4798 17.376 92.436 20.8981 92.3763 20.8981C92.3007 20.8981 90.076 18.7052 87.4055 16.0308H87.4015Z" fill="black"/>
<path d="M102.951 20.7469C100.443 20.3887 98.1311 18.8207 97.1004 16.7472C96.2487 15.0438 95.9502 12.3574 96.4278 10.5227C97.1442 7.79254 99.4724 5.70312 102.441 5.134C106.115 4.43355 109.187 5.37279 110.62 7.6413C110.815 7.93979 110.978 8.23828 110.978 8.28205C110.978 8.32583 110.62 8.35767 110.17 8.35767C109.482 8.35767 109.334 8.31389 109.259 8.05918C109.108 7.5816 107.87 6.59461 107.018 6.28418C103.062 4.80766 99.0346 7.25526 98.4217 11.5376C97.8685 15.3582 100.006 18.8207 103.42 19.6286C105.78 20.1977 108.3 19.6604 110.047 18.2396L110.703 17.7182L111.018 18.0486L111.348 18.3789L110.751 18.9003C110.019 19.541 108.646 20.2295 107.484 20.528C106.35 20.8106 104.157 20.918 102.947 20.7509L102.951 20.7469Z" fill="black"/>
<path d="M131.621 20.731C129.858 20.4763 128.382 19.5649 127.638 18.2834C126.921 17.0894 126.802 15.8636 126.802 10.2839V5.22552H127.849H128.879L128.923 11.0918C128.967 17.571 128.967 17.5113 129.998 18.5261C130.865 19.3778 131.653 19.7519 132.847 19.8236C135.148 19.9748 136.819 19.135 137.758 17.3919C138.057 16.8108 138.073 16.5999 138.117 11.0202L138.16 5.22951H138.682H139.203L139.159 11.0202L139.116 16.7949L138.622 17.7938C137.444 20.2255 135.056 21.2284 131.621 20.7349V20.731Z" fill="black"/>
<path d="M146.068 20.731C144.978 20.5519 143.517 19.8196 142.861 19.147C142.399 18.6535 141.726 17.3123 141.726 16.8467C141.726 16.7551 142.057 16.7113 142.502 16.7432L143.278 16.787L143.398 17.3839C143.68 18.8008 144.994 19.6843 146.996 19.8037C149.069 19.939 150.729 19.3699 151.099 18.3869C151.994 16.0865 150.709 14.5344 146.876 13.2807C144.337 12.445 142.964 11.3983 142.546 9.95358C142.335 9.25313 142.323 8.95464 142.47 8.30991C142.904 6.24836 144.397 5.13003 146.904 4.95093C149.395 4.78776 151.604 5.77077 152.337 7.38261C152.754 8.27807 152.711 8.35369 151.887 8.35369C151.214 8.35369 151.154 8.32185 151.079 7.91988C150.944 7.30699 150.271 6.5747 149.495 6.21651C148.48 5.76679 146.526 5.78271 145.555 6.24835C144.508 6.75777 144.047 7.44231 144.047 8.47309C144.047 9.24916 144.078 9.32477 144.703 9.8899C145.435 10.5307 146.554 11.0998 148.209 11.653C150.896 12.5484 152.539 13.7424 153.001 15.0995C153.3 16.0109 153.224 17.4277 152.85 18.2356C151.911 20.2056 149.117 21.2364 146.06 20.727L146.068 20.731Z" fill="black"/>
<path d="M171.515 20.7469C169.291 20.3887 166.843 18.5659 165.8 16.4925C165.247 15.402 164.965 14.1642 164.965 12.835C164.965 9.83418 166.576 7.16371 169.219 5.83445C170.755 5.0743 171.802 4.86337 173.816 4.96684C175.698 5.05838 176.785 5.41656 178.249 6.4155C179.535 7.2831 180.55 8.53675 181.147 9.98144C181.537 10.9087 181.64 11.3863 181.7 12.5325C181.759 13.7862 181.716 14.0846 181.369 15.1154C180.219 18.5182 177.445 20.5917 173.744 20.8026C172.996 20.8464 172.013 20.8185 171.519 20.7429L171.515 20.7469ZM175.754 19.2982C177.604 18.4187 178.739 17.0297 179.32 14.9244C179.694 13.611 179.71 12.3733 179.411 11.06C178.902 8.95464 177.664 7.37464 175.754 6.44734C174.723 5.95384 174.528 5.91006 173.29 5.91006C171.543 5.91006 170.544 6.28417 169.35 7.4025C166.469 10.061 166.306 15.2826 169.008 18.0446C170.353 19.4176 171.515 19.8673 173.517 19.8076C174.576 19.7758 174.95 19.6883 175.758 19.2982H175.754Z" fill="black"/>
<path d="M197.75 19.7479C197.11 19.1191 194.348 16.4049 191.629 13.7026C188.899 11.0162 186.643 8.80738 186.583 8.80738C186.539 8.80738 186.491 11.4659 186.491 14.7015V20.5956H186.042H185.592V12.7315V4.86734L187.654 6.88114C188.772 7.99947 191.55 10.7177 193.802 12.9424L197.906 16.9859L197.949 11.1037L197.981 5.22154H198.503H199.024V13.0578C199.024 17.372 198.992 20.8941 198.98 20.8941C198.948 20.8941 198.399 20.3728 197.742 19.744L197.75 19.7479Z" fill="black"/>
<path d="M70.8334 12.9106V5.22552H71.8045H72.7756V12.9106V20.5956H71.8045H70.8334V12.9106Z" fill="black"/>
<path d="M114.413 12.9106V5.22552H115.459H116.506V12.3136V19.4017H120.462H124.418V19.9987V20.5956H119.419H114.421V12.9106H114.413Z" fill="black"/>
<path d="M158.29 12.9106V5.22552H159.261H160.232V12.9106V20.5956H159.261H158.29V12.9106Z" fill="black"/>
</svg>
