<svg width="156" height="55" viewBox="0 0 156 55" fill="none" xmlns="http://www.w3.org/2000/svg">
<path d="M110.143 35.8961C109.23 35.8961 108.442 36.2232 107.781 36.8813C107.129 37.5399 106.796 38.3175 106.796 39.218C106.796 40.5904 107.492 41.6584 108.875 42.4211C110.392 42.8353 111.611 42.5656 112.528 41.6268C113.193 40.9641 113.518 40.1696 113.518 39.2436C113.518 38.309 113.193 37.5275 112.528 36.8816C111.87 36.2297 111.08 35.905 110.141 35.905V35.8963H110.143V35.8961ZM56.3046 10.4286H53.8076C52.7288 10.4286 51.8501 11.2973 51.8501 12.3785V13.7719C49.1966 11.0085 46.1863 9.6256 42.8242 9.6256C38.9457 9.6256 35.7075 11.0698 33.1235 13.9502C30.5344 16.8304 29.2472 20.4329 29.2472 24.7532C29.2472 29.1478 30.5366 32.8247 33.1183 35.7642C35.7288 38.6462 39.02 40.0843 43.0069 40.0843C46.16 40.0843 49.1094 38.7971 51.8527 36.2291V38.9839C51.8527 40.322 52.9402 41.4095 54.2751 41.4095H58.5381V12.6613C58.5377 11.4313 57.5372 10.4286 56.3044 10.4286H56.3046ZM49.9926 31.5864C48.4701 33.2838 46.4817 34.1312 44.0113 34.1312C41.7014 34.1312 39.7857 33.2582 38.2692 31.4994C36.7898 29.7681 36.0507 27.5126 36.0507 24.7492C36.0507 22.1664 36.812 19.9914 38.328 18.2372C39.8657 16.4993 41.7804 15.6372 44.07 15.6372C46.4978 15.6372 48.4679 16.4954 49.9866 18.2202C51.5084 19.9746 52.2699 22.2005 52.2699 24.9026C52.2699 27.6061 51.5086 29.8345 49.9866 31.5908H49.9931V31.5864H49.9926ZM29.2429 15.295V12.4466C29.2429 11.3293 28.3424 10.433 27.2292 10.433H24.5966C23.4877 10.433 22.5851 11.3252 22.5851 12.4423V13.6827C20.1773 10.9809 17.1584 9.62581 13.5283 9.62581C9.38482 9.62581 6.04615 11.1912 3.52268 14.303C1.17365 17.2384 0 20.8111 0 25.0168C0 29.3351 1.26478 32.9417 3.7926 35.8197C6.29867 38.6681 9.51358 40.0806 13.441 40.0806C16.8902 40.0806 19.9405 38.7342 22.5849 36.03V40.0551C22.5849 46.0365 20.1488 49.0271 15.2768 49.0271C12.6315 49.0271 10.6222 48.1267 9.24149 46.3297C8.88914 45.8751 8.59681 45.31 8.3643 44.6284C8.03804 43.6746 7.13105 43.0417 6.12836 43.0417H3.60533C2.33294 43.0417 1.3868 44.2523 1.70827 45.4842C2.39862 48.1095 3.73148 50.2421 5.71533 51.8904C8.20182 53.9632 11.3708 55 15.2154 55C19.7726 55 23.3548 53.5003 25.9609 50.5055C27.3417 48.9465 28.2656 47.0816 28.7402 44.9107C28.8985 44.129 29.023 43.2094 29.11 42.1706C29.197 41.1383 29.2405 39.9403 29.2405 38.5768V34.3877C27.3765 31.703 26.439 28.4933 26.439 24.7532C26.439 21.0765 27.3743 17.9349 29.2405 15.2948H29.2426L29.2429 15.295ZM20.8081 31.3592C19.3291 33.2092 17.3193 34.131 14.7706 34.131C12.225 34.131 10.2326 33.2175 8.7893 31.3761C7.47036 29.7024 6.80959 27.5485 6.80959 24.9276C6.80959 22.2597 7.47014 20.089 8.7893 18.4156C10.2531 16.5439 12.2432 15.6076 14.7706 15.6076C17.1371 15.6076 19.0815 16.4654 20.5991 18.1796C22.0994 19.8556 22.8524 22.0946 22.8524 24.9004C22.8524 27.5235 22.1694 29.6729 20.8079 31.3552V31.3596L20.8081 31.3592ZM84.6011 10.4499V10.4286H70.7903V1.97058C70.7903 0.883062 69.9111 0.00369718 68.8214 0.00369718H66.1248C65.0269 0.00369718 64.1347 0.895895 64.1347 1.99603V10.4286H61.2897V16.6372H64.1308V41.4058H67.9284C69.5118 41.4058 70.7864 40.1313 70.7864 38.5468V16.6416H77.6151C78.1545 15.6115 78.8077 14.6619 79.5841 13.7932C80.999 12.2467 82.6727 11.1338 84.5972 10.4502H84.6015L84.6011 10.4499ZM118.582 0.00369718C117.401 0.00369718 116.385 0.430657 115.536 1.28262C114.69 2.12979 114.261 3.13879 114.261 4.30069C114.261 5.52653 114.686 6.55445 115.536 7.41055C116.385 8.25794 117.413 8.68076 118.616 8.68076C119.82 8.68076 120.835 8.25816 121.657 7.4062C122.507 6.55032 122.936 5.53502 122.936 4.32853C122.936 3.12661 122.511 2.10695 121.659 1.28283C120.805 0.42674 119.779 0 118.577 0L118.582 0.00391622V0.00369718ZM119.931 13.6955H117.515C116.277 13.6955 115.268 14.6939 115.268 15.9428V37.0814C115.778 37.6805 116.022 38.3878 116.022 39.2034C116.022 40.019 115.782 40.7329 115.268 41.3341V42.5238H119.554C120.867 42.5238 121.929 41.4574 121.929 40.1443V15.6839C121.929 14.5834 121.033 13.6916 119.928 13.6916L119.93 13.696L119.931 13.6955ZM151.228 17.7737C148.229 14.8383 144.578 13.3684 140.276 13.3684C135.994 13.3684 132.362 14.8257 129.384 17.7526C126.407 20.6667 124.915 24.2098 124.915 28.3728C124.915 32.7888 126.373 36.4655 129.295 39.3861C132.218 42.345 135.842 43.8232 140.157 43.8232C144.516 43.8232 148.195 42.3746 151.196 39.4731C154.168 36.5462 155.663 32.9332 155.663 28.611C155.663 24.3266 154.185 20.7156 151.228 17.7739V17.7737ZM146.517 35.3566C144.962 37.0369 142.88 37.8673 140.273 37.8673C137.685 37.8673 135.608 37.024 134.028 35.3225C132.49 33.649 131.717 31.3635 131.717 28.4875C131.717 25.807 132.511 23.615 134.087 21.92C135.667 20.2206 137.728 19.373 140.276 19.373C142.857 19.373 144.941 20.2206 146.517 21.92C148.076 23.5936 148.858 25.8324 148.858 28.6321C148.858 31.4401 148.072 33.6764 146.517 35.3523V35.361V35.3566H146.517Z" fill="black"/>
<path d="M87.0819 34.1926C85.7095 32.8034 84.943 30.9087 84.7666 28.5384H103.853C104.724 28.5384 105.442 27.8417 105.455 26.973C105.455 22.2088 104.231 18.5002 101.787 15.8151C99.3165 13.1115 95.956 11.7604 91.7206 11.7604C87.5237 11.7604 84.1465 13.1515 81.6019 15.9343C79.0754 18.759 77.8137 22.4441 77.8137 27.0045C77.8137 31.5988 79.1191 35.2905 81.7168 38.0711C83.5351 40.0058 85.7632 41.2568 88.4076 41.8389C89.5164 42.0999 90.6653 42.2382 91.8274 42.2213C96.5683 42.3191 100.693 42.4166 105.434 42.5144L105.443 41.8178C104.863 41.187 104.572 40.4247 104.572 39.541C104.572 38.6786 104.875 37.9373 105.468 37.2959L105.472 36.4526C101.734 36.3591 92.6687 36.2699 92.3077 36.2699C90.1835 36.2699 88.4376 35.5839 87.0826 34.1971V34.1928L87.0819 34.1926ZM86.1558 20.8792C86.5743 20.2245 87.0693 19.6725 87.6533 19.2094C88.2416 18.7379 88.8789 18.3894 89.5926 18.1432C90.3021 17.8968 91.0624 17.7735 91.8781 17.7735C95.4212 17.7735 97.6641 19.5453 98.5985 23.0967H85.2107C85.4296 22.268 85.7436 21.5291 86.156 20.8749V20.8792H86.1558Z" fill="black"/>
</svg>
