<svg width="150" height="60" viewBox="0 0 150 60" fill="none" xmlns="http://www.w3.org/2000/svg">
<path fill-rule="evenodd" clip-rule="evenodd" d="M69.5919 26.0864L81.5697 14.5833V41.0185H69.5923L69.5919 26.0864Z" fill="#595757"/>
<path fill-rule="evenodd" clip-rule="evenodd" d="M69.5919 26.5861L81.5697 15.0832V0.0409348H69.5923L69.5919 26.5861Z" fill="#C9CACA"/>
<path d="M93.6202 2.04889V38.929H56.7402V2.04889H93.6202ZM95.6691 0H54.6913V40.9779H95.6691V0Z" fill="black"/>
<path d="M10.6286 49.713H7.11329L7.11261 49.9879C7.38059 49.9879 7.58227 50.0186 7.71558 50.0808C7.84889 50.1431 7.95143 50.2285 8.02321 50.3372C8.095 50.4459 8.13123 50.5703 8.13123 50.7091C8.13123 50.9368 7.98288 51.2841 7.6855 51.7489L5.70841 54.8561L3.60416 51.6081C3.30267 51.1425 3.1509 50.8205 3.1509 50.6421C3.1509 50.424 3.24866 50.2606 3.44487 50.1519C3.64039 50.0426 3.85505 49.9879 4.08749 49.9879H4.31104V49.713H0V49.9879C0.188001 49.9879 0.331566 50.0125 0.430694 50.0624C0.797126 50.236 1.03913 50.3851 1.15535 50.5081C1.27157 50.6325 1.49376 50.9422 1.82054 51.4372L4.58587 55.6594V58.0446C4.58587 58.6106 4.53118 58.9716 4.42248 59.1302C4.24336 59.3879 3.94188 59.5171 3.51528 59.5171H3.15842V59.792H7.44007V59.5171H7.11261C6.70652 59.5171 6.40914 59.4125 6.22114 59.2047C6.08236 59.0509 6.01263 58.6646 6.01263 58.0446V55.5185L8.44366 51.6901C8.74104 51.2102 8.98988 50.8622 9.19361 50.6496C9.39734 50.437 9.62294 50.2729 9.87041 50.1588C10.1179 50.0446 10.3059 49.9879 10.4358 49.9879H10.6286V49.713Z" fill="black"/>
<path fill-rule="evenodd" clip-rule="evenodd" d="M20.2125 55.362C19.8659 55.0345 19.3429 54.7966 18.6442 54.6483C19.2438 54.4548 19.6964 54.1594 20.004 53.7602C20.311 53.3616 20.4648 52.9091 20.4648 52.4032C20.4696 51.8269 20.2604 51.2697 19.8775 50.839C19.4858 50.3851 18.9184 50.0692 18.1753 49.8908C17.6851 49.7725 17.0336 49.713 16.22 49.713H11.8646V49.9879H12.2447C12.6255 49.9879 12.9133 50.0966 13.1061 50.3153C13.2496 50.4787 13.3214 50.8725 13.3214 51.4967V58.0083C13.3214 58.573 13.2647 58.9422 13.1505 59.1158C12.9673 59.3825 12.6651 59.5171 12.244 59.5171H11.8646V59.792H16.6227C17.7576 59.792 18.6005 59.6867 19.1535 59.4761C19.7059 59.2656 20.1407 58.9306 20.4579 58.4725C20.7751 58.0145 20.9338 57.5346 20.9338 57.0342C20.9338 56.3751 20.6931 55.818 20.2125 55.362ZM16.4518 59.2642C15.8912 59.2642 15.3238 59.1972 14.7495 59.0639V54.9313C14.8828 54.906 15.0585 54.8889 15.2773 54.8793C15.4954 54.8691 15.7572 54.8636 16.0649 54.8636C16.7738 54.8636 17.3686 54.9675 17.8492 55.176C18.3291 55.3845 18.6764 55.6696 18.8897 56.0306C19.1023 56.3922 19.2096 56.7689 19.2096 57.1613C19.2096 57.7554 18.9731 58.2545 18.5027 58.6585C18.0324 59.0625 17.3481 59.2642 16.4518 59.2642ZM14.7495 54.2469C14.9327 54.2811 15.1419 54.3078 15.3778 54.3249C15.6137 54.342 15.8721 54.3508 16.1544 54.3508C16.8777 54.3508 17.4212 54.2729 17.7863 54.1164C18.15 53.9612 18.4289 53.7219 18.6224 53.3999C18.8151 53.0779 18.9122 52.7258 18.9122 52.3444C18.9122 51.7544 18.6716 51.2519 18.191 50.8356C17.7104 50.4192 17.009 50.2107 16.0874 50.2107C15.5918 50.2107 15.146 50.2654 14.7495 50.3748V54.2469Z" fill="black"/>
<path fill-rule="evenodd" clip-rule="evenodd" d="M31.5918 55.362C31.2452 55.0345 30.7222 54.7966 30.0235 54.6483C30.6231 54.4548 31.0756 54.1594 31.3833 53.7602C31.6902 53.3616 31.844 52.9091 31.844 52.4032C31.8489 51.8269 31.6396 51.2697 31.2568 50.839C30.8651 50.3851 30.2976 50.0692 29.5545 49.8908C29.0644 49.7725 28.4128 49.713 27.5993 49.713H23.2438V49.9879H23.6239C24.0047 49.9879 24.2925 50.0966 24.4853 50.3153C24.6289 50.4787 24.7007 50.8725 24.7007 51.4967V58.0083C24.7007 58.573 24.6439 58.9422 24.5298 59.1158C24.3465 59.3825 24.0444 59.5171 23.6233 59.5171H23.2438V59.792H28.002C29.1368 59.792 29.9798 59.6867 30.5328 59.4761C31.0852 59.2656 31.52 58.9306 31.8372 58.4725C32.1544 58.0145 32.313 57.5346 32.313 57.0342C32.313 56.3751 32.0724 55.818 31.5918 55.362ZM27.831 59.2642C27.2704 59.2642 26.703 59.1972 26.1288 59.0639V54.9313C26.2621 54.906 26.4378 54.8889 26.6565 54.8793C26.8746 54.8691 27.1364 54.8636 27.4441 54.8636C28.153 54.8636 28.7478 54.9675 29.2284 55.176C29.7083 55.3845 30.0556 55.6696 30.2689 56.0306C30.4815 56.3922 30.5888 56.7689 30.5888 57.1613C30.5888 57.7554 30.3523 58.2545 29.8819 58.6585C29.4116 59.0625 28.7273 59.2642 27.831 59.2642ZM26.1288 54.2469C26.312 54.2811 26.5212 54.3078 26.757 54.3249C26.9929 54.342 27.2513 54.3508 27.5336 54.3508C28.2569 54.3508 28.8004 54.2729 29.1655 54.1164C29.5292 53.9612 29.8081 53.7219 30.0016 53.3999C30.1944 53.0779 30.2914 52.7258 30.2914 52.3444C30.2914 51.7544 30.0508 51.2519 29.5702 50.8356C29.0896 50.4192 28.3882 50.2107 27.4666 50.2107C26.971 50.2107 26.5253 50.2654 26.1288 50.3748V54.2469Z" fill="black"/>
<path d="M39.5999 54.2251V50.2634H41.8231C42.3482 50.2634 42.7358 50.3126 42.986 50.411C43.2364 50.5109 43.4549 50.677 43.6177 50.8916C43.7886 51.1118 43.9383 51.4577 44.0675 51.928H44.3273L44.2309 49.713H36.7314V49.9886H37.0882C37.3277 49.9872 37.5632 50.0487 37.7719 50.1663C37.9257 50.2559 38.0269 50.3618 38.0768 50.4862C38.141 50.6496 38.1732 50.9867 38.1732 51.4967V58.0083C38.1732 58.6127 38.1137 58.9942 37.9948 59.1528C37.8061 59.3955 37.5046 59.5171 37.0882 59.5171H36.7314V59.792H41.0575V59.5165H40.6924C40.4552 59.5165 40.2275 59.4577 40.0088 59.3387C39.8502 59.2492 39.7462 59.1418 39.6963 59.0188C39.6328 58.8554 39.6006 58.5183 39.6006 58.0083V54.8417H41.4362C41.7732 54.8417 42.0275 54.8875 42.1985 54.9791C42.3694 55.0707 42.5034 55.2082 42.5991 55.3921C42.6962 55.5746 42.7467 55.8624 42.7522 56.2534H43.027V52.8421H42.7515C42.6873 53.3917 42.5574 53.7602 42.3619 53.9455C42.1656 54.1321 41.8573 54.2251 41.4362 54.2251H39.5999Z" fill="black"/>
<path fill-rule="evenodd" clip-rule="evenodd" d="M49.5189 52.7833C50.5491 52.7833 51.377 53.1736 52.0012 53.9571C52.5317 54.6257 52.7963 55.3941 52.7963 56.261C52.7963 56.8708 52.6506 57.4874 52.358 58.1123C52.0654 58.7364 51.6635 59.2075 51.15 59.5247C50.6355 59.8419 50.0414 60.0066 49.4368 59.9998C48.4114 59.9998 47.5965 59.591 46.9915 58.7733C46.4879 58.1054 46.2187 57.2905 46.2258 56.4544C46.2258 55.8303 46.381 55.2095 46.6907 54.5929C47.0003 53.9762 47.4085 53.5196 47.913 53.2249C48.3987 52.9357 48.9535 52.7826 49.5189 52.7826V52.7833ZM49.2885 53.2659C49.0253 53.2659 48.7621 53.3438 48.4969 53.4997C48.2316 53.6563 48.0176 53.9297 47.8542 54.3215C47.6902 54.7125 47.6081 55.2157 47.6081 55.8302C47.6081 56.8215 47.8057 57.6761 48.1995 58.3946C48.5932 59.1131 49.1121 59.472 49.7568 59.472C50.2374 59.472 50.6339 59.2738 50.9463 58.8772C51.2581 58.4814 51.4146 57.7998 51.4146 56.8338C51.4146 55.6245 51.1542 54.6735 50.6339 53.9789C50.2818 53.5038 49.8334 53.2659 49.2885 53.2659Z" fill="black"/>
<path d="M60.5296 57.1087V52.9836H58.2107V53.2591C58.6564 53.268 58.9497 53.3418 59.0912 53.4779C59.2327 53.6139 59.3032 53.8757 59.3032 54.262V58.1191C58.9319 58.4965 58.6106 58.7515 58.3413 58.8848C58.0706 59.0188 57.8285 59.0858 57.6166 59.0858C57.3042 59.0858 57.0376 58.9866 56.8168 58.7884C56.5959 58.5901 56.4866 58.1745 56.4866 57.5394V52.9836H54.1006V53.2584C54.4575 53.2536 54.7036 53.2844 54.8403 53.3514C54.97 53.4122 55.0774 53.512 55.148 53.6371C55.2177 53.7616 55.2519 53.9844 55.2519 54.3064V57.3466C55.2519 57.981 55.3066 58.4712 55.416 58.8178C55.518 59.1548 55.722 59.4522 55.9998 59.6689C56.2794 59.8897 56.6103 59.9998 56.9918 59.9998C57.3336 59.9998 57.6583 59.9178 57.9653 59.7544C58.2722 59.591 58.7186 59.1924 59.3032 58.558V59.9998H59.6375L61.674 59.1596L61.5701 58.8998C61.3773 58.9839 61.2037 59.0263 61.0505 59.0263C60.9412 59.0263 60.8448 58.9921 60.7634 58.9224C60.6821 58.8526 60.6226 58.7303 60.5857 58.5546C60.5481 58.3789 60.5296 57.8969 60.5296 57.1087Z" fill="black"/>
<path d="M67.1999 52.7826C66.4766 52.7826 65.7157 53.2632 64.9179 54.2251V52.7826H64.5986L62.547 53.6153L62.6584 53.8833C62.8519 53.8081 63.018 53.7718 63.1568 53.7718C63.2676 53.7657 63.3769 53.7999 63.4651 53.8675C63.5417 53.9325 63.5991 54.0542 63.636 54.2319C63.6736 54.4103 63.6914 54.9087 63.6914 55.7264V58.2531C63.6914 58.748 63.6313 59.0844 63.5096 59.2608C63.3886 59.4358 63.1541 59.5247 62.8075 59.5247H62.6584V59.792H66.0261V59.5247C65.6542 59.5247 65.4074 59.4912 65.2864 59.4242C65.1647 59.3565 65.0696 59.2519 64.9999 59.1076C64.9452 58.9989 64.9179 58.7139 64.9179 58.2531V54.6633C65.5031 54.0193 66.0903 53.6966 66.6803 53.6966C67.0611 53.6966 67.3325 53.8368 67.4938 54.1164C67.6545 54.3974 67.7352 54.8465 67.7352 55.4659V58.2531C67.7352 58.6448 67.7249 58.8773 67.7058 58.9525C67.6559 59.1405 67.5677 59.2827 67.4419 59.3797C67.3154 59.4768 67.0939 59.5247 66.7767 59.5247H66.6352V59.792H70.0021V59.5247C69.6753 59.5247 69.4511 59.4898 69.3301 59.4201C69.2084 59.351 69.1202 59.2539 69.0655 59.1302C68.9958 58.9771 68.9616 58.6845 68.9616 58.2531V55.3469C68.9616 54.733 68.9076 54.277 68.7982 53.979C68.6396 53.5531 68.4263 53.2475 68.159 53.0608C67.8917 52.8756 67.5718 52.7826 67.1999 52.7826Z" fill="black"/>
<path fill-rule="evenodd" clip-rule="evenodd" d="M76.1153 59.0263C75.783 59.3736 75.459 59.6224 75.1418 59.7735C74.8246 59.9246 74.4821 59.9991 74.1156 59.9991C73.3725 59.9991 72.723 59.6894 72.1679 59.0673C71.6128 58.4452 71.3359 57.646 71.3359 56.6704C71.3359 55.6949 71.6429 54.8007 72.2575 53.9906C72.8721 53.1805 73.6624 52.7751 74.6284 52.7751C75.2279 52.7751 75.7235 52.9665 76.1153 53.3473V52.0914C76.1153 51.3134 76.0968 50.8356 76.0592 50.6571C76.0216 50.4787 75.9635 50.357 75.8842 50.2928C75.7994 50.2264 75.6948 50.1923 75.5875 50.1964C75.4583 50.1964 75.2867 50.236 75.0748 50.3153L74.9777 50.0549L77.0074 49.2222H77.3417V57.0936C77.3417 57.8914 77.3595 58.3789 77.3964 58.5546C77.4347 58.7303 77.4935 58.8526 77.5755 58.9224C77.6548 58.9907 77.7567 59.0276 77.862 59.0263C77.9953 59.0263 78.1744 58.9839 78.3973 58.8998L78.4786 59.1596L76.4571 59.9998H76.1153V59.0263ZM76.1153 58.5067V54.9976C76.0893 54.6756 75.9984 54.3618 75.8473 54.076C75.714 53.8149 75.5089 53.5968 75.2566 53.4471C75.0112 53.307 74.7719 53.2359 74.5388 53.2359C74.1033 53.2359 73.7143 53.4314 73.3725 53.8238C72.9213 54.3393 72.6957 55.0919 72.6957 56.0825C72.6957 57.0841 72.9145 57.8504 73.3499 58.3837C73.7861 58.9162 74.2722 59.1828 74.8068 59.1828C75.258 59.1828 75.6941 58.9579 76.1153 58.5067Z" fill="black"/>
<path fill-rule="evenodd" clip-rule="evenodd" d="M83.5355 58.8109C82.8368 59.351 82.3986 59.6634 82.2202 59.7475C81.9529 59.8706 81.6678 59.9328 81.3656 59.9328C80.8946 59.9328 80.507 59.7721 80.2021 59.4502C79.8971 59.1275 79.7447 58.705 79.7447 58.1786C79.7447 57.847 79.8192 57.5592 79.9682 57.3165C80.1706 56.9802 80.524 56.6629 81.0265 56.3649C81.5304 56.0682 82.3665 55.7065 83.5355 55.2799V55.0126C83.5355 54.3338 83.4281 53.8675 83.2128 53.6153C82.9968 53.3623 82.683 53.2359 82.2721 53.2359C81.9604 53.2359 81.7122 53.3199 81.529 53.4888C81.3403 53.657 81.2467 53.8511 81.2467 54.0685L81.261 54.4992C81.261 54.7276 81.2029 54.9039 81.0867 55.027C81.0279 55.0885 80.9568 55.1377 80.8782 55.1699C80.7996 55.202 80.7141 55.217 80.6293 55.2136C80.5446 55.2164 80.4605 55.1999 80.3832 55.1665C80.3053 55.133 80.2355 55.0831 80.1795 55.0202C80.0633 54.8909 80.0052 54.7153 80.0052 54.4924C80.0052 54.0658 80.2232 53.6747 80.6587 53.3179C81.0949 52.961 81.7074 52.7826 82.495 52.7826C83.1 52.7826 83.5956 52.8845 83.9819 53.0868C84.2738 53.2413 84.4899 53.482 84.6286 53.8081C84.7175 54.022 84.7619 54.4575 84.7619 55.1165V57.4279C84.7619 58.0774 84.7742 58.4746 84.7995 58.6209C84.8242 58.7672 84.8652 58.8656 84.9219 58.9149C84.9793 58.9641 85.045 58.9887 85.1188 58.9887C85.1913 58.9901 85.263 58.9723 85.3266 58.9367C85.4312 58.8725 85.6322 58.692 85.9289 58.3946V58.8109C85.3745 59.5534 84.8433 59.9253 84.3381 59.9253C84.0961 59.9253 83.9019 59.8412 83.759 59.673C83.6155 59.5042 83.5403 59.217 83.5355 58.8109ZM83.5355 58.3276V55.7339C82.7876 56.0306 82.3049 56.2418 82.0862 56.3649C81.6951 56.5837 81.4148 56.8113 81.2467 57.0492C81.0785 57.2871 80.9937 57.5469 80.9937 57.8299C80.9937 58.1861 81.1004 58.4828 81.313 58.718C81.5263 58.9538 81.7717 59.0707 82.0493 59.0707C82.4253 59.0707 82.9216 58.8233 83.5355 58.3276Z" fill="black"/>
<path d="M89.1728 52.9836V50.746H88.9431C88.7394 51.2464 88.5808 51.591 88.4666 51.779C88.2438 52.1359 87.9901 52.4449 87.7051 52.7047C87.42 52.9644 87.1417 53.149 86.8683 53.2584V53.5038H87.9464V58.0822C87.9464 58.573 87.999 58.936 88.1029 59.1712C88.2007 59.3996 88.3696 59.5903 88.5856 59.714C88.8037 59.8398 89.0272 59.9034 89.2549 59.9034C89.5919 59.9034 89.9187 59.781 90.2359 59.5356C90.5531 59.2902 90.7979 58.9244 90.9715 58.439H90.6816C90.5982 58.6373 90.4786 58.7877 90.3248 58.8889C90.171 58.9901 90.013 59.0406 89.8496 59.0406C89.756 59.0427 89.6637 59.0229 89.5789 58.9832C89.4948 58.9436 89.4203 58.8841 89.3629 58.8109C89.2357 58.6571 89.1728 58.3597 89.1728 57.9188V53.5031H90.7637V52.9836H89.1728Z" fill="black"/>
<path d="M94.5346 58.2531V52.7833V52.7826H94.2078L92.1569 53.6153L92.2608 53.8832C92.4584 53.808 92.6273 53.7711 92.7661 53.7711C92.8953 53.7711 92.9957 53.8019 93.0703 53.8641C93.1448 53.9263 93.2002 54.0364 93.2343 54.195C93.2788 54.4124 93.3013 54.8909 93.3013 55.6293V58.2531C93.3013 58.6742 93.2678 58.9593 93.2008 59.1076C93.1475 59.2409 93.0525 59.3531 92.9301 59.4276C92.8159 59.4925 92.5924 59.5246 92.2608 59.5246V59.792H95.5683V59.5246C95.2456 59.5246 95.0241 59.4898 94.9031 59.4201C94.7821 59.3503 94.6898 59.245 94.6283 59.1042C94.5661 58.9627 94.5346 58.6797 94.5346 58.2531Z" fill="black"/>
<path d="M94.4492 49.4416C94.3029 49.296 94.1265 49.2222 93.918 49.2222C93.7047 49.2222 93.5242 49.2953 93.3786 49.4416C93.233 49.5879 93.1598 49.765 93.1598 49.9735C93.1585 50.0733 93.1776 50.1718 93.2159 50.2641C93.2548 50.3557 93.3116 50.4391 93.3834 50.5081C93.531 50.6571 93.7102 50.731 93.918 50.731C94.1265 50.731 94.3042 50.6571 94.4499 50.5081C94.5955 50.3591 94.6686 50.1813 94.6686 49.9735C94.6686 49.765 94.5955 49.5872 94.4492 49.4416Z" fill="black"/>
<path fill-rule="evenodd" clip-rule="evenodd" d="M100.37 52.7833C101.401 52.7833 102.228 53.1736 102.853 53.9571C103.383 54.6257 103.648 55.3941 103.648 56.261C103.648 56.8708 103.502 57.4874 103.209 58.1123C102.917 58.7364 102.515 59.2075 102.001 59.5247C101.487 59.8419 100.893 60.0066 100.288 59.9998C99.2628 59.9998 98.4479 59.591 97.8429 58.7733C97.3393 58.1054 97.0702 57.2905 97.0772 56.4544C97.0772 55.8303 97.2324 55.2095 97.5421 54.5929C97.8518 53.9762 98.2599 53.5196 98.7644 53.2249C99.2502 52.9357 99.8049 52.7826 100.37 52.7826V52.7833ZM100.14 53.2659C99.8767 53.2659 99.6135 53.3438 99.3483 53.4997C99.083 53.6563 98.869 53.9297 98.7056 54.3215C98.5416 54.7125 98.4595 55.2157 98.4595 55.8302C98.4595 56.8215 98.6571 57.6761 99.0509 58.3946C99.4447 59.1131 99.9635 59.472 100.608 59.472C101.089 59.472 101.485 59.2738 101.798 58.8772C102.109 58.4814 102.266 57.7998 102.266 56.8338C102.266 55.6245 102.006 54.6735 101.485 53.9789C101.133 53.5038 100.685 53.2659 100.14 53.2659Z" fill="black"/>
<path d="M109.815 52.7826C109.092 52.7826 108.331 53.2632 107.533 54.2251V52.7826H107.214L105.163 53.6153L105.274 53.8833C105.467 53.8081 105.634 53.7718 105.772 53.7718C105.883 53.7657 105.992 53.7999 106.081 53.8675C106.157 53.9325 106.214 54.0535 106.252 54.2319C106.289 54.4103 106.307 54.9087 106.307 55.7264V58.2531C106.307 58.748 106.246 59.0844 106.125 59.2608C106.004 59.4358 105.77 59.5247 105.423 59.5247H105.274V59.792H108.641V59.5247C108.27 59.5247 108.023 59.4912 107.901 59.4242C107.78 59.3565 107.685 59.2519 107.615 59.1076C107.561 58.9989 107.533 58.7139 107.533 58.2531V54.6633C108.118 54.0193 108.706 53.6966 109.295 53.6966C109.677 53.6966 109.948 53.8368 110.109 54.1164C110.27 54.3974 110.351 54.8465 110.351 55.4659V58.2531C110.351 58.6448 110.341 58.8773 110.321 58.9525C110.271 59.1405 110.183 59.2827 110.057 59.3797C109.931 59.4768 109.709 59.5247 109.392 59.5247H109.251V59.792H112.618V59.5247C112.291 59.5247 112.067 59.4891 111.945 59.4201C111.823 59.351 111.736 59.2539 111.681 59.1302C111.611 58.9771 111.577 58.6845 111.577 58.2531V55.3469C111.577 54.733 111.522 54.277 111.414 53.979C111.254 53.5531 111.041 53.2475 110.775 53.0608C110.507 52.8756 110.187 52.7826 109.815 52.7826Z" fill="black"/>
<path d="M125.462 57.0567L125.216 57.0048C124.958 57.6289 124.7 58.0863 124.443 58.3761C124.185 58.666 123.9 58.8684 123.588 58.9819C123.276 59.096 122.733 59.1528 121.96 59.1528H121.225C120.575 59.1528 120.188 59.1275 120.065 59.0782C119.941 59.029 119.85 58.9525 119.79 58.8485C119.71 58.6947 119.671 58.4124 119.671 58.0008V51.6676C119.671 51.068 119.71 50.6893 119.79 50.5307C119.87 50.3721 120.017 50.2401 120.232 50.1362C120.448 50.033 120.823 49.9831 121.359 49.9879V49.713H116.795V49.9879H117.174C117.555 49.9879 117.843 50.0966 118.035 50.3153C118.174 50.4733 118.244 50.8677 118.244 51.4967V58.0008C118.244 58.5758 118.192 58.9422 118.087 59.1001C117.905 59.3784 117.599 59.5171 117.173 59.5171H116.795V59.792H124.599L125.462 57.0567Z" fill="black"/>
<path d="M134.072 52.0421L133.96 49.6788H125.732L125.613 52.0421H125.895C125.93 51.5868 126.039 51.2252 126.223 50.9572C126.406 50.6892 126.627 50.5087 126.884 50.4144C127.083 50.3446 127.417 50.3105 127.887 50.3105H129.099V58.0103C129.099 58.5764 129.045 58.9373 128.936 59.0959C128.757 59.3537 128.455 59.4829 128.028 59.4829H127.672V59.7577H131.946V59.4829H131.596C131.205 59.4829 130.915 59.3783 130.727 59.1705C130.593 59.0166 130.526 58.6304 130.526 58.0103V50.3105H131.946C132.362 50.3105 132.697 50.3782 132.952 50.5142C133.208 50.6509 133.413 50.8628 133.566 51.15C133.661 51.3291 133.735 51.6265 133.789 52.0421H134.072Z" fill="black"/>
<path fill-rule="evenodd" clip-rule="evenodd" d="M135.472 59.792V59.5171H135.851C136.277 59.5171 136.579 59.3804 136.758 59.1076C136.867 58.9449 136.922 58.5778 136.922 58.0083V51.4967C136.922 50.8677 136.852 50.4733 136.713 50.3153C136.52 50.0966 136.233 49.9879 135.851 49.9879H135.472V49.713H139.575C141.081 49.713 142.227 49.884 143.012 50.2258C143.798 50.5676 144.43 51.1378 144.908 51.9349C145.386 52.732 145.626 53.6549 145.626 54.7002C145.626 56.103 145.199 57.2741 144.347 58.2155C143.39 59.2669 141.934 59.792 139.976 59.792H135.472ZM138.349 59.0639C138.978 59.2027 139.505 59.271 139.932 59.271C141.081 59.271 142.035 58.8677 142.794 58.0603C143.551 57.2522 143.93 56.1577 143.93 54.7747C143.93 53.3821 143.551 52.2849 142.794 51.4823C142.035 50.679 141.062 50.2777 139.872 50.2777C139.426 50.2777 138.918 50.3502 138.349 50.4938V59.0639Z" fill="black"/>
<path d="M149.457 58.5915C149.298 58.4308 149.101 58.3502 148.869 58.3502C148.641 58.3502 148.447 58.4295 148.285 58.5874C148.125 58.7467 148.045 58.9422 148.045 59.1753C148.042 59.284 148.063 59.3913 148.105 59.4918C148.146 59.5917 148.207 59.6826 148.285 59.7585C148.447 59.9198 148.641 59.9998 148.869 59.9998C149.097 59.9998 149.291 59.9191 149.452 59.7585C149.614 59.5978 149.694 59.403 149.694 59.1753C149.694 58.947 149.614 58.7528 149.457 58.5915Z" fill="black"/>
</svg>
