<svg width="211" height="50" viewBox="0 0 211 50" fill="none" xmlns="http://www.w3.org/2000/svg">
<path fill-rule="evenodd" clip-rule="evenodd" d="M172.89 39.0652C172.773 39.3442 172.599 39.5957 172.361 39.8001C172.123 40.0103 171.822 40.1754 171.46 40.2894C171.095 40.4112 170.665 40.4682 170.17 40.4682H167.287V35.9115H170.102C171.087 35.9115 171.828 36.1021 172.325 36.497C172.815 36.8881 173.066 37.4343 173.066 38.1378C173.066 38.4738 173.008 38.7823 172.89 39.0652ZM174.019 36.8704C173.851 36.4931 173.598 36.1689 173.26 35.8977C172.92 35.6364 172.499 35.4301 171.996 35.2788C171.496 35.1314 170.907 35.0548 170.238 35.0548H166.101V45.461H167.287V41.3111H170.344C170.999 41.3111 171.574 41.2266 172.067 41.0517C172.557 40.8769 172.972 40.643 173.298 40.3503C173.62 40.0693 173.869 39.7293 174.033 39.3442C174.191 38.9611 174.277 38.5543 174.277 38.1319C174.277 37.6662 174.189 37.2496 174.019 36.8704ZM146.946 45.3667C147.528 45.1997 148.029 44.9541 148.455 44.6259C148.886 44.2958 149.226 43.8773 149.475 43.3762C149.723 42.8732 149.845 42.2739 149.845 41.5882V35.0548H148.656V41.5489C148.656 42.099 148.553 42.5687 148.355 42.9675C148.157 43.3703 147.893 43.7024 147.564 43.9579C147.232 44.2192 146.859 44.4078 146.437 44.5316C146.012 44.6633 145.572 44.7203 145.121 44.7203C144.655 44.7203 144.22 44.6633 143.812 44.5414C143.403 44.4216 143.051 44.2369 142.746 43.9854C142.438 43.7398 142.202 43.4214 142.027 43.0324C141.851 42.6453 141.769 42.1796 141.769 41.6393V35.0548H140.568V41.7395C140.568 42.4134 140.69 42.9951 140.926 43.4843C141.158 43.9677 141.477 44.3666 141.883 44.6849C142.288 44.9953 142.764 45.2331 143.311 45.3844C143.866 45.5357 144.454 45.6123 145.087 45.6123C145.752 45.6123 146.371 45.5278 146.946 45.3667ZM123.388 42.0185C123.22 42.5746 122.962 43.054 122.611 43.4509C122.269 43.8478 121.824 44.1661 121.29 44.3843C120.749 44.6083 120.114 44.7203 119.371 44.7203C118.675 44.7203 118.06 44.6122 117.529 44.3941C117.001 44.1701 116.552 43.8596 116.188 43.4568C115.827 43.0579 115.553 42.5824 115.365 42.0283C115.18 41.4801 115.088 40.871 115.088 40.2088C115.088 39.5446 115.178 38.9414 115.359 38.3932C115.537 37.8469 115.805 37.3852 116.163 36.9981C116.524 36.6189 116.968 36.3182 117.505 36.108C118.038 35.8977 118.661 35.7936 119.371 35.7936C120.068 35.7936 120.681 35.8977 121.212 36.108C121.748 36.3182 122.191 36.6189 122.555 36.9981C122.914 37.3852 123.186 37.8469 123.368 38.3932C123.549 38.9414 123.637 39.5446 123.637 40.2088C123.637 40.8631 123.559 41.4683 123.388 42.0185ZM124.516 38.0218C124.274 37.3714 123.919 36.8154 123.452 36.3536C122.982 35.8938 122.409 35.5283 121.722 35.2788C121.04 35.0273 120.257 34.9015 119.371 34.9015C118.486 34.9015 117.697 35.0234 117.019 35.2729C116.336 35.5244 115.765 35.8801 115.298 36.3359C114.834 36.7977 114.479 37.3538 114.239 38.0081C113.997 38.6663 113.879 39.4012 113.879 40.2088C113.879 40.9908 113.993 41.7139 114.221 42.3741C114.449 43.0324 114.798 43.6061 115.258 44.0856C115.717 44.565 116.29 44.9403 116.974 45.2095C117.663 45.4748 118.46 45.6123 119.371 45.6123C120.231 45.6123 121.001 45.4787 121.684 45.2193C122.363 44.9619 122.94 44.5945 123.414 44.1249C123.885 43.6592 124.249 43.0894 124.5 42.4213C124.75 41.7532 124.874 41.0183 124.874 40.2088C124.874 39.4012 124.758 38.6761 124.516 38.0218ZM97.2061 38.8412C97.0939 39.1065 96.9197 39.3383 96.6934 39.5309C96.4592 39.7293 96.1628 39.8806 95.8003 39.9985C95.4359 40.1046 95.0074 40.1695 94.5087 40.1695H91.6052V35.9115H94.4527C94.9112 35.9115 95.3137 35.9508 95.6722 36.0412C96.0326 36.1296 96.337 36.2593 96.5933 36.4401C96.8516 36.6149 97.0459 36.833 97.182 37.0885C97.3162 37.3439 97.3823 37.6446 97.3823 37.9806C97.3823 38.2871 97.3262 38.5681 97.2061 38.8412ZM98.9863 45.461L95.5901 40.867C96.1227 40.7963 96.5773 40.6686 96.9558 40.4819C97.3362 40.3031 97.6486 40.0791 97.8869 39.8099C98.1272 39.5446 98.3014 39.2578 98.4216 38.9414C98.5317 38.6251 98.5898 38.2989 98.5898 37.9806C98.5898 37.5149 98.5017 37.1022 98.3194 36.7387C98.1312 36.3811 97.8669 36.0766 97.5185 35.8309C97.178 35.5794 96.7535 35.3908 96.2549 35.2591C95.7543 35.1255 95.1856 35.0548 94.5548 35.0548H90.4157V45.461H91.6052V41.0046H94.3966L97.5725 45.461H98.9863ZM71.238 45.4748C71.7046 45.3805 72.1371 45.2527 72.5216 45.0916C72.9181 44.9403 73.2665 44.7556 73.5809 44.5414C73.8933 44.3312 74.1656 44.1013 74.4039 43.8734V40.3876H69.7822V41.2207H73.2885V43.4647C73.1423 43.612 72.9581 43.7633 72.7338 43.9107C72.5116 44.0522 72.2472 44.1917 71.9469 44.3135C71.6485 44.4334 71.3141 44.5316 70.9456 44.6083C70.5772 44.6849 70.1707 44.7203 69.7261 44.7203C69.0373 44.7203 68.4285 44.6122 67.9099 44.3941C67.3852 44.1701 66.9527 43.8596 66.6083 43.4568C66.2619 43.0579 66.0075 42.5824 65.8293 42.0283C65.6551 41.4801 65.569 40.871 65.569 40.2088C65.569 39.5446 65.6491 38.9414 65.8053 38.3932C65.9655 37.8469 66.2098 37.3852 66.5422 36.9981C66.8746 36.6189 67.2951 36.3182 67.8118 36.108C68.3224 35.8977 68.9352 35.7936 69.646 35.7936C70.1226 35.7936 70.5431 35.8427 70.9076 35.937C71.274 36.0314 71.5944 36.1571 71.8728 36.3261C72.1451 36.4931 72.3834 36.6817 72.5797 36.8959C72.7719 37.1062 72.9381 37.3361 73.0723 37.5719L74.1516 37.2359C73.9894 36.945 73.7851 36.6542 73.5408 36.3713C73.2965 36.0942 72.9942 35.8427 72.6357 35.6286C72.2733 35.4045 71.8487 35.2336 71.3561 35.098C70.8715 34.9644 70.3008 34.9015 69.646 34.9015C68.7529 34.9015 67.976 35.0234 67.3192 35.2729C66.6643 35.5244 66.1117 35.8801 65.6711 36.3359C65.2306 36.7977 64.9022 37.3538 64.6819 38.0081C64.4676 38.6663 64.3575 39.4012 64.3575 40.2088C64.3575 40.9908 64.4676 41.7139 64.6819 42.3741C64.9022 43.0324 65.2306 43.6061 65.6751 44.0856C66.1197 44.565 66.6784 44.9403 67.3512 45.2095C68.026 45.4748 68.817 45.6123 69.7261 45.6123C70.2648 45.6123 70.7694 45.5632 71.238 45.4748ZM200.8 19.8443C200.478 19.8443 200.217 19.5673 200.217 19.2313V6.39638C200.217 6.05448 199.959 5.77939 199.635 5.77939H196.911C196.589 5.77939 196.329 6.05448 196.329 6.39638V22.6581C196.329 23 196.589 23.277 196.911 23.277H210.132C210.452 23.277 210.714 23 210.714 22.6581V20.4633C210.714 20.1214 210.452 19.8443 210.132 19.8443H200.8ZM184.928 9.91752C184.862 9.58741 184.54 9.31232 184.222 9.31232H181.14C180.821 9.31232 180.507 9.58741 180.449 9.91752L180.014 12.3128C179.95 12.6429 180.171 12.9121 180.489 12.9121H184.954C185.277 12.9121 185.485 12.6429 185.417 12.3128L184.928 9.91752ZM187.175 5.77939C187.494 5.77939 187.808 6.05055 187.882 6.38262L191.248 22.7799C191.316 23.112 191.112 23.3812 190.788 23.3812H188.257C187.938 23.3812 187.616 23.112 187.546 22.7799L186.318 17.0482C186.248 16.7221 185.928 16.4529 185.603 16.4529H179.856C179.54 16.4529 179.223 16.7221 179.159 17.0522L178.02 22.7799C177.956 23.112 177.637 23.3812 177.319 23.3812H174.784C174.461 23.3812 174.255 23.112 174.321 22.7799L177.579 6.38262C177.647 6.05055 177.962 5.77939 178.286 5.77939H187.175ZM156.237 8.49295C156.237 8.83288 156.495 9.10797 156.816 9.10797H161.69C162.01 9.10797 162.272 9.38699 162.272 9.72496V22.6581C162.272 23 162.535 23.277 162.855 23.277H165.368C165.689 23.277 165.951 23 165.951 22.6581V9.72496C165.951 9.38699 166.211 9.10797 166.536 9.10797H171.412C171.736 9.10797 171.996 8.83288 171.996 8.49295V6.39638C171.996 6.05448 171.736 5.77939 171.412 5.77939H156.816C156.495 5.77939 156.237 6.05448 156.237 6.39638V8.49295ZM147.58 22.6581C147.58 23 147.843 23.277 148.163 23.277H150.89C151.209 23.277 151.469 23 151.469 22.6581V6.39638C151.469 6.05448 151.209 5.77939 150.89 5.77939H148.163C147.843 5.77939 147.58 6.05448 147.58 6.39638V22.6581ZM130.575 9.21211C130.255 9.21211 129.993 9.4872 129.993 9.8291V12.8099C129.993 13.1498 130.255 13.4269 130.575 13.4269H137.288C137.608 13.4269 137.872 13.1498 137.872 12.8099V9.8291C137.872 9.4872 137.608 9.21211 137.288 9.21211H130.575ZM126.208 6.39638C126.208 6.05448 126.468 5.77939 126.791 5.77939H141.07C141.395 5.77939 141.657 6.05448 141.657 6.39638V16.2426C141.657 16.5786 141.395 16.8557 141.07 16.8557H130.575C130.255 16.8557 129.993 17.1327 129.993 17.4746V22.6581C129.993 23 129.73 23.277 129.41 23.277H126.791C126.468 23.277 126.208 23 126.208 22.6581V6.39638ZM113.524 12.6782C113.344 12.9612 113.054 12.9612 112.877 12.6743L108.913 6.29224C108.738 6.01518 108.334 5.77939 108.013 5.77939H104.974C104.653 5.77939 104.535 6.01125 104.715 6.29224L110.981 16.2682C111.157 16.5511 111.301 17.0581 111.301 17.398V22.6581C111.301 23 111.566 23.277 111.884 23.277H114.501C114.824 23.277 115.088 23 115.088 22.6581V17.2997C115.088 16.9637 115.234 16.4568 115.417 16.1758L121.788 6.29224C121.969 6.01125 121.859 5.77939 121.536 5.77939H118.486C118.168 5.77939 117.759 6.01125 117.577 6.29224L113.524 12.6782ZM88.0428 9.21211C87.7224 9.21211 87.458 9.4872 87.458 9.8291V12.299C87.458 12.6389 87.7224 12.9121 88.0428 12.9121H95.0694C95.3958 12.9121 95.6582 12.6389 95.6582 12.299V9.8291C95.6582 9.4872 95.3958 9.21211 95.0694 9.21211H88.0428ZM96.0767 16.3448C95.7543 16.3448 95.6522 16.5747 95.8404 16.8419L100.024 22.7838C100.216 23.0589 100.112 23.277 99.7893 23.277H96.4952C96.1728 23.277 95.7543 23.0589 95.564 22.7838L91.3789 16.8419C91.1906 16.5747 90.7721 16.3448 90.4497 16.3448H88.0428C87.7224 16.3448 87.458 16.6277 87.458 16.9637V22.6581C87.458 23 87.1977 23.277 86.8773 23.277H84.2561C83.9397 23.277 83.6774 23 83.6774 22.6581V6.39638C83.6774 6.05448 83.9397 5.77939 84.2561 5.77939H98.752C99.0684 5.77939 99.3387 6.05448 99.3387 6.39638V15.7317C99.3387 16.0677 99.0684 16.3448 98.752 16.3448H96.0767ZM78.3568 6.26276C78.557 6.00143 78.4549 5.77939 78.1365 5.77939H74.8144C74.494 5.77939 74.0675 5.99357 73.8672 6.26276L69.5079 12.0278C69.3096 12.2892 68.8771 12.5034 68.5607 12.5034H67.199C66.8806 12.5034 66.6163 12.2322 66.6163 11.8903V6.39638C66.6163 6.05448 66.356 5.77939 66.0356 5.77939H63.5205C63.2001 5.77939 62.9377 6.05448 62.9377 6.39638V22.6581C62.9377 23 63.2001 23.277 63.5205 23.277H66.0356C66.356 23.277 66.6163 23 66.6163 22.6581V16.5609C66.6163 16.219 66.8806 15.94 67.199 15.94H68.3504C68.6728 15.94 69.1014 16.1522 69.3056 16.4175L74.2898 22.8074C74.494 23.0609 74.9225 23.277 75.2429 23.277H78.565C78.8854 23.277 78.9836 23.0609 78.7873 22.7937L72.7419 14.7591C72.5396 14.4899 72.5396 14.0537 72.7378 13.7904L78.3568 6.26276ZM27.4819 27.4446C25.7618 25.2184 26.9933 23.2201 27.3758 22.6954L27.4819 22.5559L44.0224 1.15789C44.487 0.560553 44.2406 0.0673571 43.4757 0.0673571H32.348C31.583 0.0673571 30.5618 0.546798 30.0792 1.13038L18.7652 14.7257C18.2866 15.3093 17.2633 15.7848 16.5004 15.7848H1.38571C0.624772 15.7848 0 16.3939 0 17.1425V17.7831C0 18.5317 0.624772 19.1487 1.38571 19.1487H18.1284C18.8913 19.1487 19.9126 18.6713 20.3972 18.0916L31.7072 4.4963C32.1898 3.91271 33.215 3.4372 33.974 3.4372H36.5672C37.3301 3.4372 37.5784 3.92647 37.1178 4.5238L23.4269 22.2297C22.9684 22.829 21.9631 23.3124 21.1982 23.3124H1.38571C0.624772 23.3124 0 23.9274 0 24.6761V25.3206C0 26.0692 0.624772 26.6823 1.38571 26.6823H21.1982C21.9631 26.6823 22.9684 27.1715 23.4269 27.7669L37.1178 45.4748C37.5784 46.0682 37.3301 46.5575 36.5672 46.5575H33.974C33.215 46.5575 32.1898 46.0819 31.7072 45.5003L20.3972 31.9031C19.9126 31.3214 18.8913 30.8499 18.1284 30.8499H1.38571C0.624772 30.8499 0 31.4649 0 32.2135V32.8541C0 33.6027 0.624772 34.2158 1.38571 34.2158H16.5004C17.2633 34.2158 18.2866 34.6913 18.7652 35.2729L30.0792 48.8702C30.5618 49.4479 31.583 49.9234 32.348 49.9234H43.4757C44.2406 49.9234 44.487 49.4341 44.0224 48.8407L27.4819 27.4446ZM16.4744 39.7863C16.0098 39.189 15.0045 38.7056 14.2396 38.7056H1.38571C0.624772 38.7056 0 39.3167 0 40.0693V48.4045C0 49.1531 0.624772 49.7622 1.38571 49.7622H8.98109C9.74604 49.7622 10.3708 49.1531 10.3708 48.4045V47.7639C10.3708 47.0114 9.74604 46.3963 8.98109 46.3963H4.81795C4.05501 46.3963 3.43024 45.7872 3.43024 45.0346V43.4352C3.43024 42.6826 4.05501 42.0715 4.81795 42.0715H12.5455C13.3104 42.0715 14.3157 42.5549 14.7783 43.1562L19.7043 49.4675C20.1709 50.0629 21.044 50.1749 21.6507 49.7229L22.1694 49.328C22.7781 48.8741 22.8923 48.0154 22.4277 47.4181L16.4744 39.7863ZM0 9.92735V1.59803C0 0.843502 0.624772 0.234376 1.38571 0.234376H8.98109C9.74604 0.234376 10.3708 0.843502 10.3708 1.59803V2.2386C10.3708 2.98723 9.74604 3.60029 8.98109 3.60029H4.81795C4.05501 3.60029 3.43024 4.21531 3.43024 4.96395V6.56143C3.43024 7.31596 4.05501 7.92902 4.81795 7.92902H12.5455C13.3104 7.92902 14.3157 7.43975 14.7783 6.84438L19.7043 0.535009C20.1709 -0.060363 21.044 -0.178258 21.6507 0.279569L22.1694 0.664694C22.7781 1.12056 22.8923 1.98119 22.4277 2.57853L16.4744 10.2083C16.0098 10.8057 15.0045 11.289 14.2396 11.289H1.38571C0.624772 11.289 0 10.6819 0 9.92735Z" fill="black"/>
</svg>
