<svg xmlns="http://www.w3.org/2000/svg" viewBox="0 0 933.15 171.78"><g id="Layer_2" data-name="Layer 2"><g id="图层_1" data-name="图层 1"><path d="M159.81,36.32h49.45q15.24,0,23.6,1.71a35.32,35.32,0,0,1,13.87,5.75,21.83,21.83,0,0,1,7.74,10.09q2.25,6.06,2.25,17.36v9.48H224.66V75.46q0-10.48-4.5-14.32T202.88,57.3h-9.52v77.28H159.81Z"/><path d="M50.08,105.47a5.36,5.36,0,0,1-5.36-5.36V34.47a5.36,5.36,0,0,1,5.36-5.36h85.47V1.92H44a44,44,0,0,0-44,44V88.65a44,44,0,0,0,44,44h91.54V105.47Z"/><path d="M767.27,35.17h-56A33.85,33.85,0,0,0,677.37,69v32.86a33.84,33.84,0,0,0,33.85,33.85h56a33.85,33.85,0,0,0,33.85-33.85V69A33.86,33.86,0,0,0,767.27,35.17Zm-.55,75.53a4.12,4.12,0,0,1-4.12,4.12H715.89a4.13,4.13,0,0,1-4.13-4.12V60.21a4.12,4.12,0,0,1,4.13-4.12H762.6a4.11,4.11,0,0,1,4.12,4.12Z"/><path d="M888.43,103.18a5.36,5.36,0,0,1-5.36,5.36H815.74v27.19h73.4a44,44,0,0,0,44-44V0H888.43Z"/><path d="M355.61,36.05V108H322a5.36,5.36,0,0,1-5.36-5.36V36.05H271.91v55.1a44,44,0,0,0,44,44h39.69v4.07a5.36,5.36,0,0,1-5.36,5.36H272.52v27.19h83.8a44,44,0,0,0,44-44V36.05Z"/><path d="M516.84,36.32h-89V171.51h33.5V136.88h55.5A33.85,33.85,0,0,0,550.7,103V70.17A33.86,33.86,0,0,0,516.84,36.32ZM516.3,112a4,4,0,0,1-4,4H465.28a3.94,3.94,0,0,1-3.94-3.94V61.17a3.94,3.94,0,0,1,3.94-3.94h47.05a4,4,0,0,1,4,4Z"/><path d="M630.63,0H585.91V44.92a182,182,0,0,0,44.72-18.09Z"/><path d="M636,108.54a5.36,5.36,0,0,1-5.36-5.36V49.45c9.71-2.61,18.69-6,25.59-10.45V16.73S616.4,48.55,558.56,58.09c0,0,11.62,0,27.35-1.35v35a44,44,0,0,0,44,44h27.6V108.54Z"/></g></g></svg>