<svg xmlns="http://www.w3.org/2000/svg" viewBox="0 0 230.17 70.9"><title>zfullblack_1logohorizontal</title><g id="Layer_2" data-name="Layer 2"><g id="Layer_1-2" data-name="Layer 1"><polygon points="24.82 60.27 24.82 42.54 35.45 0 46.09 42.54 46.09 60.27 35.45 70.9 24.82 60.27"/><polygon points="43.6 18.89 70.9 35.45 50.49 55.86 53.18 39 43.6 18.89"/><polygon points="0 35.45 27.3 18.89 17.73 39 20.41 55.86 0 35.45"/><polygon points="33.68 0 29.25 12.41 0 28.36 33.68 0"/><polygon points="37.23 0 41.66 12.41 70.9 28.36 37.23 0"/><path d="M91.38,8.27a.7.7,0,0,1,.71-.7h11.06a8,8,0,0,1,8.06,8A8.11,8.11,0,0,1,105.74,23l5.06,9.4a.7.7,0,0,1-.63,1.07h-4.92a.69.69,0,0,1-.59-.33l-4.92-9.8H97.19v9.43a.72.72,0,0,1-.7.7h-4.4a.7.7,0,0,1-.71-.7Zm11.29,10.36a3,3,0,0,0,2.81-3,2.84,2.84,0,0,0-2.81-2.81H97.19v5.77Z"/><path d="M112.84,32.5,124.42,7.61A.76.76,0,0,1,125,7.2h.37a.76.76,0,0,1,.63.41L137.62,32.5a.65.65,0,0,1-.63,1h-4.1c-.67,0-1-.22-1.3-.92l-1.33-2.93H120.2l-1.33,3a1.37,1.37,0,0,1-1.33.89h-4.07A.65.65,0,0,1,112.84,32.5ZM128,24.58l-2.81-6.1h0l-2.77,6.1Z"/><path d="M140.65,8.27a.7.7,0,0,1,.71-.7h8.91a8.25,8.25,0,1,1,0,16.5h-3.89v8.69a.72.72,0,0,1-.7.7h-4.36a.7.7,0,0,1-.71-.7Zm9.29,10.4a2.91,2.91,0,0,0,2.92-2.93A2.82,2.82,0,0,0,149.94,13h-3.52v5.66Z"/><path d="M165.77,13h-5.29a.7.7,0,0,1-.7-.71v-4a.7.7,0,0,1,.7-.7H176.9a.7.7,0,0,1,.7.7v4a.7.7,0,0,1-.7.71h-5.29V32.76a.72.72,0,0,1-.7.7h-4.44a.72.72,0,0,1-.7-.7Z"/><path d="M192.55,7.2a13.32,13.32,0,1,1-13.28,13.35A13.29,13.29,0,0,1,192.55,7.2Zm0,20.71a7.4,7.4,0,1,0-7.36-7.36A7.41,7.41,0,0,0,192.55,27.91Z"/><path d="M210.34,8.27a.7.7,0,0,1,.7-.7H222.1a8,8,0,0,1,8.07,8c0,3.4-2.26,6.14-5.48,7.43l5.07,9.4a.7.7,0,0,1-.63,1.07h-4.92a.66.66,0,0,1-.59-.33l-4.92-9.8h-2.55v9.43a.73.73,0,0,1-.71.7H211a.7.7,0,0,1-.7-.7Zm11.28,10.36a3,3,0,0,0,2.81-3,2.83,2.83,0,0,0-2.81-2.81h-5.47v5.77Z"/><path d="M103.21,42.19a9.43,9.43,0,0,1,6.68,2.55.35.35,0,0,1,0,.49l-.44.47c-.16.17-.3.14-.46,0a8.63,8.63,0,1,0-5.8,15.06,8.75,8.75,0,0,0,5.8-2.31.35.35,0,0,1,.44-.06l.46.47a.32.32,0,0,1,0,.47,9.47,9.47,0,0,1-6.7,2.66,9.89,9.89,0,1,1,0-19.77Z"/><path d="M116.75,61.36l8.46-19.12a.38.38,0,0,1,.33-.19h.08a.36.36,0,0,1,.36.19l8.38,19.12c0,.16,0,.33-.25.33h-.71a.45.45,0,0,1-.39-.25l-2.22-5H120.3l-2.2,5a.45.45,0,0,1-.39.25h-.77C116.75,61.69,116.67,61.58,116.75,61.36Zm13.57-6-4.7-11.06h-.05l-4.78,11.06Z"/><path d="M142.57,42.82a.36.36,0,0,1,.36-.36h5.9a6.2,6.2,0,1,1,0,12.39h-5v6.48a.4.4,0,0,1-.44.36h-.49a.36.36,0,0,1-.36-.36Zm6.21,10.76a5,5,0,0,0,5-5,4.93,4.93,0,0,0-5-4.84h-4.89v9.83Z"/><path d="M164,42.82a.36.36,0,0,1,.36-.36h.6a.37.37,0,0,1,.36.36V61.33a.38.38,0,0,1-.39.36h-.57a.36.36,0,0,1-.36-.36Z"/><path d="M179.21,43.64H174c-.27,0-.36-.16-.36-.41v-.41a.35.35,0,0,1,.36-.36h11.81a.35.35,0,0,1,.36.36v.46a.35.35,0,0,1-.36.36H180.5V61.33a.4.4,0,0,1-.44.36h-.5a.36.36,0,0,1-.35-.36Z"/><path d="M190.55,61.36,199,42.24a.37.37,0,0,1,.33-.19h.08a.36.36,0,0,1,.36.19l8.38,19.12c.05.16.05.33-.25.33h-.72a.44.44,0,0,1-.38-.25l-2.22-5h-10.5l-2.19,5a.47.47,0,0,1-.39.25h-.77C190.55,61.69,190.47,61.58,190.55,61.36Zm13.57-6-4.7-11.06h0l-4.78,11.06Z"/><path d="M216.37,42.82a.36.36,0,0,1,.35-.36h.61a.37.37,0,0,1,.33.36V60.53h8.76c.33,0,.36.17.36.36v.49a.32.32,0,0,1-.36.31h-9.7a.36.36,0,0,1-.35-.36Z"/></g></g></svg>