<svg width="337" height="30" viewBox="0 0 337 30" fill="none" xmlns="http://www.w3.org/2000/svg">
<path d="M20.9216 29.6699H23.3563L12.6272 0.330122H10.729L0 29.6699H2.43466L5.65336 20.5502H17.7029L20.9216 29.6699ZM6.4787 18.2393L11.6781 3.4663L16.8776 18.2393H6.4787ZM41.5553 29.6699H43.8249V0.330122H41.5553V29.6699ZM64.5993 29.6699H66.9103V16.9188H76.1949L81.7662 29.6699H84.2832L78.5474 16.6713L81.4771 15.1032L83.458 12.2146L84.5308 8.21185L83.334 4.29161L80.3628 1.3205L76.5665 0.330122H64.5993V29.6699ZM66.9103 14.6905V2.55846H76.484L79.2076 3.34251L81.3121 5.44702L82.1373 8.37689L81.3531 11.1829L79.9087 13.2875L77.0616 14.6905H66.9103ZM109.486 30H114.521L118.978 28.3906L120.835 26.2036L121.825 24.0578V20.1788L120.504 17.1252L117.533 15.0619L108.331 12.5034L106.02 10.8528L105.278 9.57361L104.865 7.5516L105.649 4.86934L107.341 3.17744L110.312 2.22834H113.778L117.905 3.30124L119.885 4.49794L121.124 2.55846L118.978 1.23796L114.067 0H109.858L106.103 1.1967L103.545 3.87895L102.471 7.26273L103.091 10.4402L104.37 12.586L107.258 14.6493L116.089 17.0427L118.4 18.3632L119.514 20.674V23.6038L118.854 24.9656L117.616 26.4511L114.109 27.7716H110.188L106.227 26.6162L104.782 25.6259L103.751 24.6355L102.141 26.3274L103.38 27.5241L105.402 28.8446L109.486 30ZM140.376 29.6699H142.688V16.9188H153.623L157.254 15.0619L159.235 12.2146L160.308 8.21185L159.111 4.29161L156.14 1.3205L152.343 0.330122H140.376V29.6699ZM142.688 14.6905V2.55846H152.261L154.984 3.34251L157.089 5.44702L157.914 8.37689L157.13 11.1829L155.686 13.2875L152.839 14.6905H142.688ZM178.477 29.6699H196.386V27.4415H180.747V15.1444H191.558V12.9161H180.747V2.55846H196.386V0.330122H178.477V29.6699ZM214.834 29.6699H232.743V27.4415H217.104V15.1444H227.915V12.9161H217.104V2.55846H232.743V0.330122H214.834V29.6699ZM251.15 29.6699H261.673L266.13 27.8955L268.977 25.0069L270.793 21.4168L271.741 17.6616V12.3384L270.793 8.66575C270.214 7.42777 269.554 6.18984 268.977 4.99312L266.13 2.1458L261.673 0.330122H251.15V29.6699ZM253.42 27.4415V2.55846H261.301L264.891 4.08529L267.078 6.31362L268.688 9.40852L269.472 12.4209V17.5791L268.647 20.5915L267.037 23.7689L264.974 25.8735L261.219 27.4415H253.42ZM294.895 29.6699H299.352V0.330122H296.876L286.477 5.57085L288.458 9.57361L294.895 6.27236V29.6699ZM325.289 30H329.043L333.087 28.762L335.976 25.956L336.925 22.7786V18.8996L335.893 15.7222L333.789 13.7414L335.109 12.5447L336.306 9.57361V6.56122L335.233 3.34251L332.634 1.15543L328.755 0H325.619L321.74 1.15543L319.099 3.34251L318.067 6.56122V9.57361L319.222 12.5447L320.543 13.7001L318.438 15.7222L317.407 18.8996V22.696L318.356 25.956L321.244 28.762L325.289 30ZM325.495 11.6369L324.05 11.2242L322.936 10.0688L322.523 8.8721V7.1389L322.977 5.85971L323.968 5.03438L326.155 4.45668H328.177L330.364 5.03438L331.354 5.85971L331.808 7.1389V8.8721L331.437 10.0275L330.282 11.1829L328.92 11.6369H325.495ZM325.784 25.5433L323.679 24.8831L322.276 23.5213L321.905 21.9945V19.436L322.317 18.033L323.762 16.5887L325.289 16.011H329.043L330.612 16.5887L332.015 18.0743L332.469 19.4773V22.077L332.056 23.5213L330.694 24.8831L328.548 25.5433H325.784Z" fill="black"/>
</svg>
