<svg width="40" height="40" viewBox="0 0 40 40" fill="none" xmlns="http://www.w3.org/2000/svg">
<path d="M20 40C31.0457 40 40 31.0457 40 20C40 8.9543 31.0457 0 20 0C8.9543 0 0 8.9543 0 20C0 31.0457 8.9543 40 20 40Z" fill="url(#paint0_linear_810_10978)"/>
<path d="M19.9999 36.3693C29.1457 36.3693 36.5598 28.9552 36.5598 19.8094C36.5598 10.6636 29.1457 3.24944 19.9999 3.24944C10.8541 3.24944 3.43994 10.6636 3.43994 19.8094C3.43994 28.9552 10.8541 36.3693 19.9999 36.3693Z" fill="url(#paint1_linear_810_10978)"/>
<path d="M18.7866 9.60499C18.7004 9.33679 18.7057 9.04767 18.8012 8.7827C18.8012 8.7827 18.8012 8.78839 18.8012 8.79164L11.9647 28.2846C11.9016 28.4454 11.8716 28.6173 11.8765 28.79C11.8814 28.9627 11.9211 29.1327 11.9932 29.2898C12.0653 29.4466 12.1683 29.5875 12.2962 29.7038C12.424 29.8201 12.5739 29.9095 12.737 29.9663C12.9002 30.0234 13.0731 30.0468 13.2455 30.0354C13.4179 30.024 13.5863 29.9779 13.7405 29.8999C13.8947 29.822 14.0315 29.7138 14.1429 29.5816C14.2543 29.4496 14.3379 29.2964 14.3887 29.1312L20.0103 13.094L18.7979 9.64074C18.7939 9.63019 18.7898 9.61718 18.7866 9.60499Z" fill="url(#paint2_linear_810_10978)"/>
<path d="M28.0596 28.2827L21.2231 8.79063C21.2191 8.77843 21.2142 8.76707 21.2101 8.75487C21.0919 8.44094 20.8555 8.18574 20.5516 8.04389C20.2475 7.90203 19.9 7.88481 19.5835 7.99586C19.2669 8.10693 19.0064 8.33749 18.8576 8.63817C18.709 8.93888 18.6838 9.28583 18.7877 9.6048C18.7877 9.61698 18.795 9.62836 18.7991 9.64054L25.6357 29.131C25.7532 29.4463 25.9896 29.7028 26.2943 29.8454C26.599 29.9882 26.9474 30.0058 27.2648 29.8944C27.5823 29.783 27.8435 29.5515 27.9919 29.2497C28.1406 28.9478 28.165 28.5999 28.0596 28.2803V28.2827Z" fill="url(#paint3_linear_810_10978)"/>
<path d="M20.677 20.0003H19.6051C19.4646 20.0003 19.3253 20.0279 19.1952 20.0818C19.0653 20.1356 18.9473 20.2145 18.8479 20.3139C18.7484 20.4134 18.6695 20.5314 18.6156 20.6614C18.5619 20.7913 18.5342 20.9306 18.5342 21.0713C18.537 21.3544 18.6508 21.6253 18.8511 21.8258C19.0512 22.0262 19.3218 22.1403 19.6051 22.1438C19.9708 22.1546 20.3281 22.1546 20.677 22.1438C21.2799 22.121 21.7472 21.6635 21.7472 21.0728C21.7475 20.9321 21.7199 20.7927 21.6662 20.6626C21.6125 20.5325 21.5337 20.4143 21.4344 20.3148C21.3351 20.2152 21.217 20.1361 21.0869 20.0822C20.957 20.0282 20.8177 20.0003 20.677 20.0003Z" fill="#7A559F"/>
<path fill-rule="evenodd" clip-rule="evenodd" d="M19.9997 3.4155C10.8822 3.4155 3.49097 10.8067 3.49097 19.9243C3.49097 29.0418 10.8822 36.433 19.9997 36.433C29.1173 36.433 36.5085 29.0418 36.5085 19.9243C36.5085 10.8067 29.1173 3.4155 19.9997 3.4155ZM1.74805 19.9243C1.74805 9.84414 9.91961 1.67258 19.9997 1.67258C30.0799 1.67258 38.2514 9.84414 38.2514 19.9243C38.2514 30.0044 30.0799 38.176 19.9997 38.176C9.91961 38.176 1.74805 30.0044 1.74805 19.9243Z" fill="#5D4286"/>
<path d="M30.5406 34.3011L30.4548 34.171C30.4277 34.1809 30.4011 34.1888 30.3748 34.195C30.3492 34.2008 30.329 34.203 30.3139 34.2018L30.2775 34.0891C30.3049 34.0863 30.3391 34.0788 30.38 34.0671C30.4207 34.0554 30.4567 34.0392 30.4877 34.0186C30.5349 33.9874 30.5652 33.9559 30.5784 33.9237C30.5925 33.8912 30.5901 33.861 30.5714 33.8328C30.5584 33.813 30.5399 33.8003 30.5161 33.7949C30.4917 33.7887 30.4627 33.787 30.4293 33.79C30.3952 33.792 30.3581 33.7958 30.318 33.8011C30.267 33.8065 30.2195 33.809 30.1757 33.8085C30.132 33.8069 30.0929 33.799 30.058 33.7844C30.0227 33.7694 29.9929 33.7434 29.9687 33.7068C29.943 33.668 29.9311 33.6263 29.933 33.5815C29.9355 33.5363 29.953 33.4923 29.9856 33.4495L29.9053 33.3279L29.9783 33.2614L30.0558 33.3788C30.0607 33.3755 30.0656 33.3723 30.0707 33.369C30.0751 33.365 30.0797 33.3614 30.0848 33.3582C30.0903 33.3544 30.0962 33.3511 30.1024 33.3481C30.1079 33.3443 30.1135 33.3411 30.1189 33.3386L30.049 33.2329L30.1242 33.1649L30.2136 33.3004C30.2312 33.2948 30.2486 33.2904 30.2657 33.2872C30.2835 33.2836 30.3 33.2807 30.315 33.279L30.337 33.3996C30.3112 33.4035 30.2832 33.4094 30.2529 33.4171C30.2228 33.4238 30.1913 33.4382 30.1582 33.4601C30.1228 33.4834 30.0979 33.51 30.0832 33.5399C30.0682 33.5691 30.0699 33.5978 30.0886 33.626C30.1025 33.6472 30.1214 33.6612 30.145 33.6678C30.1681 33.6737 30.1963 33.6759 30.2296 33.6742C30.2624 33.6716 30.3008 33.6677 30.3446 33.662C30.3939 33.6567 30.4402 33.654 30.4836 33.6537C30.527 33.6534 30.5665 33.6602 30.602 33.6743C30.6376 33.6883 30.6679 33.7142 30.6931 33.7523C30.7192 33.7919 30.7311 33.8345 30.729 33.8805C30.7265 33.9256 30.7092 33.97 30.6772 34.0135L30.768 34.1509L30.6855 34.2054L30.6066 34.086C30.5997 34.0925 30.5921 34.0985 30.5836 34.1042C30.5757 34.1104 30.5671 34.1165 30.5579 34.1227L30.5452 34.1311L30.6221 34.2474L30.5406 34.3011Z" fill="white"/>
<path d="M30.9336 32.761L31.0291 32.6797L31.8345 33.1151L31.7404 33.2216L31.5279 33.1026L31.27 33.3218L31.3475 33.5403L31.2402 33.6314L30.9336 32.761ZM31.4205 33.0426L31.1044 32.8703L31.2262 33.2075L31.4205 33.0426Z" fill="white"/>
<path d="M32.3867 32.463L32.4781 32.53L32.0817 32.9058L31.4888 32.2801L31.5918 32.1825L32.108 32.7271L32.3867 32.463Z" fill="white"/>
<path d="M32.4948 31.2978L32.592 31.3591L32.3906 31.575L32.9383 32.086L32.8398 32.1917L32.292 31.6807L32.107 31.8789L32.0244 31.8021L32.4948 31.2978Z" fill="white"/>
<path d="M33.7577 31.1832L33.384 31.6193L32.7295 31.0585L33.0543 30.6792L33.1522 30.7364L32.9065 31.0232L33.1018 31.1907L33.2883 30.9731L33.387 31.0294L33.1866 31.2632L33.3916 31.4389L33.6589 31.127L33.7577 31.1832Z" fill="white"/>
<path d="M33.3223 30.355L33.4729 30.1465C33.5091 30.0964 33.5496 30.0563 33.5943 30.0262C33.6384 29.9955 33.685 29.9795 33.7338 29.9784C33.7819 29.9766 33.8302 29.9934 33.8789 30.0286C33.9234 30.0608 33.9532 30.0996 33.9684 30.1449C33.9828 30.1897 33.9854 30.2354 33.9759 30.2816L34.4054 30.3279L34.3156 30.4523L33.9313 30.406C33.9261 30.4147 33.9195 30.4253 33.9112 30.4382C33.9022 30.4505 33.8943 30.4615 33.8874 30.4711L33.8317 30.5481L34.1039 30.7449L34.0207 30.86L33.3223 30.355ZM33.568 30.2183L33.5019 30.3097L33.7372 30.4798L33.8017 30.3905C33.8329 30.3474 33.8507 30.3048 33.8548 30.2629C33.8583 30.2206 33.8388 30.1842 33.7963 30.1534C33.7526 30.1218 33.7119 30.1132 33.6742 30.1278C33.6366 30.1422 33.6013 30.1725 33.568 30.2183Z" fill="white"/>
<path d="M10.7019 4.57233L10.7778 4.70847C10.8055 4.70079 10.8326 4.69483 10.8593 4.6906C10.8852 4.68677 10.9056 4.68604 10.9205 4.68838L10.9484 4.80345C10.9208 4.80432 10.8862 4.8091 10.8446 4.8178C10.803 4.8265 10.766 4.8399 10.7335 4.85803C10.6841 4.88562 10.6516 4.9149 10.636 4.94587C10.6196 4.97726 10.6197 5.00772 10.6361 5.03722C10.6476 5.05788 10.6651 5.07185 10.6885 5.07911C10.7123 5.08711 10.7411 5.09092 10.7747 5.09052C10.8088 5.09087 10.846 5.08993 10.8864 5.08772C10.9378 5.08615 10.9853 5.08721 11.029 5.0909C11.0723 5.09573 11.1108 5.10667 11.1445 5.12367C11.1786 5.14141 11.2064 5.16947 11.2278 5.20785C11.2504 5.24843 11.2592 5.29097 11.254 5.33548C11.2481 5.38038 11.2273 5.42294 11.1917 5.46314L11.2627 5.59044L11.1849 5.65128L11.1164 5.52842C11.1112 5.5313 11.106 5.53419 11.1009 5.53706C11.0961 5.54068 11.0911 5.54393 11.086 5.54682C11.0801 5.55011 11.074 5.55304 11.0677 5.55559C11.0618 5.55889 11.056 5.56162 11.0504 5.56375L11.1122 5.67445L11.0322 5.73653L10.9531 5.59484C10.9351 5.59906 10.9175 5.60213 10.9002 5.60405C10.8821 5.60639 10.8656 5.6079 10.8504 5.60858L10.8375 5.48659C10.8636 5.48466 10.8919 5.4809 10.9227 5.47536C10.9532 5.47094 10.9857 5.45907 11.0204 5.43971C11.0573 5.41912 11.0842 5.39444 11.101 5.36568C11.1183 5.33767 11.1187 5.30889 11.1022 5.27937C11.0899 5.25724 11.0721 5.24196 11.0491 5.23355C11.0264 5.22588 10.9984 5.22167 10.9651 5.22091C10.9322 5.22089 10.8936 5.22206 10.8495 5.22446C10.8 5.22594 10.7536 5.22522 10.7103 5.22225C10.6671 5.21931 10.6282 5.20953 10.5938 5.19292C10.5594 5.17633 10.5311 5.14812 10.5088 5.10827C10.4858 5.06694 10.477 5.02345 10.4825 4.9778C10.4884 4.9329 10.5089 4.88997 10.5442 4.84903L10.4639 4.70513L10.5502 4.65696L10.62 4.78204C10.6273 4.77603 10.6354 4.77055 10.6442 4.76561C10.6527 4.75994 10.6617 4.75442 10.6713 4.74907L10.6846 4.74165L10.6166 4.61988L10.7019 4.57233Z" fill="white"/>
<path d="M10.1947 6.07871L10.0933 6.15255L9.32275 5.65823L9.42457 5.55904L9.62751 5.69354L9.90115 5.49439L9.84023 5.27065L9.95398 5.18786L10.1947 6.07871ZM9.73023 5.76145L10.0324 5.95696L9.93623 5.61153L9.73023 5.76145Z" fill="white"/>
<path d="M8.7234 6.26732L8.63721 6.19365L9.06074 5.84856L9.60521 6.51678L9.49515 6.60644L9.02114 6.0247L8.7234 6.26732Z" fill="white"/>
<path d="M8.52837 7.42118L8.43602 7.35288L8.65306 7.15259L8.14502 6.60205L8.25121 6.50405L8.75926 7.05459L8.95861 6.87062L9.03511 6.95353L8.52837 7.42118Z" fill="white"/>
<path d="M7.26025 7.44098L7.6654 7.03407L8.2762 7.64226L7.92382 7.99616L7.83046 7.93183L8.09698 7.66415L7.91464 7.48259L7.71251 7.68559L7.61827 7.62217L7.83561 7.40389L7.64428 7.21339L7.3545 7.50441L7.26025 7.44098Z" fill="white"/>
<path d="M7.63299 8.29944L7.46707 8.49612C7.42728 8.54326 7.38393 8.58022 7.33703 8.60699C7.29078 8.6343 7.24324 8.64672 7.19447 8.64425C7.14634 8.64233 7.09933 8.62204 7.05347 8.58334C7.0115 8.54793 6.98464 8.50702 6.97292 8.46064C6.96183 8.4148 6.96276 8.36916 6.97569 8.32368L6.55078 8.24546L6.64968 8.12824L7.02934 8.20309C7.03523 8.1948 7.04276 8.18457 7.05192 8.1724C7.06173 8.16077 7.07046 8.15044 7.07808 8.14139L7.13938 8.06872L6.88265 7.85211L6.9742 7.74361L7.63299 8.29944ZM7.37762 8.41734L7.45038 8.33111L7.22852 8.14394L7.1574 8.22822C7.12308 8.26891 7.10226 8.30996 7.09498 8.35135C7.08835 8.39329 7.10505 8.43116 7.14509 8.46494C7.18642 8.49981 7.22638 8.51143 7.26497 8.49975C7.30356 8.48809 7.34112 8.46061 7.37762 8.41734Z" fill="white"/>
<path d="M35.4517 10.754L35.3151 10.8294C35.3227 10.8571 35.3286 10.8842 35.3327 10.9109C35.3365 10.9369 35.3371 10.9573 35.3347 10.9721L35.2195 10.9996C35.2188 10.972 35.2142 10.9374 35.2056 10.8958C35.197 10.8541 35.1837 10.8171 35.1658 10.7845C35.1384 10.735 35.1093 10.7023 35.0784 10.6866C35.047 10.6701 35.0166 10.67 34.9869 10.6864C34.9662 10.6978 34.9522 10.7153 34.945 10.7386C34.9367 10.7624 34.9329 10.7911 34.9331 10.8248C34.9326 10.8589 34.9334 10.8961 34.9354 10.9365C34.9369 10.9879 34.9356 11.0354 34.9318 11.079C34.9267 11.1224 34.9156 11.1608 34.8985 11.1945C34.8806 11.2285 34.8524 11.2561 34.8141 11.2774C34.7734 11.2999 34.7307 11.3085 34.6864 11.3031C34.6414 11.297 34.5989 11.2761 34.5588 11.2403L34.4313 11.3108L34.3707 11.2328L34.4939 11.1647C34.491 11.1595 34.4882 11.1543 34.4853 11.1492C34.4817 11.1444 34.4785 11.1394 34.4756 11.1343C34.4723 11.1283 34.4695 11.1222 34.4669 11.1159C34.4636 11.11 34.4609 11.1042 34.4588 11.0986L34.3479 11.16L34.2861 11.0797L34.4281 11.0012C34.424 10.9832 34.421 10.9656 34.4191 10.9482C34.4169 10.9302 34.4154 10.9136 34.4148 10.8985L34.5368 10.886C34.5387 10.9121 34.5423 10.9405 34.5477 10.9713C34.552 11.0017 34.5637 11.0343 34.5831 11.0691C34.6035 11.1061 34.6281 11.133 34.6567 11.15C34.6846 11.1674 34.7135 11.1679 34.7429 11.1515C34.7651 11.1393 34.7805 11.1216 34.789 11.0986C34.7968 11.0759 34.8011 11.048 34.802 11.0146C34.8022 10.9817 34.8011 10.9432 34.7989 10.899C34.7976 10.8495 34.7986 10.8032 34.8017 10.7599C34.8047 10.7166 34.8147 10.6778 34.8315 10.6435C34.8481 10.6091 34.8765 10.5809 34.9164 10.5588C34.9578 10.5359 35.0014 10.5273 35.047 10.533C35.0918 10.5391 35.1348 10.5598 35.1755 10.5952L35.3197 10.5154L35.3675 10.602L35.2422 10.6713C35.2482 10.6786 35.2536 10.6867 35.2585 10.6956C35.2642 10.704 35.2696 10.7131 35.275 10.7227L35.2823 10.736L35.4045 10.6685L35.4517 10.754Z" fill="white"/>
<path d="M33.9475 10.2408L33.874 10.1391L34.3714 9.37053L34.4703 9.47274L34.3349 9.67514L34.533 9.94956L34.7569 9.88951L34.8393 10.0036L33.9475 10.2408ZM34.2667 9.7776L34.0699 10.079L34.4158 9.98418L34.2667 9.7776Z" fill="white"/>
<path d="M33.7645 8.7687L33.8384 8.68281L34.182 9.1077L33.5116 9.64953L33.4224 9.53912L34.0059 9.06741L33.7645 8.7687Z" fill="white"/>
<path d="M32.6113 8.56916L32.6799 8.47708L32.8794 8.69492L33.4319 8.18903L33.5295 8.2956L32.977 8.80149L33.1602 9.00156L33.077 9.07774L32.6113 8.56916Z" fill="white"/>
<path d="M32.5968 7.30098L33.0021 7.70775L32.3914 8.31614L32.0391 7.96237L32.1037 7.86927L32.3704 8.13684L32.5526 7.95521L32.3504 7.75228L32.4143 7.65829L32.6317 7.87648L32.8229 7.68591L32.5329 7.39499L32.5968 7.30098Z" fill="white"/>
<path d="M31.7371 7.67018L31.5411 7.50347C31.494 7.4635 31.4573 7.42002 31.4306 7.37301C31.4035 7.32665 31.3913 7.27907 31.3939 7.2303C31.3961 7.18218 31.4165 7.13526 31.4554 7.08955C31.491 7.0477 31.532 7.021 31.5785 7.00947C31.6243 6.99857 31.6699 6.99968 31.7154 7.01278L31.7952 6.58819L31.9122 6.68755L31.8358 7.0669C31.844 7.07283 31.8542 7.0804 31.8664 7.08961C31.8779 7.09947 31.8882 7.10823 31.8973 7.11588L31.9697 7.17747L32.1872 6.92159L32.2954 7.01357L31.7371 7.67018ZM31.6201 7.41435L31.706 7.48744L31.8941 7.26631L31.8101 7.19487C31.7696 7.16037 31.7285 7.13941 31.6872 7.13196C31.6453 7.12515 31.6075 7.14171 31.5734 7.18162C31.5384 7.22282 31.5267 7.26273 31.5382 7.30138C31.5496 7.34 31.577 7.37767 31.6201 7.41435Z" fill="white"/>
<path d="M5.2832 30.1085L5.41503 30.0253C5.40586 29.998 5.39844 29.9712 5.39275 29.9448C5.38754 29.9191 5.3857 29.8988 5.38724 29.8839L5.50062 29.8497C5.50299 29.8773 5.50964 29.9115 5.52057 29.9525C5.53152 29.9937 5.54691 30.0299 5.56676 30.0614C5.59699 30.1093 5.628 30.1402 5.65977 30.1541C5.692 30.1687 5.7224 30.1669 5.75097 30.1489C5.77098 30.1363 5.78398 30.1181 5.78996 30.0944C5.79665 30.0701 5.7989 30.0413 5.79668 30.0077C5.79518 29.9736 5.79223 29.9365 5.78784 29.8963C5.78348 29.8451 5.78196 29.7976 5.78328 29.7537C5.78577 29.7101 5.79459 29.6711 5.80975 29.6366C5.82562 29.6016 5.85214 29.5723 5.8893 29.5488C5.92859 29.5241 5.97059 29.513 6.01531 29.5157C6.06047 29.5192 6.10409 29.5377 6.14617 29.571L6.26943 29.4932L6.33439 29.5677L6.21543 29.6428C6.21858 29.6479 6.22173 29.6528 6.2249 29.6578C6.22877 29.6623 6.23229 29.667 6.23544 29.6721C6.23905 29.6778 6.2423 29.6838 6.2452 29.69C6.24881 29.6957 6.25184 29.7013 6.25428 29.7066L6.36145 29.639L6.42779 29.7155L6.29059 29.8022C6.29579 29.8199 6.2998 29.8374 6.30267 29.8545C6.30596 29.8724 6.30837 29.8889 6.30988 29.9039L6.18878 29.9234C6.18543 29.8976 6.18014 29.8694 6.17293 29.8389C6.16688 29.8088 6.15325 29.777 6.13205 29.7434C6.10949 29.7077 6.08339 29.6822 6.05376 29.6669C6.02485 29.6512 5.99609 29.6523 5.96752 29.6704C5.94608 29.684 5.93179 29.7025 5.92464 29.726C5.91821 29.7489 5.91552 29.7771 5.91656 29.8104C5.91832 29.8434 5.9216 29.8817 5.92637 29.9258C5.93054 29.975 5.93231 30.0215 5.93171 30.0647C5.93111 30.1081 5.92346 30.1474 5.90874 30.1828C5.89403 30.2179 5.8674 30.2477 5.8288 30.2721C5.78879 30.2975 5.74585 30.3086 5.69997 30.3056C5.65481 30.3021 5.61082 30.2839 5.56804 30.2509L5.4287 30.3388L5.37593 30.2553L5.49703 30.1788C5.49064 30.1718 5.48473 30.1641 5.47933 30.1555C5.4732 30.1474 5.46719 30.1387 5.46133 30.1294L5.45322 30.1165L5.33532 30.191L5.2832 30.1085Z" fill="white"/>
<path d="M6.81497 30.5334L6.89421 30.6307L6.44237 31.4269L6.3378 31.3306L6.46111 31.1206L6.24742 30.8582L6.02732 30.9311L5.93848 30.8221L6.81497 30.5334ZM6.52335 31.0145L6.70219 30.702L6.36248 30.8169L6.52335 31.0145Z" fill="white"/>
<path d="M7.08291 31.9922L7.01403 32.0824L6.64648 31.678L7.28422 31.0983L7.37973 31.2033L6.82453 31.7081L7.08291 31.9922Z" fill="white"/>
<path d="M8.24548 32.1245L8.18229 32.2204L7.97053 32.0146L7.44834 32.5517L7.34473 32.4509L7.86692 31.9138L7.67241 31.7248L7.75105 31.6438L8.24548 32.1245Z" fill="white"/>
<path d="M8.33403 33.3898L7.90576 33.0073L8.47996 32.3643L8.85244 32.697L8.79326 32.7938L8.51154 32.5421L8.34013 32.7341L8.55378 32.9249L8.49555 33.0225L8.26582 32.8173L8.08596 33.0187L8.39226 33.2921L8.33403 33.3898Z" fill="white"/>
<path d="M9.17117 32.9711L9.37655 33.1262C9.42578 33.1633 9.46504 33.2047 9.4943 33.25C9.52408 33.2947 9.53905 33.3416 9.53924 33.3904C9.53994 33.4385 9.52221 33.4865 9.48606 33.5344C9.45296 33.5783 9.41357 33.6073 9.36789 33.6215C9.32274 33.635 9.27709 33.6366 9.231 33.6261L9.1759 34.0547L9.05349 33.9624L9.10768 33.5791C9.09907 33.5737 9.08844 33.5667 9.0758 33.5583C9.06366 33.5491 9.05287 33.5409 9.04343 33.5338L8.96755 33.4766L8.76516 33.7447L8.65186 33.6591L9.17117 32.9711ZM9.30274 33.2197L9.2127 33.1517L9.0378 33.3834L9.12582 33.4499C9.16831 33.4819 9.21043 33.5005 9.25215 33.5056C9.29439 33.51 9.33129 33.4911 9.36286 33.4493C9.39545 33.4062 9.40488 33.3656 9.39112 33.3278C9.37739 33.2899 9.34793 33.2539 9.30274 33.2197Z" fill="white"/>
<defs>
<linearGradient id="paint0_linear_810_10978" x1="12.572" y1="1.42976e-05" x2="32.4397" y2="40" gradientUnits="userSpaceOnUse">
<stop stop-color="#D4BDEB"/>
<stop offset="1" stop-color="#8561A9"/>
</linearGradient>
<linearGradient id="paint1_linear_810_10978" x1="11.6" y1="-0.0819415" x2="35.5109" y2="38.1756" gradientUnits="userSpaceOnUse">
<stop stop-color="#F9F4FF"/>
<stop offset="1" stop-color="#C9B0E7"/>
</linearGradient>
<linearGradient id="paint2_linear_810_10978" x1="15.9514" y1="6.73833" x2="15.9514" y2="32.0019" gradientUnits="userSpaceOnUse">
<stop stop-color="#4D2D78"/>
<stop offset="1" stop-color="#8561A9"/>
</linearGradient>
<linearGradient id="paint3_linear_810_10978" x1="23.4294" y1="5.75578" x2="23.4294" y2="32.1074" gradientUnits="userSpaceOnUse">
<stop stop-color="#8561A9"/>
<stop offset="1" stop-color="#4D2D78"/>
</linearGradient>
</defs>
</svg>
