<svg width="26" height="12" viewBox="0 0 26 12" fill="none" xmlns="http://www.w3.org/2000/svg">
<path d="M25 6L1 6" stroke="white" stroke-linecap="round" stroke-linejoin="round"/>
<path d="M20.3536 0.646447C20.1583 0.451184 19.8417 0.451184 19.6464 0.646447C19.4512 0.841709 19.4512 1.15829 19.6464 1.35355L20.3536 0.646447ZM25 6L25.3536 6.35355C25.5488 6.15829 25.5488 5.84171 25.3536 5.64645L25 6ZM19.6464 10.6464C19.4512 10.8417 19.4512 11.1583 19.6464 11.3536C19.8417 11.5488 20.1583 11.5488 20.3536 11.3536L19.6464 10.6464ZM19.6464 1.35355L24.6464 6.35355L25.3536 5.64645L20.3536 0.646447L19.6464 1.35355ZM24.6464 5.64645L19.6464 10.6464L20.3536 11.3536L25.3536 6.35355L24.6464 5.64645Z" fill="white"/>
</svg>
