<svg width="479" height="128" viewBox="0 0 479 128" fill="none" xmlns="http://www.w3.org/2000/svg">
<path fill-rule="evenodd" clip-rule="evenodd" d="M152.732 46.578C151.223 47.5566 149.282 48.0468 146.905 48.0468H133.667V36.3012H146.622C147.905 36.3012 149.187 36.4733 150.47 36.8187C151.752 37.1652 152.827 37.7602 153.694 38.6037C154.562 39.4483 154.995 40.6001 154.995 42.058C154.995 44.0938 154.241 45.5995 152.732 46.578ZM133.667 19.7187H145.661C147.697 19.7187 149.414 20.1216 150.809 20.9281C152.204 21.7339 152.902 23.0772 152.902 24.958C152.902 26.6472 152.241 27.9524 150.922 28.874C149.601 29.7943 148.074 30.2748 146.34 30.3124H133.667V19.7187ZM157.343 33.9981C156.193 33.1535 154.939 32.5009 153.581 32.0404C155.392 31.2722 156.768 30.1682 157.711 28.7292C158.653 27.2895 159.125 25.6687 159.125 23.8649C159.125 20.5633 158.031 18.0488 155.844 16.3207C153.656 14.5945 150.413 13.7305 146.114 13.7305H127.557V54.035H147.018C148.678 54.035 150.337 53.8532 151.997 53.4878C153.656 53.1237 155.184 52.4996 156.58 51.6168C157.975 50.7334 159.097 49.5246 159.946 47.9886C160.795 46.4544 161.218 44.5155 161.218 42.1731C161.218 40.2548 160.86 38.6231 160.143 37.2798C159.426 35.9371 158.493 34.8428 157.343 33.9981Z" fill="black"/>
<path fill-rule="evenodd" clip-rule="evenodd" d="M181.335 38.2587L185.45 28.5846C185.982 27.3182 186.497 25.9949 186.992 24.6122C187.487 23.2301 188.001 21.8104 188.535 20.3513C189.03 21.7722 189.526 23.1434 190.021 24.4686C190.516 25.7931 191.011 27.0879 191.507 28.3549L195.736 38.2587H181.335ZM185.392 13.7305L168.305 54.035H174.648L178.82 44.2463H198.251L202.366 54.035H209.052L192.078 13.7305H185.392Z" fill="black"/>
<path fill-rule="evenodd" clip-rule="evenodd" d="M251.105 19.7187V26.9738V44.5379L225.06 13.7305H219.239V19.7187V54.035H225.462V37.2798V24.0836L251.393 54.035H257.329V49.9814V19.7187V13.7305H251.105V19.7187Z" fill="black"/>
<path fill-rule="evenodd" clip-rule="evenodd" d="M301.214 40.9938C300.232 43.1242 298.693 44.8329 296.596 46.1186C294.499 47.405 291.777 48.0473 288.43 48.0473H277.292V19.7188H288.43C291.739 19.7188 294.452 20.3719 296.568 21.6765C298.683 22.981 300.232 24.7091 301.214 26.8589C302.194 29.0081 302.685 31.3494 302.685 33.8821C302.685 36.493 302.194 38.8634 301.214 40.9938ZM307.85 26.1379C306.985 23.7009 305.686 21.5511 303.954 19.6897C302.223 17.8289 300.088 16.3692 297.549 15.3137C295.009 14.2582 292.067 13.7305 288.719 13.7305H271.059V54.035H288.719C293.181 54.035 296.933 53.1243 299.972 51.3005C303.012 49.4779 305.301 47.0402 306.84 43.9876C308.379 40.9362 309.149 37.5679 309.149 33.8821C309.149 31.1579 308.716 28.5761 307.85 26.1379Z" fill="black"/>
<path fill-rule="evenodd" clip-rule="evenodd" d="M146.127 93.5234C147.295 93.5234 148.377 93.2168 149.375 92.6018C150.371 91.9887 151.172 91.1731 151.775 90.1558C152.377 89.1391 152.679 88.0169 152.679 86.7875C152.679 85.5981 152.377 84.5233 151.775 83.5635C151.172 82.6037 150.371 81.8354 149.375 81.2592C148.377 80.6848 147.295 80.397 146.127 80.397H134.099V93.5234H146.127ZM146.862 74.4082C149.045 74.4082 151.059 74.9553 152.905 76.049C154.748 77.1433 156.226 78.6217 157.338 80.4824C158.447 82.3444 159.003 84.4469 159.003 86.7875C159.003 89.1688 158.429 91.3161 157.281 93.2356C156.132 95.1552 154.608 96.6814 152.707 97.8133C150.805 98.9457 148.705 99.5116 146.41 99.5116H134.099V114.713H128V74.4082H146.862Z" fill="black"/>
<path fill-rule="evenodd" clip-rule="evenodd" d="M189.774 80.3886H177.917V93.6701H190.73C192.04 93.6701 193.193 93.3621 194.185 92.7504C195.177 92.1375 195.945 91.3219 196.489 90.3066C197.032 89.2907 197.305 88.1883 197.305 87C197.305 85.6967 196.967 84.5471 196.293 83.5506C195.618 82.5541 194.709 81.7784 193.567 81.2217C192.424 80.6663 191.16 80.3886 189.774 80.3886ZM203.598 87.0569C203.598 89.664 202.83 92.0304 201.293 94.159C199.757 96.2858 197.791 97.8287 195.394 98.7871L205.509 114.713L198.035 114.656L188.65 99.6487H177.917V114.656H171.848V74.4082H191.066C193.201 74.4082 195.224 74.9352 197.135 75.9892C199.046 77.0438 200.6 78.5292 201.8 80.446C202.998 82.3629 203.598 84.5659 203.598 87.0569Z" fill="black"/>
<path fill-rule="evenodd" clip-rule="evenodd" d="M250.585 94.5607C250.585 91.7776 249.935 89.2882 248.637 87.0963C247.339 84.9032 245.543 83.1676 243.253 81.8889C240.962 80.6114 238.345 79.9733 235.405 79.9733C232.388 79.9733 229.743 80.6114 227.471 81.8889C225.199 83.1676 223.423 84.9032 222.144 87.0963C220.864 89.2882 220.224 91.7776 220.224 94.5607C220.224 97.345 220.864 99.8337 222.144 102.026C223.423 104.221 225.199 105.955 227.471 107.232C229.743 108.511 232.388 109.149 235.405 109.149C238.345 109.149 240.962 108.511 243.253 107.232C245.543 105.955 247.339 104.21 248.637 101.998C249.935 99.7867 250.585 97.3071 250.585 94.5607ZM256.886 94.5607C256.886 97.4588 256.361 100.159 255.31 102.656C254.26 105.155 252.77 107.338 250.843 109.206C248.914 111.076 246.641 112.534 244.026 113.583C241.409 114.631 238.536 115.156 235.405 115.156C232.273 115.156 229.389 114.631 226.755 113.583C224.12 112.534 221.848 111.076 219.939 109.206C218.029 107.338 216.549 105.155 215.499 102.656C214.448 100.159 213.924 97.4588 213.924 94.5607C213.924 91.6632 214.448 88.965 215.499 86.466C216.549 83.9683 218.029 81.7848 219.939 79.9161C221.848 78.0481 224.12 76.5888 226.755 75.5389C229.389 74.4902 232.273 73.9658 235.405 73.9658C238.536 73.9658 241.409 74.4902 244.026 75.5389C246.641 76.5888 248.914 78.0481 250.843 79.9161C252.77 81.7848 254.26 83.9683 255.31 86.466C256.361 88.965 256.886 91.6632 256.886 94.5607Z" fill="black"/>
<path fill-rule="evenodd" clip-rule="evenodd" d="M275.178 114.713V80.397H262.644V74.4082H294.09V80.397H281.221V114.713H275.178Z" fill="black"/>
<path fill-rule="evenodd" clip-rule="evenodd" d="M336.066 94.5607C336.066 91.7776 335.416 89.2882 334.118 87.0963C332.82 84.9032 331.025 83.1676 328.734 81.8889C326.443 80.6114 323.827 79.9733 320.886 79.9733C317.869 79.9733 315.225 80.6114 312.953 81.8889C310.681 83.1676 308.904 84.9032 307.626 87.0963C306.345 89.2882 305.706 91.7776 305.706 94.5607C305.706 97.345 306.345 99.8337 307.626 102.026C308.904 104.221 310.681 105.955 312.953 107.232C315.225 108.511 317.869 109.149 320.886 109.149C323.827 109.149 326.443 108.511 328.734 107.232C331.025 105.955 332.82 104.21 334.118 101.998C335.416 99.7867 336.066 97.3071 336.066 94.5607ZM342.367 94.5607C342.367 97.4588 341.842 100.159 340.791 102.656C339.741 105.155 338.251 107.338 336.324 109.206C334.395 111.076 332.122 112.534 329.507 113.583C326.891 114.631 324.017 115.156 320.886 115.156C317.755 115.156 314.871 114.631 312.237 113.583C309.601 112.534 307.329 111.076 305.42 109.206C303.51 107.338 302.031 105.155 300.981 102.656C299.93 100.159 299.405 97.4588 299.405 94.5607C299.405 91.6632 299.93 88.965 300.981 86.466C302.031 83.9683 303.51 81.7848 305.42 79.9161C307.329 78.0481 309.601 76.5888 312.237 75.5389C314.871 74.4902 317.755 73.9658 320.886 73.9658C324.017 73.9658 326.891 74.4902 329.507 75.5389C332.122 76.5888 334.395 78.0481 336.324 79.9161C338.251 81.7848 339.741 83.9683 340.791 86.466C341.842 88.965 342.367 91.6632 342.367 94.5607Z" fill="black"/>
<path fill-rule="evenodd" clip-rule="evenodd" d="M388.297 108.852C387.38 109.762 386.125 110.664 384.537 111.555C382.949 112.446 381.121 113.196 379.054 113.803C376.987 114.409 374.786 114.713 372.451 114.713C369.542 114.713 366.825 114.229 364.299 113.262C361.772 112.294 359.562 110.919 357.667 109.136C355.772 107.353 354.299 105.2 353.247 102.676C352.192 100.154 351.668 97.3371 351.668 94.2254C351.668 91.3048 352.222 88.6111 353.332 86.1443C354.442 83.6788 355.982 81.5355 357.954 79.7143C359.925 77.8932 362.174 76.4805 364.7 75.4744C367.227 74.4701 369.906 73.9658 372.738 73.9658C375.111 73.9658 377.341 74.2994 379.427 74.9623C381.513 75.6271 383.37 76.4709 384.997 77.4949C386.623 78.5196 387.915 79.5999 388.872 80.7384L384.91 85.4053C383.226 83.8495 381.36 82.5697 379.312 81.5636C377.265 80.5593 374.996 80.0551 372.508 80.0551C370.058 80.0551 367.724 80.6246 365.504 81.763C363.284 82.9009 361.476 84.5328 360.078 86.657C358.681 88.7824 357.983 91.3048 357.983 94.2254C357.983 97.4132 358.7 100.068 360.135 102.193C361.571 104.319 363.446 105.919 365.763 107.001C368.078 108.084 370.576 108.624 373.255 108.624C375.972 108.624 378.326 108.102 380.318 107.059C382.307 106.016 383.953 104.924 385.254 103.786L388.297 108.852Z" fill="black"/>
<path fill-rule="evenodd" clip-rule="evenodd" d="M433.062 94.5607C433.062 91.7776 432.411 89.2882 431.115 87.0963C429.815 84.9032 428.021 83.1676 425.729 81.8889C423.438 80.6114 420.822 79.9733 417.882 79.9733C414.865 79.9733 412.22 80.6114 409.948 81.8889C407.676 83.1676 405.899 84.9032 404.621 87.0963C403.341 89.2882 402.702 91.7776 402.702 94.5607C402.702 97.345 403.341 99.8337 404.621 102.026C405.899 104.221 407.676 105.955 409.948 107.232C412.22 108.511 414.865 109.149 417.882 109.149C420.822 109.149 423.438 108.511 425.729 107.232C428.021 105.955 429.815 104.21 431.115 101.998C432.411 99.7867 433.062 97.3071 433.062 94.5607ZM439.363 94.5607C439.363 97.4588 438.837 100.159 437.788 102.656C436.736 105.155 435.247 107.338 433.319 109.206C431.391 111.076 429.119 112.534 426.503 113.583C423.887 114.631 421.012 115.156 417.882 115.156C414.75 115.156 411.868 114.631 409.232 113.583C406.597 112.534 404.324 111.076 402.416 109.206C400.505 107.338 399.027 105.155 397.976 102.656C396.925 100.159 396.401 97.4588 396.401 94.5607C396.401 91.6632 396.925 88.965 397.976 86.466C399.027 83.9683 400.505 81.7848 402.416 79.9161C404.324 78.0481 406.597 76.5888 409.232 75.5389C411.868 74.4902 414.75 73.9658 417.882 73.9658C421.012 73.9658 423.887 74.4902 426.503 75.5389C429.119 76.5888 431.391 78.0481 433.319 79.9161C435.247 81.7848 436.736 83.9683 437.788 86.466C438.837 88.965 439.363 91.6632 439.363 94.5607Z" fill="black"/>
<path fill-rule="evenodd" clip-rule="evenodd" d="M478.339 108.724V114.713H450.436V74.4082H456.561V108.724H478.339Z" fill="black"/>
<path fill-rule="evenodd" clip-rule="evenodd" d="M89.4646 87.4163C89.4646 98.1621 80.6746 106.903 69.8677 106.903H32.2953L71.3425 68.0754C81.45 68.8411 89.4646 77.1723 89.4646 87.4163ZM26.7547 66.318V21.1595H69.8677C70.6045 21.1595 71.3311 21.199 72.0468 21.2794L26.7547 66.318ZM97.3001 40.6485C97.3001 31.5515 92.8007 23.4823 85.8986 18.5231L104.526 0L93.3826 0.0635563L78.5835 14.7786C75.8442 13.8643 72.9132 13.3678 69.8677 13.3678H18.9192V85.1277L80.2591 24.131C85.7841 27.5816 89.4646 33.6956 89.4646 40.6485C89.4646 51.3943 80.6746 60.1357 69.8677 60.1357H68.2457L0 128H11.08L24.4598 114.695H69.8677C84.9936 114.695 97.3001 102.458 97.3001 87.4163C97.3001 77.4961 91.9313 68.8225 83.9487 64.0474C91.9397 59.2735 97.3001 50.5734 97.3001 40.6485Z" fill="black"/>
</svg>
