<svg width="247" height="60" viewBox="0 0 247 60" fill="none" xmlns="http://www.w3.org/2000/svg">
<path d="M96.819 22.5408V22.4693C96.819 19.1176 95.0365 17.4421 92.1482 16.3367C93.9307 15.3384 95.4287 13.7696 95.4287 10.9528V10.8817C95.4287 6.95944 92.2909 4.42785 87.1921 4.42785H75.6042V29.3865H87.4775C93.1108 29.3865 96.819 27.1046 96.819 22.5408ZM89.9732 11.88C89.9732 13.734 88.4398 14.5182 86.0155 14.5182H80.9526V9.24134H86.3719C88.6897 9.24134 89.9732 10.1686 89.9732 11.8089V11.88ZM91.3638 21.8633C91.3638 23.7173 89.9018 24.573 87.4775 24.573H80.9526V19.0825H87.299C90.1158 19.0825 91.3638 20.1163 91.3638 21.7918V21.8633ZM108.334 29.3865V4.42785H102.843V29.3865H108.334ZM137.85 29.3865V4.42785H132.43V19.7956L120.735 4.42785H115.672V29.3865H121.092V13.5199L133.179 29.3865H137.85ZM168.266 29.3865L157.569 4.24969H152.506L141.809 29.3865H147.407L149.689 23.7889H160.243L162.525 29.3865H168.266ZM158.282 18.9394H151.65L154.966 10.8457L158.282 18.9394ZM194.439 29.3865V4.42785H189.019V19.7956L177.324 4.42785H172.261V29.3865H177.68V13.5199L189.768 29.3865H194.439ZM222.786 25.3577L219.292 21.8278C217.331 23.6107 215.584 24.7517 212.732 24.7517C208.453 24.7517 205.493 21.1862 205.493 16.9072V16.8361C205.493 12.5571 208.524 9.06318 212.732 9.06318C215.227 9.06318 217.188 10.1326 219.114 11.88L222.608 7.8507C220.29 5.5688 217.473 4 212.767 4C205.101 4 199.753 9.81181 199.753 16.9072V16.9783C199.753 24.1452 205.208 29.8144 212.553 29.8144C217.366 29.8144 220.219 28.1034 222.786 25.3577ZM246.213 29.3865V24.502H232.664V19.2606H244.431V14.3756H232.664V9.31287H246.035V4.42785H227.209V29.3865H246.213Z" fill="#F0B90B"/>
<path d="M78.0851 41.4402C78.0851 40.3242 79.0823 39.4458 80.7918 39.4458C82.3113 39.4458 83.8071 40.0394 85.3029 41.1555L86.8699 38.9473C85.1842 37.594 83.261 36.8578 80.8393 36.8578C77.5391 36.8578 75.1648 38.8047 75.1648 41.7015C75.1648 44.788 77.1592 45.8325 80.6968 46.6874C83.7834 47.3996 84.4482 48.0407 84.4482 49.2514C84.4482 50.5336 83.3085 51.3644 81.5041 51.3644C79.4385 51.3644 77.8477 50.5812 76.257 49.2038L74.5 51.2934C76.4944 53.0741 78.8924 53.9525 81.4329 53.9525C84.923 53.9525 87.3685 52.1006 87.3685 48.9666C87.3685 46.1889 85.5403 44.9302 82.0264 44.0758C78.8449 43.3161 78.0851 42.746 78.0851 41.4402Z" fill="#F0B90B"/>
<path d="M104.217 41.7966V53.7152H107.138V37.0955H104.027L98.9703 44.9542L93.9131 37.0955H90.8029V53.7152H93.6757V41.8437L98.8753 49.6313H98.9703L104.217 41.7966Z" fill="#F0B90B"/>
<path d="M120.01 36.9764H117.303L109.991 53.7152H112.982L114.692 49.7028H122.55L124.236 53.7152H127.323L120.01 36.9764ZM121.482 47.1148H115.76L118.609 40.4668L121.482 47.1148Z" fill="#F0B90B"/>
<path d="M144.276 53.7152L139.789 47.4236C142.115 46.7824 143.754 45.1203 143.754 42.3662C143.754 39.1135 141.403 37.0955 137.581 37.0955H130.173V53.7152H133.093V47.9221H136.75L140.833 53.7152H144.276ZM140.786 42.5323C140.786 44.242 139.456 45.334 137.367 45.334H133.093V39.7546H137.343C139.504 39.7546 140.786 40.7041 140.786 42.5323Z" fill="#F0B90B"/>
<path d="M154.289 39.8021H159.56V37.0955H146.074V39.8021H151.345V53.7152H154.289V39.8021Z" fill="#F0B90B"/>
<path d="M184.234 51.0561L182.358 49.1567C180.934 50.4861 179.628 51.3174 177.586 51.3174C174.404 51.3174 172.102 48.6578 172.102 45.3816C172.102 42.1049 174.404 39.4933 177.586 39.4933C179.485 39.4933 180.91 40.3242 182.24 41.5589L184.115 39.3983C182.525 37.8788 180.673 36.8102 177.61 36.8102C172.577 36.8102 169.039 40.6805 169.039 45.4291C169.039 50.2248 172.648 54 177.491 54C180.601 54 182.501 52.8604 184.234 51.0561Z" fill="#F0B90B"/>
<path d="M198.154 46.7109V53.7152H201.074V37.0955H198.154V44.0043H190.224V37.0955H187.304V53.7152H190.224V46.7109H198.154Z" fill="#F0B90B"/>
<path d="M213.937 36.9764H211.231L203.918 53.7152H206.909L208.619 49.7028H216.478L218.163 53.7152H221.25L213.937 36.9764ZM215.409 47.1148H209.687L212.536 40.4668L215.409 47.1148Z" fill="#F0B90B"/>
<path d="M224.266 37.0955V53.7152H227.187V37.0955H224.266Z" fill="#F0B90B"/>
<path d="M243.246 48.5867L234.342 37.0955H231.635V53.7152H234.508V41.8912L243.673 53.7152H246.118V37.0955H243.246V48.5867Z" fill="#F0B90B"/>
<path d="M6.77437 36.7742L13.5488 30L6.77437 23.2258L0 30L6.77437 36.7742Z" fill="#F0B90B"/>
<path d="M41.6133 25.1613L30 13.5484L18.3872 25.1613L11.6133 18.3871L30 0L48.3872 18.3871L41.6133 25.1613Z" fill="#F0B90B"/>
<path d="M46.4517 30L53.2261 23.2258L60 30L53.2261 36.7742L46.4517 30Z" fill="#F0B90B"/>
<path d="M18.3872 34.8387L30 46.4516L41.6133 34.8387L48.3872 41.6129L30 60L11.6133 41.6129L18.3872 34.8387Z" fill="#F0B90B"/>
<path d="M36.7744 30L30 36.7742L23.2261 30L30 23.2258L36.7744 30Z" fill="#F0B90B"/>
</svg>
