<svg width="284" height="40" viewBox="0 0 284 40" fill="none" xmlns="http://www.w3.org/2000/svg">
<path d="M12.2317 16.8083L20 9.04L27.772 16.8117L32.292 12.2917L20 0L7.712 12.288L12.2318 16.808L12.2317 16.8083ZM0 20L4.52016 15.4792L9.04 19.999L4.51984 24.5192L0 20ZM12.2317 23.1922L20 30.96L27.7718 23.1885L32.2942 27.7061L32.292 27.7085L20 40L7.712 27.712L7.7056 27.7056L12.2322 23.1917L12.2317 23.1922ZM30.96 20.0019L35.4802 15.4818L40 20.0016L35.48 24.5218L30.96 20.0019Z" fill="#F3BA2F"/>
<path d="M24.5845 19.9974H24.5865L20.0002 15.4109L16.6103 18.7998L16.2209 19.1894L15.4177 19.9928L15.4113 19.999L15.4177 20.0056L20.0002 24.5888L24.5868 20.0022L24.589 19.9997L24.5849 19.9974" fill="#F3BA2F"/>
<path d="M54.5227 29H60.6506C64.0256 29 65.7727 27.1506 65.7727 24.4744C65.7727 21.9347 64.1705 20.2557 62.3722 20.1108V20.0085C64 19.5909 65.0909 18.1676 65.0909 16.0455C65.0909 13.3608 63.3608 11.5455 60.1903 11.5455L54.5227 11.5455L54.5227 29ZM55.5881 28.0114L55.5881 20.6222H60.6847C63.0881 20.6222 64.7415 22.2756 64.7415 24.4744C64.7415 26.554 63.2756 28.0114 60.6506 28.0114H55.5881ZM55.5881 19.6506V12.5341L60.1903 12.5341C62.6619 12.5341 64.0597 13.8807 64.0597 16.0455C64.0597 18.0483 62.7812 19.6506 60.5568 19.6506H55.5881ZM69.6527 29H70.6839V15.9091H69.6527V29ZM70.1726 13.5909C70.6328 13.5909 71.0078 13.2244 71.0078 12.7727C71.0078 12.321 70.6328 11.9545 70.1726 11.9545C69.7124 11.9545 69.3288 12.321 69.3288 12.7727C69.3288 13.2244 69.7124 13.5909 70.1726 13.5909ZM76.0788 20.5114C76.0788 18.2273 77.6641 16.7017 79.8459 16.7017C82.0192 16.7017 83.4595 18.1761 83.4595 20.4091V29H84.4993V20.3665C84.4993 17.5028 82.6754 15.7386 80.0419 15.7386C78.1754 15.7386 76.7692 16.625 76.1555 17.9801H76.0533V15.9091H75.0391V29H76.0788V20.5114ZM92.2891 29.2813C94.3686 29.2813 95.8345 28.1051 96.5163 26.6392H96.593V29H97.6328V19.8551C97.6328 16.9915 95.5021 15.7131 93.1754 15.7131C91.1555 15.7131 89.2635 16.625 88.5135 18.5085L89.4936 18.875C90.005 17.5795 91.3345 16.6676 93.201 16.6676C95.3146 16.6676 96.593 17.8864 96.593 19.7869V20.3324C96.593 21.3381 95.1271 21.4403 93.1328 21.679C89.6385 22.1051 88.1385 23.2131 88.1385 25.3949C88.1385 27.8835 90.0305 29.2813 92.2891 29.2813ZM92.3913 28.3182C90.5589 28.3182 89.1783 27.2188 89.1783 25.429C89.1783 23.8097 90.3714 22.9403 93.2351 22.5994C94.5135 22.4545 96.0476 22.2159 96.593 21.7642V23.6903C96.593 26.3494 94.8459 28.3182 92.3913 28.3182ZM103.032 20.5114C103.032 18.2273 104.617 16.7017 106.799 16.7017C108.972 16.7017 110.413 18.1761 110.413 20.4091V29H111.452V20.3665C111.452 17.5028 109.629 15.7386 106.995 15.7386C105.129 15.7386 103.722 16.625 103.109 17.9801H103.006V15.9091H101.992V29H103.032V20.5114ZM120.683 29.2727C123.239 29.2727 125.165 27.6023 125.54 25.1818H124.484C124.143 27.0824 122.6 28.3097 120.683 28.3097C117.947 28.3097 116.08 25.8125 116.08 22.4801C116.08 19.1051 118.023 16.6847 120.683 16.6847C122.651 16.6847 124.126 17.9972 124.458 19.7614H125.515C125.131 17.3494 123.154 15.7131 120.674 15.7131C117.359 15.7131 115.049 18.6108 115.049 22.4972C115.049 26.3835 117.342 29.2727 120.683 29.2727ZM134.191 29.2727C136.773 29.2727 138.359 27.7642 138.955 26.4432L138.009 26.0597C137.523 27.0313 136.322 28.3097 134.191 28.3097C131.217 28.3097 129.435 25.9063 129.393 22.6847H139.381V22.0369C139.381 18.1506 136.876 15.7131 133.944 15.7131C130.697 15.7131 128.362 18.6023 128.362 22.5142C128.362 26.4176 130.637 29.2727 134.191 29.2727ZM129.41 21.7386C129.614 18.8835 131.464 16.6847 133.944 16.6847C136.433 16.6847 138.342 18.9006 138.342 21.7386H129.41ZM159.487 15.9091H160.535C160.39 13.233 158.234 11.2813 155.114 11.2813C152.012 11.2813 149.668 13.2159 149.668 15.9091C149.668 18.0398 151.134 19.446 153.87 20.2813L155.907 20.8949C158.404 21.6534 159.725 22.625 159.725 24.4574C159.725 26.7415 157.773 28.2841 154.961 28.2841C152.353 28.2841 150.495 26.9375 150.325 24.7727H149.234C149.421 27.4403 151.586 29.2813 154.961 29.2813C158.506 29.2813 160.773 27.2358 160.773 24.4659C160.773 21.9432 158.813 20.6903 156.205 19.9063L154.296 19.3438C152.191 18.7131 150.717 17.6818 150.717 15.875C150.717 13.7869 152.54 12.2699 155.089 12.2699C157.594 12.2699 159.308 13.7443 159.487 15.9091ZM164.617 29H165.657V20.4091C165.657 18.2443 166.961 16.7017 169.032 16.7017C171.086 16.7017 172.1 18.108 172.1 20.1449V29H173.14V20.2983C173.14 18.2102 174.333 16.7017 176.498 16.7017C178.518 16.7017 179.583 18.0227 179.583 20.2131V29H180.623V20.2131C180.623 17.4432 179.251 15.7386 176.719 15.7386C174.776 15.7386 173.404 16.7273 172.893 18.2699H172.799C172.288 16.7188 171.137 15.7386 169.245 15.7386C167.515 15.7386 166.237 16.5739 165.734 17.8864H165.631V15.9091H164.617V29ZM188.406 29.2813C190.486 29.2813 191.952 28.1051 192.634 26.6392H192.71V29H193.75V19.8551C193.75 16.9915 191.619 15.7131 189.293 15.7131C187.273 15.7131 185.381 16.625 184.631 18.5085L185.611 18.875C186.122 17.5795 187.452 16.6676 189.318 16.6676C191.432 16.6676 192.71 17.8864 192.71 19.7869V20.3324C192.71 21.3381 191.244 21.4403 189.25 21.679C185.756 22.1051 184.256 23.2131 184.256 25.3949C184.256 27.8835 186.148 29.2813 188.406 29.2813ZM188.509 28.3182C186.676 28.3182 185.295 27.2188 185.295 25.429C185.295 23.8097 186.489 22.9403 189.352 22.5994C190.631 22.4545 192.165 22.2159 192.71 21.7642V23.6903C192.71 26.3494 190.963 28.3182 188.509 28.3182ZM198.109 29H199.149V20.375C199.149 18.2614 200.726 16.7358 202.908 16.7358C203.18 16.7358 203.359 16.7699 203.496 16.7869V15.7386C203.334 15.7301 203.155 15.7301 202.967 15.7301C201.237 15.7301 199.78 16.6165 199.217 17.9545H199.124V15.9091H198.109V29ZM211.737 15.9091H208.984V12.7727H207.953V15.9091H206.018V16.8381H207.953V26.0938C207.953 28.0795 209.496 29.2131 211.132 29.2131C211.661 29.2131 212.018 29.1193 212.342 29L212.087 28.054C211.831 28.1392 211.575 28.2074 211.2 28.2074C210.041 28.2074 208.984 27.4915 208.984 25.9063V16.8381H211.737V15.9091ZM236.006 17C235.503 14.1449 233.116 11.3068 229.213 11.3068C224.858 11.3068 221.824 14.8608 221.824 20.2727C221.824 25.6847 224.858 29.2386 229.213 29.2386C233.116 29.2386 235.503 26.375 236.006 23.5455H234.915C234.463 25.9233 232.358 28.2159 229.213 28.2159C225.77 28.2159 222.872 25.446 222.872 20.2727C222.872 15.1506 225.77 12.3295 229.213 12.3295C232.358 12.3295 234.463 14.6477 234.915 17H236.006ZM240.774 20.5114C240.774 18.2273 242.368 16.7017 244.575 16.7017C246.757 16.7017 248.206 18.1676 248.206 20.4091V29H249.237V20.3665C249.237 17.4943 247.413 15.7386 244.771 15.7386C242.879 15.7386 241.49 16.6165 240.876 17.9801H240.774V11.5455H239.734V29L240.774 29V20.5114ZM257.008 29.2813C259.087 29.2813 260.553 28.1051 261.235 26.6392H261.312V29L262.352 29V19.8551C262.352 16.9915 260.221 15.7131 257.894 15.7131C255.874 15.7131 253.982 16.625 253.232 18.5085L254.212 18.875C254.724 17.5795 256.053 16.6676 257.92 16.6676C260.033 16.6676 261.312 17.8864 261.312 19.7869V20.3324C261.312 21.3381 259.846 21.4403 257.852 21.679C254.357 22.1051 252.857 23.2131 252.857 25.3949C252.857 27.8835 254.749 29.2813 257.008 29.2813ZM257.11 28.3182C255.278 28.3182 253.897 27.2188 253.897 25.429C253.897 23.8097 255.09 22.9403 257.954 22.5994C259.232 22.4545 260.766 22.2159 261.312 21.7642V23.6903C261.312 26.3494 259.565 28.3182 257.11 28.3182ZM266.762 29H267.793V15.9091L266.762 15.9091V29ZM267.282 13.5909C267.742 13.5909 268.117 13.2244 268.117 12.7727C268.117 12.321 267.742 11.9545 267.282 11.9545C266.822 11.9545 266.438 12.321 266.438 12.7727C266.438 13.2244 266.822 13.5909 267.282 13.5909ZM273.188 20.5114C273.188 18.2273 274.773 16.7017 276.955 16.7017C279.129 16.7017 280.569 18.1761 280.569 20.4091V29H281.609V20.3665C281.609 17.5028 279.785 15.7386 277.151 15.7386C275.285 15.7386 273.879 16.625 273.265 17.9801H273.163V15.9091H272.148V29H273.188V20.5114Z" fill="#28282E"/>
</svg>
