<svg width="77" height="24" viewBox="0 0 77 24" fill="none" xmlns="http://www.w3.org/2000/svg">
<path fill-rule="evenodd" clip-rule="evenodd" d="M25.5496 13.0193V4.76953H26.3259C26.9584 4.76953 27.4712 5.29075 27.4712 5.93371V9.60181C28.7154 8.47343 29.7734 8.02173 31.1836 7.99275C33.8883 7.93651 36.2358 9.97851 36.4588 12.7194C36.7254 15.9937 34.3829 18.4584 31.3312 18.4584C27.9809 18.4584 25.5496 16.3465 25.5496 13.0193ZM27.4393 13.6671C27.6288 15.3716 29.2301 16.7795 30.9187 16.8068C33.1186 16.8409 34.6177 15.3835 34.6177 13.2273C34.6177 11.0711 33.1522 9.64782 31.0142 9.64782C28.7288 9.64272 27.1794 11.3302 27.4393 13.6671Z" fill="#28282E"/>
<path fill-rule="evenodd" clip-rule="evenodd" d="M39.6649 8.1989V9.66819C40.8738 8.30458 41.5898 7.93811 43.005 7.93811C43.4167 7.93856 43.8277 7.97219 44.2341 8.03868V9.99034C43.8004 9.86915 43.3525 9.80837 42.9028 9.80966C41.8782 9.80966 41.018 10.1506 40.3876 10.7949C39.8342 11.3591 39.6699 11.8005 39.6699 12.6869V18.1208H37.6779V8.1989H39.6649Z" fill="#28282E"/>
<path fill-rule="evenodd" clip-rule="evenodd" d="M44.707 11.4801C44.8093 10.5136 44.9937 9.99034 45.4029 9.48751C46.2228 8.4648 47.6984 7.93811 49.7877 7.93811C51.4477 7.93811 52.6567 8.2006 53.4968 8.76309C54.1943 9.22501 54.481 9.91023 54.481 11.117V15.5232C54.481 16.4896 54.7275 16.8305 55.4033 16.8118C55.5542 16.8064 55.7048 16.7927 55.8543 16.7709V18.0987C55.5184 18.2154 55.1645 18.2697 54.8097 18.2589C53.5605 18.2589 52.987 17.8771 52.598 16.7692C51.3689 17.9163 50.0979 18.3987 48.2752 18.3987C45.8371 18.3987 44.3414 17.272 44.3414 15.4396C44.3308 14.3948 44.9355 13.4445 45.8774 13.0261C46.6152 12.7039 47.0662 12.6033 49.1757 12.3818C50.9782 12.2011 51.2867 12.1602 51.7982 11.9982C52.3515 11.8176 52.598 11.5159 52.598 11.013C52.598 9.94602 51.7177 9.46364 49.8732 9.46364C48.1293 9.46364 47.2306 9.81477 46.8701 10.7113C46.6915 11.1698 46.2568 11.472 45.7718 11.475L44.707 11.4801ZM52.5879 13.1709C51.3241 13.5446 50.0264 13.7873 48.7145 13.8954C46.9321 14.076 46.3788 14.4186 46.3788 15.3237C46.3788 16.3294 47.1987 16.8578 48.8168 16.8578C50.1482 16.8578 51.1526 16.5169 51.8703 15.8521C52.4437 15.3084 52.5879 14.9266 52.5879 13.9772V13.1709Z" fill="#28282E"/>
<path fill-rule="evenodd" clip-rule="evenodd" d="M60.6634 18.1192H60.1503C59.6983 18.1221 59.2848 17.8609 59.0872 17.4476L54.7896 8.19895H55.9834C56.6791 8.1933 57.3125 8.6058 57.5982 9.25063L60.4655 15.8982L63.4284 9.22506C63.7183 8.59039 64.3464 8.18652 65.0348 8.19207H66.1197L61.7214 17.4578C61.5218 17.8655 61.1113 18.122 60.6634 18.1192Z" fill="#28282E"/>
<path fill-rule="evenodd" clip-rule="evenodd" d="M67.4662 13.7333C67.6707 15.6458 69.143 16.8321 71.3379 16.8321C72.5837 16.8321 73.5177 16.4554 74.0962 15.7037C74.4336 15.2727 74.946 15.0216 75.488 15.0219H76.6433C75.6372 17.2753 73.8363 18.3832 71.1518 18.3832C67.7982 18.3832 65.5378 16.3105 65.5378 13.2117C65.5378 10.1129 67.8535 7.9397 71.1937 7.9397C73.6099 7.9397 75.5533 9.04592 76.3364 10.8987C76.6852 11.751 76.8277 12.5078 76.8277 13.735L67.4662 13.7333ZM74.8005 12.1993C74.3494 10.4487 73.018 9.46182 71.1736 9.46182C69.3291 9.46182 67.9977 10.4487 67.5265 12.1993H74.8005Z" fill="#28282E"/>
<path fill-rule="evenodd" clip-rule="evenodd" d="M19.3865 5.7573L19.939 4.37574C19.939 4.37574 19.2358 3.6082 18.382 2.73832C17.5282 1.86844 15.7202 2.38014 15.7202 2.38014L13.661 0H10.0448H6.42869L4.3695 2.38014C4.3695 2.38014 2.56143 1.86844 1.70762 2.73832C0.85381 3.6082 0.150672 4.37574 0.150672 4.37574L0.703138 5.7573L0 7.80407C0 7.80407 2.06798 15.7842 2.31031 16.7587C2.78744 18.6775 3.1139 19.4195 4.46995 20.3917C5.826 21.3639 8.28698 23.0525 8.68877 23.3083C9.09057 23.5642 9.59281 24 10.0448 24C10.4968 24 10.9991 23.5642 11.4009 23.3083C11.8027 23.0525 14.2637 21.3639 15.6197 20.3917C16.9758 19.4195 17.3022 18.6775 17.7793 16.7587C18.0216 15.7842 20.0897 7.80407 20.0897 7.80407L19.3865 5.7573Z" fill="url(#paint0_linear_658_7856)"/>
<path fill-rule="evenodd" clip-rule="evenodd" d="M10.0448 14.9357C10.1825 14.9357 11.0645 15.253 11.7723 15.6261C12.4801 15.9993 12.993 16.2631 13.157 16.3677C13.3209 16.4723 13.2209 16.6694 13.0716 16.777C12.9223 16.8845 10.9153 18.4679 10.7205 18.6429C10.5257 18.818 10.2394 19.107 10.0448 19.107C9.8502 19.107 9.56392 18.818 9.36916 18.6429C9.17434 18.4679 7.16738 16.8845 7.01801 16.777C6.86865 16.6694 6.7687 16.4723 6.93263 16.3677C7.09661 16.2631 7.60955 15.9993 8.31736 15.6261C9.02507 15.253 9.90716 14.9357 10.0448 14.9357ZM10.0556 3.6582C10.1232 3.66011 10.504 3.67897 11.0493 3.86415C11.652 4.06883 12.3049 4.32467 12.6063 4.32467C12.9076 4.32467 15.1426 3.88973 15.1426 3.88973C15.1426 3.88973 17.7912 7.15177 17.7912 7.84895C17.7912 8.54613 17.458 8.73014 17.123 9.09257C16.788 9.455 15.3249 11.0379 15.1371 11.2411C14.9492 11.4444 14.558 11.7526 14.7881 12.3073C15.0182 12.8621 15.3576 13.5679 14.9802 14.2839C14.6027 14.9998 13.956 15.4777 13.5417 15.3987C13.1273 15.3197 12.1542 14.8016 11.7964 14.5649C11.4386 14.3283 10.3044 13.3753 10.3044 13.0106C10.3044 12.6461 11.4768 11.9914 11.6933 11.8427C11.91 11.694 12.8979 11.1183 12.9182 10.8923C12.9383 10.6663 12.9307 10.6 12.6391 10.0417C12.3476 9.48325 11.8225 8.73812 11.9099 8.24234C11.9973 7.74661 12.8441 7.48882 13.4484 7.25631C14.0526 7.02385 15.216 6.58477 15.3613 6.51651C15.5067 6.44819 15.4691 6.38316 15.0288 6.34064C14.5886 6.29812 13.3392 6.12915 12.776 6.28911C12.2127 6.44906 11.2504 6.69243 11.1725 6.82147C11.0945 6.95052 11.0258 6.95487 11.1058 7.40004C11.1858 7.84522 11.598 9.98133 11.6379 10.3607C11.678 10.7402 11.7562 10.991 11.3547 11.0845C10.9531 11.1781 10.2771 11.3405 10.0448 11.3405C9.81254 11.3405 9.13653 11.1781 8.73499 11.0845C8.33339 10.991 8.41164 10.7402 8.45167 10.3607C8.4917 9.98133 8.90379 7.84522 8.98385 7.40004C9.06385 6.95487 8.9951 6.95052 8.9172 6.82147C8.83925 6.69243 7.87691 6.44906 7.31364 6.28911C6.75038 6.12915 5.50105 6.29812 5.06079 6.34064C4.62052 6.38316 4.58296 6.44819 4.72831 6.51651C4.87365 6.58477 6.0371 7.02385 6.64129 7.25631C7.24554 7.48882 8.09237 7.74661 8.17976 8.24234C8.26715 8.73812 7.74205 9.48325 7.45055 10.0417C7.159 10.6 7.15127 10.6663 7.17151 10.8923C7.1917 11.1183 8.17966 11.694 8.39627 11.8427C8.61289 11.9914 9.78522 12.6461 9.78522 13.0106C9.78522 13.3753 8.65111 14.3283 8.29326 14.5649C7.93542 14.8016 6.96233 15.3197 6.54798 15.3987C6.13363 15.4777 5.48699 14.9998 5.10951 14.2839C4.73207 13.5679 5.07149 12.8621 5.30151 12.3073C5.53159 11.7526 5.14049 11.4444 4.95256 11.2411C4.76472 11.0379 3.30159 9.455 2.96659 9.09257C2.6316 8.73014 2.29846 8.54613 2.29846 7.84895C2.29846 7.15177 4.94708 3.88973 4.94708 3.88973C4.94708 3.88973 7.18206 4.32467 7.4834 4.32467C7.78475 4.32467 8.43766 4.06883 9.04035 3.86415C9.58564 3.67897 9.96648 3.66011 10.0341 3.6582H10.0556Z" fill="white"/>
<mask id="mask0_658_7856" style="mask-type:alpha" maskUnits="userSpaceOnUse" x="1" y="0" width="18" height="5">
<path d="M15.7202 2.38014L13.661 0H10.0448H6.42871L4.36952 2.38014C4.36952 2.38014 2.56145 1.86844 1.70764 2.73832C1.70764 2.73832 4.1184 2.5166 4.9471 3.88963C4.9471 3.88963 7.18207 4.32457 7.48342 4.32457C7.78476 4.32457 8.43768 4.06872 9.04037 3.86404C9.64305 3.65937 10.0448 3.65788 10.0448 3.65788C10.0448 3.65788 10.4466 3.65937 11.0493 3.86404C11.652 4.06872 12.3049 4.32457 12.6063 4.32457C12.9076 4.32457 15.1426 3.88963 15.1426 3.88963C15.9713 2.5166 18.3821 2.73832 18.3821 2.73832C17.5282 1.86844 15.7202 2.38014 15.7202 2.38014Z" fill="white"/>
</mask>
<g mask="url(#mask0_658_7856)">
<path d="M15.7202 2.38014L13.661 0H10.0448H6.42871L4.36952 2.38014C4.36952 2.38014 2.56145 1.86844 1.70764 2.73832C1.70764 2.73832 4.1184 2.5166 4.9471 3.88963C4.9471 3.88963 7.18207 4.32457 7.48342 4.32457C7.78476 4.32457 8.43768 4.06872 9.04037 3.86404C9.64305 3.65937 10.0448 3.65788 10.0448 3.65788C10.0448 3.65788 10.4466 3.65937 11.0493 3.86404C11.652 4.06872 12.3049 4.32457 12.6063 4.32457C12.9076 4.32457 15.1426 3.88963 15.1426 3.88963C15.9713 2.5166 18.3821 2.73832 18.3821 2.73832C17.5282 1.86844 15.7202 2.38014 15.7202 2.38014Z" fill="url(#paint1_linear_658_7856)"/>
</g>
<defs>
<linearGradient id="paint0_linear_658_7856" x1="0" y1="12.1693" x2="20.0897" y2="12.1693" gradientUnits="userSpaceOnUse">
<stop stop-color="#FF5500"/>
<stop offset="0.409877" stop-color="#FF5500"/>
<stop offset="0.581981" stop-color="#FF2000"/>
<stop offset="1" stop-color="#FF2000"/>
</linearGradient>
<linearGradient id="paint1_linear_658_7856" x1="2.06588" y1="2.19279" x2="18.3821" y2="2.19279" gradientUnits="userSpaceOnUse">
<stop stop-color="#FF452A"/>
<stop offset="1" stop-color="#FF2000"/>
</linearGradient>
</defs>
</svg>
