<svg width="19" height="20" viewBox="0 0 19 20" fill="none" xmlns="http://www.w3.org/2000/svg">
<path d="M18.391 5.11448C18.3224 9.59858 17.0722 13.2571 14.321 16.33C13.0204 17.7309 11.4973 18.9073 9.8132 19.8118C9.63025 19.9345 9.41495 20 9.19466 20C8.97438 20 8.75907 19.9345 8.57612 19.8118C5.23679 17.9891 2.69931 15.4253 1.24858 11.867C0.1096 9.14114 -0.259894 6.15508 0.180306 3.2338C0.222509 2.94893 0.20932 2.63504 0.578599 2.5691C0.947878 2.50315 1.01382 2.83287 1.13515 3.07026C2.23772 5.22614 3.34028 7.38115 4.44284 9.53528C4.47197 9.61897 4.52837 9.69047 4.60298 9.7383C4.67759 9.78612 4.7661 9.80752 4.85432 9.79905C7.83756 9.79905 10.8208 9.79905 13.8067 9.79905C13.867 9.79354 13.9252 9.77426 13.9769 9.74271C14.0286 9.71116 14.0723 9.66816 14.1047 9.61704C15.1844 7.40313 16.2545 5.1857 17.3148 2.96475C17.4203 2.74582 17.5311 2.55591 17.7949 2.59284C18.0587 2.62976 18.151 2.83023 18.1747 3.09136C18.2512 3.88531 18.3462 4.69772 18.391 5.11448ZM13.5798 10.6088H5.00994L9.19862 18.7989C10.6731 16.0399 12.1159 13.3468 13.5798 10.6088ZM0.918863 4.40758C0.475728 10.1525 3.04485 15.6864 8.19893 18.6222C5.75114 13.8479 3.32973 9.12907 0.91095 4.40758H0.918863ZM10.2854 18.5536C12.7005 17.1444 14.6605 15.0718 15.9327 12.5818C17.4072 9.72519 17.7791 5.96119 17.4678 4.42604C15.297 9.29788 12.7331 13.8875 10.2854 18.5536Z" fill="#28282E"/>
<path d="M15.8245 2.25258C15.8267 2.3225 15.8109 2.39181 15.7786 2.45387C15.7463 2.51593 15.6986 2.56867 15.6402 2.60705C15.5817 2.64543 15.5143 2.66815 15.4445 2.67305C15.3747 2.67796 15.3049 2.66487 15.2416 2.63505C14.4345 2.39766 13.6273 2.14971 12.8228 1.90441C11.6965 1.55887 10.5702 1.20805 9.43864 0.875701C9.27047 0.828246 9.09245 0.828246 8.92429 0.875701C7.10163 1.41907 5.2737 1.9809 3.45896 2.53746C3.04221 2.6667 2.81272 2.60867 2.72832 2.35809C2.64391 2.10751 2.77843 1.89913 3.21366 1.76725C5.10489 1.18695 6.99876 0.606656 8.89263 0.0395489C9.08247 -0.013183 9.28309 -0.013183 9.47293 0.0395489C11.438 0.627757 13.4005 1.23179 15.3629 1.82791C15.6003 1.89649 15.8008 1.98881 15.8245 2.25258Z" fill="#28282E"/>
</svg>
