<svg width="349" height="60" viewBox="0 0 349 60" fill="none" xmlns="http://www.w3.org/2000/svg">
<path d="M51.3954 35.8721C50.3489 36.5116 49.1279 36.6279 48.1977 36.1046C47.0349 35.407 46.3372 33.8372 46.3372 31.686V25.1163C46.3372 21.9767 45.1163 19.7093 43.0233 19.1279C39.4768 18.0814 36.8023 22.4419 35.814 24.0698L29.5349 34.1279V21.7442C29.4768 18.8953 28.5465 17.2093 26.8023 16.686C25.6396 16.3372 23.8954 16.5116 22.2093 19.0698L8.19768 41.5116C6.33722 37.9651 5.34884 34.0116 5.34884 30C5.34884 16.4535 16.2209 5.4651 29.5349 5.4651C42.8489 5.4651 53.721 16.4535 53.721 30V30.0581V30.1163C53.8372 32.7326 53.0233 34.8256 51.3954 35.8721ZM59.0697 30V29.9419V29.8837C59.0115 13.4302 45.7558 0 29.5349 0C13.2558 0 0 13.4302 0 30C0 46.5116 13.2558 60 29.5349 60C37.0349 60 44.1279 57.1512 49.593 51.9767C50.6977 50.9302 50.7558 49.2442 49.7093 48.1395C48.721 47.0349 47.0349 46.9767 45.9303 47.9651C45.9303 47.9651 45.9303 47.9651 45.8721 48.0233C41.4535 52.2093 35.5233 54.593 29.4186 54.593C22.2675 54.593 15.8721 51.4535 11.4535 46.4535L24.0698 26.2209V35.5814C24.0698 40.0581 25.814 41.5116 27.2675 41.9186C28.7209 42.3256 30.9302 42.0349 33.314 38.2558L40.2326 27.0349C40.4651 26.686 40.6396 26.3372 40.8721 26.1046V31.8023C40.8721 35.9884 42.5582 39.3605 45.4651 40.9884C48.0814 42.5 51.3954 42.3256 54.1279 40.6395C57.5 38.4302 59.3022 34.593 59.0697 30ZM100.232 19.7674C100.93 20.1744 101.57 21.1628 101.57 22.0349C101.57 23.4302 100.407 24.593 99.0697 24.593C98.7209 24.593 98.4302 24.4767 98.1395 24.4186C96.5697 23.2558 94.593 22.5 92.4999 22.5C87.5581 22.5 84.186 26.5116 84.186 31.5116C84.186 36.5116 87.6162 40.4651 92.4999 40.4651C94.9418 40.4651 97.1511 39.4767 98.779 37.907C99.186 37.6163 99.7092 37.4419 100.232 37.4419C101.57 37.4419 102.616 38.4884 102.616 39.8256C102.616 40.6977 102.093 41.4535 101.453 41.8605C99.0697 43.8953 95.872 45.2326 92.5581 45.2326C84.9999 45.2326 78.8371 39.0116 78.8371 31.3372C78.8371 23.6628 84.9999 17.4419 92.5581 17.4419C95.3488 17.3837 98.0232 18.2558 100.232 19.7674ZM114.07 25.5814C119.244 25.5814 123.546 29.9419 123.546 35.3488C123.546 40.6977 119.186 45.2907 114.07 45.2907C108.663 45.2907 104.186 40.7558 104.186 35.3488C104.186 29.9419 108.663 25.5814 114.07 25.5814ZM114.012 40.4651C116.279 40.4651 118.198 38.3139 118.198 35.407C118.198 32.5 116.279 30.6395 114.012 30.6395C111.57 30.6395 109.535 32.4419 109.535 35.407C109.535 38.2558 111.57 40.4651 114.012 40.4651ZM126.802 42.2674V28.5465C126.802 27.0349 127.965 25.8139 129.477 25.8139C130.93 25.8139 132.151 27.0349 132.151 28.5465V42.2674C132.151 43.7791 130.93 45 129.477 45C128.023 45 126.802 43.7209 126.802 42.2674ZM126.395 20.6395C126.395 18.8372 127.791 17.4419 129.477 17.4419C131.221 17.4419 132.616 18.8953 132.616 20.6395C132.616 22.3837 131.221 23.7791 129.477 23.7791C127.733 23.7209 126.395 22.3256 126.395 20.6395ZM142.384 34.8256V42.2674C142.384 43.7791 141.163 45 139.709 45C138.256 45 137.035 43.7791 137.035 42.2674V27.907C137.035 26.7442 137.965 25.8139 139.128 25.8139C140.291 25.8139 141.163 26.8023 141.163 27.907C143.314 25.8721 145.233 25.5814 147.035 25.5814C152.384 25.5814 154.767 29.593 154.767 34.186V42.2674C154.767 43.7791 153.546 45 152.093 45C150.639 45 149.419 43.7791 149.419 42.2674V34.8256C149.419 32.5 149.128 30.5233 145.756 30.5233C143.372 30.5233 142.384 32.5 142.384 34.8256ZM172.093 37.6744C171.453 37.6744 171.046 37.3837 170.698 36.9767L164.477 30.2326V42.2674C164.477 43.7791 163.256 45 161.802 45C160.349 45 159.128 43.7791 159.128 42.2674V18.4302C159.302 18.0232 159.709 17.7325 160.116 17.7325C160.581 17.7325 160.988 18.1395 161.279 18.4302L171.221 29.593C171.512 29.9419 171.86 30.1163 172.093 30.1163C172.267 30.1163 172.674 29.9419 172.965 29.593L182.907 18.4302C183.198 18.1395 183.546 17.7325 184.07 17.7325C184.535 17.7325 184.942 18.0232 185.058 18.4302V42.2674C185.058 43.7791 183.895 45 182.384 45C180.93 45 179.709 43.7791 179.709 42.2674V30.2326L173.488 36.9767C173.023 37.3837 172.616 37.6744 172.093 37.6744ZM197.791 40.4651C200.174 40.4651 202.209 38.3139 202.209 35.407C202.209 32.5 200.116 30.5814 197.791 30.5814C195.465 30.5814 193.546 32.5581 193.546 35.407C193.546 38.1977 195.407 40.4651 197.791 40.4651ZM203.488 42.907L203.372 42.2674C202.326 44.3023 199.012 45.2326 196.919 45.2326C191.919 45.2326 188.198 40.6977 188.198 35.2907C188.198 29.9419 191.977 25.5232 197.209 25.5232C198.081 25.5232 201.105 25.7558 203.43 28.4884L203.546 27.8488C203.546 26.686 204.419 25.7558 205.581 25.7558C206.744 25.7558 207.674 26.7442 207.674 27.8488V42.8488C207.674 44.0116 206.744 44.9419 205.581 44.9419C204.36 45 203.488 44.0116 203.488 42.907ZM222.384 30.5233H221.802C218.43 30.6977 217.791 32.6163 217.791 34.8256V42.2674C217.791 43.7791 216.57 45 215.116 45C213.663 45 212.442 43.7791 212.442 42.2674V27.907C212.442 26.7442 213.372 25.8139 214.535 25.8139C215.698 25.8139 216.57 26.8023 216.57 27.907C218.547 26.0465 220.174 25.6395 221.802 25.5814H222.326C223.605 25.5814 224.767 26.686 224.767 28.0814C224.826 29.3605 223.663 30.5233 222.384 30.5233ZM243.023 40.9884C243.256 41.3953 243.43 41.8023 243.43 42.2674C243.43 43.6628 242.151 44.9419 240.756 44.9419C239.826 44.9419 239.012 44.2442 238.372 43.4302L232.209 36.2791V42.2093C232.209 43.7209 230.988 44.9419 229.535 44.9419C228.081 44.9419 226.86 43.7209 226.86 42.2093V20.407C226.86 18.8953 228.023 17.6744 229.535 17.6744C231.047 17.6744 232.209 18.8953 232.209 20.407V34.0116L238.372 27.2093C239.012 26.5116 239.767 25.7558 240.698 25.7558C242.035 25.7558 243.256 26.9767 243.256 28.3721C243.256 28.7791 243.14 29.2442 242.907 29.593L238.023 34.9419L243.023 40.9884ZM253.488 30.5814C252.035 30.5814 249.651 31.3372 249.651 33.6046H257.384C257.326 31.3372 254.884 30.5814 253.488 30.5814ZM260.465 37.0349H249.651C249.651 40.2326 252.733 40.7558 254.07 40.7558C255.058 40.7558 256.454 40.5814 257.558 40.0581C257.907 39.8256 258.43 39.6512 258.954 39.6512C260.116 39.6512 261.105 40.6395 261.105 41.8605C261.105 42.6744 260.581 43.3721 259.942 43.7791C258.314 45 256.163 45.2907 254.128 45.2907C248.721 45.2907 244.244 42.3837 244.244 35.5814C244.244 30.2326 246.977 25.5814 253.372 25.5814C258.547 25.5814 262.442 28.9535 262.558 34.9419C262.558 36.0465 261.628 37.0349 260.465 37.0349ZM275.349 45.2326H273.895C269.826 45.2326 267.442 43.4302 267.442 37.093V30.5233H266.047C264.767 30.5233 263.663 29.3605 263.663 28.0814C263.663 26.686 264.826 25.5814 266.047 25.5814H267.442V20.5232C267.442 19.0116 268.605 17.7907 270.116 17.7907C271.57 17.7907 272.791 19.0116 272.791 20.5232V25.5814H275C276.279 25.5814 277.384 26.686 277.384 28.0814C277.384 29.3605 276.221 30.5233 275 30.5233H272.791V36.0465C272.791 39.7093 272.965 40.4651 274.593 40.4651H275.349C276.628 40.4651 277.733 41.5116 277.733 42.8488C277.733 44.1279 276.628 45.2326 275.349 45.2326ZM301.221 19.7674C301.919 20.1744 302.558 21.1628 302.558 22.0349C302.558 23.4302 301.395 24.593 300.058 24.593C299.709 24.593 299.419 24.4767 299.128 24.4186C297.558 23.2558 295.581 22.5 293.488 22.5C288.547 22.5 285.174 26.5116 285.174 31.5116C285.174 36.5116 288.605 40.4651 293.488 40.4651C295.93 40.4651 298.14 39.4767 299.767 37.907C300.174 37.6163 300.698 37.4419 301.221 37.4419C302.558 37.4419 303.605 38.4884 303.605 39.8256C303.605 40.6977 303.081 41.4535 302.442 41.8605C300.058 43.8953 296.86 45.2326 293.547 45.2326C285.988 45.2326 279.826 39.0116 279.826 31.3372C279.826 23.6628 285.988 17.4419 293.547 17.4419C296.337 17.3837 299.07 18.2558 301.221 19.7674ZM314.767 40.4651C317.151 40.4651 319.186 38.3139 319.186 35.407C319.186 32.5 317.093 30.5814 314.767 30.5814C312.384 30.5814 310.523 32.5581 310.523 35.407C310.523 38.1977 312.442 40.4651 314.767 40.4651ZM320.465 42.907L320.349 42.2674C319.302 44.3023 315.988 45.2326 313.895 45.2326C308.895 45.2326 305.174 40.6977 305.174 35.2907C305.174 29.9419 308.954 25.5232 314.186 25.5232C315.058 25.5232 318.081 25.7558 320.407 28.4884L320.523 27.8488C320.523 26.686 321.395 25.7558 322.558 25.7558C323.721 25.7558 324.651 26.7442 324.651 27.8488V42.8488C324.651 44.0116 323.721 44.9419 322.558 44.9419C321.337 45 320.465 44.0116 320.465 42.907ZM339.244 40.4651C341.628 40.4651 343.488 38.1977 343.488 35.407C343.488 32.5 341.57 30.5814 339.244 30.5814C336.861 30.5814 334.826 32.5 334.826 35.407C334.826 38.3139 336.861 40.4651 339.244 40.4651ZM334.826 43.6628V50.4651C334.826 51.9767 333.605 53.1977 332.151 53.1977C330.698 53.1977 329.477 51.9767 329.477 50.4651V27.907C329.477 26.7442 330.407 25.8139 331.57 25.8139C332.733 25.8139 333.605 26.8023 333.605 28.1395C335.581 26.1046 338.023 25.5814 339.884 25.5814C345.058 25.5814 348.895 29.9419 348.895 35.3488C348.895 40.6977 345.233 45.2907 340.174 45.2907C338.605 45.2326 336.279 44.7674 334.826 43.6628Z" fill="#202024"/>
</svg>
