<svg width="265" height="70" viewBox="0 0 265 70" fill="none" xmlns="http://www.w3.org/2000/svg">
<path d="M109.479 30.3696C108.758 27.562 106.942 25.5076 103.392 25.5076C98.1518 25.5076 95.9605 30.1286 95.9605 34.8181C95.9605 39.5076 98.1518 44.1312 103.392 44.1312C107.196 44.1312 109.281 41.2906 109.621 37.7297H113.798C113.455 43.5833 109.314 47.621 103.399 47.621C96.0721 47.621 91.6895 41.8004 91.6895 34.8156C91.6895 27.8308 96.0568 22 103.384 22C108.895 22.033 113.242 25.0815 113.757 30.3543L109.479 30.3696Z" fill="#202024"/>
<path d="M116.327 38.1611C116.327 32.7513 119.578 28.8506 125.262 28.8506C130.946 28.8506 134.197 32.7513 134.197 38.1611C134.197 43.5709 130.946 47.5096 125.262 47.5096C119.578 47.5096 116.327 43.6064 116.327 38.1611ZM130.294 38.1611C130.294 35.1176 128.754 31.9321 125.262 31.9321C121.769 31.9321 120.23 35.1151 120.23 38.1611C120.23 41.2071 121.769 44.4281 125.262 44.4281C128.754 44.4281 130.294 41.2426 130.294 38.1611Z" fill="#202024"/>
<path d="M137.552 22.5833H141.456V26.2811H137.552V22.5833ZM137.552 29.3296H141.456V47.03H137.552V29.3296Z" fill="#202024"/>
<path d="M145.701 29.3296H149.399V31.9318L149.467 32.0003C150.028 31.0364 150.833 30.2373 151.801 29.6839C152.769 29.1304 153.866 28.842 154.981 28.8477C158.816 28.8477 161.246 30.9021 161.246 34.8713V47.0274H157.342V35.901C157.274 33.1289 156.178 31.9318 153.886 31.9318C151.283 31.9318 149.604 33.9836 149.604 36.5858V47.03H145.701V29.3296Z" fill="#202024"/>
<path d="M187.232 47.0301H184.493L183.844 44.154C181.561 46.7562 179.461 47.6109 176.489 47.6109C169.166 47.6159 164.774 41.7826 164.774 34.8054C164.774 27.8283 169.166 22 176.483 22C181.81 22 186.309 24.8406 186.958 30.3543H182.781C182.37 27.1359 179.565 25.4924 176.483 25.4924C171.244 25.4924 169.052 30.1134 169.052 34.8029C169.052 39.4924 171.244 44.1159 176.483 44.1159C180.864 44.1844 183.26 41.5493 183.331 37.4051H176.826V34.1562H187.224L187.232 47.0301Z" fill="#202024"/>
<path d="M194.389 39.1883C194.389 41.9629 195.896 44.4281 199.147 44.4281C201.407 44.4281 202.776 43.4339 203.459 41.4836H207.159C206.304 45.3513 203.017 47.5096 199.147 47.5096C193.603 47.5096 190.486 43.6394 190.486 38.1966C190.486 33.1622 193.783 28.8506 199.046 28.8506C204.625 28.8506 208.049 33.8825 207.4 39.1883H194.389ZM203.497 36.6216C203.36 34.1564 201.681 31.9321 199.046 31.9321C196.339 31.9321 194.493 33.9839 194.389 36.6216H203.497Z" fill="#202024"/>
<path d="M222.328 35.252C222.019 33.0937 220.444 31.9321 218.288 31.9321C216.259 31.9321 213.426 32.9923 213.426 38.3665C213.426 41.3111 214.727 44.4281 218.116 44.4281C220.375 44.4281 221.95 42.9216 222.328 40.3879H226.232C225.511 44.9759 222.681 47.5096 218.116 47.5096C212.569 47.5096 209.523 43.5709 209.523 38.3665C209.523 33.0252 212.435 28.8506 218.253 28.8506C222.361 28.8506 225.861 30.9049 226.232 35.252H222.328Z" fill="#202024"/>
<path d="M229.529 22.5833H233.432V36.4843L240.485 29.3296H245.279L238.499 35.8325L245.928 47.03H241.16L235.75 38.4347L233.422 40.6945V47.0351H229.529V22.5833Z" fill="#202024"/>
<path d="M246.98 38.1611C246.98 32.7513 250.232 28.8506 255.916 28.8506C261.599 28.8506 264.853 32.7513 264.853 38.1611C264.853 43.5709 261.599 47.5096 255.916 47.5096C250.232 47.5096 246.98 43.6064 246.98 38.1611ZM260.95 38.1611C260.95 35.1176 259.408 31.9321 255.916 31.9321C252.423 31.9321 250.884 35.1151 250.884 38.1611C250.884 41.2071 252.423 44.4281 255.916 44.4281C259.408 44.4281 260.95 41.2426 260.95 38.1611V38.1611Z" fill="#202024"/>
<path d="M69.9997 34.8456C70.0302 41.768 68.0073 48.5439 64.1868 54.3166C60.3663 60.0893 54.9198 64.5994 48.536 67.2766C42.1522 69.9537 35.1179 70.6778 28.3226 69.3571C21.5274 68.0364 15.2763 64.7304 10.36 59.857C5.44371 54.9836 2.08295 48.7618 0.702749 41.9784C-0.677457 35.1949 -0.0151215 28.1545 2.606 21.7475C5.22711 15.3405 9.68929 9.85468 15.4282 5.9837C21.1672 2.11273 27.9251 0.0304976 34.8475 0.000332763C44.1297 -0.0401151 53.0477 3.60829 59.64 10.143C66.2323 16.6777 69.9587 25.5635 69.9997 34.8456Z" fill="#8DC63F"/>
<path d="M67.3745 34.8584C67.4036 41.2606 65.5335 47.5276 62.0007 52.8669C58.4679 58.2062 53.4312 62.378 47.5274 64.8548C41.6237 67.3315 35.118 68.0019 28.8332 66.7813C22.5484 65.5606 16.7667 62.5037 12.2193 57.997C7.67189 53.4904 4.56298 47.7365 3.28573 41.463C2.00848 35.1894 2.62026 28.678 5.04371 22.7522C7.46715 16.8263 11.5934 11.7522 16.9007 8.17146C22.208 4.59073 28.4579 2.66423 34.86 2.63557C43.4445 2.59781 51.6924 5.97128 57.7898 12.014C63.8873 18.0568 67.3349 26.274 67.3745 34.8584V34.8584Z" fill="#F9E988"/>
<path d="M35.5958 4.73291C37.6535 4.36768 39.7595 4.36768 41.8172 4.73291C43.8948 5.06189 45.9031 5.73475 47.7596 6.72385C49.6059 7.73835 51.2012 9.11552 52.7889 10.4065C54.3766 11.6974 55.9567 13.0188 57.4606 14.4644C58.9959 15.8876 60.3357 17.508 61.4451 19.2833C62.5873 21.0445 63.5234 22.9312 64.2349 24.9061C65.5867 28.8778 66.0559 33.1565 65.3813 37.2373H65.1809C64.5038 33.192 63.5856 29.3369 62.1375 25.6695C61.4577 23.8227 60.6579 22.0224 59.7433 20.28C58.7889 18.5373 57.7373 16.8498 56.5933 15.2253C55.4299 13.583 54.004 12.1435 52.373 10.9644C50.7295 9.79269 48.84 9.03436 47.0114 8.31407C45.1828 7.59378 43.3693 6.84813 41.4621 6.3003C39.5549 5.75248 37.6172 5.34161 35.5933 4.94342L35.5958 4.73291Z" fill="white"/>
<path d="M51.4192 23.4326C49.0707 22.7529 46.6359 21.7891 44.1707 20.8152C44.0286 20.1964 43.4808 19.4253 42.3725 18.4844C40.762 17.0869 37.7362 17.1225 35.1214 17.7413C32.2351 17.0616 29.3844 16.8206 26.6478 17.4877C4.26559 23.6532 16.9569 38.6956 8.7395 53.8166C9.9087 56.2971 22.5112 70.7688 40.7467 66.8858C40.7467 66.8858 34.5101 51.8993 48.5837 44.7065C59.9993 38.8503 68.2471 28.0156 51.4192 23.4326Z" fill="#8BC53F"/>
<path d="M54.1837 33.2756C54.1852 33.5439 54.1071 33.8067 53.9593 34.0307C53.8114 34.2546 53.6005 34.4297 53.3531 34.5338C53.1058 34.6379 52.8331 34.6663 52.5696 34.6154C52.3061 34.5645 52.0636 34.4367 51.8728 34.248C51.682 34.0593 51.5514 33.8182 51.4976 33.5553C51.4437 33.2924 51.4691 33.0194 51.5704 32.7709C51.6717 32.5224 51.8444 32.3095 52.0667 32.1592C52.289 32.0088 52.5509 31.9278 52.8192 31.9263C53.1789 31.9249 53.5244 32.0662 53.7802 32.3191C54.0359 32.572 54.181 32.9159 54.1837 33.2756V33.2756Z" fill="white"/>
<path d="M35.1213 17.7312C36.7521 17.8478 42.6489 19.7602 44.1706 20.8051C42.9025 17.1275 38.634 16.6381 35.1213 17.7312Z" fill="#009345"/>
<path d="M36.6736 27.0315C36.6741 28.2696 36.3074 29.4801 35.62 30.5098C34.9325 31.5395 33.9551 32.3422 32.8113 32.8163C31.6676 33.2905 30.409 33.4148 29.1946 33.1735C27.9802 32.9323 26.8647 32.3364 25.989 31.4611C25.1134 30.5858 24.517 29.4704 24.2752 28.2562C24.0335 27.0419 24.1573 25.7832 24.631 24.6393C25.1047 23.4954 25.907 22.5176 26.9364 21.8297C27.9658 21.1418 29.1761 20.7747 30.4142 20.7747C31.2361 20.7743 32.05 20.9359 32.8094 21.2502C33.5688 21.5645 34.2589 22.0253 34.8401 22.6064C35.4214 23.1874 35.8825 23.8773 36.1971 24.6366C36.5117 25.3958 36.6736 26.2097 36.6736 27.0315Z" fill="white"/>
<path d="M34.817 27.0875C34.817 27.9583 34.5588 28.8095 34.075 29.5336C33.5912 30.2576 32.9036 30.822 32.099 31.1552C31.2945 31.4885 30.4092 31.5757 29.5552 31.4058C28.7011 31.2359 27.9166 30.8165 27.3008 30.2008C26.6851 29.585 26.2657 28.8005 26.0958 27.9464C25.9259 27.0924 26.0131 26.2071 26.3464 25.4026C26.6796 24.598 27.244 23.9104 27.968 23.4266C28.6921 22.9428 29.5433 22.6846 30.4141 22.6846C31.5818 22.6846 32.7017 23.1484 33.5274 23.9741C34.3532 24.7999 34.817 25.9197 34.817 27.0875V27.0875Z" fill="#58595B"/>
<path d="M59.2537 36.035C54.1812 39.6086 48.4138 42.3198 40.2319 42.3198C36.4022 42.3198 35.6261 38.2618 33.095 40.2452C31.7888 41.2749 27.183 43.5778 23.5283 43.4028C19.8736 43.2278 13.949 41.0847 12.2979 33.2832C11.6435 41.0847 11.3087 46.8318 8.37939 53.4183C14.2127 62.7593 28.1214 69.9647 40.7468 66.8604C39.3899 57.3875 47.6682 48.11 52.3323 43.3622C54.1076 41.564 57.4808 38.6296 59.2537 36.0299V36.035Z" fill="#8BC53F"/>
<path d="M59.0559 36.2686C57.4809 37.7041 55.6066 38.7668 53.6994 39.7052C51.7689 40.6218 49.7564 41.3546 47.6885 41.8939C45.6189 42.4291 43.4606 42.8323 41.2744 42.6345C39.0881 42.4367 36.8537 41.6936 35.4055 40.0552L35.474 39.9765C37.2494 41.128 39.2986 41.5338 41.3378 41.5921C43.4046 41.655 45.472 41.4848 47.5008 41.0849C49.5502 40.6558 51.5549 40.036 53.4888 39.2334C55.424 38.4345 57.3388 37.5088 58.9874 36.1899L59.0559 36.2686Z" fill="#58595B"/>
</svg>
