<svg width="280" height="50" viewBox="0 0 280 50" fill="none" xmlns="http://www.w3.org/2000/svg">
<path fill-rule="evenodd" clip-rule="evenodd" d="M31.0869 36.5601L27.2498 32.6743C25.7923 34.0342 24.3191 35.1112 22.8289 35.9049C21.3399 36.6978 19.5587 37.0943 17.4865 37.0943C15.8672 37.0943 14.3697 36.779 12.9935 36.1473C11.6173 35.5156 10.4272 34.65 9.42317 33.5484C8.41918 32.4475 7.6426 31.1607 7.09145 29.6874C6.54098 28.2142 6.26639 26.635 6.26639 24.9522C6.26639 23.2681 6.54098 21.6973 7.09145 20.2399C7.6426 18.7832 8.41918 17.5125 9.42317 16.4274C10.4272 15.3428 11.6173 14.4851 12.9935 13.8533C14.3697 13.2223 15.8672 12.9064 17.4865 12.9064C19.4289 12.9064 21.1617 13.295 22.6834 14.0722C24.2057 14.8487 25.6468 15.8691 27.006 17.1318L30.8437 12.7125C30.0344 11.9353 29.1765 11.223 28.2694 10.5749C27.3631 9.92741 26.3756 9.36845 25.3067 8.89924C24.2378 8.42941 23.0641 8.06572 21.7849 7.80687C20.5057 7.54736 19.0888 7.4176 17.535 7.4176C14.9444 7.4176 12.5806 7.8796 10.4435 8.80228C8.30582 9.72493 6.46036 10.9877 4.9059 12.5906C3.35142 14.1934 2.14559 16.063 1.28709 18.2006C0.428593 20.3375 0 22.6206 0 25.0492C0 27.5098 0.437112 29.8087 1.31134 31.9462C2.18557 34.0825 3.39205 35.9363 4.93014 37.5071C6.46822 39.0773 8.28943 40.3159 10.3944 41.2227C12.4993 42.1295 14.7989 42.5825 17.2919 42.5825C18.8791 42.5825 20.3281 42.4448 21.6394 42.1697C22.9507 41.8943 24.1572 41.4902 25.2582 40.956C26.3592 40.4213 27.3874 39.7896 28.3429 39.0615C29.2978 38.3328 30.2126 37.4986 31.0869 36.5601Z" fill="white"/>
<path fill-rule="evenodd" clip-rule="evenodd" d="M108.161 17.0449C108.161 15.9139 108.644 14.9528 109.611 14.1617C110.576 13.3693 111.93 12.9737 113.669 12.9737C115.214 12.9737 116.744 13.2732 118.258 13.8707C119.772 14.4683 121.301 15.3326 122.847 16.4631L126.035 11.9564C124.297 10.5671 122.437 9.50923 120.456 8.78287C118.475 8.05585 116.245 7.69232 113.765 7.69232C112.09 7.69232 110.545 7.92639 109.136 8.39516C107.718 8.86328 106.511 9.53344 105.504 10.4056C104.498 11.2784 103.709 12.3199 103.129 13.5314C102.558 14.7429 102.268 16.0917 102.268 17.5778C102.268 19.1607 102.517 20.5016 103.016 21.6C103.516 22.6984 104.248 23.6353 105.199 24.4107C106.148 25.1861 107.332 25.8321 108.733 26.3492C110.142 26.8664 111.745 27.3339 113.556 27.7541C115.134 28.1418 116.414 28.5134 117.404 28.8683C118.387 29.2241 119.16 29.6039 119.731 30.0071C120.295 30.4112 120.682 30.8552 120.891 31.3396C121.1 31.8249 121.204 32.3733 121.204 32.9872C121.204 34.3126 120.665 35.3626 119.587 36.1372C118.507 36.9134 117.05 37.3003 115.214 37.3003C113.089 37.3003 111.189 36.9205 109.514 36.1615C107.839 35.4025 106.181 34.3126 104.538 32.8905L100.963 37.1552C102.992 38.9962 105.199 40.3615 107.582 41.25C109.965 42.1386 112.461 42.5825 115.069 42.5825C116.841 42.5825 118.467 42.3563 119.949 41.9044C121.422 41.4514 122.694 40.7891 123.741 39.917C124.796 39.0448 125.617 37.979 126.213 36.7192C126.801 35.4593 127.098 34.0216 127.098 32.406C127.098 30.9847 126.865 29.7489 126.398 28.6989C125.93 27.6489 125.238 26.729 124.337 25.9366C123.435 25.1455 122.292 24.4748 120.923 23.9255C119.555 23.377 117.976 22.8762 116.205 22.4238C114.586 22.0361 113.258 21.6641 112.203 21.309C111.157 20.954 110.335 20.5663 109.731 20.1459C109.136 19.7262 108.725 19.2738 108.499 18.7893C108.274 18.3042 108.161 17.723 108.161 17.0449Z" fill="white"/>
<path fill-rule="evenodd" clip-rule="evenodd" d="M174.291 17.525V41.7582H180.194V7.96701H173.855L163.549 23.9456L153.244 7.96701H146.906V41.7582H152.808V17.6214L163.404 33.4555H163.598L174.291 17.525Z" fill="white"/>
<path fill-rule="evenodd" clip-rule="evenodd" d="M229.786 25.0492C229.786 26.7006 229.503 28.2628 228.937 29.7366C228.372 31.2096 227.589 32.4883 226.586 33.5727C225.584 34.6571 224.38 35.5156 222.974 36.1473C221.568 36.7792 220.025 37.0943 218.345 37.0943C216.663 37.0943 215.112 36.7705 213.69 36.1232C212.268 35.4751 211.047 34.6008 210.03 33.5006C209.012 32.3992 208.219 31.112 207.654 29.6388C207.089 28.1659 206.805 26.603 206.805 24.9522C206.805 23.3002 207.089 21.738 207.654 20.2648C208.219 18.791 209.003 17.5126 210.005 16.4274C211.007 15.3428 212.211 14.4851 213.617 13.8533C215.023 13.2223 216.567 12.9064 218.247 12.9064C219.928 12.9064 221.48 13.2302 222.902 13.8783C224.323 14.5257 225.544 15.3999 226.562 16.5008C227.58 17.601 228.372 18.8887 228.937 20.3618C229.503 21.8349 229.786 23.3978 229.786 25.0492ZM236.04 24.9522C236.04 22.5557 235.604 20.2891 234.731 18.1515C233.859 16.0152 232.646 14.1528 231.095 12.5663C229.544 10.9792 227.685 9.72493 225.519 8.80228C223.354 7.8796 220.962 7.4176 218.345 7.4176C215.726 7.4176 213.335 7.88747 211.169 8.82651C209.003 9.76555 207.128 11.0362 205.545 12.6391C203.96 14.2419 202.733 16.1122 201.86 18.2491C200.987 20.386 200.551 22.6527 200.551 25.0492C200.551 27.4451 200.987 29.7109 201.86 31.8486C202.733 33.9861 203.945 35.8478 205.496 37.4344C207.047 39.0208 208.906 40.2757 211.072 41.1984C213.237 42.121 215.629 42.5825 218.247 42.5825C220.865 42.5825 223.257 42.1126 225.422 41.1743C227.589 40.2353 229.463 38.9645 231.047 37.3609C232.631 35.7587 233.859 33.8885 234.731 31.7516C235.604 29.6148 236.04 27.3481 236.04 24.9522Z" fill="white"/>
<path fill-rule="evenodd" clip-rule="evenodd" d="M260.844 17.0449C260.844 15.9139 261.327 14.9528 262.293 14.1617C263.26 13.3693 264.612 12.9737 266.352 12.9737C267.897 12.9737 269.427 13.2732 270.941 13.8707C272.454 14.4683 273.984 15.3326 275.53 16.4631L278.719 11.9564C276.978 10.5671 275.12 9.50923 273.139 8.78287C271.159 8.05585 268.928 7.69232 266.448 7.69232C264.774 7.69232 263.228 7.92639 261.819 8.39516C260.402 8.86328 259.195 9.53344 258.187 10.4056C257.181 11.2784 256.392 12.3199 255.812 13.5314C255.241 14.7429 254.951 16.0917 254.951 17.5778C254.951 19.1607 255.2 20.5016 255.7 21.6C256.199 22.6984 256.931 23.6353 257.881 24.4107C258.831 25.1861 260.015 25.8321 261.416 26.3492C262.825 26.8664 264.428 27.3339 266.239 27.7541C267.817 28.1418 269.097 28.5134 270.087 28.8683C271.069 29.2241 271.843 29.6039 272.415 30.0071C272.978 30.4112 273.363 30.8552 273.574 31.3396C273.784 31.8249 273.888 32.3733 273.888 32.9872C273.888 34.3126 273.347 35.3626 272.27 36.1372C271.19 36.9134 269.733 37.3003 267.897 37.3003C265.772 37.3003 263.871 36.9205 262.197 36.1615C260.523 35.4025 258.864 34.3126 257.221 32.8905L253.646 37.1552C255.675 38.9962 257.881 40.3615 260.265 41.25C262.648 42.1386 265.143 42.5825 267.752 42.5825C269.524 42.5825 271.15 42.3563 272.632 41.9044C274.104 41.4514 275.377 40.7891 276.424 39.917C277.478 39.0448 278.301 37.979 278.896 36.7192C279.484 35.4593 279.781 34.0216 279.781 32.406C279.781 30.9847 279.546 29.7489 279.082 28.6989C278.615 27.6489 277.921 26.729 277.019 25.9366C276.118 25.1455 274.975 24.4748 273.607 23.9255C272.237 23.377 270.659 22.8762 268.888 22.4238C267.269 22.0361 265.941 21.6641 264.886 21.309C263.84 20.954 263.018 20.5663 262.414 20.1459C261.819 19.7262 261.408 19.2738 261.182 18.7893C260.957 18.3042 260.844 17.723 260.844 17.0449Z" fill="white"/>
<path fill-rule="evenodd" clip-rule="evenodd" d="M71.5773 14.7317L55.4041 30.8833C55.1956 30.4792 55.0074 30.0582 54.8388 29.6213C54.274 28.1538 53.9915 26.5967 53.9915 24.9524C53.9915 23.3066 54.274 21.7502 54.8388 20.2827C55.4041 18.8145 56.1874 17.5408 57.1888 16.4597C58.1904 15.3793 59.394 14.5248 60.7986 13.8954C62.2044 13.2667 63.7464 12.9521 65.4259 12.9521C67.106 12.9521 68.6565 13.2746 70.077 13.9202C70.6055 14.1598 71.1055 14.4301 71.5773 14.7317ZM70.1503 36.1052C68.7448 36.7344 67.2027 37.0486 65.5232 37.0486C63.8432 37.0486 62.2926 36.726 60.8713 36.0812C60.3437 35.8407 59.8437 35.5705 59.3724 35.2683L75.5448 19.118C75.7535 19.5214 75.9418 19.9419 76.1104 20.3793C76.6751 21.8468 76.9576 23.4038 76.9576 25.0489C76.9576 26.694 76.6751 28.2503 76.1104 29.7186C75.5448 31.1861 74.7617 32.4598 73.7601 33.5402C72.7587 34.6208 71.5557 35.476 70.1503 36.1052ZM72.5973 41.1131C74.7617 40.1776 76.6352 38.9118 78.218 37.3142C79.8005 35.718 81.0276 33.8549 81.8997 31.726C82.7724 29.5973 83.2085 27.3391 83.2085 24.9524C83.2085 22.5649 82.7724 20.3068 81.8997 18.1773C81.3828 16.9148 80.7459 15.7488 79.9902 14.6788L90.5093 4.17418L86.3295 0L75.7784 10.5366C74.8311 9.89164 73.8027 9.33413 72.694 8.86344C70.5295 7.94426 68.1393 7.48402 65.5232 7.48402C62.9063 7.48402 60.5164 7.95208 58.3519 8.8876C56.1874 9.82309 54.3137 11.0889 52.7311 12.6857C51.1484 14.2825 49.9208 16.1457 49.0486 18.2746C48.1765 20.4034 47.7404 22.6616 47.7404 25.049C47.7404 27.4358 48.1765 29.6932 49.0486 31.8227C49.5664 33.0858 50.203 34.2519 50.9587 35.3224L40.4404 45.826L44.6202 50L55.1708 39.4639C56.118 40.109 57.1464 40.6667 58.2552 41.1372C60.4197 42.0563 62.8096 42.5161 65.4259 42.5161C68.0426 42.5161 70.4328 42.0478 72.5973 41.1131Z" fill="white"/>
</svg>
