<svg width="115" height="20" viewBox="0 0 115 20" fill="none" xmlns="http://www.w3.org/2000/svg">
<path d="M7.40743 20C11.7037 20 15 17.8148 15 13.926C15 10.4445 12.2593 9.00003 10.1852 8.29631L7.77779 7.40743C6.48149 7.00001 6.11112 6.40742 6.11112 5.77779C6.11112 5.11112 6.66668 4.44446 7.77779 4.44446C8.55558 4.44446 9.51853 4.77779 10 6.25927L14.4815 5.14816C13.8148 2.03704 11.1852 0 7.55558 0C3.77779 0 0.555556 2.11112 0.555556 5.70371C0.555556 8.11113 1.92593 10.1852 5.11112 11.3334L7.70371 12.2963C8.96298 12.7037 9.33335 13.2963 9.33335 13.926C9.33335 15 8.37038 15.5186 7.33336 15.5186C5.51853 15.5186 4.85186 14.2222 4.55557 13.2963L0 14.5186C0.592594 18.1852 3.51852 20 7.40743 20Z" fill="#202024"/>
<path d="M26.4569 0C21.4939 0 16.6421 3.51852 16.6421 10.0371C16.6421 16.3704 21.4569 20 26.7903 20C30.3088 20 33.0495 18.5555 34.6421 16.5556L32.0496 13.8519C30.6422 14.9259 29.1236 15.3334 27.4199 15.3334C24.8644 15.3334 22.9384 14.2963 22.1606 12.2222H35.8643C37.0866 3.40742 31.3459 0 26.4569 0ZM26.531 4.81483C28.457 4.81483 30.4199 5.88891 30.8273 8.11113H22.0496C22.6792 5.81483 24.6051 4.81483 26.531 4.81483Z" fill="#202024"/>
<path d="M50.0629 0C47.3221 0 45.4332 1.18519 44.3592 2.81482V0.37037H38.6184V19.6297H44.3592V9.29632C44.3592 6.88891 45.5813 5.11112 47.9147 5.11112C50.2851 5.11112 51.5073 6.88891 51.5073 9.29632V19.6297H57.2481V8.29631C57.2481 2.40742 53.9517 0 50.0629 0Z" fill="#202024"/>
<path d="M60.7178 19.6297H66.4585V0.370361H60.7178V19.6297Z" fill="#202024"/>
<path d="M82.8297 0.370361V10.7037C82.8297 13.1111 81.6074 14.8889 79.274 14.8889C76.9037 14.8889 75.6814 13.1111 75.6814 10.7037V0.370361H69.9407V11.7037C69.9407 17.5927 73.2371 20 77.1259 20C79.8667 20 81.7556 18.8148 82.8297 17.1852V19.6297H88.5705V0.370361H82.8297Z" fill="#202024"/>
<path d="M98.3364 20C102.633 20 105.929 17.8148 105.929 13.926C105.929 10.4445 103.188 9.00003 101.114 8.29631L98.7069 7.40743C97.4104 7.00001 97.0401 6.40742 97.0401 5.77779C97.0401 5.11112 97.5957 4.44446 98.7069 4.44446C99.4847 4.44446 100.448 4.77779 100.929 6.25927L105.41 5.14816C104.744 2.03704 102.114 0 98.4846 0C94.7068 0 91.4846 2.11112 91.4846 5.70371C91.4846 8.11113 92.855 10.1852 96.0401 11.3334L98.6328 12.2963C99.892 12.7037 100.262 13.2963 100.262 13.926C100.262 15 99.2994 15.5186 98.2623 15.5186C96.4476 15.5186 95.7809 14.2222 95.4846 13.2963L90.929 14.5186C91.5217 18.1852 94.4476 20 98.3364 20Z" fill="#202024"/>
<path d="M111.164 19.9999C112.905 19.9999 114.423 18.7037 114.423 16.7407C114.423 14.7778 112.905 13.4814 111.164 13.4814C109.423 13.4814 107.905 14.7778 107.905 16.7407C107.905 18.7037 109.423 19.9999 111.164 19.9999Z" fill="#202024"/>
</svg>
