<svg width="127" height="30" viewBox="0 0 127 30" fill="none" xmlns="http://www.w3.org/2000/svg">
<path d="M27.5865 7.67172C27.4836 14.3979 25.6083 19.8856 21.4815 24.495C19.5306 26.5963 17.246 28.3609 14.7198 29.7177C14.4454 29.9017 14.1224 30 13.792 30C13.4616 30 13.1386 29.9017 12.8642 29.7177C7.85519 26.9836 4.04897 23.1379 1.87287 17.8005C0.1644 13.7117 -0.389841 9.23262 0.270459 4.8507C0.333764 4.42339 0.31398 3.95256 0.867899 3.85365C1.42182 3.75472 1.52073 4.2493 1.70273 4.60539C3.35658 7.83921 5.01042 11.0717 6.66426 14.3029C6.70796 14.4285 6.79256 14.5357 6.90447 14.6074C7.01639 14.6792 7.14915 14.7113 7.28148 14.6986C11.7563 14.6986 16.2312 14.6986 20.7101 14.6986C20.8005 14.6903 20.8878 14.6614 20.9654 14.6141C21.0429 14.5667 21.1085 14.5022 21.1571 14.4256C22.7766 11.1047 24.3818 7.77855 25.9722 4.44712C26.1305 4.11873 26.2967 3.83386 26.6924 3.88926C27.0881 3.94464 27.2265 4.24534 27.2621 4.63704C27.3768 5.82796 27.5193 7.04658 27.5865 7.67172ZM20.3697 15.9132H7.51491L13.7979 28.1983C16.0097 24.0598 18.1739 20.0202 20.3697 15.9132ZM1.37829 6.61137C0.713592 15.2287 4.56728 23.5296 12.2984 27.9333C8.62671 20.7718 4.9946 13.6936 1.36643 6.61137H1.37829ZM15.4281 27.8304C19.0508 25.7166 21.9908 22.6077 23.8991 18.8727C26.1108 14.5878 26.6687 8.94178 26.2017 6.63906C22.9455 13.9468 19.0997 20.8312 15.4281 27.8304Z" fill="#202024"/>
<path d="M78.6619 16.4517L82.1713 20.6218C81.5975 20.6218 81.1307 20.6455 80.6678 20.6218C80.4929 20.5693 80.3399 20.4609 80.2325 20.3133C79.2395 19.1263 78.2544 17.9709 77.2771 16.788C77.2 16.6807 77.0974 16.5946 76.9784 16.5373C76.8596 16.4799 76.7284 16.4532 76.5965 16.4595C75.1919 16.4595 73.7873 16.4595 72.3274 16.4595V20.5704H71.0771V9.44458H80.1139C81.4948 9.44458 82.2148 10.1607 82.2228 11.5415C82.2228 12.5386 82.2228 13.5198 82.2228 14.5327C82.2375 14.7908 82.1971 15.049 82.1039 15.2902C82.0109 15.5313 81.8675 15.7498 81.6832 15.9312C81.499 16.1124 81.2781 16.2523 81.0355 16.3414C80.7928 16.4304 80.5339 16.4667 80.276 16.4476L78.6619 16.4517ZM76.6558 10.7225C75.4689 10.7225 74.2543 10.7225 73.0553 10.7225C72.5054 10.7225 72.3194 10.9204 72.3155 11.4703C72.3155 12.4489 72.3155 13.4262 72.3155 14.4021C72.3155 14.9798 72.5054 15.1935 73.0792 15.1935C75.4531 15.1935 77.827 15.1935 80.2009 15.1935C80.7707 15.1935 80.9684 14.9838 80.9684 14.4021C80.9684 13.4407 80.9684 12.4753 80.9684 11.5139C80.9684 10.9125 80.7707 10.7225 80.1772 10.7225H76.6558Z" fill="#202024"/>
<path d="M63.7771 9.46802V10.6787H54.8906V14.3623H62.0125V15.6443H54.8906V19.3436H63.7771V20.582H53.6404V9.46802H63.7771Z" fill="#202024"/>
<path d="M46.3603 19.3833V20.6137C46.1863 20.6137 46.0358 20.6415 45.8816 20.6415H37.2998C35.9585 20.6415 35.2188 19.8976 35.2188 18.5563C35.2188 16.1824 35.2188 13.8481 35.2188 11.4939C35.2188 10.212 35.9704 9.4563 37.2445 9.4563H46.3446V10.6789C46.1665 10.6789 45.9846 10.7026 45.8025 10.7026H37.4542C36.6391 10.7026 36.4729 10.8648 36.4729 11.668V18.4377C36.4729 19.1815 36.6549 19.3596 37.3987 19.3596H46.3603V19.3833Z" fill="#202024"/>
<path d="M121.86 15.0312L126.548 20.6217C125.974 20.6217 125.508 20.6415 125.045 20.6217C124.918 20.6217 124.779 20.4714 124.685 20.3567C123.458 18.9086 122.232 17.4605 121.025 16.0044C120.946 15.899 120.842 15.8147 120.723 15.7595C120.603 15.7041 120.472 15.6795 120.34 15.6879C119.3 15.6879 118.255 15.6879 117.175 15.6879V20.5901H115.925V9.46029H117.112V14.3783C118.299 14.3783 119.43 14.3783 120.566 14.3783C120.7 14.3783 120.859 14.22 120.962 14.0974C122.148 12.7007 123.335 11.304 124.499 9.8876C124.601 9.73124 124.744 9.60674 124.914 9.52836C125.083 9.44999 125.271 9.42092 125.456 9.44447C125.761 9.47612 126.073 9.44447 126.505 9.44447C124.922 11.3476 123.399 13.1715 121.86 15.0312Z" fill="#202024"/>
<path d="M93.8785 20.5701V10.6787H88.9446V9.46802H100.047V10.6787H95.1445V20.5701H93.8785Z" fill="#202024"/>
<path d="M23.7367 3.37887C23.74 3.48375 23.7163 3.58772 23.6678 3.68081C23.6194 3.7739 23.5478 3.85301 23.4602 3.91058C23.3725 3.96815 23.2714 4.00223 23.1667 4.00958C23.062 4.01694 22.9573 3.99731 22.8623 3.95258C21.6517 3.59649 20.4409 3.22457 19.2341 2.85662C17.5447 2.33831 15.8552 1.81208 14.1579 1.31355C13.9056 1.24237 13.6386 1.24237 13.3864 1.31355C10.6524 2.12861 7.91049 2.97135 5.18838 3.80619C4.56325 4.00005 4.21902 3.91301 4.09242 3.53714C3.9658 3.16127 4.16758 2.8487 4.82043 2.65088C7.65727 1.78043 10.4981 0.909984 13.3389 0.0593234C13.6236 -0.0197745 13.9246 -0.0197745 14.2093 0.0593234C17.1569 0.941636 20.1007 1.84769 23.0443 2.74187C23.4004 2.84474 23.7011 2.98322 23.7367 3.37887Z" fill="#202024"/>
<path d="M108.079 20.5979H106.892V9.46802H108.079V20.5979Z" fill="#202024"/>
</svg>
