<svg width="109" height="40" viewBox="0 0 109 40" fill="none" xmlns="http://www.w3.org/2000/svg">
<path d="M34.1381 5.85871C30.3574 2.07769 25.3415 0 19.9981 0C8.97436 0 0 8.97526 0 20.0001C0 31.025 8.97436 40 19.9981 40C25.3415 40 30.3574 37.9225 34.1381 34.1415C37.9187 30.3605 39.9964 25.3441 39.9964 20.0001C39.9964 14.6561 37.9187 9.63972 34.1381 5.85871ZM19.9981 38.9707C9.53583 38.9707 1.02938 30.4634 1.02938 20.0001C1.02938 9.53677 9.53583 1.02949 19.9981 1.02949C30.4604 1.02949 38.9668 9.53677 38.9668 20.0001C38.9668 30.4634 30.4604 38.9707 19.9981 38.9707Z" fill="#202024"/>
<path d="M22.0281 17.8957C18.9306 16.4825 16.2542 15.2659 16.4507 12.3084C16.535 11.148 17.3678 10.4554 18.051 10.081C18.9025 9.61307 20.0442 9.36974 21.0361 9.43524C23.6751 9.61307 25.7526 10.7268 27.7739 13.0384L28.5506 12.3646C26.3609 9.85639 23.9933 8.60228 21.1016 8.40577C20.877 8.38705 20.6525 8.38705 20.4185 8.39641C20.3717 8.39641 20.3249 8.39641 20.2875 8.39641C18.3878 8.39641 16.3197 9.0141 14.7289 10.0623C12.8573 11.2977 11.8091 12.9917 11.781 14.8354C11.7062 19.3464 15.4401 20.8812 18.7341 22.2383C21.7661 23.4924 24.3957 24.5687 24.3395 27.5355C24.3115 29.5383 21.5602 30.6146 19.6231 30.6146C19.595 30.6146 19.5763 30.6146 19.5482 30.6146V30.6239H19.5389C16.6753 30.5865 14.1299 29.3886 11.9682 27.0675L11.2102 27.7694C13.5404 30.2777 16.4133 31.6253 19.5295 31.6628C19.5763 31.6628 19.6231 31.6628 19.6699 31.6628C21.6818 31.6628 23.8529 31.1293 25.5186 30.2121C27.5587 29.0984 28.7471 27.4793 28.8688 25.6637C29.1776 21.1527 25.3783 19.4213 22.0281 17.8957ZM27.8394 25.5795C27.7178 27.4419 26.2392 28.6305 25.0227 29.295C24.9104 29.3605 24.7981 29.4166 24.6858 29.4728C25.1069 28.93 25.3595 28.2842 25.3783 27.5448C25.4344 23.8761 22.234 22.5565 19.1365 21.2837C15.8612 19.936 12.7637 18.6538 12.8198 14.8447C12.8385 13.3567 13.7275 11.9622 15.3091 10.914C15.543 10.7549 15.7957 10.6145 16.0577 10.4741C15.6927 10.9982 15.4775 11.5878 15.4401 12.2242C15.1874 15.8929 18.4533 17.381 21.6163 18.8129C24.9478 20.3478 28.1014 21.7891 27.8394 25.5795Z" fill="#202024"/>
<path d="M52.0725 18.6993C51.3896 18.6993 50.7154 18.587 50.0604 18.3718C49.4054 18.1565 48.844 17.8383 48.3762 17.4358L49.1528 16.1256C49.6488 16.4812 50.1353 16.7433 50.6126 16.9305C51.0804 17.1083 51.5577 17.2019 52.0259 17.2019C52.4375 17.2019 52.765 17.127 53.0084 16.9679C53.2515 16.8088 53.3638 16.5936 53.3638 16.2941C53.3638 16.004 53.2236 15.7887 52.9427 15.6577C52.6622 15.5266 52.2036 15.3675 51.5764 15.1897C51.0433 15.04 50.5939 14.8996 50.2198 14.7686C49.8452 14.6375 49.546 14.4784 49.3117 14.31C49.0874 14.1415 48.9189 13.945 48.8161 13.7204C48.7129 13.4957 48.6567 13.2337 48.6567 12.9155C48.6567 12.5037 48.7412 12.1293 48.9002 11.7924C49.0591 11.4648 49.2838 11.1747 49.5739 10.9407C49.864 10.7068 50.201 10.529 50.5939 10.4073C50.9872 10.2856 51.4083 10.2201 51.8665 10.2201C52.4749 10.2201 53.055 10.3043 53.5885 10.4821C54.122 10.66 54.6181 10.9407 55.0576 11.3432L54.2157 12.6066C53.8037 12.2978 53.4013 12.0638 53.0084 11.9234C52.6152 11.7737 52.2315 11.7082 51.8478 11.7082C51.4924 11.7082 51.2023 11.7831 50.9589 11.9234C50.7154 12.0732 50.6035 12.3072 50.6035 12.6254C50.6035 12.7751 50.6314 12.8874 50.6875 12.981C50.7437 13.0746 50.8373 13.1588 50.9589 13.2337C51.0804 13.3085 51.2489 13.3741 51.4454 13.4396C51.6513 13.5051 51.9039 13.58 52.2036 13.6455C52.765 13.7952 53.2423 13.9356 53.6447 14.0853C54.0471 14.2351 54.3746 14.3942 54.6272 14.5814C54.8799 14.7686 55.0671 14.9838 55.1886 15.2271C55.3106 15.4705 55.3667 15.7606 55.3667 16.1069C55.3667 16.9024 55.0671 17.5388 54.4774 17.9974C53.8973 18.4747 53.0925 18.6993 52.0725 18.6993Z" fill="#202024"/>
<path d="M65.4647 15.0113H58.9424C59.0543 15.6196 59.3539 16.1063 59.8404 16.4713C60.3273 16.8269 60.9262 17.0048 61.6374 17.0048C62.5546 17.0048 63.3028 16.7053 63.8925 16.0969L64.9312 17.2949C64.5571 17.7441 64.0889 18.0811 63.5184 18.3056C62.9474 18.5303 62.3015 18.6519 61.5903 18.6519C60.6735 18.6519 59.8687 18.4741 59.1762 18.1091C58.4838 17.7441 57.9407 17.2387 57.5666 16.593C57.1829 15.9472 56.9956 15.2078 56.9956 14.3936C56.9956 13.5794 57.1829 12.8587 57.5478 12.2036C57.9128 11.5579 58.4276 11.0524 59.0826 10.6875C59.7376 10.3225 60.4767 10.1447 61.2911 10.1447C62.1051 10.1447 62.8259 10.3225 63.4622 10.6781C64.0985 11.0338 64.5945 11.5391 64.9595 12.1849C65.3149 12.8307 65.4926 13.5888 65.4926 14.431C65.4926 14.5714 65.4834 14.7586 65.4647 15.0113ZM59.7093 12.2504C59.279 12.6154 59.0169 13.1114 58.9236 13.7198H63.6399C63.5558 13.1208 63.3028 12.6341 62.8725 12.2598C62.4422 11.8854 61.9179 11.6982 61.2816 11.6982C60.664 11.6889 60.14 11.876 59.7093 12.2504Z" fill="#202024"/>
<path d="M69.4698 18.1091C68.7869 17.7441 68.2534 17.2387 67.8697 16.593C67.486 15.9472 67.2896 15.2078 67.2896 14.3936C67.2896 13.57 67.486 12.84 67.8697 12.1942C68.2534 11.5485 68.7869 11.0431 69.4698 10.6875C70.1531 10.3225 70.9296 10.1447 71.8002 10.1447C72.6238 10.1447 73.335 10.3131 73.9526 10.6407C74.5701 10.9776 75.0379 11.4549 75.3467 12.0726L73.8494 12.943C73.6063 12.5592 73.3163 12.2691 72.9513 12.082C72.5955 11.8854 72.2026 11.7918 71.7719 11.7918C71.042 11.7918 70.4432 12.0258 69.9658 12.5031C69.4885 12.9711 69.2455 13.6074 69.2455 14.3936C69.2455 15.1798 69.4793 15.8162 69.9567 16.2841C70.4244 16.7614 71.0328 16.9954 71.7719 16.9954C72.1931 16.9954 72.5863 16.9018 72.9513 16.7053C73.3067 16.5088 73.6063 16.228 73.8494 15.8442L75.3467 16.7146C75.0287 17.3417 74.5514 17.819 73.9338 18.1559C73.3163 18.4928 72.6051 18.6613 71.7907 18.6613C70.9205 18.6519 70.1531 18.4741 69.4698 18.1091Z" fill="#202024"/>
<path d="M82.4407 10.1368V11.9899C82.2721 11.9619 82.1223 11.9431 81.9912 11.9431C81.2334 11.9431 80.6437 12.1677 80.2134 12.6076C79.7827 13.0475 79.5771 13.6839 79.5771 14.5169V18.5506H77.6304V10.2304H79.4835V11.4471C80.0449 10.5767 81.0274 10.1368 82.4407 10.1368Z" fill="#202024"/>
<path d="M92.2853 15.0113H85.7625C85.8749 15.6196 86.1745 16.1063 86.661 16.4713C87.1475 16.8269 87.7467 17.0048 88.4579 17.0048C89.3747 17.0048 90.1234 16.7053 90.713 16.0969L91.7518 17.2949C91.3776 17.7441 90.9095 18.0811 90.3385 18.3056C89.768 18.5303 89.1221 18.6519 88.4109 18.6519C87.4937 18.6519 86.6889 18.4741 85.9964 18.1091C85.3039 17.7441 84.7612 17.2387 84.3871 16.593C84.0034 15.9472 83.8162 15.2078 83.8162 14.3936C83.8162 13.5794 84.0034 12.8587 84.3684 12.2036C84.7334 11.5579 85.2477 11.0524 85.9032 10.6875C86.5582 10.3225 87.2973 10.1447 88.1117 10.1447C88.9257 10.1447 89.646 10.3225 90.2827 10.6781C90.919 11.0338 91.4147 11.5391 91.7797 12.1849C92.1355 12.8307 92.3132 13.5888 92.3132 14.431C92.3227 14.5714 92.3132 14.7586 92.2853 15.0113ZM86.5395 12.2504C86.1088 12.6154 85.847 13.1114 85.7534 13.7198H90.4696C90.3855 13.1208 90.1329 12.6341 89.7022 12.2598C89.2719 11.8854 88.748 11.6982 88.1117 11.6982C87.4937 11.6889 86.9698 11.876 86.5395 12.2504Z" fill="#202024"/>
<path d="M99.7989 18.0909C99.5742 18.2781 99.2937 18.4185 98.9662 18.512C98.6386 18.6056 98.2924 18.6524 97.9274 18.6524C97.0102 18.6524 96.3082 18.4091 95.8126 17.9318C95.3165 17.4545 95.0639 16.7619 95.0639 15.8447V11.8391H93.6973V10.2949H95.0639V8.39502H97.0102V10.2949H99.2375V11.8485H97.0102V15.8073C97.0102 16.2097 97.113 16.5186 97.3095 16.7338C97.5063 16.9491 97.7964 17.0521 98.1705 17.0521C98.6104 17.0521 98.9662 16.9397 99.2562 16.7057L99.7989 18.0909Z" fill="#202024"/>
<path d="M55.2552 24.1371C55.8636 24.7361 56.1628 25.6065 56.1628 26.7483V31.5026H55.0588V26.8606C55.0588 26.0089 54.8436 25.3631 54.4225 24.9139C53.9918 24.4647 53.3929 24.2401 52.5976 24.2401C51.7179 24.2401 51.0159 24.5021 50.5015 25.0262C49.9867 25.5503 49.7341 26.271 49.7341 27.1975V31.4933H48.6296V23.3042H49.6871V24.811C49.9867 24.3149 50.4078 23.9219 50.9414 23.6505C51.4745 23.3791 52.092 23.2386 52.8032 23.2386C53.8328 23.2386 54.6468 23.5381 55.2552 24.1371Z" fill="#202024"/>
<path d="M66.2136 27.7403H59.3637C59.429 28.592 59.7566 29.2752 60.3462 29.7993C60.9359 30.3234 61.6846 30.5854 62.5922 30.5854C63.0974 30.5854 63.5656 30.4919 63.9959 30.314C64.417 30.1362 64.7912 29.8648 65.0999 29.5092L65.7271 30.2298C65.3621 30.6697 64.9131 30.9972 64.3608 31.2312C63.8182 31.4558 63.2193 31.5775 62.5639 31.5775C61.722 31.5775 60.9825 31.3997 60.3275 31.044C59.6816 30.6884 59.1764 30.1924 58.8115 29.556C58.4465 28.9196 58.2688 28.2083 58.2688 27.4034C58.2688 26.6079 58.4465 25.8872 58.7927 25.2509C59.139 24.6144 59.6163 24.1278 60.2247 23.7721C60.8327 23.4165 61.516 23.2386 62.2739 23.2386C63.0321 23.2386 63.715 23.4165 64.3142 23.7721C64.9131 24.1278 65.3904 24.6144 65.7271 25.2415C66.0733 25.8685 66.2419 26.5892 66.2419 27.394L66.2136 27.7403ZM60.2713 24.9514C59.7378 25.4567 59.429 26.1119 59.3637 26.9261H65.1749C65.0999 26.1119 64.8007 25.4567 64.2672 24.9514C63.7337 24.446 63.0695 24.1933 62.2647 24.1933C61.469 24.1933 60.8048 24.446 60.2713 24.9514Z" fill="#202024"/>
<path d="M72.436 30.9979C72.23 31.185 71.9682 31.3254 71.6686 31.4284C71.3598 31.5313 71.0418 31.5781 70.7143 31.5781C69.9469 31.5781 69.3573 31.3722 68.9361 30.951C68.5245 30.5393 68.309 29.9497 68.309 29.1916V24.2407H66.8491V23.3048H68.309V21.5172H69.4134V23.3048H71.9025V24.2407H69.4134V29.1354C69.4134 29.6221 69.535 29.9964 69.7784 30.2491C70.0214 30.5018 70.3772 30.6329 70.8263 30.6329C71.051 30.6329 71.2757 30.5954 71.4909 30.5205C71.706 30.4457 71.8837 30.3427 72.0431 30.2117L72.436 30.9979Z" fill="#202024"/>
<path d="M83.947 23.3677H85.2667L81.8134 31.5006H80.6811L79.0435 27.5324L77.4247 31.5006H76.2923L72.8391 23.3677H74.1492L76.9565 30.1436L78.3228 26.765L76.9191 23.3864H78.0514L79.0527 25.9882L80.0539 23.3864H81.1863L79.7922 26.765L81.1584 30.1436L83.947 23.3677Z" fill="#202024"/>
<path d="M89.7022 31.6509C89.1125 31.6509 88.5698 31.5386 88.0829 31.314C87.5964 31.0894 87.1753 30.7899 86.8103 30.4062C86.4549 30.0225 86.174 29.5732 85.9776 29.0679C85.7812 28.5624 85.678 28.029 85.678 27.4675C85.678 26.8965 85.7812 26.3537 85.9776 25.8484C86.1836 25.343 86.4641 24.8937 86.8199 24.51C87.1753 24.1263 87.5964 23.8175 88.0925 23.5929C88.579 23.3682 89.1125 23.2466 89.6926 23.2466C90.2727 23.2466 90.8158 23.3589 91.3023 23.5929C91.7983 23.8175 92.2195 24.1263 92.5749 24.51C92.9307 24.8937 93.2112 25.343 93.4172 25.8484C93.6231 26.3537 93.7168 26.8965 93.7168 27.4675C93.7168 28.029 93.6136 28.5624 93.4172 29.0679C93.2207 29.5732 92.9398 30.0225 92.5844 30.4062C92.2286 30.7899 91.7983 31.0987 91.3114 31.314C90.8345 31.5386 90.2914 31.6509 89.7022 31.6509ZM86.7541 27.4768C86.7541 27.9354 86.829 28.3566 86.988 28.7496C87.1474 29.1427 87.353 29.4796 87.6152 29.7791C87.8773 30.0786 88.1953 30.3032 88.5511 30.4717C88.9065 30.6402 89.2902 30.7244 89.6926 30.7244C90.095 30.7244 90.4787 30.6402 90.8345 30.4717C91.1899 30.3032 91.5083 30.0692 91.7796 29.7698C92.0509 29.4703 92.2661 29.1334 92.4159 28.7309C92.5749 28.3378 92.6498 27.9073 92.6498 27.4581C92.6498 27.0089 92.5749 26.5877 92.4159 26.1853C92.2569 25.7828 92.0509 25.4366 91.7796 25.1371C91.5083 24.8376 91.1995 24.6036 90.8345 24.4351C90.4787 24.2667 90.095 24.1825 89.6926 24.1825C89.2902 24.1825 88.9065 24.2667 88.5602 24.4351C88.2048 24.6036 87.8961 24.847 87.6247 25.1464C87.353 25.4459 87.1378 25.8016 86.988 26.1946C86.8386 26.5971 86.7541 27.0182 86.7541 27.4768Z" fill="#202024"/>
<path d="M99.5555 24.3142C98.8351 24.333 98.2175 24.5295 97.684 24.9039C97.1505 25.2782 96.7764 25.793 96.5613 26.4481V31.4926H95.5034V23.3784H96.5051V25.325C96.8043 24.698 97.2067 24.2113 97.7215 23.865C98.2267 23.5094 98.7789 23.3315 99.3591 23.3315C99.4435 23.3315 99.5089 23.3409 99.565 23.3503V24.3142H99.5555Z" fill="#202024"/>
<path d="M107.501 31.4925L104.507 27.3371L102.766 28.9562V31.4925H101.709V20.1307H102.766V27.8519L107.324 23.397H108.521L105.209 26.7101L108.652 31.4925H107.501Z" fill="#202024"/>
<path d="M49.071 6.49773H51.2146C52.3415 6.49773 52.9417 5.90979 52.9417 5.11116C52.9417 4.36888 52.4101 3.92057 51.8393 3.89362V3.84463C52.3611 3.72704 52.7457 3.35712 52.7457 2.76673C52.7457 2.01464 52.1872 1.48059 51.0799 1.48059H49.071V6.49773ZM50.1318 5.63051V4.29783H51.0211C51.5306 4.29783 51.8466 4.59181 51.8466 5.00582C51.8466 5.38309 51.5894 5.63051 50.9966 5.63051H50.1318ZM50.1318 3.58005V2.33801H50.9378C51.4081 2.33801 51.6752 2.58054 51.6752 2.94311C51.6752 3.33997 51.3518 3.58005 50.9182 3.58005H50.1318Z" fill="#202024"/>
<path d="M56.0253 4.89558C56.0278 5.40023 55.6824 5.66481 55.3076 5.66481C54.9131 5.66481 54.6584 5.38798 54.6559 4.94458V2.73488H53.6123V5.13076C53.6148 6.01023 54.1292 6.54673 54.8862 6.54673C55.4521 6.54673 55.8588 6.2552 56.0278 5.81425H56.067V6.49773H57.0689V2.73488H56.0253V4.89558Z" fill="#202024"/>
<path d="M57.9037 6.49773H58.9473V2.73488H57.9037V6.49773ZM58.428 2.24982C58.7391 2.24982 58.9939 2.01219 58.9939 1.72067C58.9939 1.4316 58.7391 1.19397 58.428 1.19397C58.1193 1.19397 57.8645 1.4316 57.8645 1.72067C57.8645 2.01219 58.1193 2.24982 58.428 2.24982Z" fill="#202024"/>
<path d="M60.8269 1.48059H59.7833V6.49773H60.8269V1.48059Z" fill="#202024"/>
<path d="M63.6644 2.73488H62.9564V1.83336H61.9128V2.73488H61.3983V3.51881H61.9128V5.47863C61.9079 6.21601 62.4101 6.58102 63.167 6.54918C63.4365 6.53938 63.6276 6.48548 63.7329 6.45119L63.5688 5.67461C63.5174 5.68441 63.4071 5.70891 63.3091 5.70891C63.1009 5.70891 62.9564 5.63051 62.9564 5.34144V3.51881H63.6644V2.73488Z" fill="#202024"/>
<path d="M67.641 6.57123C68.7825 6.57123 69.493 5.78975 69.493 4.631C69.493 3.46491 68.7825 2.68588 67.641 2.68588C66.4994 2.68588 65.7889 3.46491 65.7889 4.631C65.7889 5.78975 66.4994 6.57123 67.641 6.57123ZM67.6459 5.7628C67.1192 5.7628 66.8497 5.28019 66.8497 4.62365C66.8497 3.96712 67.1192 3.48206 67.6459 3.48206C68.1628 3.48206 68.4322 3.96712 68.4322 4.62365C68.4322 5.28019 68.1628 5.7628 67.6459 5.7628Z" fill="#202024"/>
<path d="M71.2152 4.32233C71.2176 3.83728 71.5067 3.5531 71.9281 3.5531C72.347 3.5531 72.5993 3.82748 72.5968 4.28804V6.49773H73.6405V4.10185C73.6405 3.22483 73.126 2.68588 72.3421 2.68588C71.7835 2.68588 71.3793 2.96026 71.2103 3.39877H71.1662V2.73488H70.1716V6.49773H71.2152V4.32233Z" fill="#202024"/>
</svg>
