<svg width="240" height="60" viewBox="0 0 240 60" fill="none" xmlns="http://www.w3.org/2000/svg">
<path d="M18.4035 22.1951V0L0 30.5543L18.4035 22.1951Z" fill="#8891B1"/>
<path d="M18.4035 41.4412V22.1951L0 30.5543L18.4035 41.4412ZM18.4035 22.1951L36.8293 30.5543L18.4035 0V22.1951Z" fill="#63688E"/>
<path d="M18.4036 22.1951V41.4413L36.8293 30.5543L18.4036 22.1951Z" fill="#464A75"/>
<path d="M18.4035 44.9224L0 34.0576L18.4035 60V44.9224Z" fill="#8891B1"/>
<path d="M36.8293 34.0576L18.4036 44.9224V60L36.8293 34.0576Z" fill="#63688E"/>
<path d="M67.6053 34.6785C67.6053 35.0998 67.2284 35.4767 66.8071 35.4767H52.0843C52.4612 38.9801 55.1885 42.3947 59.0466 42.3947C61.6851 42.3947 63.6364 41.3747 65.122 39.2461C65.2772 39.0244 65.4989 38.8692 65.765 38.8692C66.1863 38.8692 66.4967 39.1796 66.4967 39.6009C66.4967 39.7561 66.4523 39.867 66.3858 39.9778C64.9002 42.5721 61.9512 43.8359 59.0466 43.8359C54.0798 43.8359 50.5543 39.4013 50.5543 34.6563C50.5543 29.9113 54.0798 25.4989 59.0466 25.4989C64.0133 25.4989 67.6053 29.9335 67.6053 34.6785V34.6785ZM66.0089 33.969C65.6984 30.2217 62.9047 27.0067 59.0466 27.0067C55.1885 27.0067 52.439 30.2217 52.0843 33.969H66.0089ZM85.4989 25.7428C85.9202 25.7428 86.2306 26.1197 86.2306 26.4967C86.2306 26.918 85.9202 27.2506 85.4989 27.2506H81.5521V42.816C81.5521 43.1929 81.2195 43.5477 80.7982 43.5477C80.3769 43.5477 80.0443 43.1707 80.0443 42.816V27.2506H76.2528C75.8315 27.2506 75.5211 26.918 75.5211 26.4967C75.5211 26.1197 75.8315 25.7428 76.2528 25.7428H80.0443V20.1109C80.0443 19.6896 80.3769 19.3792 80.7982 19.3792C81.2195 19.3792 81.5521 19.6896 81.5521 20.1109V25.7428H85.4989ZM109.49 33.3038V42.7051C109.49 43.1264 109.246 43.4368 108.869 43.4368C108.448 43.4368 108.248 43.1264 108.248 42.7051V33.3038C108.248 30.133 106.408 26.9623 102.86 26.9623C98.3149 26.9623 96.2971 30.9313 96.541 34.9889C96.541 35.0998 96.5188 35.5654 96.5188 35.6319V42.7051C96.5188 43.1264 96.3193 43.4368 95.898 43.4368C95.4767 43.4368 95.2772 43.1264 95.2772 42.7051V11.8182C95.2772 11.4413 95.4767 11.0865 95.898 11.0865C96.3193 11.0865 96.5188 11.4634 96.5188 11.8182V29.2905C98.0266 27.0288 100.044 25.4989 102.683 25.4989C107.007 25.4989 109.49 29.2905 109.49 33.3038V33.3038ZM136.053 34.6785C136.053 35.0998 135.676 35.4767 135.255 35.4767H120.532C120.909 38.9801 123.636 42.3947 127.494 42.3947C130.133 42.3947 132.084 41.3747 133.57 39.2461C133.725 39.0244 133.947 38.8692 134.213 38.8692C134.634 38.8692 134.945 39.1796 134.945 39.6009C134.945 39.7561 134.9 39.867 134.834 39.9778C133.348 42.5721 130.399 43.8359 127.494 43.8359C122.528 43.8359 119.002 39.4013 119.002 34.6563C119.002 29.9113 122.528 25.4989 127.494 25.4989C132.461 25.4989 136.053 29.9335 136.053 34.6785ZM134.479 33.969C134.169 30.2217 131.375 27.0067 127.517 27.0067C123.659 27.0067 120.909 30.2217 120.554 33.969H134.479ZM154.169 26.4967C154.169 26.9623 153.902 27.2284 153.459 27.2949C149.135 27.9379 147.162 31.4634 147.162 35.5876V42.6386C147.162 43.0599 146.829 43.3703 146.408 43.3703C145.987 43.3703 145.654 43.0599 145.654 42.6386V26.541C145.654 26.1197 145.987 25.8093 146.408 25.8093C146.829 25.8093 147.162 26.1197 147.162 26.541V29.8226C148.404 27.7605 150.82 25.8093 153.348 25.8093C153.725 25.8093 154.169 26.0754 154.169 26.4967V26.4967ZM178.381 34.6785C178.381 35.0998 178.004 35.4767 177.583 35.4767H162.86C163.237 38.9801 165.965 42.3947 169.823 42.3947C172.461 42.3947 174.412 41.3747 175.898 39.2461C176.053 39.0244 176.275 38.8692 176.541 38.8692C176.962 38.8692 177.273 39.1796 177.273 39.6009C177.273 39.7561 177.228 39.867 177.162 39.9778C175.676 42.5721 172.727 43.8359 169.823 43.8359C164.856 43.8359 161.33 39.4013 161.33 34.6563C161.33 29.9113 164.856 25.4989 169.823 25.4989C174.789 25.4767 178.381 29.9335 178.381 34.6785V34.6785ZM176.807 33.969C176.497 30.2217 173.703 27.0067 169.845 27.0067C165.987 27.0067 163.237 30.2217 162.882 33.969H176.807ZM202.306 26.6519V42.7938C202.306 43.2151 201.929 43.5255 201.552 43.5255C201.131 43.5255 200.798 43.2151 200.798 42.7938V39.7561C199.557 42.173 197.406 43.9246 194.656 43.9246C190.266 43.9246 187.827 40.133 187.827 36.1197V26.6741C187.827 26.2971 188.16 25.9424 188.581 25.9424C189.002 25.9424 189.335 26.3193 189.335 26.6741V36.1197C189.335 39.2905 191.131 42.4612 194.678 42.4612C199.645 42.4612 200.82 37.8271 200.82 32.7051V26.6962C200.82 26.3193 201.153 25.9645 201.574 25.9645C201.929 25.9202 202.306 26.2971 202.306 26.6519V26.6519ZM239.468 33.2594V42.7051C239.468 43.1264 239.091 43.4368 238.714 43.4368C238.293 43.4368 237.96 43.1264 237.96 42.7051V33.2594C237.96 30.0887 236.164 26.9845 232.616 26.9845C228.182 26.9845 226.475 31.7295 226.475 35.4324V42.7051C226.475 43.1264 226.098 43.4368 225.721 43.4368C225.299 43.4368 224.967 43.1264 224.967 42.7051V33.2594C224.967 30.0887 223.215 26.9845 219.69 26.9845C215.211 26.9845 213.348 30.51 213.503 35.2107V42.7051C213.503 43.1264 213.171 43.4368 212.749 43.4368C212.328 43.4368 211.996 43.1264 211.996 42.7051V26.5632C211.996 26.1419 212.328 25.8315 212.749 25.8315C213.171 25.8315 213.503 26.1419 213.503 26.5632V29.2461C214.745 26.9845 217.073 25.4989 219.712 25.4989C222.727 25.4989 225.055 27.4058 226.009 30.1996C227.228 27.4501 229.601 25.4989 232.661 25.4989C237.007 25.4989 239.468 29.2461 239.468 33.2594Z" fill="#8891B1"/>
</svg>
