<svg width="142" height="50" viewBox="0 0 142 50" fill="none" xmlns="http://www.w3.org/2000/svg">
<path d="M100.13 32.6328C99.2996 32.6328 98.5833 32.9302 97.9828 33.5285C97.39 34.1272 97.087 34.8341 97.087 35.6527C97.087 36.9004 97.7202 37.8712 98.9773 38.5647C100.356 38.9412 101.464 38.696 102.299 37.8426C102.903 37.2401 103.198 36.5178 103.198 35.676C103.198 34.8264 102.903 34.1159 102.299 33.5287C101.7 32.9361 100.982 32.6409 100.128 32.6409V32.633H100.13V32.6328ZM51.186 9.48056H48.916C47.9353 9.48056 47.1365 10.2703 47.1365 11.2532V12.5199C44.7242 10.0077 41.9876 8.75054 38.9311 8.75054C35.4051 8.75054 32.4613 10.0635 30.1123 12.682C27.7585 15.3004 26.5884 18.5754 26.5884 22.5029C26.5884 26.498 27.7605 29.8406 30.1076 32.513C32.4807 35.1329 35.4728 36.4403 39.0972 36.4403C41.9637 36.4403 44.6449 35.2701 47.1388 32.9355V35.4399C47.1388 36.6564 48.1275 37.645 49.341 37.645H53.2165V11.5103C53.2161 10.3921 52.3065 9.48056 51.1858 9.48056H51.186ZM45.4479 28.715C44.0637 30.258 42.2561 31.0284 40.0103 31.0284C37.9104 31.0284 36.1688 30.2347 34.7902 28.6359C33.4452 27.0619 32.7734 25.0115 32.7734 22.4993C32.7734 20.1513 33.4654 18.174 34.8436 16.5793C36.2415 14.9994 37.9822 14.2156 40.0637 14.2156C42.2707 14.2156 44.0618 14.9958 45.4423 16.5638C46.8258 18.1587 47.5181 20.1823 47.5181 22.6387C47.5181 25.0965 46.826 27.1222 45.4423 28.7189H45.4483V28.715H45.4479ZM26.5844 13.9046V11.3151C26.5844 10.2994 25.7658 9.48452 24.7538 9.48452H22.3605C21.3525 9.48452 20.5319 10.2956 20.5319 11.3111V12.4388C18.343 9.9826 15.5985 8.75074 12.2984 8.75074C8.53166 8.75074 5.4965 10.1738 3.20244 13.0027C1.06695 15.6713 0 18.9192 0 22.7425C0 26.6682 1.1498 29.947 3.44782 32.5634C5.72607 35.1528 8.64871 36.4369 12.2191 36.4369C15.3547 36.4369 18.1277 35.213 20.5317 32.7546V36.4138C20.5317 41.8513 18.3171 44.5701 13.888 44.5701C11.4832 44.5701 9.65655 43.7515 8.40135 42.1179C8.08103 41.7046 7.81528 41.1909 7.60391 40.5712C7.30731 39.7042 6.48278 39.1288 5.57124 39.1288H3.27757C2.12085 39.1288 1.26073 40.2294 1.55297 41.3493C2.18057 43.7359 3.39226 45.6747 5.19575 47.1731C7.4562 49.0574 10.3371 50 13.8322 50C17.975 50 21.2317 48.6367 23.6009 45.9141C24.8561 44.4968 25.696 42.8014 26.1275 40.8279C26.2714 40.1173 26.3845 39.2812 26.4636 38.3369C26.5427 37.3985 26.5822 36.3094 26.5822 35.0698V31.2615C24.8877 28.8209 24.0355 25.903 24.0355 22.5029C24.0355 19.1604 24.8857 16.3044 26.5822 13.9044H26.5842L26.5844 13.9046ZM18.9164 28.5083C17.5719 30.1902 15.7448 31.0282 13.4278 31.0282C11.1136 31.0282 9.30241 30.1977 7.99027 28.5237C6.79124 27.0022 6.19054 25.0441 6.19054 22.6614C6.19054 20.2361 6.79104 18.2627 7.99027 16.7414C9.321 15.0399 11.1302 14.1887 13.4278 14.1887C15.5792 14.1887 17.3469 14.9686 18.7264 16.5269C20.0904 18.0506 20.7749 20.086 20.7749 22.6367C20.7749 25.0214 20.154 26.9753 18.9162 28.5048V28.5087L18.9164 28.5083ZM76.9101 9.49994V9.48056H64.3548V1.79143C64.3548 0.802784 63.5556 0.00336107 62.5649 0.00336107H60.1135C59.1154 0.00336107 58.3043 0.81445 58.3043 1.81457V9.48056H55.718V15.1248H58.3007V37.6417H61.7531C63.1925 37.6417 64.3512 36.483 64.3512 35.0425V15.1287H70.5592C71.0495 14.1923 71.6433 13.329 72.3492 12.5392C73.6355 11.1334 75.157 10.1216 76.9065 9.50014H76.9105L76.9101 9.49994ZM107.801 0.00336107C106.728 0.00336107 105.805 0.391506 105.032 1.16601C104.264 1.93617 103.874 2.85344 103.874 3.90972C103.874 5.02412 104.26 5.95859 105.032 6.73686C105.805 7.50722 106.739 7.8916 107.832 7.8916C108.927 7.8916 109.85 7.50742 110.597 6.73291C111.37 5.95484 111.76 5.03183 111.76 3.93503C111.76 2.84237 111.374 1.91541 110.599 1.16621C109.823 0.387945 108.89 0 107.797 0L107.801 0.0035602V0.00336107ZM109.028 12.4505H106.832C105.706 12.4505 104.789 13.358 104.789 14.4934V33.7104C105.253 34.255 105.475 34.898 105.475 35.6395C105.475 36.3809 105.256 37.0299 104.789 37.5764V38.658H108.686C109.879 38.658 110.845 37.6885 110.845 36.4948V14.2581C110.845 13.2576 110.03 12.4469 109.026 12.4469L109.028 12.4509L109.028 12.4505ZM137.48 16.1579C134.753 13.4893 131.434 12.1531 127.524 12.1531C123.631 12.1531 120.329 13.4779 117.622 16.1387C114.915 18.7879 113.559 22.0089 113.559 25.7935C113.559 29.808 114.884 33.1504 117.541 35.8055C120.198 38.4955 123.492 39.8392 127.416 39.8392C131.378 39.8392 134.723 38.5224 137.451 35.8846C140.152 33.2238 141.512 29.9393 141.512 26.01C141.512 22.1151 140.168 18.8324 137.48 16.1581V16.1579ZM133.197 32.1424C131.784 33.6699 129.891 34.4248 127.52 34.4248C125.168 34.4248 123.28 33.6582 121.843 32.1114C120.445 30.59 119.742 28.5123 119.742 25.8977C119.742 23.4609 120.464 21.4681 121.897 19.9272C123.334 18.3824 125.207 17.6118 127.524 17.6118C129.87 17.6118 131.764 18.3824 133.197 19.9272C134.615 21.4488 135.325 23.484 135.325 26.0292C135.325 28.5819 134.611 30.6149 133.197 32.1384V32.1464V32.1424H133.197Z" fill="#202024"/>
<path d="M79.1654 31.084C77.9177 29.8211 77.2209 28.0987 77.0606 25.9439H94.4122C95.2039 25.9439 95.8566 25.3105 95.8681 24.5208C95.8681 20.1897 94.7558 16.8182 92.5334 14.3772C90.2877 11.9195 87.2328 10.6912 83.3824 10.6912C79.567 10.6912 76.4969 11.9558 74.1836 14.4856C71.8868 17.0535 70.7397 20.4037 70.7397 24.5495C70.7397 28.7261 71.9265 32.0822 74.288 34.61C75.941 36.3688 77.9666 37.5061 80.3706 38.0352C81.3786 38.2725 82.423 38.3983 83.4795 38.3829C87.7894 38.4718 91.5394 38.5604 95.8495 38.6494L95.857 38.0161C95.3299 37.4427 95.0653 36.7496 95.0653 35.9462C95.0653 35.1622 95.3413 34.4884 95.8799 33.9053L95.8839 33.1387C92.4855 33.0536 84.2443 32.9726 83.9161 32.9726C81.985 32.9726 80.3979 32.3489 79.166 31.0882V31.0842L79.1654 31.084ZM78.3235 18.981C78.7039 18.3858 79.154 17.884 79.6849 17.463C80.2197 17.0343 80.7991 16.7176 81.4478 16.4937C82.0928 16.2697 82.7841 16.1576 83.5256 16.1576C86.7466 16.1576 88.7856 17.7683 89.635 20.9969H77.4643C77.6633 20.2435 77.9488 19.5718 78.3237 18.977V18.981H78.3235Z" fill="#202024"/>
</svg>
