<svg width="25" height="24" viewBox="0 0 25 24" fill="none" xmlns="http://www.w3.org/2000/svg">
<path fill-rule="evenodd" clip-rule="evenodd" d="M12.2632 0C5.49133 0 0 5.50824 0 12.3038C0 17.7398 3.51377 22.3517 8.38634 23.9787C8.99917 24.0926 9.22419 23.7117 9.22419 23.3867C9.22419 23.0936 9.21279 22.1242 9.20756 21.0961C5.79596 21.8404 5.07606 19.6444 5.07606 19.6444C4.51821 18.2224 3.71444 17.8441 3.71444 17.8441C2.60178 17.0804 3.79831 17.0962 3.79831 17.0962C5.02972 17.1829 5.67813 18.3642 5.67813 18.3642C6.7719 20.245 8.54695 19.7012 9.24676 19.3868C9.35705 18.5918 9.67463 18.0488 10.0254 17.7416C7.30149 17.4307 4.43819 16.3755 4.43819 11.661C4.43819 10.3179 4.91724 9.22031 5.70173 8.35867C5.57439 8.04853 5.15464 6.79715 5.82071 5.10246C5.82071 5.10246 6.85053 4.77193 9.19374 6.36382C10.172 6.09122 11.221 5.95446 12.2632 5.9496C13.3054 5.95422 14.3553 6.09116 15.3353 6.36382C17.6759 4.77193 18.7043 5.10246 18.7043 5.10246C19.3718 6.79715 18.9521 8.04853 18.8247 8.35867C19.6111 9.22031 20.0866 10.3179 20.0866 11.661C20.0866 16.3869 17.2178 17.4272 14.487 17.7318C14.927 18.1136 15.3189 18.8624 15.3189 20.0103C15.3189 21.6566 15.3049 22.9815 15.3049 23.3867C15.3049 23.7144 15.5254 24.098 16.147 23.9772C21.0171 22.3485 24.5264 17.7381 24.5264 12.3038C24.5264 5.50818 19.0359 0 12.2632 0Z" fill="#28282E"/>
<path d="M4.64475 17.6656C4.61769 17.7268 4.52185 17.7452 4.43458 17.703C4.34536 17.6629 4.29568 17.5796 4.32446 17.5182C4.35094 17.4554 4.44673 17.4379 4.53572 17.4799C4.62466 17.5201 4.67537 17.6042 4.64475 17.6656ZM5.14153 18.2214C5.08304 18.2758 4.96849 18.2505 4.89112 18.1646C4.81071 18.0788 4.79585 17.9639 4.8552 17.9089C4.91553 17.8545 5.0264 17.88 5.10659 17.9658C5.187 18.0526 5.20266 18.1665 5.14153 18.2214ZM5.62501 18.93C5.54989 18.9825 5.42681 18.9334 5.35083 18.8241C5.27571 18.7144 5.27571 18.5832 5.35256 18.5307C5.42854 18.4781 5.54977 18.5255 5.62674 18.6339C5.70168 18.7452 5.70168 18.8764 5.62501 18.93ZM6.28734 19.6147C6.22016 19.689 6.077 19.6691 5.97218 19.5676C5.86499 19.4684 5.83517 19.3276 5.90235 19.2532C5.97057 19.1787 6.11453 19.1996 6.22011 19.3002C6.3266 19.3993 6.35884 19.5411 6.28734 19.6147ZM7.20123 20.0121C7.1713 20.1086 7.03372 20.1521 6.89476 20.1112C6.75603 20.069 6.66531 19.9564 6.69328 19.859C6.72218 19.7618 6.86068 19.7163 7.00056 19.7601C7.13906 19.8021 7.23007 19.9142 7.20123 20.0122V20.0121ZM8.20486 20.0858C8.20831 20.1873 8.09054 20.2715 7.94473 20.2732C7.79811 20.2767 7.67936 20.1944 7.67769 20.0945C7.67769 19.9921 7.79305 19.909 7.93943 19.9063C8.08524 19.9034 8.20486 19.9852 8.20486 20.0858ZM9.13872 19.9264C9.15616 20.0252 9.05485 20.1269 8.91008 20.154C8.76772 20.1803 8.6359 20.1189 8.61782 20.021C8.60015 19.9195 8.70313 19.8178 8.84549 19.7916C8.99049 19.7663 9.12024 19.8258 9.13872 19.9264Z" fill="#28282E"/>
</svg>
