<svg width="88" height="24" viewBox="0 0 88 24" fill="none" xmlns="http://www.w3.org/2000/svg">
<path d="M1.90186 5.51715V14.7221H7.27382L11.9924 6.54799H22.6783C20.6892 2.65694 16.653 0 11.9924 0C7.75294 0 4.03612 2.19234 1.90186 5.51715Z" fill="#DB4437"/>
<path d="M1.90186 5.51715V14.7221H7.27382L11.9924 6.54799H22.6783C20.6892 2.65694 16.653 0 11.9924 0C7.75294 0 4.03612 2.19234 1.90186 5.51715Z" fill="url(#paint0_linear_658_7870)"/>
<path d="M1.90186 5.51738L7.28834 14.7368L7.40449 14.6642L1.98897 5.37219C1.95993 5.43027 1.93089 5.47382 1.90186 5.51738Z" fill="#3E2723" fill-opacity="0.15"/>
<path d="M11.4263 23.9706L16.7112 18.6858V14.7221H7.27393L1.90197 5.51721C0.696903 7.37562 0 9.61152 0 11.9926C0 18.4244 5.06707 23.6803 11.4263 23.9706Z" fill="#0F9D58"/>
<path d="M11.4263 23.9706L16.7112 18.6858V14.7221H7.27393L1.90197 5.51721C0.696903 7.37562 0 9.61152 0 11.9926C0 18.4244 5.06707 23.6803 11.4263 23.9706Z" fill="url(#paint1_linear_658_7870)"/>
<path d="M11.281 23.9704C11.3246 23.9704 11.3826 23.9704 11.4262 23.9849L16.6094 14.9106L16.4933 14.838L11.281 23.9704Z" fill="#263238" fill-opacity="0.15"/>
<path d="M11.4265 23.9709L16.7114 18.686V14.7224L11.4265 23.9709Z" fill="#FFCD40"/>
<path d="M11.4265 23.9709L16.7114 18.686V14.7224L11.4265 23.9709Z" fill="url(#paint2_linear_658_7870)"/>
<path d="M11.9927 6.5481L16.7114 14.7222L11.4265 23.9707C11.6153 23.9852 11.804 23.9852 11.9927 23.9852C18.6133 23.9852 23.9853 18.6132 23.9853 11.9927C23.9853 10.0326 23.5062 8.1742 22.6786 6.5481H11.9927Z" fill="#FFCD40"/>
<path d="M11.9927 6.5481L16.7114 14.7222L11.4265 23.9707C11.6153 23.9852 11.804 23.9852 11.9927 23.9852C18.6133 23.9852 23.9853 18.6132 23.9853 11.9927C23.9853 10.0326 23.5062 8.1742 22.6786 6.5481H11.9927Z" fill="url(#paint3_linear_658_7870)"/>
<path d="M22.6782 6.5481H11.9923V9.39378L22.6782 6.5481Z" fill="url(#paint4_radial_658_7870)"/>
<path d="M1.90186 5.51721L7.27382 14.7221L9.71298 13.3138L1.90186 5.51721Z" fill="url(#paint5_radial_658_7870)"/>
<path d="M16.7114 14.722L14.2867 13.3137L11.4265 23.9705L16.7114 14.722Z" fill="url(#paint6_radial_658_7870)"/>
<path d="M11.9927 17.4372C14.9996 17.4372 17.4372 14.9996 17.4372 11.9927C17.4372 8.98571 14.9996 6.5481 11.9927 6.5481C8.98571 6.5481 6.5481 8.98571 6.5481 11.9927C6.5481 14.9996 8.98571 17.4372 11.9927 17.4372Z" fill="#F1F1F1"/>
<path d="M11.9925 16.3481C14.398 16.3481 16.3481 14.398 16.3481 11.9925C16.3481 9.58693 14.398 7.63684 11.9925 7.63684C9.58693 7.63684 7.63684 9.58693 7.63684 11.9925C7.63684 14.398 9.58693 16.3481 11.9925 16.3481Z" fill="#4285F4"/>
<path d="M22.6059 6.40234H11.9927C8.98726 6.40234 6.5481 8.84151 6.5481 11.8469V11.9776C6.5481 8.97217 8.98726 6.53301 11.9927 6.53301H22.664C22.6495 6.48946 22.6349 6.4459 22.6059 6.40234Z" fill="#3E2723" fill-opacity="0.2"/>
<path d="M12.0795 17.4372H11.9924C9.9743 17.4372 8.21752 16.3337 7.2738 14.7076L1.90183 5.51721C1.88731 5.53173 1.8728 5.56077 1.85828 5.57529L7.2738 14.8528C8.21752 16.4789 9.9743 17.5823 11.9924 17.5823C13.5024 17.5823 14.8817 16.958 15.8689 15.9562C14.8962 16.8709 13.575 17.4372 12.1376 17.4372C12.1086 17.4517 12.094 17.4372 12.0795 17.4372Z" fill="white" fill-opacity="0.1"/>
<path d="M13.8948 17.1034C13.9238 17.0889 13.9529 17.0743 13.9819 17.0743C13.9529 17.0743 13.9238 17.0889 13.8948 17.1034Z" fill="white" fill-opacity="0.1"/>
<path d="M14.1704 16.9868C14.2575 16.9577 14.3301 16.9142 14.4172 16.8706C14.3301 16.9142 14.2575 16.9577 14.1704 16.9868Z" fill="white" fill-opacity="0.1"/>
<path d="M13.6333 17.1907C13.6478 17.1907 13.6623 17.1761 13.6769 17.1761C13.6623 17.1761 13.6478 17.1907 13.6333 17.1907Z" fill="white" fill-opacity="0.1"/>
<path d="M14.5188 16.8273C14.5914 16.7983 14.6495 16.7547 14.7221 16.7112C14.6495 16.7547 14.5769 16.7838 14.5188 16.8273Z" fill="white" fill-opacity="0.1"/>
<path opacity="0.1" d="M17.4227 12.4285V12.3414C17.4372 12.3559 17.4372 12.385 17.4227 12.4285Z" fill="#3E2723"/>
<path opacity="0.1" d="M15.869 15.9561L16.2175 15.6076L16.2755 15.506C16.1449 15.6657 16.0142 15.8109 15.869 15.9561Z" fill="#3E2723"/>
<path opacity="0.1" d="M17.292 10.686C17.4226 11.1651 17.4952 11.6587 17.4952 12.1814C17.4952 13.009 17.3065 13.7785 16.9725 14.4899C17.35 13.7494 17.5823 12.8928 17.5823 11.9927C17.5823 8.98726 15.1432 6.5481 12.1378 6.5481H12.0652C14.5915 6.57713 16.7112 8.33391 17.292 10.686Z" fill="#3E2723"/>
<path opacity="0.1" d="M17.3934 12.7479C17.3934 12.7188 17.3934 12.7043 17.408 12.6753C17.3934 12.7043 17.3934 12.7334 17.3934 12.7479Z" fill="#3E2723"/>
<path opacity="0.1" d="M13.6768 17.1762C13.7494 17.1472 13.8219 17.1327 13.88 17.1036C13.8219 17.1327 13.7494 17.1472 13.6768 17.1762Z" fill="#3E2723"/>
<path opacity="0.1" d="M13.9818 17.0744C14.0399 17.0454 14.1125 17.0309 14.1706 17.0018C14.1125 17.0163 14.0399 17.0454 13.9818 17.0744Z" fill="#3E2723"/>
<path opacity="0.1" d="M14.7074 16.7116C14.7364 16.6971 14.751 16.6826 14.78 16.6681C14.7655 16.6826 14.7364 16.6971 14.7074 16.7116Z" fill="#3E2723"/>
<path opacity="0.1" d="M14.4171 16.8711C14.4462 16.8565 14.4752 16.842 14.5187 16.813C14.4752 16.842 14.4462 16.8565 14.4171 16.8711Z" fill="#3E2723"/>
<path opacity="0.1" d="M12.0652 17.4368H12.0797C12.6169 17.4222 13.1396 17.3351 13.6332 17.1899C13.1396 17.3496 12.6169 17.4368 12.0652 17.4368Z" fill="#3E2723"/>
<path d="M16.711 14.7224C16.2464 15.5209 15.5785 16.2033 14.78 16.6825C14.7509 16.697 14.7364 16.7115 14.7074 16.726C14.6348 16.7696 14.5767 16.7986 14.5041 16.8422C14.4751 16.8567 14.446 16.8712 14.4025 16.9002C14.3299 16.9438 14.2428 16.9728 14.1557 17.0164C14.0976 17.0454 14.025 17.0745 13.9669 17.089C13.9379 17.1035 13.9088 17.118 13.8798 17.118C13.8072 17.1471 13.7491 17.1616 13.6765 17.1906C13.662 17.1906 13.6475 17.2051 13.633 17.2051C13.1393 17.3648 12.6167 17.4519 12.0795 17.4519H12.123C13.5749 17.4519 14.8816 16.8857 15.8544 15.971C15.9995 15.8258 16.1302 15.6661 16.2609 15.5064L16.711 14.7224Z" fill="white" fill-opacity="0.1"/>
<path opacity="0.1" d="M16.711 14.7224C16.2464 15.5209 15.5785 16.2033 14.78 16.6825C14.7509 16.697 14.7364 16.7115 14.7074 16.726C14.6348 16.7696 14.5767 16.7986 14.5041 16.8422C14.4751 16.8567 14.446 16.8712 14.4025 16.9002C14.3299 16.9438 14.2428 16.9728 14.1557 17.0164C14.0976 17.0454 14.025 17.0745 13.9669 17.089C13.9379 17.1035 13.9088 17.118 13.8798 17.118C13.8072 17.1471 13.7491 17.1616 13.6765 17.1906C13.662 17.1906 13.6475 17.2051 13.633 17.2051C13.1393 17.3648 12.6167 17.4519 12.0795 17.4519H12.123C13.5749 17.4519 14.8816 16.8857 15.8544 15.971C15.9995 15.8258 16.1302 15.6661 16.2609 15.5064L16.711 14.7224Z" fill="#3E2723"/>
<path d="M17.2921 10.686C17.2776 10.6279 17.2631 10.5843 17.2486 10.5262C17.3502 10.8747 17.4083 11.2231 17.4373 11.6006V11.6297C17.4518 11.7458 17.4518 11.8765 17.4518 11.9926C17.4518 12.1088 17.4518 12.2104 17.4373 12.3266V12.4137C17.4373 12.5008 17.4228 12.5879 17.4083 12.675C17.4083 12.7041 17.4083 12.7186 17.3937 12.7476C17.2921 13.459 17.0598 14.1124 16.7114 14.7077L16.2613 15.4917L16.2032 15.5933L11.4265 23.9562H11.5862L16.7694 14.8819C16.842 14.7512 16.9146 14.606 16.9872 14.4608C17.3212 13.7639 17.5099 12.9799 17.5099 12.1524C17.4954 11.6587 17.4228 11.1651 17.2921 10.686Z" fill="white" fill-opacity="0.2"/>
<path d="M11.9925 0.130669C18.5986 0.130669 23.9415 5.45908 23.9851 12.0506V11.978C23.9851 5.37196 18.6131 0 11.9925 0C5.37196 0 0 5.37196 0 11.9925V12.0651C0.0435565 5.47359 5.38648 0.130669 11.9925 0.130669Z" fill="white" fill-opacity="0.2"/>
<path d="M11.9925 23.8549C18.5986 23.8549 23.9415 18.5265 23.9851 11.9349V12.0075C23.9851 18.6281 18.6131 24.0001 11.9925 24.0001C5.37196 24.0001 0 18.6136 0 11.993V11.9204C0.0435565 18.512 5.38648 23.8549 11.9925 23.8549Z" fill="#3E2723" fill-opacity="0.15"/>
<path d="M11.9925 23.9851C18.6158 23.9851 23.9851 18.6158 23.9851 11.9925C23.9851 5.36924 18.6158 0 11.9925 0C5.36924 0 0 5.36924 0 11.9925C0 18.6158 5.36924 23.9851 11.9925 23.9851Z" fill="url(#paint7_radial_658_7870)"/>
<path d="M30.5186 12.2975C30.5186 9.71319 32.3334 7.73863 34.9178 7.73863C36.9649 7.73863 38.1119 8.95821 38.6346 10.1633L37.1972 10.8457C36.8197 9.85838 35.9776 9.24859 34.8452 9.24859C33.4804 9.24859 32.1882 10.4682 32.1882 12.3556C32.1882 14.1705 33.4804 15.4626 34.8452 15.4626C36.0647 15.4626 36.8923 14.8529 37.3569 13.8656L38.7943 14.4754C38.2571 15.6949 37.052 16.9 35.0049 16.9C32.3334 16.8564 30.5186 14.8819 30.5186 12.2975ZM41.5238 8.04352L41.4512 9.26311H41.5238C41.9739 8.50813 43.0483 7.82574 44.2534 7.82574C46.4602 7.82574 47.5201 9.26311 47.5201 11.3974V16.6387H45.923V11.6152C45.923 9.8729 45.0083 9.26311 43.8033 9.26311C42.4385 9.26311 41.5238 10.5553 41.5238 11.92V16.6241H39.9268V4.18152H41.5238V8.04352ZM49.1898 16.6241V8.04352H50.7142V9.40829H50.7868C51.1643 8.42101 52.3839 7.81122 53.2986 7.81122C53.8358 7.81122 54.1407 7.88382 54.5182 8.04352L53.9084 9.568C53.6761 9.49541 53.3712 9.42281 53.0663 9.42281C52.0064 9.42281 50.8594 10.3375 50.8594 11.9346V16.6387H49.1898V16.6241ZM63.3166 12.2975C63.3166 14.8819 61.5017 16.8564 58.9174 16.8564C56.333 16.8564 54.5182 14.8819 54.5182 12.2975C54.5182 9.71319 56.333 7.73863 58.9174 7.73863C61.5017 7.73863 63.3166 9.71319 63.3166 12.2975ZM61.7195 12.2975C61.7195 10.323 60.3547 9.19051 58.9174 9.19051C57.48 9.19051 56.1152 10.323 56.1152 12.2975C56.1152 14.2721 57.48 15.4046 58.9174 15.4046C60.3547 15.4046 61.7195 14.2721 61.7195 12.2975ZM64.5942 8.04352H66.1187V9.26311H66.1913C66.6414 8.42101 67.7884 7.82574 68.8482 7.82574C70.213 7.82574 71.1277 8.43553 71.5778 9.49541C72.1876 8.50813 73.2474 7.82574 74.5396 7.82574C76.5868 7.82574 77.574 9.26311 77.574 11.3974V16.6387H75.9044V11.6152C75.9044 9.8729 75.222 9.26311 74.0024 9.26311C72.7102 9.26311 71.7956 10.5553 71.7956 11.92V16.6241H70.1985V11.6152C70.1985 9.8729 69.5161 9.26311 68.2965 9.26311C67.0043 9.26311 66.0897 10.5553 66.0897 11.92V16.6241H64.4926V8.04352H64.5942ZM78.721 12.2975C78.721 9.8729 80.3907 7.73863 82.9025 7.73863C85.4142 7.73863 87.0839 9.55348 87.0839 12.2975V12.6024H80.3326C80.4052 14.4173 81.6974 15.4046 83.0622 15.4046C83.9768 15.4046 84.9641 15.0271 85.4142 13.9672L86.8516 14.577C86.3144 15.7966 85.1093 16.929 83.1348 16.929C80.4633 16.8564 78.721 14.8819 78.721 12.2975ZM82.8879 9.26311C81.6684 9.26311 80.7682 10.1052 80.4633 11.3103H85.3997C85.3271 10.5553 84.7173 9.26311 82.8879 9.26311Z" fill="#28282E"/>
<defs>
<linearGradient id="paint0_linear_658_7870" x1="3.61159" y1="10.3391" x2="10.767" y2="6.15932" gradientUnits="userSpaceOnUse">
<stop stop-color="#A52714" stop-opacity="0.6"/>
<stop offset="0.66" stop-color="#A52714" stop-opacity="0"/>
</linearGradient>
<linearGradient id="paint1_linear_658_7870" x1="14.6678" y1="20.2255" x2="6.71742" y2="15.5683" gradientUnits="userSpaceOnUse">
<stop stop-color="#055524" stop-opacity="0.4"/>
<stop offset="0.33" stop-color="#055524" stop-opacity="0"/>
</linearGradient>
<linearGradient id="paint2_linear_658_7870" x1="11.1806" y1="6.68871" x2="13.1827" y2="15.456" gradientUnits="userSpaceOnUse">
<stop stop-color="#EA6100" stop-opacity="0.3"/>
<stop offset="0.66" stop-color="#EA6100" stop-opacity="0"/>
</linearGradient>
<linearGradient id="paint3_linear_658_7870" x1="15.0792" y1="5.7982" x2="17.0813" y2="14.5655" gradientUnits="userSpaceOnUse">
<stop stop-color="#EA6100" stop-opacity="0.3"/>
<stop offset="0.66" stop-color="#EA6100" stop-opacity="0"/>
</linearGradient>
<radialGradient id="paint4_radial_658_7870" cx="0" cy="0" r="1" gradientUnits="userSpaceOnUse" gradientTransform="translate(11.4731 6.53532) scale(11.4594)">
<stop stop-color="#3E2723" stop-opacity="0.2"/>
<stop offset="1" stop-color="#3E2723" stop-opacity="0"/>
</radialGradient>
<radialGradient id="paint5_radial_658_7870" cx="0" cy="0" r="1" gradientUnits="userSpaceOnUse" gradientTransform="translate(1.89169 5.52273) scale(10.6371)">
<stop stop-color="#3E2723" stop-opacity="0.2"/>
<stop offset="1" stop-color="#3E2723" stop-opacity="0"/>
</radialGradient>
<radialGradient id="paint6_radial_658_7870" cx="0" cy="0" r="1" gradientUnits="userSpaceOnUse" gradientTransform="translate(11.9724 12.0128) scale(11.9763)">
<stop stop-color="#263238" stop-opacity="0.2"/>
<stop offset="1" stop-color="#263238" stop-opacity="0"/>
</radialGradient>
<radialGradient id="paint7_radial_658_7870" cx="0" cy="0" r="1" gradientUnits="userSpaceOnUse" gradientTransform="translate(3.58266 3.27298) scale(24.0902)">
<stop stop-color="white" stop-opacity="0.1"/>
<stop offset="1" stop-color="white" stop-opacity="0"/>
</radialGradient>
</defs>
</svg>
