<svg width="260" height="358" viewBox="0 0 260 358" fill="none" xmlns="http://www.w3.org/2000/svg">
<path d="M0.000305176 60C0.000305176 26.8629 26.8632 0 60.0003 0H200C233.137 0 260 26.8629 260 60V200C260 233.137 233.137 260 200 260H60.0003C26.8632 260 0.000305176 233.137 0.000305176 200V60Z" fill="#28282E"/>
<path d="M80.0003 87.1719L116.364 108.182V143.738L80.0003 122.727V87.1719Z" fill="#EAEAEA"/>
<path d="M143.839 50L179.394 70.202L116.364 108.182L80.0003 87.1717L143.839 50Z" fill="white"/>
<path d="M179.395 172.828L143.031 151.818L143.031 116.262L179.395 137.273L179.395 172.828Z" fill="#EAEAEA"/>
<path d="M115.556 210L80.0004 189.798L143.031 151.818L179.394 172.828L115.556 210Z" fill="white"/>
<path d="M0.0176797 336.994C-0.375186 348.387 5.75353 357.344 20.9967 357.344C36.3971 357.344 41.2686 347.994 41.2686 338.722C41.2686 331.965 38.5186 326.936 27.6755 322.065C17.2252 317.35 15.6538 316.643 15.6538 313.972C15.6538 311.222 18.1681 309.415 20.761 309.415C25.3183 309.415 25.7897 313.108 26.104 315.072H40.7972C40.5615 301.086 29.2469 297 21.2324 297C11.4894 297 0.881985 303.207 0.881985 314.915C0.881985 325.836 11.0179 329.922 15.1037 331.572C24.0611 335.344 26.4969 336.287 26.4969 339.351C26.4969 342.022 24.3754 344.93 20.8396 344.93C18.9538 344.93 14.7894 343.751 14.7894 336.994H0.0176797Z" fill="#28282E"/>
<path d="M47.5363 307.999H60.5795V298.099H47.5363V307.999ZM47.5363 356.243H60.5795V312.635H47.5363V356.243Z" fill="#28282E"/>
<path d="M112.281 338.958C113.303 330.943 111.653 323.95 106.153 318.057C102.067 313.736 96.3309 311.143 89.6522 311.143C76.3733 311.143 66.7874 322.379 66.7874 334.557C66.7874 347.522 77.3948 357.658 89.8879 357.658C94.3666 357.658 98.6881 356.322 102.303 353.729C105.995 351.215 109.06 347.443 111.181 342.572H97.8238C96.2524 344.851 94.0523 346.658 89.8879 346.658C84.7807 346.658 80.3806 343.593 79.8306 338.958H112.281ZM79.9877 329.057C80.302 327.014 82.9735 322.143 89.7308 322.143C96.4881 322.143 99.1596 327.014 99.4739 329.057H79.9877Z" fill="#28282E"/>
<path d="M118.647 356.244H131.69V332.515C131.69 328.036 132.712 323.4 139.155 323.4C144.969 323.4 145.991 327.643 145.991 332.436V356.244H159.034V328.979C159.034 323.086 157.541 311.143 142.848 311.143C135.069 311.143 132.319 315.15 130.826 317.271V312.636H118.647V356.244Z" fill="#28282E"/>
<path d="M165.398 356.244H178.441V332.515C178.441 328.036 179.463 323.4 185.906 323.4C191.72 323.4 192.742 327.643 192.742 332.436V356.244H205.785V328.979C205.785 323.086 204.292 311.143 189.599 311.143C181.82 311.143 179.07 315.15 177.577 317.271V312.636H165.398V356.244Z" fill="#28282E"/>
<path d="M260.001 312.636H246.957V317.271C245.229 314.6 241.222 311.143 234.071 311.143C222.443 311.143 212.15 320.1 212.15 334.4C212.15 346.893 220.243 357.737 234.071 357.737C239.179 357.737 244.6 355.772 246.957 351.529V356.244H260.001V312.636ZM225.193 334.557C225.193 329.607 228.493 323.321 235.957 323.321C241.457 323.321 244.443 326.386 245.857 329.372C246.722 331.179 247.115 333.143 246.957 335.107C246.8 337.072 246.25 338.958 245.15 340.686C243.5 343.358 240.672 345.558 236.036 345.558C228.178 345.558 225.193 338.643 225.193 334.636V334.557Z" fill="#28282E"/>
</svg>
