<svg width="261" height="358" viewBox="0 0 261 358" fill="none" xmlns="http://www.w3.org/2000/svg">
<path d="M0.0824585 60C0.0824585 26.8629 26.9454 0 60.0825 0H200.082C233.22 0 260.082 26.8629 260.082 60V200C260.082 233.137 233.22 260 200.082 260H60.0825C26.9454 260 0.0824585 233.137 0.0824585 200V60Z" fill="white"/>
<path d="M80.0825 87.1719L116.446 108.182V143.738L80.0825 122.727V87.1719Z" fill="black"/>
<path d="M143.921 50L179.476 70.202L116.446 108.182L80.0825 87.1717L143.921 50Z" fill="#28282E"/>
<path d="M179.477 172.828L143.114 151.818L143.114 116.262L179.477 137.273L179.477 172.828Z" fill="black"/>
<path d="M115.638 210L80.0825 189.798L143.113 151.818L179.476 172.828L115.638 210Z" fill="#28282E"/>
<path d="M0.0998331 336.994C-0.293033 348.387 5.83568 357.344 21.0789 357.344C36.4792 357.344 41.3508 347.994 41.3508 338.722C41.3508 331.965 38.6007 326.936 27.7576 322.065C17.3074 317.35 15.7359 316.643 15.7359 313.972C15.7359 311.222 18.2502 309.415 20.8432 309.415C25.4004 309.415 25.8718 313.108 26.1861 315.072H40.8793C40.6436 301.086 29.3291 297 21.3146 297C11.5715 297 0.964139 303.207 0.964139 314.915C0.964139 325.836 11.1001 329.922 15.1859 331.572C24.1432 335.344 26.579 336.287 26.579 339.351C26.579 342.022 24.4575 344.93 20.9217 344.93C19.036 344.93 14.8716 343.751 14.8716 336.994H0.0998331Z" fill="white"/>
<path d="M47.6185 307.999H60.6617V298.099H47.6185V307.999ZM47.6185 356.243H60.6617V312.635H47.6185V356.243Z" fill="white"/>
<path d="M112.364 338.958C113.385 330.943 111.735 323.95 106.235 318.057C102.149 313.736 96.4131 311.143 89.7344 311.143C76.4556 311.143 66.8696 322.379 66.8696 334.557C66.8696 347.522 77.477 357.658 89.9701 357.658C94.4488 357.658 98.7703 356.322 102.385 353.729C106.078 351.215 109.142 347.443 111.263 342.572H97.906C96.3346 344.851 94.1345 346.658 89.9701 346.658C84.8629 346.658 80.4628 343.593 79.9128 338.958H112.364ZM80.0699 329.057C80.3842 327.014 83.0557 322.143 89.813 322.143C96.5703 322.143 99.2418 327.014 99.5561 329.057H80.0699Z" fill="white"/>
<path d="M118.729 356.244H131.772V332.515C131.772 328.036 132.794 323.4 139.237 323.4C145.051 323.4 146.073 327.643 146.073 332.436V356.244H159.116V328.979C159.116 323.086 157.623 311.143 142.93 311.143C135.151 311.143 132.401 315.15 130.908 317.271V312.636H118.729V356.244Z" fill="white"/>
<path d="M165.48 356.244H178.524V332.515C178.524 328.036 179.545 323.4 185.988 323.4C191.802 323.4 192.824 327.643 192.824 332.436V356.244H205.867V328.979C205.867 323.086 204.374 311.143 189.681 311.143C181.902 311.143 179.152 315.15 177.659 317.271V312.636H165.48V356.244Z" fill="white"/>
<path d="M260.083 312.636H247.04V317.271C245.311 314.6 241.304 311.143 234.154 311.143C222.525 311.143 212.232 320.1 212.232 334.4C212.232 346.893 220.325 357.737 234.154 357.737C239.261 357.737 244.682 355.772 247.04 351.529V356.244H260.083V312.636ZM225.275 334.557C225.275 329.607 228.575 323.321 236.039 323.321C241.54 323.321 244.525 326.386 245.94 329.372C246.804 331.179 247.197 333.143 247.04 335.107C246.882 337.072 246.332 338.958 245.232 340.686C243.582 343.358 240.754 345.558 236.118 345.558C228.261 345.558 225.275 338.643 225.275 334.636V334.557Z" fill="white"/>
</svg>
