<svg width="679" height="200" viewBox="0 0 679 200" fill="none" xmlns="http://www.w3.org/2000/svg">
<path d="M0.0827637 46.1538C0.0827637 20.6638 20.7465 0 46.2366 0H153.929C179.419 0 200.083 20.6638 200.083 46.1538V153.846C200.083 179.336 179.419 200 153.929 200H46.2366C20.7465 200 0.0827637 179.336 0.0827637 153.846V46.1538Z" fill="white"/>
<path d="M61.6185 67.0557L89.5906 83.2173V110.568L61.6185 94.4061V67.0557Z" fill="black"/>
<path d="M110.725 38.4619L138.075 54.0019L89.5906 83.2172L61.6185 67.0555L110.725 38.4619Z" fill="#28282E"/>
<path d="M138.081 132.945L110.109 116.783L110.109 89.4329L138.081 105.595L138.081 132.945Z" fill="black"/>
<path d="M88.9744 161.539L61.6239 145.999L110.109 116.784L138.081 132.945L88.9744 161.539Z" fill="#28282E"/>
<path d="M250.112 115.848C249.465 134.606 259.556 149.354 284.653 149.354C310.009 149.354 318.03 133.959 318.03 118.694C318.03 107.568 313.502 99.2889 295.649 91.2682C278.443 83.5061 275.856 82.3418 275.856 77.9433C275.856 73.4155 279.996 70.44 284.265 70.44C291.768 70.44 292.544 76.5203 293.062 79.7545H317.254C316.865 56.7271 298.237 50 285.041 50C269 50 251.535 60.22 251.535 79.4957C251.535 97.4778 268.223 104.205 274.95 106.922C289.698 113.131 293.709 114.684 293.709 119.729C293.709 124.127 290.216 128.914 284.394 128.914C281.289 128.914 274.433 126.974 274.433 115.848H250.112Z" fill="white"/>
<path d="M328.351 68.1094H349.826V51.8091H328.351V68.1094ZM328.351 147.541H349.826V75.742H328.351V147.541Z" fill="white"/>
<path d="M434.947 119.081C436.629 105.886 433.912 94.3722 424.857 84.6697C418.13 77.5545 408.686 73.2853 397.69 73.2853C375.827 73.2853 360.044 91.7849 360.044 111.837C360.044 133.182 377.508 149.871 398.078 149.871C405.452 149.871 412.567 147.672 418.518 143.402C424.598 139.263 429.643 133.053 433.136 125.032H411.144C408.556 128.784 404.934 131.759 398.078 131.759C389.669 131.759 382.424 126.714 381.519 119.081H434.947ZM381.777 102.781C382.295 99.4175 386.693 91.3968 397.819 91.3968C408.945 91.3968 413.343 99.4175 413.861 102.781H381.777Z" fill="white"/>
<path d="M445.428 147.542H466.903V108.473C466.903 101.099 468.585 93.4666 479.193 93.4666C488.766 93.4666 490.448 100.452 490.448 108.344V147.542H511.923V102.652C511.923 92.9492 509.465 73.2853 485.273 73.2853C472.466 73.2853 467.938 79.8831 465.48 83.376V75.7433H445.428V147.542Z" fill="white"/>
<path d="M522.404 147.542H543.879V108.473C543.879 101.099 545.561 93.4666 556.169 93.4666C565.742 93.4666 567.424 100.452 567.424 108.344V147.542H588.899V102.652C588.899 92.9492 586.441 73.2853 562.249 73.2853C549.442 73.2853 544.914 79.8831 542.456 83.376V75.7433H522.404V147.542Z" fill="white"/>
<path d="M678.164 75.7433H656.689V83.376C653.843 78.9775 647.246 73.2853 635.473 73.2853C616.327 73.2853 599.38 88.0332 599.38 111.578C599.38 132.147 612.704 150 635.473 150C643.882 150 652.808 146.766 656.689 139.78V147.542H678.164V75.7433ZM620.855 111.837C620.855 103.687 626.288 93.3373 638.578 93.3373C647.634 93.3373 652.55 98.3826 654.878 103.299C656.301 106.274 656.948 109.508 656.689 112.742C656.431 115.977 655.525 119.081 653.714 121.927C650.997 126.326 646.34 129.948 638.707 129.948C625.771 129.948 620.855 118.564 620.855 111.966V111.837Z" fill="white"/>
</svg>
