<svg width="400" height="49" viewBox="0 0 400 49" fill="none" xmlns="http://www.w3.org/2000/svg">
<path d="M78.247 34.4944L61.0501 4.66442C57.28 -1.55291 48.0863 -1.61905 44.4484 4.92897L26.3919 35.9495C23.0185 41.6377 27.1854 48.7809 33.932 48.7809H70.1114C76.9241 48.7809 82.017 41.4391 78.247 34.4944Z" fill="#00B897"/>
<path d="M53.4429 36.8099L52.3847 34.958C51.3926 33.2382 49.2098 29.5342 49.2098 29.5342L34.6587 4.26821C30.8886 -1.35383 21.9595 -1.81683 18.1895 5.26033L1.25719 34.5611C-2.24832 40.7122 1.9186 48.7153 9.52491 48.7817H45.5059H60.8508H69.9784C60.6525 48.8478 57.6762 44.0193 53.4429 36.8099Z" fill="#76FCB2"/>
<path d="M53.4434 36.8091L52.3852 34.9573C51.3931 33.2376 49.2104 29.5336 49.2104 29.5336L39.8183 12.9982L26.3254 36.0155C22.9522 41.7037 27.1191 48.8469 33.8657 48.8469H45.4403H60.7852H69.979C60.5869 48.7808 57.6765 44.0186 53.4434 36.8091Z" fill="url(#paint0_linear_4553_19262)"/>
<path d="M397.156 46.4654C394.708 46.4654 392.79 45.9363 391.336 45.0103C389.812 44.0182 389.02 42.5629 389.02 40.5787V11.741H392.857C394.246 11.741 395.436 12.8654 395.436 14.3205V39.7188C395.436 39.7852 395.436 40.9756 396.428 41.9677C397.022 42.5629 397.75 42.8937 398.742 42.8937H399.47C399.736 42.8937 399.999 43.1583 399.999 43.4228V46.5315L397.156 46.4654Z" fill="#00B897"/>
<path d="M314.478 46.465C310.509 46.465 307.268 45.4068 304.82 43.2901C303.565 42.2319 302.705 41.0413 302.176 39.7184C301.647 38.3958 301.381 36.4774 301.381 33.898C301.381 31.3847 301.647 29.4003 302.176 28.0774C302.638 26.8209 303.498 25.6964 304.756 24.6382C307.201 22.5217 310.442 21.4634 314.411 21.4634C318.38 21.4634 321.62 22.5217 324.068 24.6382C325.326 25.6964 326.186 26.887 326.648 28.0774C327.177 29.4664 327.441 31.3847 327.441 33.898C327.441 36.4774 327.177 38.3958 326.648 39.7184C326.119 41.0413 325.259 42.2319 324.001 43.2901C321.687 45.4068 318.447 46.465 314.478 46.465ZM314.478 25.1012C310.111 25.1012 307.929 28.0774 307.929 33.9641C307.929 39.917 310.111 42.8932 314.478 42.8932C318.842 42.8932 321.026 39.917 321.026 34.0303C321.026 28.0774 318.777 25.1012 314.478 25.1012Z" fill="#00B897"/>
<path d="M341.859 46.4654C338.419 46.4654 335.246 45.5394 332.534 43.7535C332.268 43.4889 331.739 43.1583 331.078 42.7614C330.946 42.6953 330.814 42.4968 330.814 42.2985V11.741H334.716C336.105 11.741 337.296 12.9315 337.296 14.3205V23.2496L338.486 22.5882C339.876 21.8607 341.727 21.5299 344.108 21.5299C348.276 21.5299 351.449 22.7866 353.567 25.2338C355.418 27.4165 356.345 30.3267 356.345 33.8985C356.345 37.4702 355.286 40.3804 353.169 42.4968C350.721 45.1425 346.886 46.4654 341.859 46.4654ZM342.52 25.1016C341.066 25.1016 339.411 25.6307 337.559 26.7552L337.296 26.8874V41.2402L337.559 41.4386C339.016 42.3646 340.735 42.8276 342.52 42.8276C344.901 42.8276 346.755 41.8355 348.01 39.8513C349.068 38.2637 349.665 36.2134 349.665 33.8985C349.665 28.0779 347.217 25.1016 342.52 25.1016Z" fill="#00B897"/>
<path d="M371.627 46.3989C364.35 46.3989 359.787 41.6367 359.787 33.898C359.787 26.2257 364.283 21.4634 371.493 21.4634C374.271 21.4634 376.652 22.1909 378.57 23.5799L378.968 23.8445V21.9264H384.06C384.391 21.9264 384.589 22.1909 384.589 22.4555V45.9359H378.901V43.8192L378.503 44.15C376.918 45.6051 374.403 46.3989 371.627 46.3989ZM372.949 25.6964C368.384 25.6964 365.672 29.202 365.672 33.898C365.672 38.5941 368.384 42.2319 372.949 42.2319C374.403 42.2319 376.918 42.0997 378.901 40.1153L378.968 40.0492V28.0113L378.901 27.9452C377.512 26.3579 375.461 25.6964 372.949 25.6964Z" fill="#00B897"/>
<path d="M136.625 46.1354V11.6755H165.264V13.8582C165.264 15.5779 163.875 16.9669 162.156 16.9669H143.768V26.2266H162.156V31.5181H143.768V40.7778H162.156C163.875 40.7778 165.264 42.1667 165.264 43.8865V46.0693L136.625 46.1354Z" fill="#28282E"/>
<path d="M206.403 11.6755H199.656C198.399 11.6755 197.275 12.2047 196.481 13.1968L188.346 23.4488L180.21 13.2629C179.417 12.2708 178.292 11.7417 177.036 11.7417H170.289L183.98 28.9385L170.289 46.1354H177.036C178.292 46.1354 179.417 45.6063 180.21 44.6142L188.346 34.4283L196.547 44.6803C197.341 45.6063 198.466 46.2015 199.722 46.2015H206.469L192.777 29.0046L206.403 11.6755Z" fill="#28282E"/>
<path d="M114.203 42.4993L123.595 26.0962V46.0711H130.738V11.6112H126.307C124.918 11.6112 123.595 12.3388 122.934 13.5954L111.689 34.0993L100.445 13.5954C99.7839 12.3388 98.461 11.6112 97.072 11.6112H92.6406V46.0711H99.7839V26.0962L109.176 42.4993H114.203Z" fill="#28282E"/>
<path d="M225.055 46.5322C215.133 46.6644 207.064 38.8596 206.998 28.9384C206.998 23.5148 208.651 19.0171 211.76 15.9085C214.869 12.866 219.366 11.2124 224.724 11.2124C231.007 11.2124 235.968 13.3951 239.54 17.6282L237.291 19.5463C235.902 20.7368 233.851 20.803 232.33 19.6786C230.346 18.1573 227.833 17.4297 224.988 17.4297C217.977 17.4297 213.811 21.6628 213.811 28.8062C213.811 36.0155 218.11 40.4471 224.988 40.4471C227.899 40.4471 230.346 39.6534 232.33 38.1983C233.785 37.0737 235.836 37.1401 237.291 38.3305L239.54 40.2486C235.968 44.4155 231.206 46.5322 225.055 46.5322Z" fill="#28282E"/>
<path d="M269.039 46.5318C257.928 46.5318 251.049 39.7855 251.049 28.9381C251.049 18.0909 257.928 11.3445 268.907 11.3445C274.199 11.3445 278.63 12.8657 282.069 15.9744L280.416 17.8264C279.688 18.6201 278.63 19.0831 277.571 19.0831C276.977 19.0831 276.381 18.9508 275.851 18.6862C273.801 17.6279 271.42 17.0988 268.907 17.0988C261.763 17.0988 257.331 21.6626 257.331 29.0044C257.331 36.4121 261.961 40.9759 269.37 40.9759C272.941 40.9759 275.719 40.3146 277.77 38.8595L277.902 38.7934V31.716H270.031V29.4011C270.031 27.6815 271.42 26.2926 273.14 26.2926H282.862C283.128 26.2926 283.391 26.557 283.391 26.8217V42.1005C280.019 45.0106 275.19 46.5318 269.039 46.5318Z" fill="#00B897"/>
<path d="M296.156 46.4654C293.708 46.4654 291.79 45.9363 290.336 45.0103C288.815 44.0182 288.02 42.5629 288.02 40.5787V11.741H291.857C293.246 11.741 294.436 12.8654 294.436 14.3205V39.7188C294.436 39.7852 294.436 40.9756 295.428 41.9677C296.024 42.5629 296.75 42.8937 297.742 42.8937H298.47C298.736 42.8937 298.999 43.1583 298.999 43.4228V46.5315L296.156 46.4654Z" fill="#00B897"/>
<defs>
<linearGradient id="paint0_linear_4553_19262" x1="21.5233" y1="25.5573" x2="63.3237" y2="41.0038" gradientUnits="userSpaceOnUse">
<stop stop-color="#53E57A" stop-opacity="0"/>
<stop offset="1" stop-color="#00A977"/>
</linearGradient>
</defs>
</svg>
