<svg width="268" height="70" viewBox="0 0 268 70" fill="none" xmlns="http://www.w3.org/2000/svg">
<path d="M262.703 27.0065C259.723 24.0258 256.155 22.4903 252 22.4903C249.245 22.4903 246.716 23.1677 244.368 24.5677C241.974 25.9226 240.123 27.8194 238.768 30.1677C237.413 32.5161 236.735 35.0903 236.735 37.8903C236.735 42.0903 238.181 45.6581 241.116 48.729C244.006 51.7548 247.664 53.2903 252.045 53.2903C256.245 53.2903 259.813 51.8 262.748 48.8645C265.684 45.929 267.174 42.271 267.174 38.0258C267.174 33.6452 265.684 29.9871 262.703 27.0065ZM258.819 44.9806C256.968 46.8774 254.71 47.8258 252.09 47.8258C249.742 47.8258 247.664 47.1032 245.858 45.6129C243.555 43.7161 242.381 41.1871 242.381 37.9355C242.381 35.0452 243.284 32.6516 245.135 30.7548C246.987 28.8581 249.245 27.9097 251.955 27.9097C254.619 27.9097 256.923 28.8581 258.774 30.8C260.671 32.7419 261.574 35.0903 261.574 37.8903C261.619 40.7355 260.671 43.0839 258.819 44.9806Z" fill="white"/>
<path d="M226.981 39.5613C228.923 38.8839 230.413 37.8452 231.361 36.4903C232.31 35.1355 232.806 33.4645 232.806 31.4323C232.806 29.5355 232.355 27.8645 231.497 26.4194C230.639 25.0194 229.465 24.0258 228.019 23.3936C226.574 22.8065 224.181 22.4903 220.748 22.4903H210V53.2452H215.871V40.2387H220.974L227.884 53.2452H234.297L226.981 39.5613ZM226.077 33.7806C225.355 34.2774 225.039 34.5032 223.187 34.5032H215.826V28.2258H222.961C224.406 28.2258 224.632 28.3161 225.219 28.5419C225.806 28.7677 226.258 29.129 226.619 29.6258C226.981 30.1226 227.161 30.7097 227.161 31.3871C227.161 32.471 226.8 33.2839 226.077 33.7806Z" fill="white"/>
<path d="M183.761 22.4903H203.677V28.2258H189.587V34.5032H203.677V40.1484H189.587V47.4645H203.677V53.2452H183.761V22.4903Z" fill="white"/>
<path d="M152.871 22.4903H158.471L171.658 42.7226V22.4903H177.529V53.2452H171.884L158.742 33.0581V53.2452H152.871V22.4903Z" fill="white"/>
<path d="M143.794 26.9613C140.813 23.9806 137.29 22.4903 133.135 22.4903C130.426 22.4903 127.852 23.1677 125.503 24.5226C123.155 25.8774 121.303 27.729 119.948 30.0774C118.594 32.4258 117.916 35 117.916 37.8C117.916 41.9548 119.361 45.5677 122.252 48.5936C125.142 51.6194 128.8 53.1548 133.181 53.1548C137.381 53.1548 140.903 51.6645 143.839 48.729C146.774 45.7935 148.219 42.1806 148.219 37.8903C148.219 33.6 146.729 29.9871 143.794 26.9613ZM139.91 44.9355C138.058 46.8323 135.8 47.7806 133.181 47.7806C130.832 47.7806 128.8 47.0581 126.994 45.5677C124.69 43.671 123.516 41.1419 123.516 37.8903C123.516 35 124.419 32.6065 126.271 30.7097C128.123 28.8129 130.381 27.9097 133.09 27.9097C135.755 27.9097 138.013 28.8581 139.91 30.8C141.761 32.7419 142.71 35.0903 142.71 37.8452C142.665 40.6452 141.761 42.9935 139.91 44.9355Z" fill="white"/>
<path d="M84.813 22.4903H90.5485L97.6388 43.9419L104.865 22.4903H110.51L115.703 53.2452H110.058L106.761 33.8258L100.213 53.2452H95.0647L88.6066 33.8258L85.2195 53.2452H79.5292L84.813 22.4903Z" fill="white"/>
<path d="M35 0C15.671 0 0 15.671 0 35C0 38.8839 0.632258 42.5871 1.76129 46.0645H12.2387V16.6194L35 39.3806L57.7613 16.6194V46.0645H68.2387C69.4129 42.5871 70 38.8839 70 35C70.0452 15.671 54.329 0 35 0Z" fill="#F16822"/>
<path d="M29.7613 44.5742L19.8258 34.6387V53.1548H16.0323H12.2388H5.05811C11.2 63.2258 22.3097 69.9548 34.9549 69.9548C47.6 69.9548 58.7097 63.2258 64.8517 53.1548H57.671H50.8968H50.0839V34.6387L40.1484 44.5742L34.9097 49.8129L29.7613 44.5742Z" fill="white"/>
</svg>
