<svg width="41" height="41" viewBox="0 0 41 41" fill="none" xmlns="http://www.w3.org/2000/svg">
<path fill-rule="evenodd" clip-rule="evenodd" d="M21.2495 1.53564C21.2495 0.98336 20.8018 0.535645 20.2495 0.535645C19.6972 0.535645 19.2495 0.98336 19.2495 1.53564V19.5459L1.23927 19.5459C0.686983 19.5459 0.239271 19.9937 0.239271 20.5459C0.239271 21.0982 0.686983 21.5459 1.23927 21.5459L19.2495 21.5459L19.2495 39.5562C19.2495 40.1085 19.6972 40.5562 20.2495 40.5562C20.8018 40.5562 21.2495 40.1085 21.2495 39.5562L21.2495 21.5459L39.2598 21.5459C39.8121 21.5459 40.2598 21.0982 40.2598 20.5459C40.2598 19.9937 39.8121 19.5459 39.2598 19.5459L21.2495 19.5459V1.53564Z" fill="#28282E"/>
</svg>
