<svg width="389" height="60" viewBox="0 0 389 60" fill="none" xmlns="http://www.w3.org/2000/svg">
<path d="M75.3032 47.6114C74.3315 47.6114 73.8457 47.3685 73.3599 47.1256C73.1169 46.6398 72.874 46.1539 72.874 45.4252V18.2187C72.874 17.49 73.1169 16.7612 73.3599 16.5183C73.8457 16.0325 74.3315 15.7896 75.3032 15.7896H86.7202C91.0927 15.7896 94.2505 16.7612 96.4368 18.4616C98.3801 20.4049 99.5947 23.077 99.5947 26.7207C99.5947 30.3645 98.623 33.0365 96.4368 34.9798C94.4935 36.6802 91.0927 37.6519 86.7202 37.6519H82.3477V45.1823C82.3477 45.911 82.1048 46.6398 81.8619 46.8827C81.3761 47.3685 80.8902 47.3685 79.9186 47.3685H75.3032V47.6114ZM85.9914 30.8503C87.206 30.8503 88.1777 30.6074 88.9064 29.8786C89.6352 29.1499 89.8781 28.1782 89.8781 26.7207C89.8781 25.2632 89.6352 24.2916 88.9064 23.5628C88.1777 22.8341 87.206 22.5912 85.9914 22.5912H82.3477V30.8503H85.9914V30.8503Z" fill="#202024"/>
<path d="M110.526 47.3687C107.611 47.3687 105.182 46.397 103.482 44.4537C101.781 42.5104 100.81 39.8383 100.81 36.4375C100.81 33.7654 101.295 31.5792 102.51 29.6359C103.725 27.6925 105.425 26.2351 107.611 25.0205C109.797 24.0488 112.469 23.3201 115.142 23.3201C117.571 23.3201 119.514 23.563 121.457 24.0488C123.401 24.5347 124.858 25.2634 126.559 26.2351V44.9395C126.559 45.4253 126.559 45.9112 126.316 46.1541C126.073 46.397 125.587 46.397 125.101 46.397H120.243C120 46.397 119.514 46.397 119.514 46.1541C119.271 45.9112 119.271 45.9112 119.028 45.6683L118.299 44.2108C117.328 45.1824 116.356 45.9112 115.142 46.397C113.927 47.1257 112.227 47.3687 110.526 47.3687ZM113.927 41.0529C115.142 41.0529 116.113 40.81 116.842 40.0812C117.571 39.5954 117.814 38.6237 117.814 37.6521V30.3646C117.328 30.1217 116.356 29.8788 115.627 29.8788C113.927 29.8788 112.712 30.3646 111.741 31.5792C110.769 32.7938 110.283 34.2512 110.283 36.4375C110.283 39.3525 111.498 41.0529 113.927 41.0529Z" fill="#202024"/>
<path d="M133.117 46.6397C132.145 46.6397 131.659 46.3968 131.173 46.1538C130.687 45.668 130.688 45.1822 130.688 44.4534V25.5061C130.688 25.0202 130.687 24.5344 130.93 24.2915C131.173 24.0486 131.659 24.0486 132.145 24.0486H137.003C137.489 24.0486 137.732 24.0486 137.732 24.2915C137.975 24.2915 137.975 24.5344 138.218 24.7773L138.461 26.2348C139.432 25.2631 140.404 24.7773 141.862 24.2915C143.319 23.8057 144.777 23.5627 146.72 23.5627C149.149 23.5627 151.335 24.2915 152.793 25.749C154.25 27.2065 155.222 29.1498 155.222 32.0648V44.4534C155.222 45.1822 154.979 45.9109 154.736 46.1538C154.493 46.6397 153.764 46.6397 152.793 46.6397H148.177C147.206 46.6397 146.72 46.3968 146.234 46.1538C145.748 45.668 145.748 45.1822 145.748 44.4534V32.5506C145.748 31.5789 145.505 30.8502 145.019 30.6073C144.534 30.1214 144.048 29.8785 143.076 29.8785C142.105 29.8785 141.376 30.1214 140.89 30.6073C140.404 31.0931 140.161 31.8219 140.161 32.5506V44.2105C140.161 44.9393 139.918 45.668 139.675 45.9109C139.432 46.3968 138.704 46.3967 137.732 46.3967H133.117V46.6397Z" fill="#202024"/>
<path d="M171.741 47.3684C167.368 47.3684 163.967 46.3967 161.538 44.2105C159.109 42.2672 157.895 39.3522 157.895 35.4656C157.895 33.0364 158.38 31.0931 159.595 29.1498C160.567 27.4494 162.267 25.9919 164.21 25.0202C166.397 24.0486 168.826 23.5627 171.498 23.5627C173.684 23.5627 175.384 23.8057 176.842 24.2915C178.299 24.7773 179.757 25.2631 180.729 26.2348C180.971 26.4777 181.214 26.7206 181.214 26.9635C181.214 27.2065 180.971 27.4494 180.729 27.9352L178.785 31.336C178.542 31.8219 178.299 32.0648 178.056 32.0648C177.814 32.0648 177.571 31.8219 177.085 31.5789C176.356 31.0931 175.384 30.6073 174.656 30.3644C173.927 30.1214 172.955 29.8785 171.984 29.8785C170.526 29.8785 169.069 30.3644 168.097 31.336C167.125 32.3077 166.639 33.7652 166.639 35.4656C166.639 37.166 167.125 38.6235 168.097 39.5951C169.069 40.5668 170.283 41.0526 171.984 41.0526C172.955 41.0526 173.927 40.8097 174.656 40.5668C175.384 40.3239 176.356 39.838 177.085 39.3522C177.571 39.1093 177.814 38.8664 178.056 38.8664C178.299 38.8664 178.542 39.1093 178.785 39.5951L180.971 43.2389C181.214 43.4818 181.214 43.7247 181.214 43.9676C181.214 44.2105 180.971 44.4534 180.729 44.6964C179.514 45.4251 178.056 46.1538 176.356 46.6397C175.627 47.1255 173.927 47.3684 171.741 47.3684Z" fill="#202024"/>
<path d="M193.846 47.3687C190.931 47.3687 188.501 46.397 186.801 44.4537C185.101 42.5104 184.129 39.8383 184.129 36.4375C184.129 33.7654 184.615 31.5792 185.829 29.6359C187.044 27.6925 188.744 26.2351 190.931 25.0205C193.117 24.0488 195.789 23.3201 198.461 23.3201C200.89 23.3201 202.833 23.563 204.777 24.0488C206.72 24.5347 208.177 25.2634 209.878 26.2351V44.9395C209.878 45.4253 209.878 45.9112 209.635 46.1541C209.392 46.397 208.906 46.397 208.42 46.397H203.562C203.319 46.397 202.833 46.397 202.833 46.1541C202.59 45.9112 202.59 45.9112 202.348 45.6683L201.619 44.2108C200.647 45.1824 199.675 45.9112 198.461 46.397C197.246 47.1257 195.789 47.3687 193.846 47.3687ZM197.489 41.0529C198.704 41.0529 199.675 40.81 200.404 40.0812C201.133 39.5954 201.376 38.6237 201.376 37.6521V30.3646C200.89 30.1217 199.918 29.8788 199.19 29.8788C197.489 29.8788 196.275 30.3646 195.303 31.5792C194.331 32.7938 193.846 34.2512 193.846 36.4375C193.603 39.3525 194.817 41.0529 197.489 41.0529Z" fill="#202024"/>
<path d="M239.513 44.9396C239.756 45.1825 239.756 45.4254 239.756 45.6683C239.756 45.9112 239.756 46.1542 239.513 46.3971C239.27 46.64 239.027 46.64 238.784 46.64H231.497C231.011 46.64 230.768 46.64 230.525 46.64C230.282 46.64 230.039 46.3971 229.796 46.1542L223.481 37.4092V44.2108C223.481 44.9396 223.238 45.6683 222.995 45.9112C222.509 46.3971 222.023 46.3971 221.051 46.3971H216.436C215.464 46.3971 214.979 46.1542 214.493 45.9112C214.25 45.4254 214.007 44.9396 214.007 44.2108V17.2473C214.007 16.5185 214.25 15.7898 214.493 15.5469C214.979 15.061 215.464 14.8181 216.436 14.8181H221.051C222.023 14.8181 222.509 15.061 222.995 15.5469C223.481 16.0327 223.481 16.5185 223.481 17.2473V32.7938L229.553 24.7776C229.796 24.5347 230.039 24.2918 230.282 24.2918C230.525 24.2918 230.768 24.0489 231.254 24.0489H238.541C238.784 24.0489 239.027 24.0489 239.27 24.2918C239.513 24.5347 239.513 24.7776 239.513 25.0205C239.513 25.2635 239.513 25.5064 239.27 25.7493L231.254 34.9801L239.513 44.9396Z" fill="#202024"/>
<path d="M254.576 47.3687C251.904 47.3687 249.718 46.8828 247.531 46.1541C245.588 45.1824 243.888 43.9679 242.673 42.2675C241.458 40.567 240.973 38.3808 240.973 35.9517C240.973 32.065 242.187 28.9071 244.373 26.9638C246.56 24.7776 249.961 23.8059 254.09 23.8059C258.22 23.8059 261.378 24.7776 263.321 26.9638C265.507 28.9071 266.479 31.8221 266.479 35.4658C266.479 36.9233 265.75 37.895 264.535 37.895H249.961C249.961 39.3525 250.446 40.3241 251.418 41.0529C252.39 41.7816 254.09 42.0245 256.033 42.0245C257.248 42.0245 258.463 42.0245 259.191 41.7816C260.163 41.5387 260.892 41.0529 261.863 40.81C262.349 40.567 262.592 40.567 262.592 40.567C262.835 40.567 263.078 40.81 263.321 41.0529L265.021 43.9679C265.264 44.2108 265.264 44.4537 265.264 44.6966C265.264 44.9395 265.021 45.1824 264.778 45.4253C263.564 46.1541 262.106 46.8828 260.406 47.3687C258.463 47.1258 256.762 47.3687 254.576 47.3687ZM258.22 32.7938C258.22 31.5792 257.977 30.6075 257.248 30.1217C256.519 29.393 255.548 29.15 254.09 29.15C252.633 29.15 251.661 29.393 250.932 30.1217C250.203 30.8504 249.961 31.5792 249.961 32.7938H258.22Z" fill="#202024"/>
<path d="M282.753 47.3685C280.081 47.3685 277.652 47.1256 275.223 46.6397C272.794 46.1539 271.093 45.1822 269.636 44.2106C269.15 43.9677 268.907 43.4818 268.907 43.2389C268.907 42.996 268.907 42.7531 269.15 42.5102L271.336 38.8665C271.579 38.3806 271.822 38.3806 272.065 38.3806C272.308 38.3806 272.551 38.3806 272.794 38.6235C274.008 39.3523 275.223 39.8381 276.681 40.3239C278.138 40.8098 279.595 41.0527 281.053 41.0527C282.51 41.0527 283.482 40.8098 284.211 40.3239C284.94 39.8381 285.183 39.1094 285.183 38.1377C285.183 37.166 284.697 36.4373 283.968 35.9515C283.239 35.4656 281.782 34.7369 279.596 34.0082C276.438 32.7936 274.008 31.579 272.308 30.1215C270.608 28.664 269.636 26.4778 269.636 24.0486C269.636 20.8907 270.851 18.7045 273.037 17.0041C275.223 15.3037 278.138 14.575 281.782 14.575C284.454 14.575 286.64 14.8179 288.34 15.3037C290.284 15.7895 291.741 16.5183 292.956 17.247C293.442 17.7328 293.685 17.9758 293.685 18.4616C293.685 18.7045 293.685 18.9474 293.442 19.1903L291.255 22.8341C291.012 23.3199 290.77 23.3199 290.527 23.3199C290.284 23.3199 290.041 23.3199 289.798 23.077C288.098 21.8624 285.911 21.3766 283.239 21.3766C281.782 21.3766 280.81 21.6195 280.081 22.1053C279.353 22.5911 279.11 23.3199 279.11 24.2916C279.11 25.0203 279.353 25.5061 279.596 25.992C280.081 26.4778 280.567 26.7207 281.053 27.2065C281.782 27.4494 282.753 27.9353 283.968 28.4211L284.94 28.664C287.126 29.6357 289.069 30.3644 290.284 31.3361C291.741 32.0648 292.713 33.2794 293.442 34.494C294.17 35.7086 294.413 37.166 294.413 38.8665C294.413 41.5385 293.442 43.9677 291.255 45.4252C289.798 46.3968 286.64 47.3685 282.753 47.3685Z" fill="#202024"/>
<path d="M304.859 46.6394C304.374 46.6394 304.131 46.6394 303.888 46.3965C303.645 46.1536 303.402 45.9107 303.402 45.4248L297.329 25.2629C297.329 25.02 297.329 25.02 297.329 24.7771C297.329 24.2913 297.572 24.0483 298.301 24.0483H304.374C304.859 24.0483 305.102 24.0483 305.345 24.2913C305.588 24.5342 305.588 24.5342 305.831 25.02L308.26 35.7083L311.418 27.2062C311.661 26.7204 311.661 26.4775 311.904 26.4775C312.147 26.2346 312.39 26.2346 312.876 26.2346H315.791C316.276 26.2346 316.519 26.2346 316.762 26.4775C317.005 26.7204 317.005 26.9633 317.248 27.2062L320.406 35.7083L323.078 25.02C323.078 24.7771 323.321 24.5342 323.564 24.2913C323.807 24.0483 324.05 24.0483 324.293 24.0483H330.608C331.337 24.0483 331.58 24.2913 331.58 24.7771C331.58 24.7771 331.58 25.02 331.58 25.2629L325.507 45.4248C325.264 45.9107 325.264 46.1536 325.021 46.3965C324.779 46.6394 324.536 46.6394 324.05 46.6394H319.434C318.949 46.6394 318.706 46.6394 318.463 46.3965C318.22 46.1536 317.977 45.9107 317.977 45.4248L314.819 36.9228L311.661 45.4248C311.418 45.9107 311.418 46.1536 311.175 46.3965C310.932 46.6394 310.689 46.6394 310.204 46.6394H304.859Z" fill="#202024"/>
<path d="M342.752 47.3687C339.837 47.3687 337.408 46.397 335.707 44.4537C334.007 42.5104 333.035 39.8383 333.035 36.4375C333.035 33.7654 333.521 31.5792 334.736 29.6359C335.95 27.6925 337.651 26.2351 339.837 25.0205C342.023 24.0488 344.695 23.3201 347.367 23.3201C349.796 23.3201 351.74 23.563 353.683 24.0488C355.626 24.5347 357.084 25.2634 358.784 26.2351V44.9395C358.784 45.4253 358.784 45.9112 358.541 46.1541C358.298 46.397 357.812 46.397 357.327 46.397H352.468C352.225 46.397 351.983 46.397 351.74 46.1541C351.497 45.9112 351.497 45.9112 351.254 45.6683L350.525 44.2108C349.553 45.1824 348.582 45.9112 347.367 46.397C346.153 47.1257 344.695 47.3687 342.752 47.3687ZM346.395 41.0529C347.61 41.0529 348.582 40.81 349.31 40.0812C350.039 39.5954 350.282 38.6237 350.282 37.6521V30.3646C349.796 30.1217 348.825 29.8788 348.096 29.8788C346.395 29.8788 345.181 30.3646 344.209 31.5792C343.238 32.7938 342.752 34.2512 342.752 36.4375C342.509 39.3525 343.723 41.0529 346.395 41.0529Z" fill="#202024"/>
<path d="M365.345 56.1136C364.374 56.1136 363.888 55.8707 363.402 55.6278C363.159 55.142 362.916 54.6561 362.916 53.9274V27.2067C364.374 26.2351 366.074 25.2634 368.26 24.7776C370.446 24.0488 372.633 23.8059 374.819 23.8059C384.293 23.8059 388.908 27.6926 388.908 35.7087C388.908 39.3525 387.936 42.2675 385.993 44.4537C384.05 46.6399 381.135 47.6116 377.491 47.6116C376.519 47.6116 375.548 47.3687 374.576 47.1258C373.604 46.8828 372.876 46.6399 372.147 46.1541V53.9274C372.147 54.6561 371.904 55.3849 371.661 55.6278C371.175 56.1136 370.689 56.1136 369.718 56.1136H365.345V56.1136ZM375.548 41.0529C377.005 41.0529 377.977 40.567 378.463 39.5954C379.191 38.6237 379.434 37.1662 379.434 35.4658C379.434 33.5225 378.948 32.065 378.22 31.0934C377.491 30.3646 376.276 29.8788 374.576 29.8788C373.604 29.8788 372.633 30.1217 372.147 30.3646V37.6521C372.147 38.6237 372.39 39.5954 373.118 40.0812C373.604 40.81 374.576 41.0529 375.548 41.0529Z" fill="#202024"/>
<path fill-rule="evenodd" clip-rule="evenodd" d="M10.9312 9.47369C9.95951 4.61539 13.8462 0 18.7045 0C23.0769 0 26.7206 3.64372 26.7206 8.01619V17.7328C27.9352 17.7328 28.9069 17.7328 30.1215 17.7328C31.0931 17.7328 32.3077 17.7328 33.2794 17.7328V8.01619C33.2794 3.64372 36.9231 0 41.2955 0C46.1538 0 50.0405 4.61539 49.0688 9.47369L46.8826 20.8907C54.17 24.0486 59.7571 29.6356 59.7571 36.6802V40.8097C59.7571 46.6397 55.8704 51.498 50.5263 54.6559C45.1822 58.0567 37.8947 60 29.8785 60C21.8623 60 14.5749 58.0567 9.23077 54.6559C3.88664 51.498 0 46.6397 0 40.8097V36.6802C0 29.6356 5.58704 24.0486 12.8745 20.8907L10.9312 9.47369ZM44.2105 22.5911L46.6397 9.23077C47.3684 5.82996 44.6964 2.67206 41.2955 2.67206C38.1377 2.67206 35.7085 5.10122 35.7085 8.25911V20.6478C34.9798 20.6478 34.0081 20.4049 33.2794 20.4049C32.3077 20.4049 31.0931 20.4049 30.1215 20.4049C28.9069 20.4049 27.9352 20.4049 26.7206 20.6478C25.9919 20.6478 25.0202 20.8907 24.2915 20.8907V8.50203C24.2915 5.34413 21.8624 2.91498 18.7045 2.91498C15.3036 2.91498 12.6316 6.07288 13.3603 9.47369L15.7895 23.0769C8.01619 25.9919 2.67207 31.336 2.67207 37.4089V41.5385C2.67207 50.7692 14.8178 58.2996 29.8785 58.2996C44.9393 58.2996 57.085 50.7692 57.085 41.5385V37.4089C57.3279 30.8502 51.9838 25.5061 44.2105 22.5911Z" fill="#633001"/>
<path d="M57.328 41.0524C57.328 50.2832 45.1822 57.8135 30.1215 57.8135C15.0608 57.8135 2.91504 50.2832 2.91504 41.0524V36.9229H57.5709V41.0524H57.328Z" fill="#FEDC90"/>
<path fill-rule="evenodd" clip-rule="evenodd" d="M13.3597 8.98791C12.6309 5.5871 15.303 2.4292 18.7038 2.4292C21.8617 2.4292 24.2908 4.85835 24.2908 8.01624V20.6478C26.2342 20.4049 28.1775 20.162 30.1208 20.162C32.0641 20.162 34.0074 20.4049 35.7078 20.4049V8.01624C35.7078 4.85835 38.137 2.4292 41.2949 2.4292C44.6957 2.4292 47.3678 5.5871 46.639 8.98791L44.2099 22.3482C52.2261 25.2632 57.5702 30.6073 57.5702 36.6802C57.5702 45.911 45.4244 53.4414 30.3637 53.4414C15.303 53.4414 3.15723 45.911 3.15723 36.6802C3.15723 30.6073 8.50136 25.2632 16.2746 22.3482L13.3597 8.98791Z" fill="#D1884F"/>
<path d="M22.5917 35.7087C22.5917 38.1378 21.1342 40.324 19.6767 40.324C18.2192 40.324 16.7617 38.3807 16.7617 35.7087C16.7617 33.2795 18.2192 31.0933 19.6767 31.0933C21.1342 31.0933 22.5917 33.0366 22.5917 35.7087Z" fill="#633001"/>
<path d="M43.4813 35.7087C43.4813 38.1378 42.0238 40.324 40.5663 40.324C38.8659 40.324 37.6514 38.3807 37.6514 35.7087C37.6514 33.2795 39.1089 31.0933 40.5663 31.0933C42.0238 31.0933 43.4813 33.0366 43.4813 35.7087Z" fill="#633001"/>
</svg>
