<svg width="222" height="50" viewBox="0 0 222 50" fill="none" xmlns="http://www.w3.org/2000/svg">
<path d="M51.8059 20.9067C47.6393 20.8698 43.6939 22.8241 41.2234 26.2163C38.3843 29.6824 36.9094 34.0702 36.9831 38.5318C36.8356 41.4078 37.7943 44.247 39.6379 46.4593C41.4078 48.4873 44.0258 49.5935 46.7174 49.446C50.6997 49.446 54.4607 47.6024 56.8943 44.4314C59.9178 40.8178 61.5402 36.2457 61.4664 31.5629C61.5771 28.7974 60.8027 26.0689 59.2172 23.8196C57.6317 21.9023 55.1244 20.9067 51.8059 20.9067ZM51.9902 42.0715C50.6628 43.4358 48.8192 44.2101 46.9018 44.247C45.6113 44.3207 44.3576 43.7676 43.5833 42.7352C42.6983 41.5184 42.2927 40.0435 42.4034 38.5686C42.2927 35.3976 43.1777 32.2634 44.9844 29.6455C46.4225 27.3963 48.8929 26.032 51.5846 26.0688C54.5713 26.0688 56.0831 27.9125 56.0831 31.5629C56.0831 35.4713 54.645 39.2323 51.9902 42.0715ZM213.197 34.0702C211.943 33.6277 210.542 34.2545 210.026 35.4713C207.703 41.2972 204.864 44.2101 201.361 44.2101C199.517 44.2101 198.595 42.6246 198.595 39.6379C198.816 36.2457 199.333 32.8903 200.07 29.5717L200.808 26.0688H207.961C209.178 26.0688 210.247 25.1839 210.468 23.9671C210.763 22.566 209.841 21.2017 208.477 20.9436C208.33 20.9067 208.145 20.9067 207.998 20.9067H202.061L203.241 15.0808C203.536 13.6428 202.614 12.2048 201.176 11.8729C200.992 11.8361 200.844 11.7992 200.66 11.7992C199.406 11.7623 198.337 12.6473 198.079 13.9009L196.53 20.7961H179.864C175.661 20.7592 171.715 22.7503 169.282 26.1795C166.442 29.6455 164.968 34.0333 165.041 38.4949C165.041 39.7117 165.189 40.8916 165.447 42.0715C164.378 43.3621 162.792 44.0995 161.096 44.1732C160.248 44.247 159.4 43.9151 158.847 43.2514C158.33 42.3296 158.109 41.2972 158.183 40.2648C158.294 37.2781 158.699 34.2914 159.363 31.3416L163.677 11.2092C164.009 9.77121 163.124 8.37005 161.686 8.0382C160.248 7.70635 158.847 8.59128 158.515 10.0293L156.008 22.3447C154.238 21.2754 152.21 20.7592 150.182 20.7592C146.015 20.6855 142.033 22.5291 139.341 25.7739C136.428 29.3505 134.88 33.8121 135.027 38.4211C134.99 39.896 135.211 41.3341 135.617 42.7352C134.585 43.6202 133.294 44.1364 131.967 44.1364C131.082 44.2101 130.197 43.8783 129.57 43.2146C128.98 42.3296 128.722 41.2603 128.832 40.2279C128.906 38.2368 129.201 36.2457 129.681 34.2914C129.976 32.8165 129.017 31.3785 127.505 31.0835C127.431 31.0835 127.358 31.0466 127.284 31.0466C125.956 30.8623 124.703 31.7472 124.371 33.0378C123.67 35.8769 122.417 38.5686 120.721 40.9653C119.504 42.8458 117.476 44.0626 115.227 44.2101C114.047 44.1732 112.977 43.5464 112.387 42.5509C111.613 41.2234 111.244 39.6748 111.281 38.1262C111.134 34.992 112.019 31.9316 113.862 29.3874C115.411 27.1381 117.992 25.8476 120.684 25.8845C122.048 25.8845 123.412 26.1795 124.703 26.7326C125.477 27.1013 126.362 27.0275 127.099 26.5482C128.316 25.8107 128.722 24.2252 127.984 23.0084C127.689 22.5291 127.284 22.1604 126.768 21.9391C126.104 21.6442 125.403 21.4229 124.703 21.2754C123.412 20.9067 122.122 20.7223 120.794 20.6855C116.665 20.6855 112.719 22.4922 110.064 25.7001C108.479 27.47 107.336 29.5717 106.635 31.8578C104.054 40.0804 100.736 44.0626 96.7166 44.0626C95.5366 44.1364 94.4305 43.657 93.7299 42.7352C93.0662 41.7765 92.7343 40.6335 92.8081 39.4904C92.7712 39.1217 92.8081 38.753 92.8818 38.4211C95.2785 37.4993 97.4171 35.8769 98.9658 33.8489C100.478 31.8947 101.326 29.498 101.362 27.0275C101.362 22.8609 99.1133 20.7592 94.5411 20.7592C91.37 20.7592 88.3096 22.0129 86.0604 24.2621L88.8996 11.1724C89.1946 9.73433 88.2727 8.37005 86.8716 8.07507C86.6872 8.0382 86.5029 8.00133 86.3185 8.0382C85.0648 8.00133 83.9955 8.88627 83.7374 10.1399L75.9942 46.275C75.6992 47.6761 76.5842 49.0773 78.0222 49.3723C78.2066 49.4091 78.3909 49.446 78.5753 49.446C79.7921 49.4091 80.8614 48.5242 81.0457 47.3074L83.4424 36.2457C83.848 34.7708 84.4011 33.3327 85.1017 32.0053C85.9867 30.4567 87.1666 29.0924 88.6046 28.0231C90.0426 26.7694 91.9231 26.0688 93.8405 26.1057C94.7992 25.9582 95.6841 26.6219 95.8316 27.5806C95.8685 27.765 95.8685 27.9125 95.8316 28.0968C95.6841 29.8667 94.7623 31.4891 93.3243 32.5215C91.8125 33.8858 89.932 34.7708 87.904 35.1026C87.7197 36.6881 87.6459 37.868 87.6459 38.5318C87.5353 41.4078 88.3465 44.2101 89.9689 46.57C91.5544 48.5979 94.0617 49.6672 96.6428 49.4829C100.183 49.446 103.538 47.7867 105.713 44.9844L106.709 43.8045C107.078 44.7632 107.631 45.685 108.295 46.4593C109.917 48.4505 112.387 49.5566 114.968 49.446C118.545 49.446 121.569 47.7868 124.039 44.2839C125.108 47.7868 127.616 49.446 131.782 49.446C134.105 49.4091 136.391 48.5611 138.161 47.0862C139.784 48.5979 141.922 49.4091 144.098 49.3354C147.674 49.3354 150.661 47.6761 153.168 44.1732C154.238 47.6761 156.745 49.3354 160.912 49.3354C163.566 49.3723 166.111 48.3767 168.065 46.57C169.835 48.4136 172.268 49.4091 174.812 49.3354C178.795 49.3354 182.556 47.4918 184.989 44.3207C187.976 40.7072 189.598 36.1719 189.561 31.4891C189.598 29.5717 189.266 27.6912 188.566 25.9214H195.498L194.834 28.908C193.986 32.374 193.433 35.9138 193.175 39.4904C193.175 45.98 195.83 49.2985 201.066 49.2985C207.002 49.2985 211.464 45.2794 214.635 37.3887C215.188 36.2088 214.635 34.7708 213.455 34.2177C213.344 34.1439 213.27 34.1071 213.197 34.0702ZM154.127 30.8991C153.205 35.4713 151.73 38.8267 150.034 41.0022C148.338 43.1777 146.384 44.247 144.393 44.247C143.213 44.2101 142.143 43.5833 141.553 42.5877C140.816 41.2603 140.41 39.7854 140.484 38.2736C140.337 35.1395 141.259 32.0791 143.065 29.5349C145.388 25.9582 150.182 24.9627 153.758 27.2856C154.09 27.5069 154.422 27.765 154.754 28.06L154.127 30.8991ZM183.146 37.1675C182.334 38.9005 181.339 40.5229 180.159 41.9978C178.832 43.3989 176.988 44.2101 175.071 44.247C173.78 44.3207 172.563 43.7676 171.752 42.7352C170.867 41.5184 170.462 40.0435 170.572 38.5686C170.462 35.3976 171.346 32.2634 173.153 29.6455C174.591 27.3963 177.062 26.0688 179.753 26.0688C182.74 26.0688 184.252 27.9125 184.252 31.5629C184.178 33.4802 183.809 35.3607 183.146 37.1306V37.1675ZM74.3718 8.00132C73.1182 7.96445 72.0489 8.8494 71.7907 10.1031L64.0475 46.2381C63.7525 47.6393 64.6375 49.0404 66.0755 49.3354C66.2599 49.3723 66.4442 49.4091 66.6286 49.4091C67.8823 49.446 68.9516 48.5611 69.2097 47.3074L76.9529 11.1724C77.211 9.73433 76.2892 8.33318 74.8512 8.0382C74.7037 8.0382 74.5562 8.00132 74.3718 8.00132ZM18.9893 0C8.51755 0.0368725 0.0368725 8.51755 0 18.9893C0 21.0911 0.331853 23.1559 0.995558 25.147C1.4749 26.5113 2.9498 27.2119 4.31408 26.8063C5.64149 26.2901 6.37894 24.8521 5.93647 23.4878C5.38338 21.9391 5.12528 20.2799 5.19902 18.6575C5.42026 11.0986 11.7255 5.16215 19.2843 5.38339C26.8432 5.60462 32.7796 11.9098 32.5584 19.4687C32.3372 26.5482 26.7694 32.3003 19.6899 32.7428C19.6899 32.7428 17.0351 32.9271 15.7077 33.0746C15.2283 33.1484 14.749 33.2221 14.2697 33.3696C14.1959 33.4433 14.0853 33.4065 14.0115 33.3327C13.9747 33.259 13.9747 33.1852 14.0115 33.1115L14.4171 30.8623L16.9245 19.5424C17.2195 18.1413 16.3345 16.7401 14.9334 16.4451C13.5322 16.1502 12.131 17.0351 11.8361 18.4362C11.8361 18.4362 5.8996 46.0906 5.8996 46.3487C5.56775 47.713 6.37894 49.0773 7.74322 49.4091C7.7801 49.4091 7.85384 49.446 7.89071 49.446C9.255 49.7779 10.6193 48.9298 10.9511 47.5655C10.9511 47.5286 10.988 47.4918 10.988 47.4549C11.0617 47.123 11.8361 43.4358 11.8361 43.4358C12.3892 40.6704 14.6384 38.5686 17.4038 38.1262C17.9938 38.0524 20.3905 37.868 20.3905 37.868C30.8254 36.9094 38.4949 27.6544 37.5362 17.2194C36.6513 7.59573 28.6868 0.184362 18.9893 0Z" fill="white"/>
<path d="M218.728 43.7308C216.995 43.3989 215.335 44.5051 214.967 46.2012C214.598 47.8974 215.667 49.5566 217.363 49.9254C217.4 49.9254 217.437 49.9254 217.437 49.9254C219.096 50.2941 220.756 49.2617 221.161 47.6024C221.161 47.5286 221.198 47.4918 221.198 47.418C221.493 45.7588 220.387 44.1364 218.728 43.7308Z" fill="#E6007A"/>
</svg>
