<svg width="80" height="100" viewBox="0 0 80 100" fill="none" xmlns="http://www.w3.org/2000/svg">
<path d="M0 2C0 0.895429 0.895431 0 2 0H76C78.2091 0 80 1.79086 80 4V35.2786C80 62.6868 64.5146 87.7427 40 100L6.63344 83.3167C2.56804 81.284 0 77.1289 0 72.5836V2Z" fill="#28282E"/>
<path d="M78 0H40V100L73.3666 83.3167C77.432 81.284 80 77.1289 80 72.5836V2C80 0.895431 79.1046 0 78 0Z" fill="#3E3E43"/>
<path d="M26.0002 31.1515L36.9093 37.4545V48.1211L26.0002 41.8181V31.1515Z" fill="#EAEAEA"/>
<path d="M45.1514 20L55.818 26.0606L36.909 37.4544L26 31.1514L45.1514 20Z" fill="white"/>
<path d="M55.8232 56.8484L44.9142 50.5454L44.9142 39.8789L55.8232 46.1818L55.8232 56.8484Z" fill="#EAEAEA"/>
<path d="M36.6719 68L26.0053 61.9394L44.9142 50.5456L55.8232 56.8486L36.6719 68Z" fill="white"/>
</svg>
