<svg width="28" height="24" viewBox="0 0 28 24" fill="none" xmlns="http://www.w3.org/2000/svg">
<path d="M27.6888 12.1927C27.6888 10.5542 26.357 9.25299 24.7341 9.25299C23.935 9.25299 23.2081 9.56604 22.6754 10.0722C20.6412 8.62642 17.8557 7.68679 14.7555 7.56642L16.1117 1.25313L20.5197 2.19276C20.5685 3.30127 21.4885 4.19284 22.6271 4.19284C23.7896 4.19284 24.7341 3.25321 24.7341 2.09619C24.7341 0.939626 23.7896 0 22.6271 0C21.8037 0 21.0768 0.48194 20.7378 1.18082L15.8214 0.144627C15.6761 0.120373 15.5307 0.144627 15.4336 0.21694C15.3126 0.289254 15.24 0.409626 15.216 0.554253L13.714 7.59022C10.5656 7.68679 7.73184 8.62642 5.6732 10.0965C5.11877 9.56964 4.38126 9.27614 3.61457 9.27724C1.96766 9.27724 0.65979 10.6022 0.65979 12.2169C0.65979 13.4216 1.38618 14.4335 2.40376 14.8916C2.35501 15.1804 2.33108 15.4697 2.33108 15.7832C2.33108 20.3129 7.63523 24 14.1745 24C20.7138 24 26.018 20.3372 26.018 15.7832C26.018 15.494 25.9936 15.1804 25.9453 14.8916C26.9624 14.4335 27.6888 13.3973 27.6888 12.1927ZM7.3928 14.2889C7.3928 13.1323 8.33724 12.1927 9.50019 12.1927C10.6626 12.1927 11.6071 13.1323 11.6071 14.2889C11.6071 15.4454 10.6626 16.3855 9.50019 16.3855C8.33724 16.4093 7.3928 15.4454 7.3928 14.2889ZM19.1879 19.8552C17.7347 21.301 14.9736 21.3976 14.1745 21.3976C13.3511 21.3976 10.59 21.2768 9.1607 19.8552C8.94309 19.6383 8.94309 19.301 9.1607 19.084C9.37875 18.8675 9.71779 18.8675 9.93584 19.084C10.8563 19.9999 12.794 20.3129 14.1745 20.3129C15.5551 20.3129 17.5166 19.9999 18.4128 19.084C18.6308 18.8675 18.9699 18.8675 19.1879 19.084C19.3816 19.301 19.3816 19.6383 19.1879 19.8552ZM18.8001 16.4093C17.6376 16.4093 16.6932 15.4697 16.6932 14.3131C16.6932 13.1566 17.6376 12.2169 18.8001 12.2169C19.9631 12.2169 20.9075 13.1566 20.9075 14.3131C20.9075 15.4454 19.9631 16.4093 18.8001 16.4093Z" fill="#28282E"/>
</svg>
