<svg width="22" height="22" viewBox="0 0 22 22" fill="none" xmlns="http://www.w3.org/2000/svg">
<path d="M18.069 3.92935C16.1787 2.03884 13.6708 1 10.999 1C5.48718 1 1 5.48763 1 11.0001C1 16.5125 5.48718 21 10.999 21C13.6708 21 16.1787 19.9612 18.069 18.0707C19.9594 16.1802 20.9982 13.672 20.9982 11.0001C20.9982 8.32806 19.9594 5.81986 18.069 3.92935ZM10.999 20.4854C5.76791 20.4854 1.51469 16.2317 1.51469 11.0001C1.51469 5.76838 5.76791 1.51474 10.999 1.51474C16.2302 1.51474 20.4834 5.76838 20.4834 11.0001C20.4834 16.2317 16.2302 20.4854 10.999 20.4854Z" fill="#28282E" stroke="#28282E" stroke-width="0.4"/>
<path d="M12.014 9.94805C10.4652 9.24145 9.12709 8.63312 9.22536 7.1544C9.26748 6.57416 9.6839 6.22786 10.0254 6.0407C10.4512 5.80672 11.0221 5.68505 11.518 5.71781C12.8375 5.80672 13.8763 6.36357 14.8869 7.5194L15.2753 7.18249C14.1804 5.92838 12.9966 5.30132 11.5508 5.20307C11.4385 5.19371 11.3262 5.19371 11.2092 5.19839C11.1858 5.19839 11.1624 5.19839 11.1437 5.19839C10.1939 5.19839 9.15986 5.50723 8.36443 6.03133C7.42863 6.64902 6.90457 7.49601 6.89052 8.41787C6.85309 10.6734 8.72003 11.4408 10.367 12.1193C11.883 12.7464 13.1978 13.2845 13.1697 14.7679C13.1557 15.7693 11.7801 16.3075 10.8115 16.3075C10.7975 16.3075 10.7881 16.3075 10.7741 16.3075V16.3122H10.7694C9.33766 16.2934 8.06496 15.6945 6.98411 14.5339L6.6051 14.8849C7.77018 16.139 9.20664 16.8128 10.7647 16.8316C10.7881 16.8316 10.8115 16.8316 10.8349 16.8316C11.8409 16.8316 12.9264 16.5648 13.7593 16.1062C14.7793 15.5494 15.3735 14.7398 15.4344 13.832C15.5888 11.5765 13.6891 10.7108 12.014 9.94805ZM14.9197 13.7899C14.8589 14.7211 14.1196 15.3154 13.5113 15.6477C13.4552 15.6804 13.399 15.7085 13.3429 15.7366C13.5534 15.4652 13.6797 15.1423 13.6891 14.7726C13.7172 12.9382 12.117 12.2784 10.5682 11.642C8.93058 10.9682 7.38183 10.3271 7.4099 8.42255C7.41926 7.67852 7.86376 6.98126 8.65453 6.45716C8.77149 6.37761 8.89783 6.30743 9.02884 6.23722C8.84635 6.49927 8.73874 6.79409 8.72003 7.11228C8.59369 8.94665 10.2266 9.69069 11.8081 10.4067C13.4739 11.1741 15.0507 11.8947 14.9197 13.7899Z" fill="#28282E" stroke="#28282E" stroke-width="0.4"/>
</svg>
