<svg width="488" height="142" viewBox="0 0 488 142" fill="none" xmlns="http://www.w3.org/2000/svg">
<path d="M71 142C110.212 142 142 110.212 142 71C142 31.7878 110.212 0 71 0C31.7878 0 0 31.7878 0 71C0 110.212 31.7878 142 71 142Z" fill="#436179"/>
<path d="M107.4 74.1001L92.8001 79.8001L85.6 73.2001L82.3001 59.8001L109.9 63.9001V52.6001L89.7 36.0001L47.6 31.6001L53.3 53.5001V66.8001L47.8 73.3001L33.8 71.4001L39 77.8001L94.1 115L97.4001 100L111.2 83.2001L107.4 74.1001Z" fill="white"/>
<path d="M91.3 66.7998L102.9 69.0998L93.7 72.6998L91.3 66.7998Z" fill="#88A2BD"/>
<path d="M19.3999 74.6001L38.9999 77.8001L94.0999 115L39.8999 92.8001L19.3999 74.6001Z" fill="#86A7C5"/>
<path d="M208.3 87.4001C208.3 76.8001 177.5 78.2001 177.5 57.1001C177.5 46.0001 187.2 37.3001 201.1 37.3001C212.3 37.3001 219.2 42.5001 221.4 45.3001L212.3 56.1001C210.7 54.1001 206.9 49.9001 199.8 49.9001C195 49.9001 192.4 52.6001 192.4 55.9001C192.4 66.7001 223.1 65.1001 223.1 86.3001C223.1 96.3001 214.8 106.1 197.8 106.1C184.9 106.1 176.9 100.4 174.6 97.8001L182.9 85.8001C185.8 88.7001 191.6 93.8001 199.7 93.8001C205.6 93.9001 208.3 90.9001 208.3 87.4001ZM275.4 71.2001V105.3H261.9V73.8001C261.9 68.4001 259.5 65.7001 254.9 65.7001C251.7 65.7001 247.9 68.1001 246.2 71.3001V105.3H232.7V37.4001H246.2V59.8001H246.6C249.5 56.8001 254.1 54.3001 260 54.3001C269.8 54.3001 275.4 59.8001 275.4 71.2001ZM287.8 54.7001H301.3V105.3H287.8V54.7001ZM356.3 105.3H342.8V73.1001C342.8 67.9001 340.4 64.9001 335.8 64.9001C331.9 64.9001 328.6 67.2001 327.1 70.9001V105.3H313.6V54.7001H324.2L326.9 59.4001H327.3C330.3 55.7001 335.6 53.4001 340.9 53.4001C350.8 53.4001 356.4 58.9001 356.4 70.2001V105.3H356.3ZM365.7 80.2001C365.7 64.6001 372.2 53.8001 389 53.8001C406.5 53.8001 411.9 64.2001 411.9 79.9001C411.9 95.5001 405.3 106.3 388.5 106.3C371.1 106.3 365.7 95.9001 365.7 80.2001ZM389 95.7001C395.9 95.7001 398.1 90.7001 398.1 80.4001C398.1 69.9001 395.5 64.4001 388.5 64.4001C382.3 64.4001 379.6 69.4001 379.6 79.7001C379.5 90.2001 382.1 95.7001 389 95.7001ZM421.4 37.4001H434.8V56.9001H435.2C437.2 55.6001 440.8 54.1001 445.1 54.1001C456.6 54.1001 465.1 60.4001 465.1 79.0001C465.1 94.4001 456 106.2 439.2 106.2C430.9 106.2 425.9 104.9 421.5 103V37.4001H421.4ZM451.5 80.1001C451.5 68.8001 447.6 65.2001 441.7 65.2001C438.6 65.2001 436.1 66.5001 434.9 67.9001V94.7001C436.4 95.2001 438.1 95.4001 440 95.4001C447.2 95.5001 451.5 90.9001 451.5 80.1001ZM474.1 54.7001H487.6V105.3H474.1V54.7001ZM301.3 41.1001L287.8 35.6001V47.8001H301.3V41.1001ZM487.7 41.1001L474.1 35.6001V47.8001H487.7V41.1001Z" fill="white"/>
</svg>
