<svg width="538" height="178" viewBox="0 0 538 178" fill="none" xmlns="http://www.w3.org/2000/svg">
<path d="M26.2541 75.0201C38.4941 75.0201 51.9581 67.7781 51.9581 52.6821C51.9581 42.6861 46.1441 36.7701 33.0881 31.5681L28.1921 29.6301C20.6441 26.5701 18.8081 24.1221 18.8081 20.9601C18.8081 16.8801 22.1741 14.8401 26.5601 14.8401C31.0481 14.8401 34.7201 17.1861 37.8821 22.6941L49.8161 15.9621C46.3481 8.31206 38.6981 0.560059 25.9481 0.560059C13.4021 0.560059 2.89614 8.21006 2.89614 20.7561C2.89614 32.4861 11.7701 37.7901 21.4601 41.6661L25.9481 43.4001C32.8841 46.1541 35.2301 48.1941 35.2301 52.4781C35.2301 58.0881 30.8441 60.4341 26.0501 60.4341C19.2161 60.4341 15.3401 55.7421 13.3001 50.8461L0.244141 56.8641C2.99814 67.4721 13.5041 75.0201 26.2541 75.0201Z" fill="#28282E"/>
<path d="M58.9738 15.3501H74.7838V1.58006H58.9738V15.3501ZM58.9738 74.0001H74.7838V20.9601H58.9738V74.0001Z" fill="#28282E"/>
<path d="M108.854 19.9401C95.1862 19.9401 81.8242 29.6301 81.8242 47.5821C81.8242 65.0241 95.0842 75.0201 109.772 75.0201C119.462 75.0201 127.01 71.0421 131.396 65.5341L124.256 58.0881C120.38 61.0461 116.198 62.1681 111.506 62.1681C104.468 62.1681 99.1642 59.3121 97.0222 53.6001H134.762C138.128 29.3241 122.318 19.9401 108.854 19.9401ZM109.058 33.2001C114.362 33.2001 119.768 36.1581 120.89 42.2781H96.7162C98.4502 35.9541 103.754 33.2001 109.058 33.2001Z" fill="#28282E"/>
<path d="M173.865 19.9401C166.317 19.9401 161.115 23.2041 158.157 27.6921V20.9601H142.347V74.0001H158.157V45.5421C158.157 38.9121 161.523 34.0161 167.949 34.0161C174.477 34.0161 177.843 38.9121 177.843 45.5421V74.0001H193.653V42.7881C193.653 26.5701 184.575 19.9401 173.865 19.9401Z" fill="#28282E"/>
<path d="M234.726 19.9401C227.178 19.9401 221.976 23.2041 219.018 27.6921V20.9601H203.208V74.0001H219.018V45.5421C219.018 38.9121 222.384 34.0161 228.81 34.0161C235.338 34.0161 238.704 38.9121 238.704 45.5421V74.0001H254.514V42.7881C254.514 26.5701 245.436 19.9401 234.726 19.9401Z" fill="#28282E"/>
<path d="M286.816 75.0201C296.2 75.0201 301.708 69.9201 302.524 67.9821H302.83V74.0001H318.64V20.9601H302.83V26.9781H302.524C301.708 25.0401 296.2 19.9401 286.816 19.9401C274.78 19.9401 261.52 29.0181 261.52 47.4801C261.52 65.9421 274.78 75.0201 286.816 75.0201ZM290.08 60.9441C283.348 60.9441 277.126 56.0481 277.126 47.4801C277.126 38.9121 283.348 34.0161 290.08 34.0161C297.016 34.0161 303.238 38.8101 303.238 47.4801C303.238 56.1501 297.016 60.9441 290.08 60.9441Z" fill="#28282E"/>
<path d="M47.9801 103.58H2.18214V108.17H22.6841V176H27.4781V108.17H47.9801V103.58Z" fill="#28282E"/>
<path d="M73.2419 177.02C86.9099 177.02 100.476 167.126 100.476 149.48C100.476 131.834 86.9099 121.94 73.2419 121.94C59.5739 121.94 46.1099 131.834 46.1099 149.48C46.1099 167.126 59.5739 177.02 73.2419 177.02ZM73.2419 172.634C61.9199 172.634 50.9039 164.474 50.9039 149.48C50.9039 134.486 61.9199 126.326 73.2419 126.326C84.5639 126.326 95.6819 134.486 95.6819 149.48C95.6819 164.474 84.5639 172.634 73.2419 172.634Z" fill="#28282E"/>
<path d="M148.542 176H154.458L128.448 148.052L151.806 122.96H145.89L116.106 155.192V103.58H111.414V176H116.106V161.312L125.49 151.214L148.542 176Z" fill="#28282E"/>
<path d="M182.089 121.94C168.829 121.94 156.079 131.63 156.079 149.378C156.079 167.228 168.829 177.02 182.803 177.02C190.861 177.02 198.613 173.756 203.509 167.738L200.755 164.984C196.879 169.88 190.453 172.634 183.313 172.634C171.685 172.634 161.383 165.086 160.567 151.112H207.283C208.813 131.834 195.553 121.94 182.089 121.94ZM182.089 126.326C192.901 126.326 202.693 133.874 203.101 147.134H160.669C161.587 133.466 171.583 126.326 182.089 126.326Z" fill="#28282E"/>
<path d="M241.655 121.94C231.455 121.94 225.437 127.448 222.887 132.65V122.96H218.195V176H222.887V145.196C222.887 132.242 231.149 126.326 240.737 126.326C250.325 126.326 258.179 132.242 258.179 145.196V176H262.871V144.788C262.871 128.978 253.079 121.94 241.655 121.94Z" fill="#28282E"/>
<path d="M300.849 177.02C314.517 177.02 328.083 167.126 328.083 149.48C328.083 131.834 314.517 121.94 300.849 121.94C287.181 121.94 273.717 131.834 273.717 149.48C273.717 167.126 287.181 177.02 300.849 177.02ZM300.849 172.634C289.527 172.634 278.511 164.474 278.511 149.48C278.511 134.486 289.527 126.326 300.849 126.326C312.171 126.326 323.289 134.486 323.289 149.48C323.289 164.474 312.171 172.634 300.849 172.634Z" fill="#28282E"/>
<path d="M396.753 121.94C385.839 121.94 380.229 128.672 378.291 134.384C375.435 125.816 368.805 121.94 360.645 121.94C351.363 121.94 346.161 126.938 343.713 132.038V122.96H339.021V176H343.713V145.094C343.713 133.874 349.323 126.326 359.727 126.326C370.233 126.326 375.027 133.874 375.027 145.094V176H379.719V145.094C379.719 133.874 385.533 126.326 395.835 126.326C406.341 126.326 411.135 133.874 411.135 145.094V176H415.827V144.482C415.827 128.876 407.667 121.94 396.753 121.94Z" fill="#28282E"/>
<path d="M429.267 108.476H433.959V103.58H429.267V108.476ZM429.267 176H433.959V122.96H429.267V176Z" fill="#28282E"/>
<path d="M471.777 177.02C480.957 177.02 489.831 172.532 494.319 163.964L490.545 161.924C486.771 168.86 479.529 172.634 471.981 172.634C460.863 172.634 449.541 164.474 449.541 149.582C449.541 134.486 460.863 126.326 471.981 126.326C479.529 126.326 486.771 130.1 490.545 137.036L494.319 134.996C489.831 126.428 480.957 121.94 471.777 121.94C458.211 121.94 444.747 131.834 444.747 149.582C444.747 167.126 458.211 177.02 471.777 177.02Z" fill="#28282E"/>
<path d="M519.957 177.02C528.321 177.02 537.093 172.634 537.093 162.434C537.093 154.07 531.585 150.5 521.895 146.42L518.835 145.196C512.205 142.34 509.553 139.178 509.553 134.792C509.553 128.876 514.449 126.224 519.855 126.224C525.975 126.224 529.341 129.386 531.177 133.976L535.053 132.548C533.115 126.122 527.301 121.94 519.753 121.94C511.185 121.94 504.861 127.244 504.861 134.792C504.861 140.504 508.431 145.502 517.203 149.174L520.773 150.704C528.321 153.866 532.401 156.416 532.401 162.434C532.401 169.676 526.179 172.736 520.059 172.736C513.633 172.736 508.227 169.166 506.391 161.924L502.209 163.046C503.841 171.512 510.471 177.02 519.957 177.02Z" fill="#28282E"/>
</svg>
