<svg width="653" height="120" viewBox="0 0 653 120" fill="none" xmlns="http://www.w3.org/2000/svg">
<path d="M0 27.8789L27.2725 43.6364V70.3028L0 54.5454V27.8789Z" fill="black"/>
<path d="M47.8784 0L74.5448 15.1514L27.2725 43.636L0 27.8786L47.8784 0Z" fill="#28282E"/>
<path d="M74.5476 92.1211L47.2751 76.3637L47.2751 49.6972L74.5476 65.4546L74.5476 92.1211Z" fill="black"/>
<path d="M26.6682 120L0.00178127 104.849L47.2741 76.364L74.5466 92.1214L26.6682 120Z" fill="#28282E"/>
<path d="M145.254 97.46C157.494 97.46 170.958 90.218 170.958 75.122C170.958 65.126 165.144 59.21 152.088 54.008L147.192 52.07C139.644 49.01 137.808 46.562 137.808 43.4C137.808 39.32 141.174 37.28 145.56 37.28C150.048 37.28 153.72 39.626 156.882 45.134L168.816 38.402C165.348 30.752 157.698 23 144.948 23C132.402 23 121.896 30.65 121.896 43.196C121.896 54.926 130.77 60.23 140.46 64.106L144.948 65.84C151.884 68.594 154.23 70.634 154.23 74.918C154.23 80.528 149.844 82.874 145.05 82.874C138.216 82.874 134.34 78.182 132.3 73.286L119.244 79.304C121.998 89.912 132.504 97.46 145.254 97.46Z" fill="#28282E"/>
<path d="M177.974 37.79H193.784V24.02H177.974V37.79ZM177.974 96.44H193.784V43.4H177.974V96.44Z" fill="#28282E"/>
<path d="M227.854 42.38C214.186 42.38 200.824 52.07 200.824 70.022C200.824 87.464 214.084 97.46 228.772 97.46C238.462 97.46 246.01 93.482 250.396 87.974L243.256 80.528C239.38 83.486 235.198 84.608 230.506 84.608C223.468 84.608 218.164 81.752 216.022 76.04H253.762C257.128 51.764 241.318 42.38 227.854 42.38ZM228.058 55.64C233.362 55.64 238.768 58.598 239.89 64.718H215.716C217.45 58.394 222.754 55.64 228.058 55.64Z" fill="#28282E"/>
<path d="M292.865 42.38C285.317 42.38 280.115 45.644 277.157 50.132V43.4H261.347V96.44H277.157V67.982C277.157 61.352 280.523 56.456 286.949 56.456C293.477 56.456 296.843 61.352 296.843 67.982V96.44H312.653V65.228C312.653 49.01 303.575 42.38 292.865 42.38Z" fill="#28282E"/>
<path d="M353.726 42.38C346.178 42.38 340.976 45.644 338.018 50.132V43.4H322.208V96.44H338.018V67.982C338.018 61.352 341.384 56.456 347.81 56.456C354.338 56.456 357.704 61.352 357.704 67.982V96.44H373.514V65.228C373.514 49.01 364.436 42.38 353.726 42.38Z" fill="#28282E"/>
<path d="M405.815 97.46C415.199 97.46 420.707 92.36 421.523 90.422H421.829V96.44H437.639V43.4H421.829V49.418H421.523C420.707 47.48 415.199 42.38 405.815 42.38C393.779 42.38 380.519 51.458 380.519 69.92C380.519 88.382 393.779 97.46 405.815 97.46ZM409.079 83.384C402.347 83.384 396.125 78.488 396.125 69.92C396.125 61.352 402.347 56.456 409.079 56.456C416.015 56.456 422.237 61.25 422.237 69.92C422.237 78.59 416.015 83.384 409.079 83.384Z" fill="#28282E"/>
<path d="M447.218 96.44H475.37C494.75 96.44 510.05 81.446 510.05 60.23C510.05 39.014 494.75 24.02 475.37 24.02H447.218V96.44ZM463.334 81.242V39.218H474.758C486.998 39.218 493.322 47.888 493.322 60.23C493.322 72.572 486.998 81.242 474.758 81.242H463.334Z" fill="#28282E"/>
<path d="M561.866 96.44H579.308L551.666 24.02H534.53L506.888 96.44H524.33L528.41 84.914H557.786L561.866 96.44ZM533.816 70.022L543.098 43.91L552.38 70.022H533.816Z" fill="#28282E"/>
<path d="M615.218 97.46C635.618 97.46 652.754 82.364 652.754 60.23C652.754 38.096 635.618 23 615.218 23C594.716 23 577.682 38.096 577.682 60.23C577.682 82.364 594.716 97.46 615.218 97.46ZM615.218 82.16C603.794 82.16 594.308 73.592 594.308 60.23C594.308 46.868 603.794 38.3 615.218 38.3C626.642 38.3 636.128 46.868 636.128 60.23C636.128 73.592 626.642 82.16 615.218 82.16Z" fill="#28282E"/>
</svg>
