<svg width="580" height="279" viewBox="0 0 580 279" fill="none" xmlns="http://www.w3.org/2000/svg">
<path d="M26.2539 74.46C38.4939 74.46 51.9579 67.218 51.9579 52.122C51.9579 42.126 46.1439 36.21 33.0879 31.008L28.1919 29.07C20.6439 26.01 18.8079 23.562 18.8079 20.4C18.8079 16.32 22.1739 14.28 26.5599 14.28C31.0479 14.28 34.7199 16.626 37.8819 22.134L49.8159 15.402C46.3479 7.752 38.6979 0 25.9479 0C13.4019 0 2.8959 7.65 2.8959 20.196C2.8959 31.926 11.7699 37.23 21.4599 41.106L25.9479 42.84C32.8839 45.594 35.2299 47.634 35.2299 51.918C35.2299 57.528 30.8439 59.874 26.0499 59.874C19.2159 59.874 15.3399 55.182 13.2999 50.286L0.243896 56.304C2.9979 66.912 13.5039 74.46 26.2539 74.46Z" fill="white"/>
<path d="M58.9736 14.79H74.7836V1.02H58.9736V14.79ZM58.9736 73.44H74.7836V20.4H58.9736V73.44Z" fill="white"/>
<path d="M108.854 19.38C95.186 19.38 81.824 29.07 81.824 47.022C81.824 64.464 95.084 74.46 109.772 74.46C119.462 74.46 127.01 70.482 131.396 64.974L124.256 57.528C120.38 60.486 116.198 61.608 111.506 61.608C104.468 61.608 99.164 58.752 97.022 53.04H134.762C138.128 28.764 122.318 19.38 108.854 19.38ZM109.058 32.64C114.362 32.64 119.768 35.598 120.89 41.718H96.716C98.45 35.394 103.754 32.64 109.058 32.64Z" fill="white"/>
<path d="M173.865 19.38C166.317 19.38 161.115 22.644 158.157 27.132V20.4H142.347V73.44H158.157V44.982C158.157 38.352 161.523 33.456 167.949 33.456C174.477 33.456 177.843 38.352 177.843 44.982V73.44H193.653V42.228C193.653 26.01 184.575 19.38 173.865 19.38Z" fill="white"/>
<path d="M234.726 19.38C227.178 19.38 221.976 22.644 219.018 27.132V20.4H203.208V73.44H219.018V44.982C219.018 38.352 222.384 33.456 228.81 33.456C235.338 33.456 238.704 38.352 238.704 44.982V73.44H254.514V42.228C254.514 26.01 245.436 19.38 234.726 19.38Z" fill="white"/>
<path d="M286.815 74.46C296.199 74.46 301.707 69.36 302.523 67.422H302.829V73.44H318.639V20.4H302.829V26.418H302.523C301.707 24.48 296.199 19.38 286.815 19.38C274.779 19.38 261.519 28.458 261.519 46.92C261.519 65.382 274.779 74.46 286.815 74.46ZM290.079 60.384C283.347 60.384 277.125 55.488 277.125 46.92C277.125 38.352 283.347 33.456 290.079 33.456C297.015 33.456 303.237 38.25 303.237 46.92C303.237 55.59 297.015 60.384 290.079 60.384Z" fill="white"/>
<path d="M73.4799 140.148H45.7359V144.534H68.7879C67.4619 162.792 54.8139 171.87 40.3299 171.87C23.0919 171.87 8.5059 158.61 8.5059 139.23C8.5059 119.748 22.6839 106.692 40.2279 106.692C47.1639 106.692 57.0579 108.732 64.0959 117.912L67.6659 115.056C59.5059 104.55 48.3879 102 40.1259 102C19.9299 102 3.7119 117.3 3.7119 139.23C3.7119 161.16 20.1339 176.46 39.9219 176.46C58.6899 176.46 74.2959 162.792 73.4799 140.148Z" fill="white"/>
<path d="M110.496 176.46C124.164 176.46 137.73 166.566 137.73 148.92C137.73 131.274 124.164 121.38 110.496 121.38C96.8275 121.38 83.3635 131.274 83.3635 148.92C83.3635 166.566 96.8275 176.46 110.496 176.46ZM110.496 172.074C99.1735 172.074 88.1575 163.914 88.1575 148.92C88.1575 133.926 99.1735 125.766 110.496 125.766C121.818 125.766 132.936 133.926 132.936 148.92C132.936 163.914 121.818 172.074 110.496 172.074Z" fill="white"/>
<path d="M164.756 175.44H168.938L191.684 122.4H186.686L166.796 169.116L147.008 122.4H142.01L164.756 175.44Z" fill="white"/>
<path d="M221.932 121.38C208.672 121.38 195.922 131.07 195.922 148.818C195.922 166.668 208.672 176.46 222.646 176.46C230.704 176.46 238.456 173.196 243.352 167.178L240.598 164.424C236.722 169.32 230.296 172.074 223.156 172.074C211.528 172.074 201.226 164.526 200.41 150.552H247.126C248.656 131.274 235.396 121.38 221.932 121.38ZM221.932 125.766C232.744 125.766 242.536 133.314 242.944 146.574H200.512C201.43 132.906 211.426 125.766 221.932 125.766Z" fill="white"/>
<path d="M280.071 121.38C270.381 121.38 264.873 127.5 262.731 134.436V122.4H258.039V175.44H262.731V146.268C262.731 133.416 270.585 125.766 280.173 125.766C281.295 125.766 282.009 125.868 282.723 125.97V121.686C282.111 121.482 281.295 121.38 280.071 121.38Z" fill="white"/>
<path d="M316.959 121.38C306.759 121.38 300.741 126.888 298.191 132.09V122.4H293.499V175.44H298.191V144.636C298.191 131.682 306.453 125.766 316.041 125.766C325.629 125.766 333.483 131.682 333.483 144.636V175.44H338.175V144.228C338.175 128.418 328.383 121.38 316.959 121.38Z" fill="white"/>
<path d="M375.44 176.46C385.538 176.46 394.106 170.952 397.574 163.2H397.88V175.44H402.572V122.4H397.88V134.64H397.574C394.106 126.888 385.538 121.38 375.44 121.38C361.976 121.38 349.022 130.968 349.022 148.92C349.022 166.872 361.976 176.46 375.44 176.46ZM375.848 172.074C364.934 172.074 353.816 164.526 353.816 148.92C353.816 133.314 364.934 125.766 375.848 125.766C386.762 125.766 397.982 133.416 397.982 148.92C397.982 164.424 386.762 172.074 375.848 172.074Z" fill="white"/>
<path d="M439.379 121.38C429.179 121.38 423.161 126.888 420.611 132.09V122.4H415.919V175.44H420.611V144.636C420.611 131.682 428.873 125.766 438.461 125.766C448.049 125.766 455.903 131.682 455.903 144.636V175.44H460.595V144.228C460.595 128.418 450.803 121.38 439.379 121.38Z" fill="white"/>
<path d="M498.472 176.46C507.652 176.46 516.526 171.972 521.014 163.404L517.24 161.364C513.466 168.3 506.224 172.074 498.676 172.074C487.558 172.074 476.236 163.914 476.236 149.022C476.236 133.926 487.558 125.766 498.676 125.766C506.224 125.766 513.466 129.54 517.24 136.476L521.014 134.436C516.526 125.868 507.652 121.38 498.472 121.38C484.906 121.38 471.442 131.274 471.442 149.022C471.442 166.566 484.906 176.46 498.472 176.46Z" fill="white"/>
<path d="M554.428 121.38C541.168 121.38 528.418 131.07 528.418 148.818C528.418 166.668 541.168 176.46 555.142 176.46C563.2 176.46 570.952 173.196 575.848 167.178L573.094 164.424C569.218 169.32 562.792 172.074 555.652 172.074C544.024 172.074 533.722 164.526 532.906 150.552H579.622C581.152 131.274 567.892 121.38 554.428 121.38ZM554.428 125.766C565.24 125.766 575.032 133.314 575.44 146.574H533.008C533.926 132.906 543.922 125.766 554.428 125.766Z" fill="white"/>
<path d="M47.9799 205.02H2.1819V209.61H22.6839V277.44H27.4779V209.61H47.9799V205.02Z" fill="white"/>
<path d="M73.2416 278.46C86.9096 278.46 100.476 268.566 100.476 250.92C100.476 233.274 86.9096 223.38 73.2416 223.38C59.5736 223.38 46.1096 233.274 46.1096 250.92C46.1096 268.566 59.5736 278.46 73.2416 278.46ZM73.2416 274.074C61.9196 274.074 50.9036 265.914 50.9036 250.92C50.9036 235.926 61.9196 227.766 73.2416 227.766C84.5636 227.766 95.6816 235.926 95.6816 250.92C95.6816 265.914 84.5636 274.074 73.2416 274.074Z" fill="white"/>
<path d="M148.542 277.44H154.458L128.448 249.492L151.806 224.4H145.89L116.106 256.632V205.02H111.414V277.44H116.106V262.752L125.49 252.654L148.542 277.44Z" fill="white"/>
<path d="M182.088 223.38C168.828 223.38 156.078 233.07 156.078 250.818C156.078 268.668 168.828 278.46 182.802 278.46C190.86 278.46 198.612 275.196 203.508 269.178L200.754 266.424C196.878 271.32 190.452 274.074 183.312 274.074C171.684 274.074 161.382 266.526 160.566 252.552H207.282C208.812 233.274 195.552 223.38 182.088 223.38ZM182.088 227.766C192.9 227.766 202.692 235.314 203.1 248.574H160.668C161.586 234.906 171.582 227.766 182.088 227.766Z" fill="white"/>
<path d="M241.655 223.38C231.455 223.38 225.437 228.888 222.887 234.09V224.4H218.195V277.44H222.887V246.636C222.887 233.682 231.149 227.766 240.737 227.766C250.325 227.766 258.179 233.682 258.179 246.636V277.44H262.871V246.228C262.871 230.418 253.079 223.38 241.655 223.38Z" fill="white"/>
</svg>
