<svg width="650" height="430" viewBox="0 0 650 430" fill="none" xmlns="http://www.w3.org/2000/svg">
<path fill-rule="evenodd" clip-rule="evenodd" d="M348.233 9.60448L331.329 0L300.981 17.6711L300.979 17.6699V17.6722V34.5738L318.267 44.5624V27.6609L348.233 9.60448ZM197.844 155.455V170H195.209V155.455H197.844ZM224.45 155.455V170H222.106L215.253 160.092H215.132V170H212.497V155.455H214.855L221.701 165.369H221.829V155.455H224.45ZM238.482 157.663V155.455H250.087V157.663H245.591V170H242.978V157.663H238.482ZM264.124 170V155.455H269.579C270.696 155.455 271.634 155.649 272.391 156.037C273.154 156.425 273.729 156.97 274.117 157.67C274.51 158.366 274.707 159.178 274.707 160.107C274.707 161.039 274.508 161.849 274.11 162.536C273.717 163.217 273.137 163.745 272.37 164.119C272.322 164.142 272.273 164.165 272.224 164.186C272.181 164.205 272.137 164.224 272.093 164.242L275.239 170H272.299L269.44 164.673H266.759V170H264.124ZM269.188 162.486H266.759V157.656H269.174C269.832 157.656 270.369 157.753 270.786 157.947C271.203 158.137 271.513 158.416 271.717 158.786C271.92 159.15 272.022 159.59 272.022 160.107C272.022 160.623 271.92 161.058 271.717 161.413C271.518 161.764 271.21 162.031 270.793 162.216C270.377 162.396 269.842 162.486 269.188 162.486ZM301.929 162.727C301.929 164.295 301.636 165.637 301.048 166.754C300.466 167.867 299.671 168.719 298.662 169.311C297.658 169.903 296.52 170.199 295.246 170.199C293.972 170.199 292.831 169.903 291.823 169.311C290.819 168.714 290.023 167.86 289.436 166.747C288.854 165.63 288.563 164.29 288.563 162.727C288.563 161.16 288.854 159.82 289.436 158.707C290.023 157.59 290.819 156.735 291.823 156.143C292.831 155.552 293.972 155.256 295.246 155.256C296.52 155.256 297.658 155.552 298.662 156.143C299.671 156.735 300.466 157.59 301.048 158.707C301.636 159.82 301.929 161.16 301.929 162.727ZM299.28 162.727C299.28 161.624 299.107 160.694 298.762 159.936C298.421 159.174 297.947 158.598 297.341 158.21C296.735 157.817 296.037 157.621 295.246 157.621C294.455 157.621 293.757 157.817 293.151 158.21C292.545 158.598 292.069 159.174 291.723 159.936C291.382 160.694 291.212 161.624 291.212 162.727C291.212 163.83 291.382 164.763 291.723 165.526C292.069 166.283 292.545 166.858 293.151 167.251C293.757 167.64 294.455 167.834 295.246 167.834C296.037 167.834 296.735 167.64 297.341 167.251C297.947 166.858 298.421 166.283 298.762 165.526C299.107 164.763 299.28 163.83 299.28 162.727ZM321.149 170H316.22V155.455H321.249C322.693 155.455 323.933 155.746 324.97 156.328C326.012 156.906 326.812 157.737 327.371 158.821C327.93 159.905 328.209 161.203 328.209 162.713C328.209 164.228 327.927 165.53 327.364 166.619C326.805 167.708 325.998 168.544 324.942 169.126C323.891 169.709 322.627 170 321.149 170ZM318.855 167.72H321.021C322.035 167.72 322.88 167.536 323.557 167.166C324.234 166.792 324.743 166.236 325.084 165.497C325.425 164.754 325.595 163.826 325.595 162.713C325.595 161.6 325.425 160.677 325.084 159.943C324.743 159.205 324.239 158.653 323.571 158.288C322.908 157.919 322.084 157.734 321.1 157.734H318.855V167.72ZM351.682 155.455H354.316V164.957C354.316 165.999 354.07 166.915 353.578 167.706C353.09 168.497 352.404 169.115 351.518 169.56C350.633 170 349.598 170.22 348.414 170.22C347.226 170.22 346.189 170 345.304 169.56C344.418 169.115 343.732 168.497 343.244 167.706C342.756 166.915 342.512 165.999 342.512 164.957V155.455H345.147V164.737C345.147 165.343 345.28 165.883 345.545 166.357C345.815 166.83 346.194 167.202 346.682 167.472C347.169 167.737 347.747 167.869 348.414 167.869C349.082 167.869 349.66 167.737 350.147 167.472C350.64 167.202 351.019 166.83 351.284 166.357C351.549 165.883 351.682 165.343 351.682 164.737V155.455ZM381.431 160.362H378.775C378.699 159.927 378.559 159.541 378.355 159.205C378.152 158.864 377.899 158.575 377.596 158.338C377.292 158.101 376.947 157.924 376.559 157.805C376.175 157.682 375.761 157.621 375.316 157.621C374.525 157.621 373.824 157.82 373.213 158.217C372.603 158.61 372.124 159.188 371.779 159.95C371.433 160.708 371.26 161.634 371.26 162.727C371.26 163.84 371.433 164.777 371.779 165.54C372.129 166.297 372.607 166.87 373.213 167.259C373.824 167.642 374.523 167.834 375.309 167.834C375.744 167.834 376.151 167.777 376.53 167.663C376.914 167.545 377.257 167.372 377.56 167.145C377.868 166.918 378.126 166.638 378.334 166.307C378.547 165.975 378.694 165.597 378.775 165.17L381.431 165.185C381.331 165.876 381.116 166.525 380.784 167.131C380.458 167.737 380.029 168.272 379.499 168.736C378.969 169.195 378.348 169.555 377.638 169.815C376.928 170.071 376.14 170.199 375.273 170.199C373.995 170.199 372.854 169.903 371.85 169.311C370.846 168.719 370.055 167.865 369.478 166.747C368.9 165.63 368.611 164.29 368.611 162.727C368.611 161.16 368.902 159.82 369.485 158.707C370.067 157.59 370.86 156.735 371.864 156.143C372.868 155.552 374.004 155.256 375.273 155.256C376.083 155.256 376.836 155.369 377.532 155.597C378.228 155.824 378.848 156.158 379.392 156.598C379.937 157.034 380.384 157.569 380.735 158.203C381.09 158.833 381.322 159.553 381.431 160.362ZM398.279 155.455V170H395.644V155.455H398.279ZM424.885 155.455V170H422.541L415.688 160.092H415.567V170H412.932V155.455H415.29L422.137 165.369H422.264V155.455H424.885ZM449.301 160.099C449.182 159.716 449.019 159.373 448.811 159.07C448.607 158.762 448.361 158.499 448.072 158.281C447.788 158.063 447.461 157.9 447.092 157.791C446.722 157.678 446.32 157.621 445.884 157.621C445.103 157.621 444.407 157.817 443.796 158.21C443.186 158.603 442.705 159.181 442.355 159.943C442.009 160.701 441.836 161.624 441.836 162.713C441.836 163.812 442.009 164.742 442.355 165.504C442.7 166.267 443.181 166.847 443.796 167.244C444.412 167.637 445.127 167.834 445.941 167.834C446.68 167.834 447.319 167.692 447.859 167.408C448.403 167.124 448.822 166.721 449.116 166.2C449.397 165.698 449.543 165.113 449.555 164.446H446.204V162.386H452.106V164.134C452.106 165.379 451.841 166.456 451.311 167.365C450.78 168.274 450.051 168.975 449.123 169.467C448.195 169.955 447.13 170.199 445.927 170.199C444.587 170.199 443.41 169.898 442.397 169.297C441.389 168.691 440.6 167.831 440.032 166.719C439.469 165.601 439.187 164.276 439.187 162.741C439.187 161.567 439.353 160.518 439.684 159.595C440.02 158.672 440.489 157.888 441.09 157.244C441.692 156.596 442.397 156.103 443.207 155.767C444.016 155.426 444.897 155.256 445.849 155.256C446.654 155.256 447.404 155.374 448.1 155.611C448.796 155.843 449.414 156.174 449.954 156.605C450.498 157.036 450.946 157.547 451.296 158.139C451.647 158.731 451.876 159.384 451.985 160.099H449.301ZM111.105 322.227V319.727H128.559V322.227H121.241V343H118.423V322.227H111.105ZM135.227 332.5V343H132.545V319.727H135.227V328.273H135.454C135.863 327.371 136.477 326.655 137.295 326.125C138.121 325.587 139.219 325.318 140.59 325.318C141.78 325.318 142.821 325.557 143.715 326.034C144.609 326.504 145.302 327.227 145.795 328.205C146.295 329.174 146.545 330.409 146.545 331.909V343H143.863V332.091C143.863 330.705 143.503 329.633 142.784 328.875C142.071 328.11 141.083 327.727 139.818 327.727C138.939 327.727 138.151 327.913 137.454 328.284C136.765 328.655 136.219 329.197 135.818 329.909C135.424 330.621 135.227 331.485 135.227 332.5ZM158.769 343.364C157.087 343.364 155.637 342.992 154.417 342.25C153.205 341.5 152.269 340.455 151.61 339.114C150.959 337.765 150.633 336.197 150.633 334.409C150.633 332.621 150.959 331.045 151.61 329.682C152.269 328.311 153.186 327.242 154.36 326.477C155.542 325.705 156.921 325.318 158.497 325.318C159.406 325.318 160.303 325.47 161.19 325.773C162.076 326.076 162.883 326.568 163.61 327.25C164.337 327.924 164.917 328.818 165.349 329.932C165.781 331.045 165.997 332.417 165.997 334.045V335.182H153.321C153.359 336.343 153.584 337.339 153.997 338.17C154.459 339.08 155.099 339.773 155.917 340.25C156.735 340.72 157.686 340.955 158.769 340.955C159.474 340.955 160.11 340.856 160.678 340.659C161.254 340.455 161.75 340.152 162.167 339.75C162.584 339.341 162.906 338.833 163.133 338.227L165.724 338.955C165.451 339.833 164.993 340.606 164.349 341.273C163.705 341.932 162.909 342.447 161.962 342.818C161.016 343.182 159.951 343.364 158.769 343.364ZM153.94 330.568C153.583 331.289 153.379 332.054 153.328 332.864H163.269C163.269 331.879 163.072 331 162.678 330.227C162.292 329.455 161.739 328.845 161.019 328.398C160.307 327.951 159.466 327.727 158.497 327.727C157.428 327.727 156.504 327.992 155.724 328.523C154.951 329.045 154.356 329.727 153.94 330.568ZM198.167 327H195.349C195.182 326.189 194.891 325.477 194.474 324.864C194.065 324.25 193.565 323.735 192.974 323.318C192.391 322.894 191.743 322.576 191.031 322.364C190.319 322.152 189.576 322.045 188.803 322.045C187.394 322.045 186.118 322.402 184.974 323.114C183.837 323.826 182.932 324.875 182.258 326.261C181.591 327.648 181.258 329.348 181.258 331.364C181.258 333.379 181.591 335.08 182.258 336.466C182.932 337.852 183.837 338.902 184.974 339.614C186.118 340.326 187.394 340.682 188.803 340.682C189.576 340.682 190.319 340.576 191.031 340.364C191.743 340.152 192.391 339.837 192.974 339.42C193.565 338.996 194.065 338.477 194.474 337.864C194.891 337.242 195.182 336.53 195.349 335.727H198.167C197.955 336.917 197.569 337.981 197.008 338.92C196.447 339.86 195.75 340.659 194.917 341.318C194.084 341.97 193.148 342.466 192.11 342.807C191.08 343.148 189.978 343.318 188.803 343.318C186.819 343.318 185.053 342.833 183.508 341.864C181.962 340.894 180.747 339.515 179.86 337.727C178.974 335.939 178.531 333.818 178.531 331.364C178.531 328.909 178.974 326.788 179.86 325C180.747 323.212 181.962 321.833 183.508 320.864C185.053 319.894 186.819 319.409 188.803 319.409C189.978 319.409 191.08 319.58 192.11 319.92C193.148 320.261 194.084 320.761 194.917 321.42C195.75 322.072 196.447 322.867 197.008 323.807C197.569 324.739 197.955 325.803 198.167 327ZM209.448 343.364C207.873 343.364 206.49 342.989 205.301 342.239C204.119 341.489 203.195 340.439 202.528 339.091C201.869 337.742 201.539 336.167 201.539 334.364C201.539 332.545 201.869 330.958 202.528 329.602C203.195 328.246 204.119 327.193 205.301 326.443C206.49 325.693 207.873 325.318 209.448 325.318C211.024 325.318 212.403 325.693 213.585 326.443C214.774 327.193 215.698 328.246 216.357 329.602C217.024 330.958 217.357 332.545 217.357 334.364C217.357 336.167 217.024 337.742 216.357 339.091C215.698 340.439 214.774 341.489 213.585 342.239C212.403 342.989 211.024 343.364 209.448 343.364ZM209.448 340.955C210.645 340.955 211.63 340.648 212.403 340.034C213.176 339.42 213.748 338.614 214.119 337.614C214.49 336.614 214.676 335.53 214.676 334.364C214.676 333.197 214.49 332.11 214.119 331.102C213.748 330.095 213.176 329.28 212.403 328.659C211.63 328.038 210.645 327.727 209.448 327.727C208.251 327.727 207.266 328.038 206.494 328.659C205.721 329.28 205.149 330.095 204.778 331.102C204.407 332.11 204.221 333.197 204.221 334.364C204.221 335.53 204.407 336.614 204.778 337.614C205.149 338.614 205.721 339.42 206.494 340.034C207.266 340.648 208.251 340.955 209.448 340.955ZM233.815 329.455L231.406 330.136C231.254 329.735 231.031 329.345 230.735 328.966C230.447 328.58 230.053 328.261 229.553 328.011C229.053 327.761 228.413 327.636 227.633 327.636C226.565 327.636 225.675 327.883 224.962 328.375C224.258 328.86 223.906 329.477 223.906 330.227C223.906 330.894 224.148 331.42 224.633 331.807C225.118 332.193 225.875 332.515 226.906 332.773L229.497 333.409C231.057 333.788 232.22 334.367 232.985 335.148C233.75 335.92 234.133 336.917 234.133 338.136C234.133 339.136 233.845 340.03 233.269 340.818C232.701 341.606 231.906 342.227 230.883 342.682C229.86 343.136 228.671 343.364 227.315 343.364C225.534 343.364 224.061 342.977 222.894 342.205C221.728 341.432 220.989 340.303 220.678 338.818L223.224 338.182C223.466 339.121 223.925 339.826 224.599 340.295C225.281 340.765 226.171 341 227.269 341C228.519 341 229.512 340.735 230.247 340.205C230.989 339.667 231.36 339.023 231.36 338.273C231.36 337.667 231.148 337.159 230.724 336.75C230.3 336.333 229.648 336.023 228.769 335.818L225.86 335.136C224.262 334.758 223.087 334.17 222.337 333.375C221.595 332.572 221.224 331.568 221.224 330.364C221.224 329.379 221.5 328.508 222.053 327.75C222.614 326.992 223.375 326.398 224.337 325.966C225.307 325.534 226.406 325.318 227.633 325.318C229.36 325.318 230.716 325.697 231.701 326.455C232.694 327.212 233.398 328.212 233.815 329.455ZM238.17 343V325.545H240.761V328.273H240.988C241.352 327.341 241.939 326.617 242.749 326.102C243.56 325.58 244.534 325.318 245.67 325.318C246.821 325.318 247.78 325.58 248.545 326.102C249.318 326.617 249.92 327.341 250.352 328.273H250.534C250.98 327.371 251.651 326.655 252.545 326.125C253.439 325.587 254.511 325.318 255.761 325.318C257.321 325.318 258.598 325.807 259.59 326.784C260.583 327.754 261.079 329.265 261.079 331.318V343H258.397V331.318C258.397 330.03 258.045 329.11 257.34 328.557C256.636 328.004 255.806 327.727 254.852 327.727C253.624 327.727 252.674 328.098 251.999 328.841C251.325 329.576 250.988 330.508 250.988 331.636V343H248.261V331.045C248.261 330.053 247.939 329.254 247.295 328.648C246.651 328.034 245.821 327.727 244.806 327.727C244.109 327.727 243.458 327.913 242.852 328.284C242.253 328.655 241.768 329.17 241.397 329.83C241.034 330.481 240.852 331.235 240.852 332.091V343H238.17ZM273.073 343.364C271.498 343.364 270.115 342.989 268.926 342.239C267.744 341.489 266.819 340.439 266.153 339.091C265.494 337.742 265.164 336.167 265.164 334.364C265.164 332.545 265.494 330.958 266.153 329.602C266.819 328.246 267.744 327.193 268.926 326.443C270.115 325.693 271.498 325.318 273.073 325.318C274.649 325.318 276.028 325.693 277.21 326.443C278.399 327.193 279.323 328.246 279.982 329.602C280.649 330.958 280.982 332.545 280.982 334.364C280.982 336.167 280.649 337.742 279.982 339.091C279.323 340.439 278.399 341.489 277.21 342.239C276.028 342.989 274.649 343.364 273.073 343.364ZM273.073 340.955C274.27 340.955 275.255 340.648 276.028 340.034C276.801 339.42 277.373 338.614 277.744 337.614C278.115 336.614 278.301 335.53 278.301 334.364C278.301 333.197 278.115 332.11 277.744 331.102C277.373 330.095 276.801 329.28 276.028 328.659C275.255 328.038 274.27 327.727 273.073 327.727C271.876 327.727 270.891 328.038 270.119 328.659C269.346 329.28 268.774 330.095 268.403 331.102C268.032 332.11 267.846 333.197 267.846 334.364C267.846 335.53 268.032 336.614 268.403 337.614C268.774 338.614 269.346 339.42 270.119 340.034C270.891 340.648 271.876 340.955 273.073 340.955ZM297.44 329.455L295.031 330.136C294.879 329.735 294.656 329.345 294.36 328.966C294.072 328.58 293.678 328.261 293.178 328.011C292.678 327.761 292.038 327.636 291.258 327.636C290.19 327.636 289.3 327.883 288.587 328.375C287.883 328.86 287.531 329.477 287.531 330.227C287.531 330.894 287.773 331.42 288.258 331.807C288.743 332.193 289.5 332.515 290.531 332.773L293.122 333.409C294.682 333.788 295.845 334.367 296.61 335.148C297.375 335.92 297.758 336.917 297.758 338.136C297.758 339.136 297.47 340.03 296.894 340.818C296.326 341.606 295.531 342.227 294.508 342.682C293.485 343.136 292.296 343.364 290.94 343.364C289.159 343.364 287.686 342.977 286.519 342.205C285.353 341.432 284.614 340.303 284.303 338.818L286.849 338.182C287.091 339.121 287.55 339.826 288.224 340.295C288.906 340.765 289.796 341 290.894 341C292.144 341 293.137 340.735 293.872 340.205C294.614 339.667 294.985 339.023 294.985 338.273C294.985 337.667 294.773 337.159 294.349 336.75C293.925 336.333 293.273 336.023 292.394 335.818L289.485 335.136C287.887 334.758 286.712 334.17 285.962 333.375C285.22 332.572 284.849 331.568 284.849 330.364C284.849 329.379 285.125 328.508 285.678 327.75C286.239 326.992 287 326.398 287.962 325.966C288.932 325.534 290.031 325.318 291.258 325.318C292.985 325.318 294.341 325.697 295.326 326.455C296.319 327.212 297.023 328.212 297.44 329.455ZM313.977 343H311.159V319.727H313.977V343ZM319.627 319.727H327.764C329.385 319.727 330.722 320.008 331.775 320.568C332.828 321.121 333.612 321.867 334.127 322.807C334.642 323.739 334.9 324.773 334.9 325.909C334.9 326.909 334.722 327.735 334.366 328.386C334.017 329.038 333.555 329.553 332.98 329.932C332.411 330.311 331.794 330.591 331.127 330.773V331C331.839 331.045 332.555 331.295 333.275 331.75C333.995 332.205 334.597 332.856 335.082 333.705C335.567 334.553 335.809 335.591 335.809 336.818C335.809 337.985 335.544 339.034 335.014 339.966C334.483 340.898 333.646 341.636 332.502 342.182C331.358 342.727 329.87 343 328.036 343H319.627V319.727ZM322.445 340.5H328.036C329.877 340.5 331.184 340.144 331.957 339.432C332.737 338.712 333.127 337.841 333.127 336.818C333.127 336.03 332.927 335.303 332.525 334.636C332.123 333.962 331.552 333.424 330.809 333.023C330.067 332.614 329.188 332.409 328.173 332.409H322.445V340.5ZM322.445 329.955H327.673C328.521 329.955 329.286 329.788 329.968 329.455C330.658 329.121 331.203 328.652 331.605 328.045C332.014 327.439 332.218 326.727 332.218 325.909C332.218 324.886 331.862 324.019 331.15 323.307C330.438 322.587 329.309 322.227 327.764 322.227H322.445V329.955ZM359.167 327H356.349C356.182 326.189 355.891 325.477 355.474 324.864C355.065 324.25 354.565 323.735 353.974 323.318C353.391 322.894 352.743 322.576 352.031 322.364C351.319 322.152 350.576 322.045 349.803 322.045C348.394 322.045 347.118 322.402 345.974 323.114C344.837 323.826 343.932 324.875 343.258 326.261C342.591 327.648 342.258 329.348 342.258 331.364C342.258 333.379 342.591 335.08 343.258 336.466C343.932 337.852 344.837 338.902 345.974 339.614C347.118 340.326 348.394 340.682 349.803 340.682C350.576 340.682 351.319 340.576 352.031 340.364C352.743 340.152 353.391 339.837 353.974 339.42C354.565 338.996 355.065 338.477 355.474 337.864C355.891 337.242 356.182 336.53 356.349 335.727H359.167C358.955 336.917 358.569 337.981 358.008 338.92C357.447 339.86 356.75 340.659 355.917 341.318C355.084 341.97 354.148 342.466 353.11 342.807C352.08 343.148 350.978 343.318 349.803 343.318C347.819 343.318 346.053 342.833 344.508 341.864C342.962 340.894 341.747 339.515 340.86 337.727C339.974 335.939 339.531 333.818 339.531 331.364C339.531 328.909 339.974 326.788 340.86 325C341.747 323.212 342.962 321.833 344.508 320.864C346.053 319.894 347.819 319.409 349.803 319.409C350.978 319.409 352.08 319.58 353.11 319.92C354.148 320.261 355.084 320.761 355.917 321.42C356.75 322.072 357.447 322.867 358.008 323.807C358.569 324.739 358.955 325.803 359.167 327ZM372.721 319.727H375.539V340.5H386.357V343H372.721V319.727ZM395.494 343.409C394.388 343.409 393.384 343.201 392.482 342.784C391.581 342.36 390.865 341.75 390.335 340.955C389.804 340.152 389.539 339.182 389.539 338.045C389.539 337.045 389.736 336.235 390.13 335.614C390.524 334.985 391.051 334.492 391.71 334.136C392.369 333.78 393.096 333.515 393.891 333.341C394.694 333.159 395.501 333.015 396.312 332.909C397.373 332.773 398.232 332.67 398.891 332.602C399.558 332.527 400.043 332.402 400.346 332.227C400.657 332.053 400.812 331.75 400.812 331.318V331.227C400.812 330.106 400.505 329.235 399.891 328.614C399.285 327.992 398.365 327.682 397.13 327.682C395.85 327.682 394.846 327.962 394.119 328.523C393.391 329.083 392.88 329.682 392.585 330.318L390.039 329.409C390.494 328.348 391.1 327.523 391.857 326.932C392.623 326.333 393.456 325.917 394.357 325.682C395.266 325.439 396.16 325.318 397.039 325.318C397.6 325.318 398.244 325.386 398.971 325.523C399.706 325.652 400.414 325.92 401.096 326.33C401.785 326.739 402.357 327.356 402.812 328.182C403.266 329.008 403.494 330.114 403.494 331.5V343H400.812V340.636H400.676C400.494 341.015 400.191 341.42 399.766 341.852C399.342 342.284 398.778 342.652 398.073 342.955C397.369 343.258 396.509 343.409 395.494 343.409ZM395.903 341C396.963 341 397.857 340.792 398.585 340.375C399.319 339.958 399.873 339.42 400.244 338.761C400.623 338.102 400.812 337.409 400.812 336.682V334.227C400.698 334.364 400.448 334.489 400.062 334.602C399.683 334.708 399.244 334.803 398.744 334.886C398.251 334.962 397.77 335.03 397.301 335.091C396.838 335.144 396.463 335.189 396.176 335.227C395.479 335.318 394.827 335.466 394.221 335.67C393.623 335.867 393.138 336.167 392.766 336.568C392.403 336.962 392.221 337.5 392.221 338.182C392.221 339.114 392.566 339.818 393.255 340.295C393.952 340.765 394.835 341 395.903 341ZM419.389 335.864V325.545H422.07V343H419.389V340.045H419.207C418.798 340.932 418.161 341.686 417.298 342.307C416.434 342.92 415.343 343.227 414.025 343.227C412.934 343.227 411.964 342.989 411.116 342.511C410.267 342.027 409.601 341.299 409.116 340.33C408.631 339.352 408.389 338.121 408.389 336.636V325.545H411.07V336.455C411.07 337.727 411.427 338.742 412.139 339.5C412.858 340.258 413.775 340.636 414.889 340.636C415.555 340.636 416.233 340.466 416.923 340.125C417.62 339.784 418.203 339.261 418.673 338.557C419.15 337.852 419.389 336.955 419.389 335.864ZM429.664 332.5V343H426.982V325.545H429.573V328.273H429.801C430.21 327.386 430.831 326.674 431.664 326.136C432.498 325.591 433.573 325.318 434.891 325.318C436.073 325.318 437.107 325.561 437.994 326.045C438.88 326.523 439.569 327.25 440.062 328.227C440.554 329.197 440.801 330.424 440.801 331.909V343H438.119V332.091C438.119 330.72 437.763 329.652 437.051 328.886C436.338 328.114 435.361 327.727 434.119 327.727C433.263 327.727 432.498 327.913 431.823 328.284C431.157 328.655 430.63 329.197 430.244 329.909C429.857 330.621 429.664 331.485 429.664 332.5ZM452.792 343.364C451.156 343.364 449.747 342.977 448.565 342.205C447.383 341.432 446.474 340.367 445.837 339.011C445.201 337.655 444.883 336.106 444.883 334.364C444.883 332.591 445.209 331.027 445.86 329.67C446.519 328.307 447.436 327.242 448.61 326.477C449.792 325.705 451.171 325.318 452.747 325.318C453.974 325.318 455.08 325.545 456.065 326C457.05 326.455 457.856 327.091 458.485 327.909C459.114 328.727 459.504 329.682 459.656 330.773H456.974C456.769 329.977 456.315 329.273 455.61 328.659C454.913 328.038 453.974 327.727 452.792 327.727C451.747 327.727 450.83 328 450.042 328.545C449.262 329.083 448.652 329.845 448.212 330.83C447.781 331.807 447.565 332.955 447.565 334.273C447.565 335.621 447.777 336.795 448.201 337.795C448.633 338.795 449.239 339.572 450.019 340.125C450.807 340.678 451.731 340.955 452.792 340.955C453.489 340.955 454.122 340.833 454.69 340.591C455.258 340.348 455.739 340 456.133 339.545C456.527 339.091 456.807 338.545 456.974 337.909H459.656C459.504 338.939 459.129 339.867 458.531 340.693C457.94 341.511 457.156 342.163 456.178 342.648C455.209 343.125 454.08 343.364 452.792 343.364ZM466.258 332.5V343H463.576V319.727H466.258V328.273H466.485C466.894 327.371 467.508 326.655 468.326 326.125C469.152 325.587 470.25 325.318 471.622 325.318C472.811 325.318 473.853 325.557 474.747 326.034C475.641 326.504 476.334 327.227 476.826 328.205C477.326 329.174 477.576 330.409 477.576 331.909V343H474.894V332.091C474.894 330.705 474.534 329.633 473.815 328.875C473.103 328.11 472.114 327.727 470.849 327.727C469.97 327.727 469.182 327.913 468.485 328.284C467.796 328.655 467.25 329.197 466.849 329.909C466.455 330.621 466.258 331.485 466.258 332.5ZM482.482 349.545V325.545H485.073V328.318H485.391C485.588 328.015 485.861 327.629 486.21 327.159C486.566 326.682 487.073 326.258 487.732 325.886C488.399 325.508 489.301 325.318 490.437 325.318C491.907 325.318 493.202 325.686 494.323 326.42C495.444 327.155 496.319 328.197 496.948 329.545C497.577 330.894 497.891 332.485 497.891 334.318C497.891 336.167 497.577 337.769 496.948 339.125C496.319 340.473 495.448 341.519 494.335 342.261C493.221 342.996 491.937 343.364 490.482 343.364C489.361 343.364 488.463 343.178 487.789 342.807C487.115 342.428 486.596 342 486.232 341.523C485.869 341.038 485.588 340.636 485.391 340.318H485.164V349.545H482.482ZM485.119 334.273C485.119 335.591 485.312 336.754 485.698 337.761C486.085 338.761 486.649 339.545 487.391 340.114C488.134 340.674 489.043 340.955 490.119 340.955C491.24 340.955 492.176 340.659 492.926 340.068C493.683 339.47 494.251 338.667 494.63 337.659C495.016 336.644 495.21 335.515 495.21 334.273C495.21 333.045 495.02 331.939 494.641 330.955C494.27 329.962 493.706 329.178 492.948 328.602C492.198 328.019 491.255 327.727 490.119 327.727C489.028 327.727 488.111 328.004 487.369 328.557C486.626 329.102 486.066 329.867 485.687 330.852C485.308 331.83 485.119 332.97 485.119 334.273ZM507.119 343.409C506.013 343.409 505.009 343.201 504.107 342.784C503.206 342.36 502.49 341.75 501.96 340.955C501.429 340.152 501.164 339.182 501.164 338.045C501.164 337.045 501.361 336.235 501.755 335.614C502.149 334.985 502.676 334.492 503.335 334.136C503.994 333.78 504.721 333.515 505.516 333.341C506.319 333.159 507.126 333.015 507.937 332.909C508.998 332.773 509.857 332.67 510.516 332.602C511.183 332.527 511.668 332.402 511.971 332.227C512.282 332.053 512.437 331.75 512.437 331.318V331.227C512.437 330.106 512.13 329.235 511.516 328.614C510.91 327.992 509.99 327.682 508.755 327.682C507.475 327.682 506.471 327.962 505.744 328.523C505.016 329.083 504.505 329.682 504.21 330.318L501.664 329.409C502.119 328.348 502.725 327.523 503.482 326.932C504.248 326.333 505.081 325.917 505.982 325.682C506.891 325.439 507.785 325.318 508.664 325.318C509.225 325.318 509.869 325.386 510.596 325.523C511.331 325.652 512.039 325.92 512.721 326.33C513.41 326.739 513.982 327.356 514.437 328.182C514.891 329.008 515.119 330.114 515.119 331.5V343H512.437V340.636H512.301C512.119 341.015 511.816 341.42 511.391 341.852C510.967 342.284 510.403 342.652 509.698 342.955C508.994 343.258 508.134 343.409 507.119 343.409ZM507.528 341C508.588 341 509.482 340.792 510.21 340.375C510.944 339.958 511.498 339.42 511.869 338.761C512.248 338.102 512.437 337.409 512.437 336.682V334.227C512.323 334.364 512.073 334.489 511.687 334.602C511.308 334.708 510.869 334.803 510.369 334.886C509.876 334.962 509.395 335.03 508.926 335.091L508.772 335.109L508.617 335.127L508.483 335.143C508.218 335.174 507.99 335.202 507.801 335.227C507.104 335.318 506.452 335.466 505.846 335.67C505.248 335.867 504.763 336.167 504.391 336.568C504.028 336.962 503.846 337.5 503.846 338.182C503.846 339.114 504.191 339.818 504.88 340.295C505.577 340.765 506.46 341 507.528 341ZM526.605 343.364C525.15 343.364 523.866 342.996 522.752 342.261C521.639 341.519 520.767 340.473 520.139 339.125C519.51 337.769 519.195 336.167 519.195 334.318C519.195 332.485 519.51 330.894 520.139 329.545C520.767 328.197 521.642 327.155 522.764 326.42C523.885 325.686 525.18 325.318 526.65 325.318C527.786 325.318 528.684 325.508 529.343 325.886C530.01 326.258 530.517 326.682 530.866 327.159C531.222 327.629 531.498 328.015 531.695 328.318H531.923V319.727H534.605V343H532.014V340.318H531.695C531.498 340.636 531.218 341.038 530.855 341.523C530.491 342 529.972 342.428 529.298 342.807C528.623 343.178 527.726 343.364 526.605 343.364ZM526.968 340.955C528.044 340.955 528.953 340.674 529.695 340.114C530.438 339.545 531.002 338.761 531.389 337.761C531.775 336.754 531.968 335.591 531.968 334.273C531.968 332.97 531.779 331.83 531.4 330.852C531.021 329.867 530.461 329.102 529.718 328.557C528.976 328.004 528.059 327.727 526.968 327.727C525.832 327.727 524.885 328.019 524.127 328.602C523.377 329.178 522.813 329.962 522.434 330.955C522.063 331.939 521.877 333.045 521.877 334.273C521.877 335.515 522.067 336.644 522.445 337.659C522.832 338.667 523.4 339.47 524.15 340.068C524.908 340.659 525.847 340.955 526.968 340.955ZM331.497 373.773V376.273H315.497V373.773H331.497ZM268.832 419.727H271.923L274.403 422.99C275.157 422.333 275.782 421.492 276.275 420.466C276.949 419.08 277.286 417.379 277.286 415.364C277.286 413.348 276.949 411.648 276.275 410.261C275.608 408.875 274.703 407.826 273.559 407.114C272.423 406.402 271.15 406.045 269.741 406.045C268.332 406.045 267.055 406.402 265.911 407.114C264.775 407.826 263.87 408.875 263.195 410.261C262.529 411.648 262.195 413.348 262.195 415.364C262.195 417.379 262.529 419.08 263.195 420.466C263.87 421.852 264.775 422.902 265.911 423.614C267.055 424.326 268.332 424.682 269.741 424.682C270.643 424.682 271.489 424.536 272.279 424.244L268.832 419.727ZM278.684 421.727C277.996 423.114 277.11 424.255 276.026 425.15L279.059 429.182H275.968L273.933 426.457C272.666 427.031 271.269 427.318 269.741 427.318C267.756 427.318 265.991 426.833 264.445 425.864C262.9 424.894 261.684 423.515 260.798 421.727C259.911 419.939 259.468 417.818 259.468 415.364C259.468 412.909 259.911 410.788 260.798 409C261.684 407.212 262.9 405.833 264.445 404.864C265.991 403.894 267.756 403.409 269.741 403.409C271.726 403.409 273.491 403.894 275.036 404.864C276.582 405.833 277.798 407.212 278.684 409C279.57 410.788 280.014 412.909 280.014 415.364C280.014 417.818 279.57 419.939 278.684 421.727ZM284.343 427V424.955L292.025 416.545C292.927 415.561 293.669 414.705 294.252 413.977C294.836 413.242 295.267 412.553 295.548 411.909C295.836 411.258 295.98 410.576 295.98 409.864C295.98 409.045 295.783 408.337 295.389 407.739C295.002 407.14 294.472 406.678 293.798 406.352C293.123 406.027 292.366 405.864 291.525 405.864C290.631 405.864 289.851 406.049 289.184 406.42C288.525 406.784 288.014 407.295 287.65 407.955C287.294 408.614 287.116 409.386 287.116 410.273H284.434C284.434 408.909 284.748 407.712 285.377 406.682C286.006 405.652 286.862 404.848 287.945 404.273C289.036 403.697 290.26 403.409 291.616 403.409C292.98 403.409 294.188 403.697 295.241 404.273C296.294 404.848 297.12 405.625 297.718 406.602C298.317 407.58 298.616 408.667 298.616 409.864C298.616 410.72 298.461 411.557 298.15 412.375C297.847 413.186 297.317 414.091 296.559 415.091C295.809 416.083 294.767 417.295 293.434 418.727L288.207 424.318V424.5H299.025V427H284.343ZM312.718 427V424.955L320.4 416.545C321.302 415.561 322.044 414.705 322.627 413.977C323.211 413.242 323.642 412.553 323.923 411.909C324.211 411.258 324.355 410.576 324.355 409.864C324.355 409.045 324.158 408.337 323.764 407.739C323.377 407.14 322.847 406.678 322.173 406.352C321.498 406.027 320.741 405.864 319.9 405.864C319.006 405.864 318.226 406.049 317.559 406.42C316.9 406.784 316.389 407.295 316.025 407.955C315.669 408.614 315.491 409.386 315.491 410.273H312.809C312.809 408.909 313.123 407.712 313.752 406.682C314.381 405.652 315.237 404.848 316.32 404.273C317.411 403.697 318.635 403.409 319.991 403.409C321.355 403.409 322.563 403.697 323.616 404.273C324.669 404.848 325.495 405.625 326.093 406.602C326.692 407.58 326.991 408.667 326.991 409.864C326.991 410.72 326.836 411.557 326.525 412.375C326.222 413.186 325.692 414.091 324.934 415.091C324.184 416.083 323.142 417.295 321.809 418.727L316.582 424.318V424.5H327.4V427H312.718ZM339.684 427.318C337.972 427.318 336.514 426.852 335.309 425.92C334.105 424.981 333.184 423.621 332.548 421.841C331.911 420.053 331.593 417.894 331.593 415.364C331.593 412.848 331.911 410.701 332.548 408.92C333.192 407.133 334.116 405.769 335.32 404.83C336.533 403.883 337.987 403.409 339.684 403.409C341.381 403.409 342.832 403.883 344.036 404.83C345.248 405.769 346.173 407.133 346.809 408.92C347.453 410.701 347.775 412.848 347.775 415.364C347.775 417.894 347.457 420.053 346.82 421.841C346.184 423.621 345.264 424.981 344.059 425.92C342.855 426.852 341.396 427.318 339.684 427.318ZM339.684 424.818C341.381 424.818 342.699 424 343.639 422.364C344.578 420.727 345.048 418.394 345.048 415.364C345.048 413.348 344.832 411.633 344.4 410.216C343.976 408.799 343.362 407.72 342.559 406.977C341.764 406.235 340.805 405.864 339.684 405.864C338.002 405.864 336.688 406.693 335.741 408.352C334.794 410.004 334.32 412.341 334.32 415.364C334.32 417.379 334.533 419.091 334.957 420.5C335.381 421.909 335.991 422.981 336.786 423.716C337.589 424.451 338.555 424.818 339.684 424.818ZM352.093 427V424.955L359.775 416.545C360.677 415.561 361.419 414.705 362.002 413.977C362.586 413.242 363.017 412.553 363.298 411.909C363.586 411.258 363.73 410.576 363.73 409.864C363.73 409.045 363.533 408.337 363.139 407.739C362.752 407.14 362.222 406.678 361.548 406.352C360.873 406.027 360.116 405.864 359.275 405.864C358.381 405.864 357.601 406.049 356.934 406.42C356.275 406.784 355.764 407.295 355.4 407.955C355.044 408.614 354.866 409.386 354.866 410.273H352.184C352.184 408.909 352.498 407.712 353.127 406.682C353.756 405.652 354.612 404.848 355.695 404.273C356.786 403.697 358.01 403.409 359.366 403.409C360.73 403.409 361.938 403.697 362.991 404.273C364.044 404.848 364.87 405.625 365.468 406.602C366.067 407.58 366.366 408.667 366.366 409.864C366.366 410.72 366.211 411.557 365.9 412.375C365.597 413.186 365.067 414.091 364.309 415.091C363.559 416.083 362.517 417.295 361.184 418.727L355.957 424.318V424.5H366.775V427H352.093ZM379.332 427.318C377.832 427.318 376.495 427.061 375.32 426.545C374.154 426.03 373.226 425.314 372.536 424.398C371.855 423.473 371.483 422.402 371.423 421.182H374.286C374.347 421.932 374.605 422.58 375.059 423.125C375.514 423.663 376.108 424.08 376.843 424.375C377.578 424.67 378.392 424.818 379.286 424.818C380.286 424.818 381.173 424.644 381.945 424.295C382.718 423.947 383.324 423.462 383.764 422.841C384.203 422.22 384.423 421.5 384.423 420.682C384.423 419.826 384.211 419.072 383.786 418.42C383.362 417.761 382.741 417.246 381.923 416.875C381.105 416.504 380.105 416.318 378.923 416.318H377.059V413.818H378.923C379.847 413.818 380.658 413.652 381.355 413.318C382.059 412.985 382.608 412.515 383.002 411.909C383.404 411.303 383.605 410.591 383.605 409.773C383.605 408.985 383.43 408.299 383.082 407.716C382.733 407.133 382.241 406.678 381.605 406.352C380.976 406.027 380.233 405.864 379.377 405.864C378.574 405.864 377.817 406.011 377.105 406.307C376.4 406.595 375.824 407.015 375.377 407.568C374.93 408.114 374.688 408.773 374.65 409.545H371.923C371.968 408.326 372.336 407.258 373.025 406.341C373.714 405.417 374.616 404.697 375.73 404.182C376.851 403.667 378.082 403.409 379.423 403.409C380.862 403.409 382.097 403.701 383.127 404.284C384.158 404.86 384.949 405.621 385.502 406.568C386.055 407.515 386.332 408.538 386.332 409.636C386.332 410.947 385.987 412.064 385.298 412.989C384.616 413.913 383.688 414.553 382.514 414.909V415.091C383.983 415.333 385.131 415.958 385.957 416.966C386.783 417.966 387.195 419.205 387.195 420.682C387.195 421.947 386.851 423.083 386.161 424.091C385.48 425.091 384.548 425.879 383.366 426.455C382.184 427.03 380.839 427.318 379.332 427.318ZM50.323 258.314C50.323 273.004 37.2211 280.051 25.3104 280.051C12.9033 280.051 2.67992 272.706 0 262.383L12.7048 256.527C14.6899 261.292 18.4617 265.857 25.1119 265.857C29.7769 265.857 34.0449 263.574 34.0449 258.115C34.0449 253.947 31.762 251.961 25.0126 249.281L20.6453 247.594C11.216 243.822 2.58067 238.661 2.58067 227.247C2.58067 215.038 12.8041 207.594 25.0126 207.594C37.4197 207.594 44.8639 215.137 48.2386 222.582L36.6256 229.132C33.5487 223.773 29.9754 221.49 25.6081 221.49C21.3401 221.49 18.0647 223.475 18.0647 227.445C18.0647 230.522 19.8513 232.904 27.1963 235.882L31.9606 237.768C44.6654 242.83 50.323 248.587 50.323 258.314ZM72.5347 221.986H57.15V208.586H72.5347V221.986ZM72.5347 279.058H57.15V227.445H72.5347V279.058ZM105.689 226.452C92.3883 226.452 79.3857 235.882 79.3857 253.351C79.3857 270.324 92.2891 280.051 106.582 280.051C116.011 280.051 123.356 276.18 127.624 270.82L120.676 263.574C116.905 266.453 112.835 267.545 108.269 267.545C101.421 267.545 96.2593 264.766 94.1749 259.207H130.9C134.175 235.584 118.791 226.452 105.689 226.452ZM105.887 239.356C111.049 239.356 116.309 242.234 117.401 248.19H93.8772C95.5645 242.036 100.726 239.356 105.887 239.356ZM153.665 233.996C156.544 229.629 161.606 226.452 168.951 226.452C179.373 226.452 188.206 232.904 188.206 248.686V279.058H172.822V251.366C172.822 244.914 169.546 240.15 163.194 240.15C156.941 240.15 153.665 244.914 153.665 251.366V279.058H138.28V227.445H153.665V233.996ZM228.175 226.452C220.83 226.452 215.768 229.629 212.889 233.996V227.445H197.505V279.058H212.889V251.366C212.889 244.914 216.165 240.15 222.418 240.15C228.77 240.15 232.046 244.914 232.046 251.366V279.058H247.431V248.686C247.431 232.904 238.597 226.452 228.175 226.452ZM294.149 273.202C293.355 275.088 287.995 280.051 278.863 280.051C267.151 280.051 254.248 271.217 254.248 253.252C254.248 235.286 267.151 226.452 278.863 226.452C287.995 226.452 293.355 231.415 294.149 233.301H294.446V227.445H309.831V279.058H294.446V273.202H294.149ZM269.434 253.252C269.434 261.589 275.488 266.354 282.039 266.354C288.789 266.354 294.843 261.689 294.843 253.252C294.843 244.815 288.789 240.15 282.039 240.15C275.488 240.15 269.434 244.914 269.434 253.252ZM334.834 264.666V208.586H319.152V279.058H361.038V264.666H334.834ZM402.032 273.202C401.238 275.088 395.878 280.051 386.746 280.051C375.034 280.051 362.131 271.217 362.131 253.252C362.131 235.286 375.034 226.452 386.746 226.452C395.878 226.452 401.238 231.415 402.032 233.301H402.33V227.445H417.714V279.058H402.33V273.202H402.032ZM377.317 253.252C377.317 261.589 383.372 266.354 389.923 266.354C396.672 266.354 402.727 261.689 402.727 253.252C402.727 244.815 396.672 240.15 389.923 240.15C383.372 240.15 377.317 244.914 377.317 253.252ZM461.576 227.445V255.138C461.576 261.589 458.301 266.354 452.048 266.354C445.695 266.354 442.42 261.589 442.42 255.138V227.445H427.035V257.818C427.035 273.599 435.869 280.051 446.291 280.051C453.636 280.051 458.698 276.875 461.576 272.508V279.058H476.961V227.445H461.576ZM501.644 233.996C504.523 229.629 509.585 226.452 516.93 226.452C527.352 226.452 536.185 232.904 536.185 248.686V279.058H520.801V251.366C520.801 244.914 517.525 240.15 511.173 240.15C504.92 240.15 501.644 244.914 501.644 251.366V279.058H486.259V227.445H501.644V233.996ZM570.496 280.051C579.628 280.051 587.668 275.684 592.73 267.346L581.613 260.1C579.132 263.475 575.459 266.155 570.496 266.155C563.846 266.155 558.188 261.192 558.188 253.152C558.188 245.311 563.846 240.348 570.496 240.348C575.459 240.348 579.132 243.028 581.613 246.403L592.73 239.157C587.668 230.621 579.628 226.452 570.496 226.452C556.7 226.452 543.002 235.683 543.002 253.152C543.002 270.82 556.7 280.051 570.496 280.051ZM614.955 233.996C617.834 229.629 622.896 226.452 630.241 226.452C640.663 226.452 649.497 232.904 649.497 248.686V279.058H634.112V251.366C634.112 244.914 630.836 240.15 624.484 240.15C618.231 240.15 614.955 244.914 614.955 251.366V279.058H599.571V208.586H614.955V233.996ZM348.23 58.3961L348.232 58.3974V41.4935L330.944 31.5049V48.4067L330.943 48.4064L300.977 66.4629L317.881 76.0673L348.23 58.3961Z" fill="white"/>
</svg>
