<?xml version="1.0" encoding="UTF-8"?><svg xmlns="http://www.w3.org/2000/svg" viewBox="0 0 494 700"><defs><style>.d{fill:#f4f4f4;}.e{fill:#e7e7e7;}.f{fill:#fff;}.g{fill:#fefefe;}.h{fill:#efefef;}.i{fill:#7e7e7e;}.j{fill:#7f7f7f;}.k{fill:#686868;}.l{fill:#747474;}.m{fill:#969696;}.n{fill:#989898;}.o{fill:#9f9f9f;}.p{fill:#b5b5b5;}.q{fill:#b3b3b3;}.r{fill:#8f8f8f;}.s{fill:#c1c1c1;}.t{fill:#333;}.u{fill:#bcbcbc;}.v{fill:silver;}.w{fill:#bebebe;}.x{fill:#cacaca;}.y{fill:#c4c4c4;}.a`{fill:#dcdcdc;}.aa{fill:#c6c6c6;}.ab{fill:#dfdfdf;}.ac{fill:#171717;}.ad{fill:#1e1e1e;}.ae{fill:#202020;}.af{fill:#434343;}.ag{fill:#070707;}.ah{fill:#444;}.ai{fill:#9a9a9a;}.aj{fill:#6d6d6d;}.ak{fill:#878787;}.al{fill:#646464;}.am{fill:#5b5b5b;}.an{fill:#595959;}.ao{fill:#565656;}.ap{fill:#5c5c5c;}.aq{fill:#3d3d3d;}.ar{fill:#3c3c3c;}.as{fill:#2e2e2e;}.at{fill:#5f5f5f;}.au{fill:#494949;}.av{fill:#5d5d5d;}.aw{fill:#777;}.ax{fill:#7a7a7a;}.ay{fill:#787878;}.b`{fill:#343434;}.ba{fill:#4d4d4d;}</style></defs><g id="a"/><g id="b"><g id="c"><g><rect width="494" height="700"/><g><path class="am" d="M239.38,690.44c-.8,3.12-2.71,5.07-5.86,5.99-3.38,.98-6.78,1.83-10.2,2.6-.94,.21-1.88,.37-2.68,.97h-15.83c-6.31-.64-12.57-1.42-18.53-3.87-8-3.29-15.69-7.13-22.91-11.92-2.06-1.37-4.05-2.86-6.33-3.86-8.64-7.91-18.32-14.65-26.34-23.28-11.4-12.27-21.55-25.49-30.6-39.58-8.57-13.33-16.06-27.26-22.93-41.53-7.77-16.14-14.59-32.68-20.7-49.52-7.17-19.78-13.31-39.87-18.13-60.35-1.33-5.66-2.87-11.33-2.64-17.24,.03-.72,0-1.44,.12-2.15,.39-2.2,2.08-2.85,3.83-1.42,2.27,1.85,3.91,4.24,5.26,6.78,4.35,8.16,10.19,15.28,15.73,22.6,2.63,3.47,4.5,7.35,6.64,11.09,3.65,6.38,7.06,12.9,10.88,19.18,1.84,3.03,2.07,6.3,2.54,9.61,1.58,11.08,5.43,21.34,11.41,30.79,10.13,16.03,24.13,27.79,40.79,36.49,11.55,6.03,23.71,10.78,35.46,16.4,12.55,5.99,25.06,12.06,37.37,18.53,5.27,2.77,10.43,5.75,15.65,8.63,.98,.8,1.3,2.01,1.74,3.09,3.97,9.85,8.3,19.57,11.19,29.81,1.98,7.01,3.39,14.13,3.36,21.46,0,.88,.05,1.76,.26,2.62,.65,2.66,1.3,5.32,1.46,8.07Z"/><path class="ar" d="M109.72,32.13c1.59-1.1,3.41-1.72,5.14-2.51,16.33-7.38,33.19-13.28,50.62-17.43,9.16-2.18,18.44-3.69,27.89-4.15,7.18-.35,14.36-.5,21.54-.35,1.6,.03,3.19,.07,4.75,.48,7.68,1.58,14.19,5.76,20.83,9.56,10.4,5.96,20.4,12.55,29.49,20.43,1.03,.9,1.81,1.77,1.73,3.2-.66,1.6-2.21,2.24-3.47,3.16-8.88,6.41-18.15,12.21-27.58,17.78-.72,.42-1.94,.62-1.85,1.63,.08,.96,1.28,1.08,2.06,1.4,13.08,5.35,26.11,10.83,38.86,16.95,14.59,7,28.5,15.1,41.04,25.4,.31,.25,.64,.48,.99,.67,1.64,1.05,1.54,2.86,1.65,4.41,.11,1.58,.75,2.45,2.14,2.96,1.31,1.7,1.73,3.76,2.25,5.74,3.43,12.86,5.35,25.94,5.89,39.25,.18,4.39,.43,8.77,.38,13.16-.01,1.19,.09,2.41-.46,3.53-.88,.86-1.46,1.73-1.11,3.13,.24,.96,.07,2.07-.5,3-.44,.8-.09,1.88-.87,2.57-1,.37-1.46,1.23-1.73,2.15-3.02,10.32-7.66,19.99-11.85,29.84-1.73,4.05-3.74,7.97-6.15,11.65-3.44,5.26-7.77,9.41-14.49,9.86-3.68,.25-7.34-.08-10.98-.68-12.03-1.98-23.67-5.46-35.27-9.08-19.54-6.1-38.75-13.16-57.82-20.59-7.49-2.92-14.1-7.52-20.88-11.72-14.77-9.15-28.69-19.52-41.76-30.96-6.97-6.1-13.99-12.17-20.03-19.25-.64-.75-1.32-2.04-2.41-1.63-1.14,.43-.64,1.84-.64,2.82-.02,47.73,0,95.46-.05,143.18,0,1.83,.59,3.9-1.25,5.34-1,.23-1.82,.13-2.03-1.1,.48-1.64,.45-3.32,.45-5,0-25.65,0-51.3,0-76.96,0-1.36-.03-2.72-.23-4.06-.2-2.66,.88-5.18,.73-7.89-.65-11.63-.36-23.27-.33-34.9,.05-19.32-.69-38.65,.01-57.95,.21-5.85-1.32-10.23-4.83-14.63-4.78-6-9.06-12.39-13.05-18.96-.45-.75-1.02-1.44-1.19-2.33,2.69-7.2,6.76-13.7,10.56-20.32,3.26-5.68,6.88-11.13,10.5-16.58,.99-1.5,2.42-2.63,3.25-4.22Z"/><path class="af" d="M157.79,679.35c-4.55-2.15-9.01-4.46-13.38-6.97-10.76-6.17-21.01-13.12-30.94-20.53-6.33-4.72-12.49-9.68-18.51-14.81-6.4-5.45-12.42-11.28-18.16-17.39-6.01-6.4-11.45-13.29-16.21-20.72-5.55-8.65-10.08-17.79-13.74-27.36-2.17-5.67-4.1-11.43-5.97-17.21-3.62-11.18-7.96-22.1-12.06-33.1-3.94-10.56-7.44-21.27-10.82-32.01-2.01-6.4-4.02-12.81-6.06-19.2C7.92,457.5-.59,411.49,.03,399.77c.52-9.74,2.62-19.1,6.92-27.91,.17-.35,.42-.67,.63-1,.87,.22,1,.95,1.13,1.66,2.63,14.45,8.94,27.45,16.09,40.06,12.11,21.36,25.71,41.76,40.49,61.36,3.56,4.72,7.35,9.26,11.19,13.75,.83,.97,1.66,1.99,2.71,2.71,3.21,2.19,4.49,5.49,5.44,9.02,2.74,10.18,5.21,20.44,9.51,30.13,4.24,9.56,9.61,18.37,16.64,26.17,11.75,13.04,25.95,22.45,42.44,28.24,14.98,5.26,30.17,5.79,45.36,.52,1.82-.63,3.6-1.92,5.73-1.07,3.02,4.52,5.49,9.36,8.2,14.05,1.23,2.13,2.75,4.14,3.27,6.62-1.2,.56-1.73-.25-2.27-1.09-2.38-3.7-4.58-7.49-6.14-11.22,4.73,9.83,8.79,20.34,13.2,30.69,.5,1.16,1.52,2.42,.08,3.67-2.97-1.21-5.66-2.96-8.45-4.51-9.09-5.06-18.4-9.67-27.72-14.27-13.12-6.47-26.38-12.64-39.78-18.5-10.29-4.49-20.18-9.69-29.16-16.49-7.04-5.33-13.32-11.46-18.82-18.37-6.49-8.15-11.43-17.14-14.51-27.12-1.63-5.28-2.93-10.63-3.16-16.19-.05-1.16-.45-2.19-1-3.17-2.54-4.53-5.09-9.06-7.63-13.59-2.54-4.53-5.2-9-7.59-13.61-2.01-3.88-5.01-7.01-7.48-10.54-2.62-3.73-5.45-7.31-8.01-11.07-1.66-2.44-2.98-5.1-4.48-7.65-.94-1.59-2.02-3.08-3.36-4.35-.55-.52-1.04-1.41-1.98-.96-.76,.36-.64,1.22-.67,1.93-.14,3.13,.14,6.22,.76,9.29,2.39,11.92,5.42,23.69,8.93,35.33,2.12,7.04,4.22,14.09,6.58,21.06,4.61,13.63,9.64,27.11,15.25,40.37,5.45,12.89,11.41,25.55,17.99,37.9,7.18,13.48,15.09,26.53,24.07,38.92,4.84,6.67,9.85,13.2,15.34,19.32,4.31,4.81,8.71,9.54,13.55,13.88,5.66,5.08,11.48,9.92,17.49,14.55,.37,.29,.65,.7,.97,1.05Z"/><path class="as" d="M204.32,583.41c-5.66,2.75-11.66,4.45-17.87,5.25-15.19,1.97-29.56-.88-43.3-7.49-8.33-4.01-16.03-8.98-23.17-14.82-6.22-5.08-11.58-10.98-16.28-17.48-8.02-11.1-13.24-23.49-16.86-36.61-1.17-4.24-2.28-8.49-3.43-12.73-.87-3.21-2.27-5.92-4.92-8.25-4.68-4.12-8.35-9.22-12.21-14.11-9.45-12.01-18.05-24.63-26.37-37.43-8.49-13.07-16.73-26.31-23.39-40.44-3.72-7.89-6.99-15.96-8.62-24.6-.24-1.27-.31-2.53-.33-3.81,1.02-2.33,2.22-4.54,3.6-6.69,1.26-1.96,3-3.21,5.08-4.13,1.59-.7,5.6-.8,4.84-.08-2.76,2.63-2.75,5.73-1.58,9.06,1.11,3.17,2.39,6.26,3.95,9.24,1.3,2.47,2.48,5.01,3.58,7.58,3,6.99,6.85,13.54,10.4,20.24,.86,1.62,1.85,3.18,2.86,4.71,4.67,7.06,9.44,14.06,14.03,21.17,2.9,4.5,5.99,8.87,8.96,13.33,7.79,11.71,15.8,23.26,24.09,34.62,1.87,2.56,3.83,5.06,6.32,7.15,2.56,2.15,4.82,4.67,7.16,7.07,3.46,3.55,7.38,6.59,11.12,9.82,3.75,3.23,7.5,6.45,11.27,9.66,4.73,4.04,9.48,8.07,14.21,12.11,3.95,3.36,7.89,6.74,11.83,10.1,3.76,3.21,7.53,6.42,11.29,9.63,3.88,3.31,7.77,6.63,11.65,9.95,3.76,3.21,7.52,6.43,11.28,9.65,3.94,3.37,7.92,6.69,11.82,10.12,2.4,2.11,5.03,3.94,7.24,6.26,.6,.63,1.16,1.31,1.74,1.97Z"/><path class="h" d="M399.49,192.97c1.3,.12,2.4,.85,3.64,1.17,1.15,.3,1.36,1.05,1.35,2.16-.06,6.24-.98,12.39-1.71,18.56-.5,4.19-.83,8.4-1.24,12.61-.39,3.97-.79,7.93-1.18,11.89-.41,4.12-.79,8.25-1.23,12.37-.27,2.54-.58,5.07-.95,7.59-.68,4.66-.92,9.36-1.42,14.03-.89,8.4-1.98,16.78-2.78,25.19-.39,4.12-1.05,8.23-1.08,12.38,0,.9-.22,1.72-.77,2.46-2.17,2.9-3.62,6.18-4.93,9.54-.75,.18-.8,.88-1.03,1.44-1.91,7.53-5.35,14.48-8.34,21.57-4.03,9.55-6.09,19.5-7.24,29.69-1.44,12.78-2.44,25.58-2.97,38.43-.35,8.45-.58,16.92-.99,25.36-.4,8.15,.1,16.31-.46,24.43-.75,10.86,.01,21.72-.58,32.58-.18,3.34-1.29,6.35-2.43,9.39-.79,2.1-1.63,4.19-2.02,6.41,.16,1.59-.72,2.9-1.21,4.31-1.55,4.46-2.74,9.04-4.65,13.37-.42,.95-.64,2.09-2.03,2.12-1.12-.2-1.58-.96-1.7-2.02-.1-.88-.11-1.75-.13-2.63-.71-28.52-.07-57.05-.59-85.57-.49-27.09,0-54.17-.47-81.25-.12-6.94-.28-13.89-.4-20.83-.04-2.15,.71-3.73,2.15-5.33,9.01-10.05,18.24-19.9,27.24-29.96,1.67-1.87,2.65-3.9,3.03-6.36,2.47-16.27,4.95-32.54,7.42-48.81,.27-1.79,.8-3.57,.63-5.64-1.97,.66-2.54,2.71-4.08,3.57-1.8,.15-2.48,1.72-3.62,2.77-3.57,3.32-6.99,6.79-10.58,10.08-5.95,5.44-11.82,10.98-18.21,15.93-4.74,3.67-9.54,7.27-14.75,10.25-1.46,.83-2.89,2.21-4.85,1.19-1.18-.75-1.01-1.91-.9-3.01,1.27-13.26,2.04-26.56,2.78-39.86,.35-6.37,.51-12.77,.62-19.12,.14-7.94-.17-15.95-1.01-23.89-.27-2.54,.17-5.13-.58-7.63-.33-.85,0-1.73-.14-2.59-.03-2.37-.95-4.54-1.45-6.8-.25-1.13-.47-2.18,.8-2.86,1.36-.22,1.69,.88,2.22,1.73,1.36,2.15,1.87,4.73,3.45,6.77,4.85,15.47,6.73,31.42,7.77,47.51,.04,.9-.15,1.82,.29,2.67,.19,.38,.51,.67,.76,1.01,.29,.46,.71,.83,.99,1.3,.84,1.46,2.1,1.71,3.68,1.52,6.84-.8,12.45-4.21,17.8-8.22,7.66-5.73,15.08-11.77,22.47-17.83,2.47-2.02,2.93-4.83,3.1-7.73,.29-4.93,.86-9.83,1.58-14.72,.14-.95,.43-1.87,.93-2.7Z"/><path class="aj" d="M43.59,80.63c-.01-.15,0-.29,.01-.44,.4-.84,.2-1.73,.21-2.59,.01-24.02,0-48.05,.01-72.07,0-.73,.3-1.12,.98-.6,.52,.38,.75,1.03,.92,1.65,2.14,7.84,5.9,15.11,8.12,22.92,.5,6.51,2.25,12.84,2.68,19.37,.43,6.69,1.11,13.36,1.66,20.04,1,12.09,1.9,24.18,3.16,36.25,1.27,12.24,2.78,24.44,4.82,36.56,3.15,18.68,7.61,37.08,12.66,55.34,3.41,12.32,7.02,24.58,11,36.73,.95,2.91,2.01,5.81,2.86,8.76,.74,10.7,.62,21.41,.51,32.12-.05,4.57,.69,9.09,.51,13.65-.05,1.27,.06,2.56-.37,3.8-.5,1.4-1.56,1.33-2.75,1.08-3.01-.65-5.31-2.27-7.29-4.65-8.04-9.66-14.84-20.17-21.16-31-6.32-10.84-11.72-22.15-15.85-34-1.19-3.41-2.74-6.72-3.39-10.32-.06-42.56-.02-85.11-.03-127.66,0-1.68,.29-3.3,.72-4.91Z"/><path class="af" d="M300.3,690.88c-1.85-1.71-4.16-2.79-5.99-4.55-.9-.87-1.85-1.69-2.67-2.64-2.06-3.15-2.7-6.53-2.14-10.29,1-6.79,1.66-13.62,2.23-20.46,.66-7.99,.55-15.99,.26-23.95-.2-5.41,.08-10.87-.73-16.26-.18-1.22,.12-2.38,.51-3.53,1.55-4.62,3.08-9.25,4.62-13.88,.18-.53,.37-1.06,.52-1.59,.63-2.14,.27-2.81-1.94-3.02-2.71-.26-123.25-34.93-201.73-112.02-2.29-2.25-5.13-3.78-7.07-6.4-1.14-1.54-1.88-3.1-1.84-5.05,.05-3.44,.05-6.88,0-10.31-.03-2.26,.63-4.26,2.01-6.01,1.24-1.56,2.48-3.12,3.86-4.57,3.92-4.11,8.21-7.83,12.27-11.79,.71-.69,1.4-1.37,2.5-.82,1.37-.52,2.12,.45,2.93,1.25,.47,.61,1.02,1.2,.9,2.07-1.63,3.64-3.48,7.09-6.92,9.47-2.29,1.58-2.78,3.94-2.18,6.62,.8,3.54,2.86,6.41,4.91,9.26,6.96,9.69,14.57,18.83,23.34,26.97,17.73,16.47,36.66,31.3,57.72,43.41,25.29,14.55,51.53,26.98,78.95,36.92,7.21,2.61,14.34,5.59,21.92,6.93,7.27,1.28,14.62,1.43,21.92-.13,1.72-.37,3.39-.95,4.87-1.95,.73-.49,1.5-.99,1.36-2.06-2.03-4.4-4.25-8.71-6.36-13.08-.55-1.13-1.24-2.34,.16-3.42,1.15-.56,2.2,0,3.24,.34,7.76,2.47,15.72,3.49,23.84,3.36,.96-.01,1.92-.01,2.86-.24,2.05-.49,2.99-1.5,2.71-3.57-.51-3.65,.04-7.35-.65-10.98-.16-.86-.11-1.76,.08-2.62,.76-3.35,1.52-6.69,2.38-10.02,.26-1.02,.42-2.31,1.99-2.28,1.07,.47,.99,1.49,1.14,2.4,.29,1.77,.4,3.59,1.1,5.27,1.45,3,2.22,6.12,1.64,9.47-.33,6.97,.28,13.86,1.87,20.65,.15,.66-.14,1.66,.99,1.82,1.66-.86,1.81,.56,2.22,1.5,.48,1.09,.02,2.4,.77,3.44-.9,4.8-1.41,9.63-3.15,14.32-3.79,10.25-9.36,19.54-14.85,28.88-.62,1.06-1.01,2.7-2.88,2.35-1.24-.88-.73-1.93-.31-2.99,2.43-6.08,4.98-12.11,7.41-18.18,1.1-2.76,.93-3.21-1.92-4.13-1.44-.46-2.87-1-4.34-1.37-1.65-.42-2.85,.11-3.41,1.75-1.09,3.17-2.57,6.22-3.25,9.51-.96,4.63-2.95,8.94-4.14,13.5-.55,2.12-2.51,3.05-4.44,3.65-3.52,1.09-7.14,1.81-10.84,1.64-1.52-.07-2.82,.23-4.07,1-.98,.82-1.3,1.98-1.6,3.15-3.2,12.45-5.39,25.11-6.98,37.85-.69,5.55,.44,11.12,2.03,16.52,.9,3.04,3.45,4.69,5.76,6.52,.65,.41,.36,.85-.09,1.06-1.07,.5-2.18,.89-3.28,1.33Z"/><path class="ak" d="M492.07,624.27c-.65,1.81-3.03,2.03-4.11,.44l-.03-.04c-.4-1.4-1.05-2.68-1.95-3.83-.71-.55-1.2,.07-1.71,.36-8.76,4.84-18.16,8.22-27.45,11.81-12.83,4.96-25.82,9.53-39.37,12.16-7.35,1.43-14.78,1.62-22.04-.87-8.54-2.93-13.58-10.03-13.8-19.07-.2-7.99,1.66-15.71,2.68-23.54,.97-7.43,1.37-14.8-1.65-21.95-1.53-3.61-3.79-6.66-6.59-9.33-2.09-1.99-3.54-4.38-4.6-7.01-.38-.95-.93-2.11,.32-2.97,5.78,3.52,11.55,7.07,17.35,10.57,9.94,5.99,20.22,11.38,30.78,16.19,5.17,2.36,10.29,4.8,15.64,6.74,7.08,2.57,14.39,4.27,21.76,5.78,7.69,1.57,15.46,2.41,23.28,2.92,1.99,.13,3.99,.3,5.96,.57,11.34,1.59,6.64,17.34,5.73,20.53l-.19,.54Z"/><path class="as" d="M43.59,80.63c.67,1.19,.43,2.5,.43,3.76,.01,41.77,0,83.53,.01,125.3,0,1.44,.02,2.87,.03,4.31,.8,4.01,1.25,8.05,1.21,12.16-.1,9.73,.02,19.47-.06,29.21-.02,2.75,.83,4.92,2.82,6.81,2.78,2.64,5.46,5.37,8.12,8.13,.71,.73,1.58,1.38,1.72,2.51,0,.28-.07,.53-.21,.77-1.15,1.05-2.08,.23-2.97-.41-2.98-2.13-5.81-4.48-8.58-6.88-8.56-7.44-16.35-15.63-23.34-24.58-1.34-1.71-2.07-3.49-2.01-5.69,.1-3.35,.05-6.7,.01-10.04-.02-1.71,.25-3.33,1.18-4.79,.03-2.95,.12-5.91,.1-8.86-.16-19.8,.19-39.61,.57-59.4,.24-12.52,.55-25.06,1.77-37.55,.36-3.7,1.33-7.21,3-10.53,4.19-8.3,9.14-16.1,15.17-23.2,.31-.36,.67-.68,1-1.02Z"/><path class="al" d="M371.77,560.42c-.23,2.2,.53,3.94,1.95,5.68,2.07,2.55,4.63,4.62,6.62,7.25,3.82,5.03,5.54,10.74,5.82,16.95,.27,6.11-.71,12.1-1.66,18.1-.85,5.36-1.77,10.7-1.7,16.18,.13,9.57,5.06,16.21,14.23,18.99,5.39,1.63,10.9,1.62,16.4,1,7.58-.86,14.84-3.15,22.09-5.4,13.61-4.22,26.83-9.46,39.95-14.98,2.58-1.08,5.18-2.11,7.79-3.12,.87-.34,1.76-.88,2.73-.23-2.92,1.21-5.27,3.31-7.77,5.14-16.76,12.27-33.2,24.98-50.69,36.23-9.69,6.23-19.63,12.01-30.39,16.23-4.65,1.82-9.4,2.86-14.46,2.93-7.66,.1-13.08-4.29-15.23-11.15-1.7-5.43-2.23-11.05-1.63-16.8,.51-4.85,1.03-9.68,1.92-14.47,1.56-8.34,3.99-16.46,6.6-24.52,2.14-6.6,3.3-13.38,3.12-20.26-.29-11.03-2.51-21.71-7.1-31.82-.13-.29-.26-.59-.42-.86-.65-1.1,.15-1.37,.94-1.66,.38,.07,.66,.29,.88,.6Z"/><path class="as" d="M107.38,407.83c-1.91-2.98-2.99-6.35-4.36-9.58-2.84-6.7-5.49-13.47-8.92-19.9-4.79-8.98-10.35-17.43-17.02-25.16-3.51-4.07-7.28-7.88-11.2-11.5-5.94-5.47-12.33-10.44-19.62-14.05-2.07-1.02-3.43-2.5-4.46-4.47-2.05-3.9-3.67-7.99-5.4-12.03-1.35-3.16-2.62-6.36-3.93-9.53-.33-.81-.57-1.68-1.35-2.22,0-1.14-.44-2.16-.86-3.2-5.2-12.91-10.39-25.83-15.17-38.91-.3-.82-.53-1.66-.79-2.49-.42-.62-.19-1.08,.42-1.34,.77-.32,1.37,.01,1.91,.59,1.8,1.96,3.17,4.21,4.35,6.57,2.54,5.08,5.31,10.03,8.4,14.79,6.17,9.55,14.54,16.91,23.63,23.55,10.4,7.59,20.48,15.6,29.6,24.69,9.44,9.4,17.6,19.83,23.5,31.87,1.83,3.73,3.12,7.53,2.78,11.83-.31,3.91,.15,7.85-.3,11.77-.22,1.96,.13,3.93,.56,5.87-.21,4.02,.07,8.03-.15,12.05-1.36,1.99-.67,4.2-.74,6.34-.05,1.5,.76,3.23-.86,4.45Z"/><path class="ax" d="M321.37,108.82c-1,.16-1.62-.48-2.31-1.03-5.83-4.61-11.86-8.98-18.22-12.81-10.82-6.52-22.17-12.04-33.71-17.2-9.99-4.47-20.17-8.5-30.23-12.8-.43-.18-.91-.32-1.27-.9,1.71-1.44,3.71-2.39,5.59-3.5,9.71-5.73,19.21-11.78,28.33-18.41,.45-.33,.94-.61,1.41-.91,.43-2.15,2.16-3.25,3.71-4.43,4.53-3.44,8.76-7.2,12.66-11.34,1.36,.22,2.22-.43,2.95-1.52,.65-.97,1.09-2.14,2.2-2.76,3.2,2.01,4.44,5.39,5.99,8.56,.41,.84,.76,1.71,1.39,2.43-.76,2.73-2.71,4.78-4.15,7.11-2.67,4.32-5.34,8.65-8.2,12.85-1.09,1.6-1.24,3.34-.59,4.99,1.34,3.41,3.1,6.64,5.04,9.75,.54,.87,1.33,1.45,2.35,1.44,3.04-.03,6.03,.55,9.06,.54,.85,0,1.79,.12,2.38-.76,.52-1.12-.1-2.01-.61-2.9-1.14-2.01-2.22-4.04-3.53-5.95-.95-1.38-.99-2.66,.54-3.69,.8-1.47,1.83-2.81,2.6-4.32,.36-.69,.74-1.78,1.97-1.56,.99,.45,1.21,1.43,1.54,2.31,2.43,6.47,5.29,12.8,6.56,19.66,.07,.39,.34,.72,.48,1.09-1.26,3.15-2.98,6.07-4.62,9.02-1.2,2.16-2.59,4.21-3.83,6.35-1.6,2.76-.74,4.32,2.41,4.25,3.6-.08,7.16,.35,10.74,.65,.25,.11,.45,.27,.61,.48,1.05,3.63,2.29,7.24,1.33,11.11,.02,.3,.03,.59,.05,.89,.13,.63,.72,.99,.91,1.59,.05,1.06-.36,1.72-1.51,1.74Z"/><path class="ar" d="M107.87,384.31c0-6.71-.03-13.42,.01-20.13,0-1.64-.37-3.12-1.08-4.6-4.26-8.8-9.29-17.11-15.57-24.63-3.63-4.34-7.32-8.68-11.48-12.51-8.75-8.05-17.97-15.55-27.54-22.62-4.81-3.55-9.54-7.2-13.77-11.5-4.97-5.04-9.31-10.51-12.79-16.66-2.59-4.58-5.12-9.21-7.63-13.83-.66-1.21-1.63-2.17-2.46-3.23-.46-.59-.94-.52-1.28,.19-1.78-4.02-3.19-8.16-4.41-12.38,.88-1.17,1.09-1.24,2.19-.24,1.42,1.29,2.61,2.81,3.85,4.27,2.89,3.42,5.96,6.68,8.64,10.27,1.08,1.44,2.5,2.49,3.9,3.53,11.11,8.23,21.69,17.15,32.82,25.36,8.18,6.04,16.85,11.31,25.76,16.19,5.89,3.23,11.85,6.32,18,9.03,1.61,.71,3.06,1.68,4.23,3.04,2.03,4.86,1.32,9.88,.81,14.85-.16,1.59-.34,3.13-.26,4.74,.34,7.25,.36,14.5-.01,21.75-.07,1.36-.23,2.72,.16,4.04,1.85,6.27,.9,12.65,.77,19-.03,1.42-.16,2.87-.4,4.28-.23,1.36-.89,2.21-2.46,1.79Z"/><path class="ao" d="M107.87,313.78c-.91-.82-2.02-1.29-3.11-1.77-9.98-4.36-19.47-9.65-28.82-15.18-7.98-4.72-15.5-10.15-22.78-15.9-7.26-5.75-14.58-11.43-21.89-17.13-1.2-.93-2.42-1.84-3.67-2.69-3.73-2.52-5.95-6.42-8.91-9.64-2.48-2.7-4.79-5.56-7.19-8.34-.41-.47-.83-1.04-1.61-.71-.99-1.86-1.34-3.92-1.71-5.95-.38-2.09,.6-3.73,1.98-5.17,2.49-2.61,5.19-4.97,8.02-7.21,1.25-.99,2.54-1.94,3.81-2.91,0,4.96,.05,9.91-.02,14.87-.02,1.78,.44,3.26,1.54,4.64,2.65,3.3,5.35,6.56,8.17,9.72,2.93,3.29,5.98,6.45,9.16,9.48,4.75,4.52,9.75,8.75,14.99,12.69,.51,.39,1.03,.77,1.67,.9,.22,.19,.48,.31,.72,.47-.24-.15-.51-.27-.73-.46-1.75-2.29-4-4.11-5.98-6.18-1.88-1.96-3.77-3.9-5.75-5.76-1.26-1.19-1.75-2.52-1.74-4.24,.05-14.44,.04-28.87,.04-43.31,2.18,5.84,4.18,11.74,6.56,17.49,4.66,11.23,10.22,22.01,16.68,32.32,3.95,6.3,8.11,12.45,12.51,18.43,1.65,2.25,3.48,4.37,5.25,6.53,1.03,1.26,2.3,2.19,3.9,2.65,1.23,.35,2.43,.79,3.65,1.19,.88-.99,1.89-.51,2.88-.27,.85,.21,1.55,.84,2.47,.83,.99,.18,2.02,.24,2.86,.91,1.48,2.33,3.31,4.44,4,7.24,.46,1.86,2.72,1.79,3.78,3.09,1.57,2.68,.87,5.54,.63,8.34-.05,.63-.57,1.14-1.37,1.01Z"/><path class="f" d="M363.14,85.87c.39,1.57,1.23,2.94,1.97,4.35,3.99,7.63,8.19,15.15,12.18,22.78,2.86,5.47,5.13,11.18,7.25,16.9,2.65,7.15,4.76,14.51,6.16,22.08,1.01,5.48,2,10.97,2.87,16.46,.72,4.56,1.15,9.16,1.29,13.79,.11,3.82,.82,7.65,.35,11.45-.48,3.91-.31,7.8-.39,11.71-.02,.96-.06,1.92,.41,2.81,1.56,.77,1.04,1.94,.54,3.05-1.5,3.31-4.14,5.73-6.84,7.92-5.52,4.48-11.13,8.86-16.93,12.98-1.13,.8-2.36,1.93-3.78,.36-.65-2.03,.21-3.95,.55-5.87,2.53-14.32,4.37-28.71,5.29-43.24,.63-9.91,.68-19.82,.23-29.69-.96-21.35-6.03-41.83-14.56-61.44-.6-1.39-1.26-2.78-1.11-4.36,1.14-2.06,2.38-2.63,4.51-2.05Z"/><path class="n" d="M345.86,538.38c-.91-1.93-.62-4.04-.88-6.07-.09-.71-.03-1.43-.04-2.15-1.03-.65-.72-1.68-.74-2.61-.87-37.14,0-74.3-.61-111.44-.42-25.17,0-50.33-.45-75.48-.07-4.15,1.3-7.15,4.06-9.96,5.89-5.98,11.95-11.78,18.03-17.55,2.09-1.98,3.81-4.3,5.69-6.48,4.94-5.72,6.46-12.62,7.34-19.89,1.41-11.65,3.27-23.25,4.91-34.88,.27-1.91,.48-3.88,2.07-5.29,1.97-1.44,3.17-3.58,4.8-5.33,.59-.63,.98-1.47,1.9-1.82,.7,.45,.43,1.13,.34,1.71-1.78,11.69-3.57,23.38-5.37,35.07-1.2,7.82-2.44,15.63-3.57,23.46-.27,1.84-1,3.25-2.25,4.61-9.61,10.49-19.16,21.04-28.76,31.54-.81,.89-1.17,1.84-1.15,3.03,.14,6.39-.2,12.79,.28,19.18,.08,1.03,.05,2.08,.05,3.12,.06,22.87-.1,45.74,.25,68.6,.41,26.46,.12,52.93,.48,79.39,.09,6.55,.19,13.11,.27,19.66,.01,1.04-.11,2.12,1,2.77,.75,.53,.49,1.12,.22,1.83-.43,1.13-1.19,2.17-1.18,3.46-.11,.58-.4,1.06-.83,1.46-1.95,1.57-3.92,1.11-5.89,.05Z"/><path class="f" d="M44.12,4.96c-.02,4.23-.04,8.45-.04,12.68,0,19.77,0,39.54-.02,59.32,0,1.09,.3,2.24-.45,3.24,0-25.74-.02-51.48-.01-77.22,0-2.69,.25-2.93,2.83-2.95,2.88-.02,5.76-.04,8.63,.02,1.88,.04,2.19,.32,2.47,2.2,1.25,8.41,3.91,16.43,6.67,24.43,2.11,6.12,4.14,12.27,6.78,18.18,1.1,2.45,2.09,5.02,3.95,7.06,2.08,1.65,2.81,4.19,4.05,6.37,2.08,3.66,4.25,7.25,6.39,10.87,.63,1.06,1.1,2.1,.81,3.36,.43,.76,.83,1.54,1.3,2.28,5.25,8.22,10.82,16.23,16.76,23.96,.93,1.21,1.34,2.42,1.34,3.94-.04,34.85-.04,69.7-.05,104.55,0,.8-.04,1.6-.07,2.4-1.84-.09-1.74-1.68-1.96-2.8-.72-3.6-.97-7.27-1.11-10.94-.06-1.67-.01-3.35-.29-5.01-.38-4.49,1.02-8.85,.82-13.37-.17-3.83-.39-7.64-.84-11.45-.21-1.76-.29-3.52-.07-5.26,.67-5.34,.58-10.72,.23-16.05-.36-5.44-.3-10.86-.33-16.29-.03-7.2-.13-14.39,.07-21.59,.04-1.48-.12-2.75-1.93-3.03-1.86-.28-3.56,.58-4.12,2.14-.33,.92-.3,1.89-.3,2.85-.01,5.04,0,10.07,0,15.11,0,11.27-1.06,22.49-1.76,33.73-.41,6.61-.94,13.23-1.1,19.85-.09,3.6-.64,7.16-.59,10.77,.01,1.02-.09,2.16-1.52,2.33-1.01-.39-1.07-1.31-1.15-2.18-.13-1.35-.09-2.71-.09-4.07,0-25.62-.04-51.24,.04-76.87,0-3.37-.84-6.16-3.01-8.79-3.3-4-6.24-8.28-8.51-12.97,.07-1.71,.95-2.07,2.38-1.35,.79,.39,1.51,.9,2.12,1.54,2.82,2.94,5.87,5.64,9.24,8.57-5.48-7.04-10.06-14.24-14.81-21.32-4.86-7.23-9.15-14.79-13.38-22.4-4.12-7.39-7.33-15.16-10.34-23.06-3.05-8.02-6.16-16.02-8.62-24.06-.01,.33,.07,.87-.41,1.25Z"/><path class="f" d="M321.92,104.6c-.84-3.63-1.79-7.24-1.91-10.99-.29-.92,.18-1.6,.67-2.32,4.4-6.41,8.23-13.19,12.64-19.6,.79-1.15,1.26-2.28,.46-3.61,.35-2.5-1.11-4.42-2.12-6.47-3.74-7.58-2.96-5.68-10.35-6.62-1.9-.24-3.95-.51-5.86,.32-.89,.92-.6,1.87-.12,2.85,.94,1.93,1.85,3.87,2.88,5.74,1.01,1.85,1.19,3.52-.26,5.25-1.07,1.28-1.18,3.38-3.28,3.77-.74-.69-.92-1.65-1.19-2.56-1.74-5.87-3.86-11.6-6.07-17.3-.4-1.04-.86-2.05-.94-3.18-.47-.74-.02-1.39,.34-1.93,2.77-4.25,5.23-8.69,7.97-12.95,.46-.71,1.04-1.33,1.73-1.84,6.26,4.83,12.5,9.67,18.55,14.77,5.21,4.39,9.88,9.32,14.57,14.23,4.02,4.21,7.79,8.67,11.25,13.38,1.21,1.66,1.2,1.74-.69,2.49-3.12,1.24-6.25,2.42-9.31,3.83-7.45,3.42-14.44,7.56-20.71,12.85-3.32,2.8-6.03,6.15-8.25,9.9Z"/><path class="aq" d="M360.2,512.31c1.24-3.88,2.45-7.77,3.74-11.63,.52-1.54,.75-3.08,.73-4.7-.17-16.55,.15-33.09,.51-49.63,.38-17.42,1.03-34.83,2.38-52.21,.88-11.31,1.88-22.62,4.21-33.75,.69-3.29,1.63-6.5,2.85-9.64,3.51-9.01,7.3-17.9,11.23-26.74,.1-.21,.27-.39,.41-.59,.13-.23,.28-.23,.45-.04-3.02,18-6.06,36-9.05,54.01-.93,5.6-1.16,11.27-1.55,16.92-.95,14.09-1.92,28.19-2.87,42.28-.06,.95-.01,1.91-.01,2.87,1.53,5.06,.42,10.17,.05,15.21-1.11,15.21-4.12,30.19-6.09,45.3-.58,4.47-2.88,8.43-4.95,12.39-.34,.65-.85,1.25-1.69,1.06-.63-.14-.55-.65-.35-1.13Z"/><path class="at" d="M287.33,25.47c.85,.82,.26,1.39-.33,1.98-2.57,2.59-5.13,5.2-8,7.46-2.68,2.11-5.36,4.22-8.04,6.33-.12-.87-.74-1.35-1.36-1.88-9.03-7.78-18.93-14.31-29.18-20.34-6.33-3.72-12.88-7-19.49-10.17-.43-.21-.84-.45-1.26-.68,5.86,.04,11.6,1.12,17.35,2.04,16.26,2.61,31.85,7.5,47.04,13.77,1.11,.46,2.18,.99,3.27,1.49Z"/><path class="as" d="M333.84,619.86c2.26-2.92,3.6-6.4,5.67-9.44,5.45-8,8.82-16.99,12.25-25.95,.55-1.42,.94-2.92,.8-4.45-.17-1.93,.37-3.62,1.47-5.18-.12-1.14,.13-2.18,.78-3.15,2.07-3.08,3.76-6.41,5.98-9.39,1.7-.81,3.25-1.8,4.4-3.36,.64-.87,1.61-1.2,2.72-.94l.55,.37c-3.8,12.87-7.81,25.67-12.95,38.09-2.62,6.35-5.34,12.67-9.13,18.43-2.37,3.6-5.02,7.01-7.55,10.5-5.75,7.96-11.26,16.09-16.7,24.28-.46,.69-.68,1.68-1.73,1.85-.97-.67-.65-1.53-.31-2.35,3.84-9.28,7.79-18.51,11.73-27.75,.35-.82,.66-1.92,2.01-1.56Z"/><path class="as" d="M86.18,72.51c-4.15-6.07-7.66-12.52-11.11-19-.28-.53-.38-1.04-.15-1.6,1.52-.72,2.87-1.71,4.24-2.67,9.04-6.3,18.67-11.55,28.58-16.33,.64-.31,1.32-.53,1.99-.79,.44,.2,.61,.52,.35,.96-.37,.62-.75,1.22-1.16,1.82-5.47,7.96-10.62,16.13-15.35,24.55-1.95,3.48-3.73,7.05-5.59,10.58-.48,.92-.86,1.9-1.8,2.49Z"/><path class="au" d="M363.14,85.87c-1.27,.68-2.53,1.35-3.8,2.03-.52,1.1-1.31,1.9-2.43,2.47-1.98,1.02-3.81,2.3-5.54,3.71-3.17,1.72-5.56,4.45-8.34,6.66-3.3,2.62-6.26,5.65-9.56,8.27-1.71,2.1-3.95,3.66-5.8,5.6-.81,.84-1.73,1.37-2.88,1.51-.63,.45-1.26,.9-2.23,1.6-.32-3.18-.04-6.16-1.17-8.89,.33-.6,.67-1.2,1-1.8,.1-.81,.98-.94,1.33-1.52,5.62-5.7,11.64-10.93,18.41-15.23,7.12-4.52,14.79-7.83,22.85-10.29,.23-.07,.45-.17,.68,.03,.71,3.7,.59,3.99-2.51,5.86Z"/><path class="k" d="M302.7,56.2c-.98,.8-.71,1.64-.08,2.5,1.51,2.06,2.67,4.32,3.9,6.55,.61,1.1,.89,2.2,.45,3.42-2.83,.14-5.49-.22-7.76-2.16-3.34-2.85-6.75-5.62-10.37-8.1-.72-.49-1.56-.96-1.99-1.7-.58-1-1.17-2.11-.32-3.33,4.01-5.76,7.6-11.78,11.37-17.69,.28-.43,.41-1.55,1.49-1.09,.66,.7,1.35,.18,2,.03,2.18-.51,4.37-1.01,6.62-1.07,.96-.02,1.93-.01,2.87,.12,1.19,.17,1.39,.58,.72,1.6-1.18,1.8-2.44,3.56-3.72,5.29-1.04,1.41-2.2,2.75-3.24,4.16-1.79,2.42-3.01,5.09-3.3,8.12-.07,.77-.36,1.6,.35,2.26,.65,.07,.69,.72,1.03,1.08Z"/><path class="ap" d="M360.2,512.31c.58,.74,.79,.06,.96-.3,1.12-2.39,2.15-4.81,3.32-7.18,1.77-3.61,1.88-7.56,2.46-11.42,1.24-8.37,2.39-16.75,3.66-25.12,.89-5.85,1.36-11.72,1.74-17.62,.24-3.73,.27-7.5,.9-11.21,1.59,1.95,1.96,4.18,2.04,6.67,.29,8.63,.19,17.25-.57,25.85-1.06,11.98-3.48,23.69-7.19,35.13-.37,1.13-.83,2.25-1.36,3.32-4.42,8.86-8.86,17.72-13.56,26.43-.47-.81-.01-1.54,.2-2.29,.29-.99,.72-1.95,.75-3,.73-1.07,.97-2.34,1.37-3.53,1.49-4.51,2.93-9.04,4.41-13.56,.24-.75,.38-1.54,.89-2.18Z"/><path class="n" d="M368.9,232.71c2.91-1.53,5.38-3.68,7.98-5.64,3.69-2.78,7.31-5.64,10.96-8.47,1.64-1.27,3.17-2.68,4.51-4.26,1.49-1.76,2.9-3.61,2.88-6.11,.72-2.39,.67-4.88,.99-7.32,.27-2.05,.41-4.12,.7-6.17,.23-1.62,0-2.5,2.57-1.77,.59,.68,.53,1.45,.39,2.27-.93,5.44-1.43,10.92-1.79,16.42-.22,3.33-1.52,5.94-4.3,8.14-8.22,6.48-16.23,13.22-24.76,19.31-4.84,3.47-10.16,5.68-16.08,6.4-.08,0-.16,.03-.24,.03-2.79,.33-3.09,.1-3.5-2.76-.05-1.15,.79-1.48,1.65-1.7,5.4-1.38,10.01-4.35,14.6-7.34,1.02-.67,1.99-1.71,3.44-1.03Z"/><path class="w" d="M361.52,563.19c-1.98,3.18-3.95,6.36-5.94,9.53-.47,.74-1.03,1.42-1.54,2.12-.91-.83-.81-2.04-1.17-3.07-.28-.78-.1-1.83-1.19-2.18,5.59-7.06,9.94-14.88,13.75-22.99,5.05-10.75,8.7-21.98,10.9-33.67,1.07-5.66,1.67-11.37,2.18-17.1,.53-5.95,1.08-11.91,1.66-18.27,.53,1.55,.68,2.77,.68,4.02,0,4.8,.21,9.6-.03,14.38-.38,7.49-.32,15.03-1.96,22.4-1.35,6.09-2.94,12.12-5.15,17.96-1.87,4.93-3.96,9.78-5.93,14.67-.45,1.12-1.16,2.1-1.69,3.16-.45,.89-1.11,1.87-.02,2.81-.86,2.56-2.95,4.21-4.54,6.24Z"/><path class="ad" d="M299.39,34.59c-3.63,5.73-7.23,11.47-10.92,17.17-2.17,3.36-2.26,3.36,1.14,5.7,3.56,2.45,6.88,5.19,10.17,7.99,1.25,1.06,2.53,1.9,4.27,1.84,1.16-.04,2.19,.41,2.92,1.37,.22,.84,.08,1.44-.97,1.42-1.52-.04-3.04-.05-4.55-.12-2.55-.12-5.1-.32-7.66-.39-1.34-.04-2.22-.48-2.84-1.73-1.52-3.08-3.22-6.07-4.7-9.17-1.04-2.17-1.03-4.38,.35-6.5,4.23-6.49,8.42-13.01,12.62-19.52,.08-.13,.1-.3,.15-.45-.44-1.23-.18-2.25,1.07-2.75,.74-.3,1.61-.42,1.78,.79-.94,1.45-1.88,2.9-2.83,4.35Z"/><path class="a`" d="M302.21,30.24c-.77-.62-1.33-.11-1.8,.42-.41,.46-.71,1.03-1.05,1.55-1.15,.26-1.29-.72-1.62-1.38-1.64-3.28-3.41-6.48-5.28-9.64,.3,.12,.59,.23,.89,.35,.13-.08,.35-.15,.36-.24,.3-2.69,1.69-3.63,3.74-2.13,4.7,3.44,9.62,6.59,14.03,10.41,.05,.04,.04,.15,.1,.42-2.27,.49-4.55,.25-6.8,.11-.88-.05-1.74-.25-2.59,.14Z"/><path class="b`" d="M302.7,56.2c-.57-.14-.85-.56-1.03-1.08,.34-1.34,1.31-2.32,2.01-3.45,3.47-5.68,6.99-11.33,10.5-16.99,.53-.86,.97-1.92,2.34-1.52-.16,1.07-.9,1.84-1.43,2.71-2.86,4.68-5.74,9.35-8.61,14.02l-3.78,6.3Z"/><path class="at" d="M345.86,538.38l5.89-.05c-1.58,2.73-2.78,5.58-2.93,8.78,.03-3.25-1.08-6.13-2.96-8.73Z"/><path class="ba" d="M361.52,563.19c.8-1.54,1.61-3.08,2.39-4.63,.45-.91,1.07-1.55,2.15-1.61,.66,.27,1.34,.52,1.86,1.05-1.67,1.44-3.33,2.88-5.02,4.3-.42,.35-.92,.6-1.38,.89Z"/><path class="q" d="M323.7,105.5c-.27,.66-.76,1.13-1.33,1.52-.33-.46-.46-.97-.4-1.53,.58,.34,1.16,.14,1.73,0Z"/><path class="l" d="M386.71,323.38c-.15,.04-.3,.05-.45,.04,.35-1.03,.36-1.03,.92-.52l-.47,.47Z"/><path class="j" d="M220.66,626.12c-1.41-4.25-3.34-8.3-5.05-12.43-3.17-7.68-6.37-15.35-9.55-23.03-.3-.71-.63-1.44-.57-2.32,1.02,.11,1.19,.89,1.53,1.46,2.46,4.11,4.91,8.24,7.36,12.36,.41,.69,.75,1.42,1.41,1.92,7.03,13.62,13.16,27.68,19.91,41.44,.28,.57,.47,1.18,.71,1.77,1.01,4.02,3.06,7.67,4.26,11.62,1.41,4.66,2.37,9.41,3.09,14.21,.26,1.73-.25,3.42-.43,5.13-.09,.84-.53,1.67-.16,2.54-.92,3.35-2.37,6.5-3.79,9.66-.39-.29-.75-.63-.89-1.1-.86-2.91-1.96-5.79-1.98-8.86-.04-8.89-1.81-17.48-4.58-25.85-3.11-9.41-6.91-18.57-10.8-27.68-.12-.29-.31-.56-.47-.83Z"/><path class="u" d="M243.16,680.79c-.41-.54-.5-1.17-.48-1.81,.3-7.94-2-15.44-4-22.98-.57-2.15-1.32-4.26-1.96-6.4-.23-.75-.65-1.48-.31-2.31,2.99,6.41,5.96,12.83,8.97,19.23,.72,1.52,.82,3.04,.5,4.64-.64,3.28-1.6,6.48-2.72,9.63Z"/><path class="ar" d="M107.38,407.83c0-2.6,.01-5.2,.01-7.8,0-1.11,0-2.21,.48-3.25,1.57-.21,1.9,.87,2.02,2.04,.38,3.55,.53,7.09,.44,10.69-.14,5.38,.2,10.79,.11,16.19-.03,1.51,.12,3.02-.47,4.47-.53,1.28-1.3,2-2.75,1.31-.95-1.97-.28-3.9,.14-5.84l.03-17.8Z"/><path class="ag" d="M107.35,425.63c.02,1.9,.04,3.8,.06,5.7,.37,.38,.77,.75,.81,1.33-.14,.77,.04,1.61-.53,2.28l-.34,.2c-.83-.39-1.69-.75-2.37-1.4,.49-2.07,1-4.13,1.47-6.21,.16-.71,.4-1.36,.89-1.9Z"/><path class="f" d="M200.99,659.25c1.02-.89,1.78-2.02,2.83-2.91,3.7-3.16,10.59-3.03,14.02-.95,4.34,2.64,6.85,7.68,6.1,12.85-.72,4.99-4.78,9.4-9.52,10.19-1.26,.62-1.77-.1-1.99-1.18-.24-1.18-.19-2.38-.17-3.58,.05-3.14-.94-5.95-2.56-8.59-1.39-2.27-3.34-3.56-6.04-3.74-1.13-.07-2.51,.21-2.97-1.38,0-.28,.09-.52,.3-.71Z"/><path class="o" d="M200.93,659.66c.85,.58,1.82,.53,2.77,.5,3.12-.1,5.27,1.5,6.88,3.97,1.95,3,3.09,6.25,2.88,9.9-.05,.79,0,1.59,0,2.38,0,.83,.12,1.6,.96,2.02-.04,.12-.07,.23-.09,.35-2.49,1.76-5.14,1.32-7.69,.33-6.06-2.35-11.14-9.55-7.65-17.11,.45-.98,.71-2.04,1.94-2.34Z"/><path class="ah" d="M200.93,659.66c-4.03,6.5-1.62,14.85,5.29,18.03,2.56,1.18,5.24,1.98,8.11,1.09-.14,1.17-1.2,1.14-1.95,1.43-5.08,1.95-11.76-1.65-13.91-5.4-2.6-4.54-2.58-9.09,.1-13.58,.54-.9,1.02-2.05,2.42-1.98-.02,.13-.04,.27-.06,.4Z"/><path class="j" d="M333.84,619.86c-2.07,4.83-4.16,9.65-6.21,14.49-2.42,5.72-4.82,11.45-7.22,17.17-1.8,3.11-2.8,6.57-4.27,9.83-3.72,8.27-6.94,16.75-10.86,24.93-.2,.43-.46,.83-.69,1.24-.7-.17-1-.74-1.28-1.32-3.42-7.06-5.66-14.46-5.58-22.34,.05-4.86,.75-9.7,1.8-14.47,1.34-6.08,2.87-12.12,3.69-18.31,.16-1.18,.36-2.43,.91-3.46,1.02-1.92,.8-3.45-.89-4.79,1.57-.87,3.29-.55,4.93-.52,3.64,.08,7.15-.61,10.63-1.56,2.33-.64,3.79-1.95,4.4-4.49,.83-3.49,2.32-6.82,3.15-10.3,1.04-4.38,2.8-8.49,4.28-12.71,.7-2,.81-2.01,2.78-1.45,2.69,.77,5.36,1.6,8.03,2.41,2.28,.7,2.36,.81,1.48,2.98-2.74,6.73-5.52,13.45-8.29,20.17-.34,.81-.73,1.6-.8,2.5Z"/><path class="f" d="M303.24,622.82c1.34,.02,2.69-.17,4.07,.11-.03,.34,.03,.61-.07,.79-1.97,3.28-2.83,6.89-3.3,10.65-.49,3.96-1.46,7.83-2.43,11.7-1.39,5.59-2.29,11.26-2.54,16.99-.29,6.55,1.35,12.79,3.73,18.86,.72,1.83,2.01,3.49,1.89,5.6-.31,.33-.61,.65-.92,.98-.89,.59-1.67,.19-2.41-.31-2.48-1.68-4.19-3.92-4.85-6.87-1.36-6.09-2.4-12.21-1.44-18.49,1.75-11.44,3.61-22.85,6.36-34.1,.49-2.01,1.03-4.02,1.91-5.91Z"/><path class="as" d="M105.96,296.51c.04-51.31,.07-102.61,.13-153.92,0-.11,.2-.22,.53-.58,1.85,1.82,3.75,3.58,5.44,5.58,2.58,3.06,5.41,5.87,8.45,8.46,.49,.41,.99,.81,1.44,1.26,4.95,5.01,10.39,9.44,15.77,13.96,8.71,7.3,17.85,14,27.28,20.31,7.84,5.24,15.86,10.21,24.17,14.68,3.46,1.86,7.21,3.04,10.86,4.45,12.6,4.87,25.3,9.46,38.09,13.79,9.46,3.2,18.99,6.17,28.63,8.83,6.48,1.78,13.01,3.3,19.63,4.43,3.48,.6,6.98,.87,10.5,.68,3.3-.18,6.21-1.49,8.69-3.63,2.06-1.78,3.78-3.88,5.21-6.22,3.9-6.36,6.74-13.23,9.64-20.06,3.12-7.36,6.09-14.77,8.9-22.25,.22-.58,.52-1.13,.8-1.72,.49,.41,.35,.85,.44,1.23,1.17,.62,1.09,1.7,.92,2.73-2.19,13.54-5.03,26.87-11.68,39.09-1.77,3.26-4.18,6.04-6.3,9.04-2.4,3.39-4.83,6.77-7.36,10.07-1.66,2.16-3.76,3.06-6.48,2.72-18.12-2.28-35.89-6.27-53.49-11.07-8.77-2.39-17.51-4.91-26.15-7.75-12.09-3.98-23.99-8.45-35.4-14.11-9.96-4.94-19.99-9.72-29.75-15.06-4.28-2.34-8.82-4.17-13.2-6.3-1.03-.5-2.11-1.23-3.39-.66-1.58,1.01-2.92,2.24-3.76,3.95-2.96,2.2-4.21,4.94-3.45,8.74,4.99,24.76,9.89,49.53,16.03,74.04,1.7,6.79,3.51,13.57,5.77,20.2,.67,1.96,1.72,3.76,2.65,5.61,.62,.95,1.63,1.65,1.76,2.89,.27,2.71,1.77,4.96,2.76,7.4-.2,1.55,.7,2.12,2.01,2.66,15.51,6.29,30.54,13.53,44.35,23.07,11.24,7.76,21.69,16.4,29.19,28.05,5.64,8.76,10.13,18.15,14.55,27.55,6.29,13.39,11.56,27.21,16.12,41.29,2.48,7.66,4.24,15.52,6.44,23.26,3.47,12.23,5.83,24.68,7.74,37.24,1.49,9.81,3.55,19.53,5.14,29.33-.32,1.99-1.53,2.51-3.3,1.94-8.6-2.75-17.43-4.69-26.07-7.32-3.25-.99-6.08-2.8-9.13-4.2-1.38-.63-2.09-1.9-2.63-3.28-9.72-24.76-20.42-49.11-30.7-73.64-3.8-9.06-7.57-18.13-11.42-27.17-4.3-10.1-10.42-19.03-17.54-27.31-9.85-11.47-21.27-21.16-33.78-29.59-1.7-1.15-3.45-2.24-4.76-3.89-.42-2.46-.22-4.94-.22-7.4-.03-8.93,0-17.86-.01-26.79,0-4.6-.38-5.14-4.69-6.92-.89-.37-1.77-.74-2.6-1.2-.56-.39-1.25-.44-1.87-.67-3.76-2.13-7.8-3.64-11.72-5.42-5.37-2.44-10.7-4.93-16.12-7.27-1.23-.53-2.75-1.38-3.06-3.11Z"/><path class="f" d="M141.15,89.16c1.05,.36,1.33,1.08,1.76,1.62,2.5,3.22,4.94,6.49,7.46,9.69,1.11,1.41,1.89,2.91,2.39,4.64,2.14,7.41,5.63,14.08,11.08,19.63,5.97,6.1,13.26,9.94,21.34,12.38,6.84,2.07,13.87,3.05,20.99,3.52,6.23,.41,12.46,.42,18.7,.48,6.8,.07,13.59,.19,20.36,.88,3.6,.36,7.11,1.08,10.4,2.66,1.38,.66,2.54,1.56,3.46,2.86,1.6,2.25,1.5,4.47,.25,6.75-1.57,2.84-3.75,5.18-6.2,7.26-8.05,6.85-17.45,10.59-27.89,11.64-15.28,1.54-28.65-3.25-40.58-12.66-12.13-9.57-21.38-21.48-28.67-34.99-6.06-11.22-10.64-23.07-14.55-35.18-.09-.29-.15-.6-.28-1.18Z"/><path class="aa" d="M137.6,193.82c.81-1.14,1.82-1.08,2.96-.53,3.03,1.45,6.1,2.8,9.1,4.3,7.72,3.86,15.48,7.65,23.1,11.71,20.42,10.87,41.95,18.9,64.12,25.31,18.52,5.35,37.28,9.7,56.32,12.77,2.29,.37,4.59,.61,6.89,.89,2.07,.26,3.75-.39,5.01-2.13,4.13-5.69,8.43-11.27,12.39-17.08,3.67-5.4,5.83-11.54,7.73-17.75,2.36-7.74,3.94-15.65,5.22-23.63,.1-.63,.09-1.27,.13-1.91,.43-.77,.39-1.64,.53-2.46,1.49-1.76,1.97-.19,2.36,.82,.74,1.89,1.03,3.93,1.69,5.86,.17,.51,.15,1.1,.72,1.4,.36,.64,.43,1.32,.36,2.04-.94,1.72-.17,3.63-.61,5.4-3.75,15.12-8.64,29.75-18.14,42.42-3.02,4.02-6.06,8.03-8.96,12.14-1.57,2.23-3.47,2.76-5.99,2.35-11.91-1.92-23.75-4.14-35.53-6.73-4.52-1-9.01-2.13-13.53-3.15-1.89-.43-3.54-1.99-5.69-1.22-4.74-1.59-9.61-2.74-14.35-4.31-1.24-.41-3-.44-2.84-2.52,1.31-1.55,2.83-.61,4.2-.25,7.7,2.05,15.4,4.11,23.12,6.07,8.27,2.1,16.55,4.19,24.87,6.09,2.94,.71,5.87,1.52,8.87,1.95,.61,.29,1.19,.71,1.83,.37-.47,.19-1,.15-1.49-.24-2.9-.51-5.75-1.24-8.61-1.91-15.43-3.67-30.84-7.43-46.1-11.71-18.61-5.23-37.23-10.56-55-18.26-10.89-4.71-21.58-9.9-31.87-15.84-2.29-1.32-4.76-1.81-7.21-2.5-2.51-1.5-3.57-4.32-5.63-6.23-.44-.41-.26-1.03,.04-1.54Z"/><path class="f" d="M113.23,52.21c1.49-5.02,4.01-8.74,7.08-12.15,9.14-10.14,20.51-16.38,33.79-19.21,16.44-3.5,32.7-2.7,48.77,2.22,2.37,.73,4.71,1.55,6.75,3.03,2.24,1.62,2.12,2.99-.48,4.12-2.61,1.14-5.45,1.19-8.23,1.34-4.47,.25-8.95,.09-13.42-.09-11.03-.46-22.05-.59-33.03,.75-15.46,1.89-29.09,7.71-40.09,19.04-.21,.22-.47,.4-1.14,.96Z"/><path class="m" d="M103.51,190.98c-.05,5.1,.27,10.18,1.08,15.22,.19,1.17,.24,2.39,.87,3.45,.01,1.52,.04,3.03,.04,4.55,0,25.98,0,51.95,0,77.93,0,.88-.02,1.76-.04,2.64-.02,.92-.61,1.22-1.41,1.28-1.67,1.17-2.61-.46-3.84-.98l-2.43-.99c-1.73-1.98-1.59-4.45-1.6-6.81-.06-12.54,0-25.09-.04-37.63-.07-19.58,1.23-39.09,3.24-58.55,.63-6.12,1.27-12.23,2.03-18.33,.05-.4,.08-.8,.15-1.19,.13-.72,.31-1.62,1.13-1.61,1.16,.02,.61,1.1,.62,1.66,.05,5.67,.02,11.35,.04,17.02,0,.79-.17,1.6,.19,2.36Z"/><path class="at" d="M324.77,116.11c2.31-2.98,5.27-5.28,8.14-7.67,1.67,.19,1.84,1.6,2.16,2.8,2.44,8.87,4.07,17.89,5.3,27.01,1.61,11.93,1.51,23.9,1.34,35.87-.07,4.62-.64,9.23-1,13.85-.09,1.18-.3,2.45-1.97,2.43-1.32-2.82-2.63-5.64-3.95-8.46-2.21-1.09-2.8-2.27-2.4-4.85,.15-.45,.43-.9,.44-1.35,.04-4.06,.3-8.13-.16-12.18-.07-.63-.2-1.27-.2-1.9,.04-6.15-.7-12.24-1.52-18.32-1.17-8.7-2.87-17.3-5.57-25.68-.17-.53-.4-1.04-.61-1.55Z"/><path class="ar" d="M100.19,295.06c1.32,.18,2.61,.48,3.84,.98,.58,.4,1.24,.47,1.92,.47,1.29,.26,2.3,.87,3.27,1.82,1.37,1.36,3.27,1.95,5.01,2.74,5.74,2.6,11.5,5.16,17.25,7.73,1.89,.85,3.77,1.71,5.66,2.57-.82,2.02-1.4,2.34-3.62,1.35-3.86-1.72-7.73-3.41-11.56-5.19-2.89-1.34-5.82-2.61-8.74-3.89-1.2-.53-2.23-.71-3.1,.63-.69,1.06-1.74,.91-2.75,.39-1.03-.21-1.92-.73-2.84-1.2-.59-.3-1.06-.68-1.1-1.42-.16-2.76-1.6-4.93-3.25-7Z"/><path class="ai" d="M332.39,177.09c.45,1.79,1.93,3.07,2.4,4.85-.58,.73-.21,1.5-.08,2.25,.39,2.4,.77,4.8,1.15,7.2-.13,.23-.18,.85-.43,.57-.45-.5-.69-1.21-.94-1.87-.7-1.83-1.35-3.69-2.05-5.52-.24-.62-.31-1.48-1.35-1.27,.17-1.62,.33-3.24,.51-4.85,.06-.56,.28-1.05,.79-1.36Z"/><path class="ac" d="M385.25,246.59c-1.13,7.75-2.28,15.49-3.39,23.24-1.19,8.31-2.32,16.62-3.51,24.92-.36,2.49-1.38,4.75-2.61,6.92-2.5,4.42-5.69,8.31-9.28,11.87-4.54,4.5-9.21,8.88-13.77,13.36-2.28,2.24-4.38,4.66-6.65,6.92-1.28,1.28-1.72,2.7-1.71,4.5,.11,21.42,.03,42.85,.25,64.28,.36,35.41,.25,70.83,.48,106.24,.04,5.84,.13,11.67,.21,17.5,.02,1.28-.02,2.56-.33,3.81-.84,1.4-.89,3.05-1.4,4.55-1.99,5.78-1.84,11.73-1.5,17.71,.1,1.83,.58,3.62,.47,5.48-.11,1.9-.29,2.16-2.16,2.51-4.12,.77-8.27,.58-12.4,.25-6.38-.51-12.65-1.67-18.69-3.88-.29-.11-.63-.1-.94-.15-1.17,.4-1.71-.35-2.18-1.21-.63-1.16-1.29-2.3-2.2-3.27-.39-1.39-1.02-2.55-2.17-3.58-2.03-1.79-2.02-2.72-.59-4.92,.86-.83,1.16-1.89,1.23-3.04,.06-.96,.05-1.92,.05-2.88,0-49.63,0-99.26,0-148.89,0-1.52,.02-3.04-.2-4.54-.2-1.19-.21-2.39-.05-3.58,1.54-11.37,.4-22.8,.66-34.2,.06-2.51-.05-5.29-.7-7.52-.97-3.36-2.92-6.48-7.4-7.17-12.15-1.87-24.21-4.29-36.25-6.79-16.26-3.38-32.48-6.98-48.43-11.66-8.71-2.56-16.69-6.36-23.42-12.56-.48-1.19-1.12-2.26-2.1-3.14-4.87-4.41-7.89-10.12-10.1-16.07-4.48-12.04-8.38-24.29-9.58-37.2-.21-2.3-.25-4.62-.84-6.88,0-1.1,.51-2.09,.45-3.25-.1-1.96,.91-2.55,2.8-1.77,2.8,1.16,5.5,2.56,8.23,3.88,13.36,6.46,27.09,12.05,40.79,17.73,14.32,5.93,28.72,11.64,43.39,16.61,16.16,5.47,32.36,10.82,48.95,14.89,4.8,1.18,9.65,2.19,14.56,2.79,3.14,.39,6.37,.61,9.16-1.48,.98-.47,1.96,.54,2.94-.01,6.61-3.32,12.57-7.63,18.3-12.25,10.78-8.69,20.84-18.18,30.53-28.06,.45-.46,.72-.53,1.1-.02Z"/><path class="n" d="M335.32,286.92c-.65,.64-1.52,.77-2.34,1-4.63,.94-9.19-.17-13.76-.57-10.72-.92-20.89-4.32-31.12-7.34-10.44-3.08-20.76-6.57-31.03-10.17-10.61-3.72-21.12-7.7-31.55-11.91-.9-.37-2.08-.56-2.19-1.9,.79-1.94,2.23-1.11,3.42-.67,5.32,1.95,10.6,4,15.93,5.94,4.12,1.5,8.22,3.08,12.42,4.37,3.67,1.13,4.72,.1,4.45-3.8-.4-5.76-3.19-10.08-7.6-13.54-1.32-1.03-2.7-2-3.86-3.21-.48-.5-1.54-1.18-.12-1.9,5.83,1.39,11.65,2.82,17.48,4.16,12.46,2.88,25.03,5.16,37.65,7.23,1.48,.24,2.82,.25,3.85-1.18,4.97-6.85,10.39-13.38,14.74-20.68,3.2-5.38,5.57-11.15,7.68-17.01,2.33-6.47,4.33-13.04,5.7-19.79,.19-.92,.26-1.93,1.17-2.53,1.21,9.44,1.42,18.94,1.84,28.43,.2,4.64-.29,9.26-.35,13.89-.12,8.78-.79,17.54-1.31,26.31-.4,6.7-.92,13.38-1.57,20.05-.1,1.03-.25,2.06-.36,3.09-.08,.75-.08,1.47,.85,1.73Z"/><path class="x" d="M368.9,232.71c-6,4.45-12.27,8.39-19.69,10.07-.69,.06-1.54,.62-1.88-.54,1.54-16.72,5.99-32.98,7.74-49.68,1.72-16.4,2.61-32.81,1.97-49.27-.6-15.36-3.01-30.51-6.81-45.41-.43-1.68-.7-3.28,.41-4.8,2.66-2.11,5.53-3.88,8.69-5.18,.8,2.69,2.08,5.19,3.14,7.77,5.55,13.53,9.39,27.52,11.51,41.98,.58,3.94,.9,7.92,1.23,11.91,.8,9.9,.31,19.81,.35,29.71,.02,3.42-.52,6.84-.75,10.26-.26,3.82-.66,7.63-1.06,11.44-.56,5.41-1.31,10.78-2.18,16.14-.85,5.2-1.78,10.39-2.68,15.59Z"/><path class="r" d="M350.65,93.07c-.08,1.38,.32,2.69,.66,4,2.82,10.84,4.72,21.84,5.96,32.96,1.03,9.21,1.13,18.46,1.13,27.73,0,10.47-.85,20.86-1.83,31.27-1.61,17.12-5.06,33.93-8.33,50.77-.17,.87-.35,1.73-.91,2.44-.03-.46-.06-.92-.08-1.38-.47-.93,.11-1.99-.38-2.92-.36-6.22-1.16-12.39-1.98-18.56-.9-6.81-1.93-13.6-3.48-20.29-.69-2.96-1.51-5.87-2.67-8.69,.63-.89,.82-1.9,.84-2.95,.04-1.76,.27-3.5,.42-5.25,.82-9.81,.98-19.66,.46-29.46-.74-14.06-2.86-27.97-6.64-41.57-.26-.92-.61-1.81-.92-2.72,1.48-2.11,3.63-3.52,5.5-5.22,3.93-3.56,7.91-7.07,12.24-10.15Z"/><path class="x" d="M346.87,237.95c.48,.93,.47,1.92,.38,2.92-.5-.92-.45-1.92-.38-2.92Z"/><path class="r" d="M78.51,84.96c3.17,5.18,6.41,10.31,10.34,14.95,1.27,1.49,1.73,3.06,1.73,5.02-.04,27.46-.01,54.93,0,82.39,0,1.04,.03,2.08,.05,3.11,1.14,.71,1.14,1.89,1.11,2.99-.19,6.79,.53,13.56,.52,20.34-.01,8.3,.85,16.58,.46,24.89-.06,1.29,.33,2.79-1.16,3.66-.89-1.29-1-2.85-1.5-4.28-6.34-18.28-11.6-36.88-16.39-55.62-3.44-13.47-6.54-27.03-8.76-40.76-1.65-10.16-3.11-20.36-4.11-30.61-.71-7.3-1.56-14.59-2.24-21.9-.46-4.92-.68-9.87-1.08-14.79-.4-4.93-.89-9.85-1.32-14.77-.37-4.29-.64-8.59-1.08-12.88-.45-4.44-1.02-8.88-1.61-13.31-.18-1.35-.27-2.7-.32-4.05,1.16-.31,1.08,.79,1.27,1.3,4.06,10.86,8.25,21.68,13.31,32.13,2.67,5.52,5.63,10.9,8.68,16.23,1.06,1.85,2.29,3.66,2.12,5.96Z"/><path class="s" d="M91.55,242.3c0-5.34,.25-10.7-.09-16.03-.38-5.9-.08-11.81-.5-17.68-.43-6.06-.22-12.11-.33-18.17,.28-.5,.44-1.04,.41-1.61-.21-4.08,.43-8.13,.55-12.2,.14-4.46,.53-8.92,.83-13.37,.19-2.79,.28-5.58,.45-8.37,.23-3.58,.44-7.18,.73-10.75,.31-3.9,.07-7.83,.72-11.71,.2-1.17,.1-2.39,.1-3.59,.02-7.27,.02-14.55,.03-21.82,0-.72-.03-1.44,.03-2.16,.13-1.6,.46-2.03,2.02-2.09,1.77-.08,3.49-.42,5.22-.68,1.4-.21,1.67,.04,1.78,1.48,.04,.48,.03,.96-.01,1.44-.92,11.89-.44,23.81-.28,35.71,.07,5.18,.19,10.38,.3,15.56,.03,1.52-.06,3.03-.27,4.54-.17,1.26-.22,2.56-.1,3.83,.8,8.78,.23,17.57,.36,26.35-.49-.97-.42-2.02-.42-3.05-.02-4.87-.02-9.74-.03-14.61,0-.79,0-1.57-.29-2.37-.37,3.37-.76,6.73-1.12,10.1-.6,5.55-1.23,11.09-1.76,16.65-.45,4.76-.77,9.54-1.13,14.3-.29,3.81-.57,7.63-.84,11.44-.03,.48-.06,.96-.09,1.43-.54,11.4-.56,22.82-.52,34.23,.03,8.15,.1,16.29,0,24.44-.05,3.52,.5,7,.48,10.51-1.81-.13-3.46-.88-5.15-1.45-.45-11.66-.79-23.32-.61-34.99,.08-5.12-.51-10.21-.46-15.33Z"/><path class="s" d="M78.51,84.96c-1.73-1.84-2.49-4.26-3.72-6.39-5.85-10.11-11.02-20.57-15.29-31.44-2.02-5.13-3.91-10.31-5.39-15.63-.21-.77-.4-1.55-.98-2.16-2.64-7.5-5.93-14.77-8.13-22.44-.2-.69-.41-1.38-.88-1.95-.03-1.01-.15-2.02,.15-3.33,.8,1.21,.87,2.34,1.2,3.37,4.75,14.77,10.4,29.18,17.75,42.87,4.38,8.16,8.98,16.2,14.12,23.91,4.3,6.44,8.52,12.94,13.12,19.17,1.14,1.54,2.41,2.97,3.62,4.46,.35,.43,.85,.9,.47,1.47-.46,.69-1.15,.43-1.7,.07-.73-.47-1.48-.97-2.11-1.57-2.89-2.75-5.94-5.33-8.74-8.18-.96-.98-1.86-2.22-3.49-2.25Z"/><path class="ar" d="M107.38,304.67c1.25-.07,1.73-.79,1.97-1.98,.35-1.72,.72-1.87,2.28-1.17,7.04,3.17,14.07,6.38,21.1,9.57,1.44,.65,2.86,1.59,4.43,.28,.52,.03,1.01,.15,1.44,.44,.4,5.9,.61,11.83,.59,17.72-.15,38.7,.88,77.39,.57,116.08-.05,5.92,.76,11.81,.52,17.73-.04,.88,.1,1.77,.57,2.54,.69,1.15,1.73,1.64,3.04,1.44,1.2-.18,1.74-1.04,1.96-2.14,.24-1.19,.16-2.39,.16-3.59,0-33.74-.01-67.49,.04-101.23,0-1.65-.62-3.57,1.16-4.85,4.99,2.59,9.35,6.12,13.86,9.42,8.28,6.07,15.7,13.13,22.59,20.68,7.35,8.04,13.74,16.86,18.34,26.8,2.98,6.45,5.59,13.07,8.36,19.62,5.17,12.21,10.34,24.42,15.49,36.64,3.54,8.39,7.06,16.79,10.58,25.19,2.56,6.12,5.1,12.24,7.62,18.37,.58,1.4,1.06,2.85,1.54,4.29,.49,1.46,1.52,2.26,2.85,3.03,6.83,3.93,14.48,5.4,21.93,7.46,4,1.1,7.98,2.32,11.97,3.49,.96,.28,1.93,.65,2.15-.88,.55-.05,1.06,.24,1.13,.68,.54,3.23,1.72,6.36,1.47,9.71-.78,1.53-2.02,1.24-3.31,.85-8.56-2.59-17.13-5.16-25.69-7.75-6.8-2.06-13.64-3.99-20.42-6.14-19.06-6.04-36.82-14.93-54.08-24.87-15.86-9.13-31.16-19.14-45.77-30.17-2.42-1.83-4.7-3.84-6.87-5.96-1.18-1.16-1.37-2.2,.59-2.75,.64,.05,1.26,.22,1.9,.3,1.8,.25,2.71-.6,2.91-2.34,.09-.8,.07-1.6,.07-2.39-.05-24.29,0-48.57-.05-72.86-.04-16.37,0-32.74,.04-49.1,.04-4.59-.2-9.2,.48-13.59,0,.13-.02,.45-.09,.76-.48,5.84-.85,11.68-1.2,17.53-.52,8.78-1.23,17.54-2.18,26.28-1.35,12.46-2.53,24.94-4.24,37.36-1.36,9.89-2.59,19.8-4.76,29.56-.52,2.35-1.16,4.65-2.04,6.89-1.13,2.88-2.33,3.46-5.36,3.09-3.26-.39-5.96-2.15-8.87-3.39-1.02-1.33-.73-2.76-.29-4.2-.17-.66-.33-1.33-.5-1.99h0c1.04-.76,.59-1.56,.05-2.36,0-.48,0-.97,0-1.45,1.63-.54,1.93-2,1.82-3.3-.47-5.24,.72-10.51-.29-15.74-.21-1.1-.11-2.22,.1-3.33,.42-2.22,.38-4.44,0-6.67-.15-.86-.18-1.75-.2-2.62-.03-1.07-.2-2.07-.96-2.88,0-4.16,0-8.32,0-12.47,1.07-.64,1.32-1.65,1.45-2.83,.61-5.56,.43-11.13,.47-16.71,.01-1.46-.15-2.85-.76-4.19-.68-1.49-.89-3.09-.57-4.68,.43-2.14,.36-4.28,.37-6.43,0-4.06,0-8.13,0-12.19,0-1.44-.02-2.86-.32-4.28-.25-1.18-.32-2.4,.07-3.55,1.32-3.9,.58-7.9,.63-11.85,.02-1.39-.95-2.52-1.34-3.81,.89-2.53,.44-5.13,.35-7.71-.02-.57-.48-.98-.84-1.4Z"/><path class="ap" d="M107.86,437.12c.1,1.18,.52,2.26,.97,3.34,.66,1.03,1.65,1.66,2.69,2.26,1.42,.82,2.51,2,3.32,3.43,.9,2.49,2.6,4.35,4.48,6.16,3.49,3.36,6.62,7.09,10.88,9.57,.74,.43,1.22,1.04,.84,1.98-.27,.59,.17,.85,.53,1.18,5.01,4.59,10.42,8.68,15.99,12.57,10.68,7.46,21.53,14.64,32.78,21.2,11.73,6.84,23.66,13.28,36.1,18.79,11.14,4.93,22.67,8.65,34.32,12.07,9.19,2.7,18.35,5.52,27.53,8.26,2.67,.8,5.3,1.78,8.05,2.29,.92-.45,1.89-.27,2.85-.2,2.72,.79,5.39,1.77,8.14,2.46,1.45,.63,3.63,.08,3.97,2.49-.57,.81,.1,1.3,.48,1.86,1.09,1.63,2.49,3.04,3.36,4.82-.61,.87-1.37,.62-2.12,.25-7.82-3.82-16.28-5.7-24.6-7.96-27.03-7.33-53.68-15.81-79.77-26-12.29-4.8-23.87-11.03-35.17-17.81-13.42-8.04-26.43-16.71-38.73-26.39-4.06-3.2-8.06-6.46-10.17-8.49,12.75,11.54,28.57,22.7,45.25,32.59,19.9,11.81,39.95,23.36,60.74,33.57,15.25,7.49,31.11,13.41,47.4,18.21,9.58,2.82,19.42,4.98,28.25,9.84,6.43,3.54,12.75,7.33,18.2,12.35,.37,.34,.78,.55,1.29,.53,.67,1.28,.03,2.12-.96,2.84-1.38,.99-2.96,1.6-4.56,2.08-2.76,.84-5.59,1.35-8.49,1.34-5.51,0-11.03,.21-16.48-.94-1.65-.35-3.26-.79-4.86-1.3-16.32-5.2-32.23-11.45-47.92-18.28-2.78-1.21-5.52-2.53-8.25-3.85-4.03-1.95-8.06-3.89-12.09-5.85-9.7-4.73-19.11-10-28.42-15.46-9.18-5.38-18.11-11.12-26.64-17.49-7.36-5.5-14.4-11.38-21.26-17.5-5.48-4.9-10.91-9.85-16.02-15.13-7.02-7.26-13.13-15.25-18.73-23.63-1.7-2.55-2.88-5.34-2.79-8.53,.04-1.53,.47-2.82,1.59-3.87,.06-.05,.1-.12,.17-.17,3.41-2.51,5.93-5.75,7.84-9.5Z"/><path class="d" d="M315.72,572.36c-.13,.38-.23,.77-.41,1.12-.14,.27-.38,.49-.79,1-.47-2.16-2.04-3.1-3.5-4.13-4.44-3.14-8.95-6.18-13.64-8.93-5.69-3.34-11.93-5.41-18.23-7.26-10.74-3.15-21.5-6.22-32.02-10.08-14.22-5.21-27.89-11.61-41.22-18.75-14.87-7.96-29.49-16.37-43.86-25.2-14.24-8.75-28.24-17.86-41.18-28.49-3.15-2.59-6.18-5.31-8.98-8.29-.48-.51-1.12-.92-1.3-1.86,.76-.17,1.13,.39,1.55,.76,9.27,8.11,18.96,15.7,29.07,22.74,21.22,14.78,43.83,26.89,68.17,35.78,24.95,9.11,50.29,16.95,75.95,23.78,4.94,1.32,9.88,2.66,14.61,4.65,1.76,.74,3.47,1.63,5.2,2.45,1.39,1.45,1.89,3.46,3.17,4.98,1.34,2.7,2.68,5.4,4.04,8.1,1.25,2.49,2.36,5.03,3.37,7.62Z"/><path class="ae" d="M314.67,72.93c.98-1.54,1.93-3.12,2.97-4.62,.68-.99,.61-1.85,.05-2.87-1.22-2.23-2.37-4.51-3.5-6.8-.46-.92-1.37-1.79-.44-2.99,.16-.21-.3-.86-.38-1.32-.1-.65,.41-.5,.78-.51,1.3,.43,2.35,1.14,2.78,2.53,.85,2.24,2.31,4.16,3.32,6.33,.99,2.13,1,4.09-.03,6.19-1.13,2.31-2.51,4.47-3.92,6.59-1.29,1.95-1.08,3.54,.37,5.19,1.16,1.32,2.46,2.51,3.68,3.78,2.19,2.28,2.32,3.18,.87,6.14-.82,.88-1.13,2.06-1.72,3.08-.65,.39-1.38,.41-2.09,.33-3.73-.4-7.47-.35-11.21-.46-1.72-.05-1.33-.16-1.62-1.83-.39-2.2,.8-3.54,1.75-5.1,2.77-4.55,5.55-9.1,8.32-13.65Z"/><path class="t" d="M319.52,93.64c.02-1.16-.28-2.41,.89-3.26,1.72-3.34,3.02-6.9,4.99-10.12,1.26-.99,2-2.33,2.68-3.75,1.33-2.79,3.27-5.19,4.98-7.75,.41-.61,.97-1.08,1.79-.58,.99,1,.38,1.87-.2,2.76-3.02,4.69-6.01,9.39-9.03,14.08-1.85,2.88-3.55,5.86-5.6,8.6l-.49,.02Z"/><path class="as" d="M57.49,273.49c.14,.03,.29,.05,.42,.1,.19,.07,.48,.2,.34,.41-.14,.21-.37-.02-.51-.17-.1-.1-.17-.23-.25-.35h0Z"/><path class="f" d="M334.84,68.17c-2.9,4.15-5.65,8.4-8.23,12.76-1.82-.05-1.37-1.35-1.23-2.36,.4-2.91,1.09-5.77,1.1-8.74,0-5.34-2.11-9.22-7.27-11.12-1.21-.44-2.1-1.3-3.11-2.03-.85-.82-1.28-1.92-1.94-2.86,2.94-.26,5.87-.11,8.8,.07,1.42,.09,2.84,.38,4.28,.34,1.25-.03,2.05,.55,2.69,1.62,1.8,3.02,3.24,6.22,4.86,9.34,.52,1,.52,1.98,.05,2.99Z"/><path class="ar" d="M107.41,432.77c1.63,1.24,1.63,1.43-.05,2.37,.02-.79,.04-1.58,.05-2.37Z"/><path class="f" d="M306.07,647.71c1.92-.53,2.28-.42,2.93,1.21,.8,2,1.22,4.13,1.31,6.27,.17,3.96,.34,7.93-.42,11.87-.24,1.25-.53,2.49-1.08,3.64-.7,1.46-1.13,1.51-2.72,.48-1.53-.17-1.81-1.39-2.08-2.55-1.36-5.81-1.34-11.63-.1-17.46,.3-1.39,.6-2.84,2.16-3.46Z"/><path class="ah" d="M306.07,647.71c-1.99,5.86-2.21,11.86-1.43,17.93,.25,1.9,.68,3.76,1.45,5.53-1.13,1.33-1.67,1.37-2.38,.05-.45-.83-.75-1.76-.97-2.68-1.38-5.92-1.23-11.84,.05-17.75,.19-.86,.56-1.66,1.02-2.41,.55-.89,1.3-1.1,2.25-.67Z"/><path class="n" d="M165.44,237.5c.8,8.42,1.76,16.82,3.87,25.04,1.41,5.49,3.02,10.92,4.95,16.25,2.9,7.98,7.08,15.16,13.23,21.11-1.16,1.15-1.37,1.17-2.75-.03-3.16-2.78-5.57-6.14-7.56-9.83-3.66-6.78-6.18-14.04-8.85-21.23-2.95-7.95-5.62-15.99-8.21-24.06-1.11-3.45-1.86-7-2.5-9.86,.34,3.07,2.11,6.56,2.11,10.41-1.02,2.21-.71,4.45-.24,6.74,1.78,8.71,2.41,17.59,4.24,26.3,1.74,8.3,3.76,16.46,7.42,24.2,3.25,6.87,8.29,11.05,15.75,12.64,11.27,2.4,21.98,6.7,32.97,10.07,2.16,.66,2.63,1.79,2.24,4.58-.83,5.91-5.86,11.26-11.77,12.44-.86,.17-1.72,.32-2.56,.59-1.61,.04-2.53-1.26-3.72-1.98-13.1-7.94-26.77-14.72-40.98-20.44-1.64-.66-3.18-1.43-4.32-2.83-.86-2.45-2.41-4.62-2.89-7.21-.29-3.16-1.87-5.99-2.31-9.12-3.26-17.66-7.3-35.16-10.53-52.82-2.65-14.48-5.84-28.87-8.46-43.36-.35-1.95-1.33-3.74-1.69-5.7,.27-.75,.6-1.47,.83-2.23,.99-1.46,2.04-2.84,3.85-3.34,.47,.54,.86,1.17,1.41,1.61,1.67,1.33,2.66,3.25,4.24,4.65,9.01,4.96,17.77,10.36,26.96,15,.7,.35,1.47,.67,1.79,1.51,1.72,5.1,2.97,10.35,5.19,15.27,.69,1.53,1.53,2.97,2.76,4.15,.56,.53,.91,1.1,.66,1.9-.96,1.22-1.96,.28-2.76-.12-2.28-1.14-4.71-1.95-6.94-3.16-2.6-1.42-5.41-2.17-8.27-2.82-.92-.21-1.74-.76-2.55-1.32,2.33,1.96,4.65,3.88,5.36,7.03Z"/><path class="av" d="M147.23,355.52c0,36.46-.01,72.91-.02,109.37,0,.88-.01,1.76-.04,2.64-.04,1.2-.72,1.76-1.87,1.64-1.51-.16-3.01-.38-4.51-.63-1.07-.18-1.7-.83-1.72-1.97,0-.4-.02-.8-.03-1.2-.57-16.86-.47-33.72-.47-50.58,0-5.52,.15-11.04-.04-16.55-.8-23.09-.18-46.19-.54-69.29-.07-4.78-.37-9.57-.37-14.36,0-1.02-.17-2.13,.96-2.77,2.01,.79,3.99,1.64,6.02,2.36,1.91,.68,2.66,1.87,2.65,3.96-.09,11.58-.06,23.17-.06,34.75,0,.88,.02,1.76,.02,2.64Z"/><path class="aw" d="M158.79,317.6c12.56,4.79,24.76,10.36,36.54,16.84,4.27,2.35,8.56,4.66,12.47,7.6,1.75,0,3.2,.68,4.6,1.73,14.01,10.63,26.4,22.81,35.09,38.24,6.23,11.06,11.27,22.69,14.58,35.02,.87,3.23,1.82,6.49,3.57,9.42,.46,.78,.65,1.63,.65,2.53,.23,3.07,1.48,5.88,2.2,8.83,5.72,23.21,10.54,46.62,15.2,70.06,.82,4.12,1.78,8.21,2,12.42,.11,2.1,1.7,3.72,1.7,5.83,.22,3.64,1.19,7.15,1.78,10.73,.25,1.49,.53,2.97-.4,4.35-.86-.18-1.7-.42-2.43-.96-.48-3.56-.92-7.12-1.85-10.6-.27-4.16-1.27-8.21-1.95-12.3-1.99-11.9-3.78-23.83-6.23-35.65-3.72-17.95-8.88-35.5-15.07-52.75-5.63-15.67-12.22-30.91-20.02-45.63-3.14-5.93-6.34-11.83-10.57-17.1-5.59-6.97-12.21-12.83-19.33-18.17-8.2-6.16-16.93-11.48-26.03-16.19-7.6-3.93-15.27-7.71-23.27-10.77-1.73-.66-2.89-1.62-3.23-3.47Z"/><path class="aw" d="M133.74,197.15c.03,.71-.03,1.41-.48,2,1.39,6.44,2.75,12.87,3.78,19.38,3.94,24.78,9.04,49.31,15,73.68,.84,3.42,1.43,6.91,2.36,10.31,0,1.69,1.27,3.24,.5,5.01-1.67-2.65-2.7-5.6-3.73-8.52-3.19-8.97-5.44-18.21-7.64-27.45-5.13-21.6-9.5-43.36-13.83-65.13-.48-2.39-.32-4.33,1.55-6.08,.98-.91,1.67-2.13,2.49-3.21Z"/><path class="ab" d="M154.91,307.54c.04-1.68-.82-3.19-.91-4.84,.39-.4-.13-1.09,.45-1.44,.85,2.69,1.18,5.48,1.69,8.24,.05,.27-.15,.59-.24,.88-.33-.95-.66-1.9-.99-2.85Z"/><path class="v" d="M180.33,237.98c-2.92-2.33-4.45-5.53-5.62-8.95-1.37-3.99-2.69-7.99-3.52-12.13,1.07-1.13,2.09-.27,3.05,.15,9.3,4.09,18.66,8.01,28.34,11.12,7.53,2.42,15.15,4.59,22.77,6.72,1.39,.39,2.76,.81,4.09,1.37,.73,.31,1.56,.59,1.29,1.68,2.66,1.51,5.69,1.94,8.55,2.86,2.86,.92,5.79,1.62,8.7,2.41,1.05,1.78,2.94,2.62,4.43,3.91,3.37,2.91,6.51,5.93,7.65,10.46,.75,2.98,1,5.97,.36,9-.28,1.31-.69,1.6-2.04,1.27-1.55-.38-3.09-.83-4.6-1.34-9.02-3.03-17.89-6.46-26.8-9.8-1.12-.42-2.22-.92-3.44-.99-.11,.04-.23,.07-.34,.11-.8,.44-1.62,.54-2.46,.15-12.67-5.49-25.72-10.11-38.12-16.23-.87-.43-2.02-.54-2.26-1.78Z"/><path class="f" d="M230.72,237.95c-4.71-1.79-9.6-2.99-14.44-4.34-15.49-4.33-30.56-9.8-45.1-16.7-6.88-3.49-13.67-7.13-20.16-11.33-2.67-1.73-5.35-3.44-7.78-5.51,2.42,.63,4.59,1.85,6.81,2.92,10.14,4.92,20.22,9.95,30.37,14.84,5.91,2.85,12.11,5.01,18.31,7.14,19.43,6.68,39.18,12.32,59,17.72,8.56,2.33,17.15,4.55,25.72,6.82,.14,.44,.02,.64-.47,.51-4.59-.68-9.07-1.86-13.59-2.88-12.08-2.71-24.1-5.69-36.1-8.73-.85-.21-1.72-.32-2.59-.47Z"/><path class="e" d="M283,250.02c.16-.17,.31-.34,.47-.51,2.89,.77,5.89,1.17,8.66,2.38h0c-3.12-.27-6.18-.81-9.13-1.88Z"/><path class="e" d="M292.12,251.9c.34,.06,.75-.14,1.03,.24-.44,.27-.72-.06-1.03-.25h0Z"/><path class="h" d="M264.83,428.79c-2.46-9.36-5.77-18.42-9.44-27.36-2.97-7.24-6.08-14.41-10.21-21.1-7.63-12.38-17.53-22.72-28.73-31.87-2.78-2.27-5.59-4.52-8.65-6.41,1.09-.74,2.41-.79,3.6-1.24,5.29-1.99,8.65-5.6,9.57-11.28,.37-2.25,.13-2.65-1.98-3.31-11.29-3.51-22.38-7.68-33.94-10.33-.78-.18-1.53-.47-2.29-.71-4.56-1.4-7.97-4.21-10.48-8.27-3.75-6.06-6.05-12.67-7.78-19.52-2.19-8.69-3.62-17.53-4.77-26.41-.64-4.99-1.11-10-1.66-15-.03-.24-.16-.5-.09-.7,.19-.6,.44-.07,.67,0,1.45,.21,1.53,1.46,1.83,2.5,4.27,14.8,8.97,29.46,13.9,44.05,.79,2.34,1.54,4.7,2.76,6.87,.81,1.77,1.2,3.69,2.36,5.36,1.17,1.68,2.27,3.19,4.59,3.08,.38-.02,.72,.3,1.03,.54,6.11,3.56,12.74,5.94,19.32,8.44,17.64,6.7,36.01,10.61,54.47,14.2,13.26,2.58,26.53,5.12,39.86,7.3,.63,.1,1.25,.3,1.88,.38,2.02,.27,2.8,1.4,2.78,3.44-.07,6.96-.03,13.91-.03,20.87,0,6.56,0,13.11,0,19.67,0,.63-.14,1.28,.18,1.88,0,46.56,0,93.11-.01,139.67,0,6.55,0,13.1-.02,19.65,0,2.16-.02,2.16-2.25,1.79-1.34-.79-2.92-.87-4.35-1.4-1.26-1.17-1.32-2.73-1.15-4.24,.76-6.78,.3-13.58,.39-20.36,.07-5.35,.17-10.72-.01-16.06-.62-17.73-.06-35.48-.57-53.21-.34-11.83,.13-23.66-.44-35.46-.52-10.79,.07-21.58-.49-32.35-.51-9.67-.2-19.33-.39-29-.01-.64,0-1.28-.05-1.92-.31-4.35-1.17-5.36-5.38-6.38-5.67-1.37-11.44-2.29-17.03-4-5.56-.71-10.91-2.4-16.38-3.54-3.76-.79-4.31-.36-4.37,3.57-.35,21.12,3.22,41.62,9.52,61.73,2.43,7.78,3.95,15.8,5.43,23.81,.2,1.07,.75,2.47-1.21,2.63Z"/><path class="ay" d="M176.08,299.38c-.85-1.46-1.37-3.05-1.93-4.63-5.4-15.42-10.24-31.02-14.84-46.69-.27-.92-.44-1.86-.65-2.79-.24-3.75-1.2-7.4-1.61-11.13-.05-.46-.12-.92-.24-1.83,.92,.94,1.03,1.8,1.28,2.55,2.54,7.57,5.03,15.17,7.59,22.73,2.93,8.62,5.99,17.2,9.53,25.59,2.4,5.68,5.25,11.14,9.87,15.43,.68,.63,1.26,1.52,2.41,1.28,1.74,1.41,3.46,2.84,5.21,4.22,4.02,3.16,8.67,5.08,13.47,6.68,11.39,3.8,23.06,6.58,34.76,9.22,18.56,4.18,37.24,7.79,55.98,11.05,2.02,.35,3.24,1.23,4.15,3.07,2.63,5.27,2.69,5.24,2.69,11.15,0,11.75,0,23.5,0,35.26,0,1.11,.11,2.24-.18,3.34-.39-1-.27-2.05-.27-3.08-.05-12.07-.08-24.14-.12-36.21,0-.8,0-1.6-.01-2.4-.05-2.49-.16-2.59-2.68-3.02-22.38-3.78-44.7-7.86-66.82-12.97-14.9-3.44-29.4-8.22-43.38-14.47-2.11-.94-4.24-1.88-6.22-3.09-3.43-2.43-5.87-5.72-8.03-9.26Z"/><path class="f" d="M277.19,321.03c-6.21-1.07-12.34-2.52-18.49-3.9-14.86-3.35-29.68-6.87-44.22-11.48-4.03-1.28-7.99-2.75-11.91-4.35-5.93-2.42-10.34-6.5-13.59-11.95-3.05-5.12-5.12-10.63-6.66-16.35-1.43-5.32-2.58-10.7-3.04-16.21-.03-.6-.64-1.4,.57-1.54,6.71,13.68,16.41,25.06,27.44,35.36,5.89,5.5,13.02,9.18,20.26,12.58,13.4,6.28,27.41,10.88,41.61,14.93,2.99,.85,5.99,1.66,8.99,2.48,.01,.89-.5,.6-.97,.43Z"/><path class="aw" d="M180.33,237.98c8.59,4.58,17.78,7.79,26.79,11.4,4.43,1.77,8.98,3.23,13.29,5.32,.21,.1,.47,.08,.7,.12,.8,.33,1.64,.52,2.41,.91h0c.58,.59,1.35,.83,2.09,1.13,13.16,5.34,26.48,10.27,39.86,15.05,10.75,3.84,21.62,7.32,32.63,10.32,6.54,1.79,13.16,3.21,19.95,3.8,5,.44,10.01,.81,14.94,1.89-3.36,1.88-6.94,2.21-10.68,1.63-7.29-1.13-14.38-3.06-21.44-5.13-27.85-8.18-55.5-16.95-82.31-28.19-16.74-7.02-33.35-14.31-49.75-22.08-.29-.14-.57-.28-.86-.42-2.36-1.1-2.5-1.01-2.49,1.62,0,.72,0,1.44,0,2.16-1.92-2.34-4.18-4.36-6.27-6.55-.58-.6-1.3-1.13-1.4-2.3,2.65,.67,4.87,1.88,7.18,2.86,4.39,1.87,8.74,3.84,13.11,5.74,.72,.31,1.51,.49,2.27,.73Z"/><path class="g" d="M341.54,322.83c.6-1.02,1.45-1.5,2.18-2.11,6.31-5.28,12.58-10.6,18.53-16.3,2.87-2.75,4.71-5.96,5.72-9.77,1.99-7.5,3.2-15.14,4.3-22.81,.2-1.4,.42-2.8,.72-4.19,.76,4.11,.67,8.28,1.05,12.41,.29,3.18,.3,6.39,.62,9.56,.35,3.36-.67,6.29-2.36,9.09-1.76,2.89-3.97,5.41-6.42,7.71-7.03,6.63-15.12,11.74-23.56,16.33-.12,.07-.3,.03-.77,.07Z"/><path class="y" d="M277.19,321.03c.32-.14,.64-.29,.97-.43,2.07,.48,4.14,.95,6.21,1.43,.14,.43,.06,.64-.44,.47-2.27-.36-4.56-.65-6.73-1.47Z"/><path class="j" d="M283.92,322.5l.44-.47c1.99,.47,3.98,.94,5.97,1.41-2.21,.08-4.36-.14-6.41-.94Z"/><path class="p" d="M179.85,255.25c-.43,.42-.38,1.02-.57,1.54-.46-.93-.54-1.88-.29-2.94,.72,.33,.83,.84,.87,1.41Z"/><path class="an" d="M113.42,446.65c-.38-1.36-1.37-2.27-2.31-3.23-.87-.89-1.96-1.63-2.28-2.96,2.78,1.9,5.96,2.68,9.21,3.19,1.53,.24,2.33-.22,2.97-1.81,.68-1.7,1.29-3.45,1.72-5.23,2-8.32,3.26-16.77,4.37-25.25,.53-4.04,1.14-8.06,1.63-12.11,.62-5.15,1.15-10.31,1.73-15.46,.39-3.49,.8-6.98,1.17-10.47,.42-3.97,.81-7.94,1.21-11.9,.44-4.37,.89-8.73,1.29-13.1,.4-4.45,.63-8.92,1.16-13.35,.44-3.71,.09-7.52,1.39-11.12,.57,4.11,.09,8.24,.25,12.36-.3,9.26-.06,18.53-.29,27.79-.24,9.67-.16,19.34-.2,29.01-.05,12.14-.7,24.26-1.09,36.39-.24,7.41-.39,14.85-1.31,22.23-.07,.55-.1,1.11-.21,1.66-.82,4.15-3.51,5.56-7.41,3.95-3.24-1.34-5.84-3.54-8.25-6-1.54-1.57-3.11-3.11-4.73-4.6Z"/><path class="x" d="M113.42,446.65c1.3,.37,2.09,1.42,3.05,2.25,2.59,2.26,5.22,4.47,8.19,6.21,1.1,.65,2.24,1.25,3.5,1.54,2.34,.54,3.71-.27,4.27-2.61,.57-2.41,.68-4.9,.82-7.37,.76-13.79,1.25-27.59,1.64-41.39,.34-12.29,.59-24.58,.98-36.86,.34-10.69,.17-21.39,.82-32.08,.15-.34,.28-.34,.41,.01,.06,13.42,.04,26.85,.21,40.27,.35,28.6,.27,57.2,.4,85.81,.02,3.95-.23,4.13-3.81,2.62-.94-.4-2.02-.5-2.84-1.19-7.35-4.23-12.35-10.85-17.62-17.21Z"/><path class="o" d="M137.08,336.36c-.14,0-.27,0-.41-.01,0-4.16-.02-8.33-.03-12.49,.05-.87,.09-1.73,.14-2.6,.31,5.03,.52,10.06,.29,15.1Z"/><path class="i" d="M271.56,339.6c6.32,1.36,12.65,2.72,18.97,4.1,4.27,.93,4.3,.95,4.7,5.26,.14,1.51,.14,3.03,.16,4.55,.23,17.9,.32,35.8,.73,53.69,.27,11.82,.13,23.65,.46,35.47,.43,15.34,.15,30.68,.5,46.02,.32,13.82,.14,27.65,.26,41.47,.04,4.48-.4,8.94-.38,13.41-2.73-.8-5.46-1.59-8.19-2.39-.62-3.18-1.24-6.36-1.85-9.53-.34-1.78-.68-3.57-1.02-5.36,.37-3.13-.35-6.19-.54-9.29-.08-1.28,.05-2.55,.08-3.82,.31-12.54,.47-25.08-.08-37.62-.03-.79-.17-1.59-.16-2.39,.12-16.06-.89-32.08-1.86-48.1-1.01-16.6-2.86-33.1-5.33-49.54-1.65-11-4.3-21.79-7.35-32.48-.34-1.2-1.45-2.84,.89-3.45Z"/><path class="k" d="M316.09,56.68c2.35,.23,4.48,1.09,6.44,2.34,3.26,2.08,4.86,5.12,5.11,8.96,.23,3.62-.38,7.14-1.03,10.66-.14,.75-.6,1.52-.01,2.29-1.94,3.23-3.72,6.57-6.2,9.44q.98-3.24-1.6-5.86c-1.52-1.54-3.03-3.07-4.38-4.76-1.2-1.5-1.22-1.51-.24-3.13,1.57-2.6,3.14-5.2,4.74-7.78,1.26-2.04,1.2-4.02,.08-6.12-1.05-1.97-2.26-3.87-2.9-6.04Z"/><path class="f" d="M154.45,301.27c-.15,.48-.3,.96-.45,1.44-.45-1.61-.89-3.23-1.34-4.84-7.66-27.42-13.1-55.31-17.51-83.41-.69-4.42-1.38-8.84-2.06-13.25-.11-.69-.43-1.41,.17-2.04,2.09,4.11,2.96,8.59,3.86,13.05,5.74,28.24,11.13,56.55,16.61,84.84,.27,1.4,.14,2.87,.72,4.22Z"/><path class="n" d="M271.56,339.6c-.54,.75-.29,1.52-.05,2.29,3.46,11.24,6,22.7,7.88,34.3,1.15,7.09,1.97,14.22,2.69,21.37,.53,5.24,1.17,10.46,1.76,15.69,.27,2.38,.3,4.78,.45,7.16,.22,3.42,.44,6.85,.7,10.26,.36,4.69,.16,9.41,.82,14.08,.04,.32,.06,.64,.06,.96,.03,8.3,.34,16.6,.62,24.89,.43,12.94,.31,25.87,.31,38.8,0,5.02-.59,10.04-.44,15.07,.02,.65-.12,1.27-.46,1.83-.71-5.63-2.03-11.14-3.12-16.69-3.69-18.95-7.62-37.85-11.93-56.67-1.48-6.45-2.79-12.95-4.85-19.26-.52-1.59-.79-3.25-1.17-4.88,.55-.76,.19-1.54,.04-2.31-2.05-11.01-4.79-21.84-8-32.58-3.14-10.51-4.86-21.33-6.1-32.23-.95-8.37-.8-16.75-.78-25.14,0-1.79,.25-1.99,1.98-1.59,6.53,1.53,13.06,3.1,19.58,4.65Z"/><path class="n" d="M223.51,255.73c-.91-.02-1.72-.31-2.41-.91,.93-.03,1.74,.26,2.41,.91Z"/><path class="ai" d="M176.08,299.38c2.68,3.08,5.35,6.17,8.03,9.25-2.4-.76-4.18-2.27-5.4-4.46-.89-1.59-2.29-2.9-2.63-4.79Z"/></g></g></g></g></svg>