<svg width="325" height="140" viewBox="0 0 325 140" fill="none" xmlns="http://www.w3.org/2000/svg">
<path d="M0.0128845 28.9795C-0.272568 37.2332 4.16621 43.7211 15.2091 43.7211C26.3662 43.7211 29.8895 36.9477 29.8895 30.2314C29.8895 25.338 27.8954 21.6944 20.0414 18.1649C12.4729 14.7416 11.3392 14.2379 11.3392 12.2948C11.3392 10.3028 13.16 8.99378 15.0379 8.99378C18.3389 8.99378 18.6814 11.6689 18.9118 13.09H29.5551C29.3839 2.95851 21.1955 0 15.3824 0C8.32361 0 0.640876 4.48568 0.640876 12.9779C0.640876 20.889 7.98107 23.8495 10.9416 25.0443C17.4295 27.7908 19.2014 28.4677 19.2014 30.6881C19.1979 31.2231 19.0888 31.7521 18.8804 32.2447C18.6719 32.7374 18.3681 33.184 17.9866 33.5589C17.605 33.9338 17.1531 34.2297 16.6569 34.4295C16.1607 34.6293 15.6299 34.7291 15.0949 34.7232C13.7289 34.7232 10.7133 33.8689 10.7133 28.9734L0.0128845 28.9795Z" fill="white"/>
<path d="M34.4365 7.97623H43.885V0.803223H34.4365V7.97623ZM34.4365 42.9237H43.885V11.3344H34.4365V42.9237Z" fill="white"/>
<path d="M81.3363 30.4027C82.0764 24.5958 80.8816 19.531 76.8975 15.2615C73.937 12.1317 69.7816 10.2559 64.9432 10.2559C55.3255 10.2559 48.3809 18.3974 48.3809 27.2199C48.3809 36.6112 56.0636 43.9535 65.1145 43.9535C68.3377 43.9692 71.4841 42.9706 74.1082 41.099C76.7833 39.2782 79.0017 36.546 80.5391 33.0166H70.8643C69.7245 34.6681 68.1321 35.9771 65.1145 35.9771C61.4158 35.9771 58.2269 33.7567 57.8293 30.3986L81.3363 30.4027ZM57.9415 23.2297C58.1678 21.7514 60.1027 18.222 64.9982 18.222C69.8938 18.222 71.8287 21.7514 72.0571 23.2297H57.9415Z" fill="white"/>
<path d="M85.9482 42.9235H95.3967V25.7352C95.3967 22.4892 96.1368 19.1311 100.804 19.1311C105.016 19.1311 105.757 22.2058 105.757 25.6781V42.9235H115.205V23.1743C115.205 18.9047 114.124 10.2515 103.479 10.2515C97.8434 10.2515 95.8514 13.1549 94.7708 14.6923V11.3341H85.9482V42.9235Z" fill="white"/>
<path d="M119.817 42.9235H129.266V25.7352C129.266 22.4892 130.006 19.1311 134.673 19.1311C138.886 19.1311 139.626 22.2058 139.626 25.6781V42.9235H149.082V23.1743C149.082 18.9047 148 10.2515 137.356 10.2515C131.721 10.2515 129.729 13.1549 128.648 14.6923V11.3341H119.817V42.9235Z" fill="white"/>
<path d="M188.348 11.3345H178.9V14.6926C177.648 12.7576 174.744 10.2559 169.565 10.2559C161.141 10.2559 153.684 16.7458 153.684 27.1057C153.684 36.1545 159.548 44.0106 169.565 44.0106C173.264 44.0106 177.193 42.5833 178.9 39.5127V42.9279H188.348V11.3345ZM163.133 27.2158C163.133 23.6293 165.524 19.0763 170.932 19.0763C174.916 19.0763 177.079 21.2947 178.102 23.458C178.731 24.7482 179.006 26.1821 178.9 27.6134C178.804 29.048 178.355 30.4365 177.591 31.6546C176.396 33.5895 174.347 35.184 170.989 35.184C165.296 35.184 163.133 30.1743 163.133 27.2708V27.2158Z" fill="white"/>
<path d="M5.65603 72.1235C5.65603 68.3555 3.77069 64.5855 0 60.8135H22.6323V82.6383L34.8945 60.8216H61.0806C55.3852 63.4573 51.0864 67.1118 48.1843 71.785L36.8743 92.0888L49.3118 129.018C52.2153 133.693 56.5134 137.35 62.2061 139.99H34.8843L22.6221 105.209V128.68C22.6221 132.45 24.5074 136.22 28.2781 139.99H5.64583L5.65603 72.1235Z" fill="white"/>
<path d="M84.8325 72.1235C84.8325 68.3555 82.9471 64.5855 79.1765 60.8135H101.809V128.68C101.809 132.45 103.694 136.22 107.465 139.99H84.8325L73.5225 100.402V128.68C73.5225 132.45 75.4071 136.22 79.1765 139.99H56.5564V72.1235C56.5564 68.3555 54.6711 64.5855 50.9004 60.8135H73.5327L84.8427 100.402L84.8325 72.1235Z" fill="white"/>
<path d="M124.42 139.99H101.798C105.569 136.219 107.454 132.449 107.454 128.68V60.8218H130.076C126.304 64.5925 124.419 68.3625 124.42 72.1318V139.99Z" fill="white"/>
<path d="M169.662 60.8216V83.4538C165.893 79.6723 162.125 77.7808 158.358 77.7795H152.696C148.926 77.7795 147.04 79.6648 147.04 83.4355V117.368C147.04 121.14 148.926 123.025 152.696 123.024C156.467 123.022 158.354 121.137 158.358 117.368V106.058C158.358 102.287 156.473 98.5162 152.702 94.7455H175.318V117.378C175.318 132.466 167.778 140.007 152.696 140C137.615 139.993 130.071 132.452 130.064 117.378V83.4355C130.064 68.3555 137.608 60.8114 152.696 60.8032L169.662 60.8216Z" fill="white"/>
<path d="M180.975 60.8218H203.607C199.835 64.5925 197.95 68.3625 197.951 72.1318V91.9279H209.261V60.8218H231.893C228.124 64.5925 226.239 68.3625 226.239 72.1318V139.99H203.597C207.365 136.219 209.25 132.449 209.251 128.68V108.886H197.941V139.99H175.309C179.079 136.219 180.965 132.449 180.965 128.68L180.975 60.8218Z" fill="white"/>
<path d="M277.117 60.8218V83.4541C273.348 79.6834 269.578 77.798 265.807 77.798H262.979V128.68C262.979 132.451 264.864 136.221 268.635 139.99H240.357C244.126 136.219 246.012 132.449 246.013 128.68V77.7797H243.179C239.409 77.7797 235.639 79.665 231.867 83.4357V60.8218H277.117Z" fill="white"/>
<path d="M324.058 83.4355V89.0915H301.425L307.079 83.4355C307.079 79.6648 305.195 77.7795 301.425 77.7795C297.656 77.7795 295.775 79.6648 295.783 83.4355C295.783 87.2048 300.405 91.2576 309.648 95.5937C318.891 99.9299 323.699 107.188 324.07 117.368C324.07 132.456 316.526 139.996 301.437 139.99C286.349 139.983 278.805 132.442 278.805 117.368V111.714H301.437L295.783 117.368C295.783 121.14 297.669 123.025 301.439 123.024C305.21 123.022 307.095 121.137 307.093 117.368C307.093 113.597 302.381 109.544 292.955 105.209C283.53 100.875 278.817 93.6166 278.817 83.4355C278.817 68.3555 286.362 60.8114 301.45 60.8032C316.538 60.7951 324.074 68.3392 324.058 83.4355Z" fill="white"/>
</svg>
