<svg width="325" height="140" viewBox="0 0 325 140" fill="none" xmlns="http://www.w3.org/2000/svg">
<path d="M68.0129 28.9795C67.7274 37.2332 72.1662 43.7211 83.2091 43.7211C94.3662 43.7211 97.8895 36.9477 97.8895 30.2314C97.8895 25.338 95.8954 21.6944 88.0414 18.1649C80.4729 14.7416 79.3392 14.2379 79.3392 12.2948C79.3392 10.3028 81.16 8.99378 83.0379 8.99378C86.3389 8.99378 86.6814 11.6689 86.9118 13.09H97.5551C97.3839 2.95851 89.1955 0 83.3824 0C76.3236 0 68.6409 4.48568 68.6409 12.9779C68.6409 20.889 75.9811 23.8495 78.9416 25.0443C85.4295 27.7908 87.2014 28.4677 87.2014 30.6881C87.1979 31.2231 87.0888 31.7521 86.8804 32.2447C86.6719 32.7374 86.3681 33.184 85.9866 33.5589C85.605 33.9338 85.1531 34.2297 84.6569 34.4295C84.1607 34.6293 83.6299 34.7291 83.0949 34.7232C81.7289 34.7232 78.7133 33.8689 78.7133 28.9734L68.0129 28.9795Z" fill="white"/>
<path d="M102.437 7.97623H111.885V0.803223H102.437V7.97623ZM102.437 42.9237H111.885V11.3344H102.437V42.9237Z" fill="white"/>
<path d="M149.336 30.4027C150.076 24.5958 148.882 19.531 144.898 15.2615C141.937 12.1317 137.782 10.2559 132.943 10.2559C123.326 10.2559 116.381 18.3974 116.381 27.2199C116.381 36.6112 124.064 43.9535 133.114 43.9535C136.338 43.9692 139.484 42.9706 142.108 41.099C144.783 39.2782 147.002 36.546 148.539 33.0166H138.864C137.725 34.6681 136.132 35.9771 133.114 35.9771C129.416 35.9771 126.227 33.7567 125.829 30.3986L149.336 30.4027ZM125.941 23.2297C126.168 21.7514 128.103 18.222 132.998 18.222C137.894 18.222 139.829 21.7514 140.057 23.2297H125.941Z" fill="white"/>
<path d="M153.948 42.9235H163.397V25.7352C163.397 22.4892 164.137 19.1311 168.804 19.1311C173.016 19.1311 173.757 22.2058 173.757 25.6781V42.9235H183.205V23.1743C183.205 18.9047 182.124 10.2515 171.479 10.2515C165.843 10.2515 163.851 13.1549 162.771 14.6923V11.3341H153.948V42.9235Z" fill="white"/>
<path d="M187.817 42.9235H197.266V25.7352C197.266 22.4892 198.006 19.1311 202.673 19.1311C206.886 19.1311 207.626 22.2058 207.626 25.6781V42.9235H217.082V23.1743C217.082 18.9047 216 10.2515 205.356 10.2515C199.721 10.2515 197.729 13.1549 196.648 14.6923V11.3341H187.817V42.9235Z" fill="white"/>
<path d="M256.348 11.3345H246.9V14.6926C245.648 12.7576 242.744 10.2559 237.565 10.2559C229.141 10.2559 221.684 16.7458 221.684 27.1057C221.684 36.1545 227.548 44.0106 237.565 44.0106C241.264 44.0106 245.193 42.5833 246.9 39.5127V42.9279H256.348V11.3345ZM231.133 27.2158C231.133 23.6293 233.524 19.0763 238.932 19.0763C242.916 19.0763 245.079 21.2947 246.102 23.458C246.731 24.7482 247.006 26.1821 246.9 27.6134C246.804 29.048 246.355 30.4365 245.591 31.6546C244.396 33.5895 242.347 35.184 238.989 35.184C233.296 35.184 231.133 30.1743 231.133 27.2708V27.2158Z" fill="white"/>
<path d="M5.65603 72.1235C5.65603 68.3555 3.77069 64.5855 0 60.8135H22.6323V82.6383L34.8945 60.8216H61.0806C55.3852 63.4573 51.0864 67.1118 48.1843 71.785L36.8743 92.0888L49.3118 129.018C52.2153 133.693 56.5134 137.35 62.2061 139.99H34.8843L22.6221 105.209V128.68C22.6221 132.45 24.5074 136.22 28.2781 139.99H5.64583L5.65603 72.1235Z" fill="white"/>
<path d="M84.8325 72.1235C84.8325 68.3555 82.9471 64.5855 79.1765 60.8135H101.809V128.68C101.809 132.45 103.694 136.22 107.465 139.99H84.8325L73.5225 100.402V128.68C73.5225 132.45 75.4071 136.22 79.1765 139.99H56.5564V72.1235C56.5564 68.3555 54.6711 64.5855 50.9004 60.8135H73.5327L84.8427 100.402L84.8325 72.1235Z" fill="white"/>
<path d="M124.42 139.99H101.798C105.569 136.219 107.454 132.449 107.454 128.68V60.8218H130.076C126.304 64.5925 124.419 68.3625 124.42 72.1318V139.99Z" fill="white"/>
<path d="M169.662 60.8216V83.4538C165.893 79.6723 162.125 77.7808 158.358 77.7795H152.696C148.926 77.7795 147.04 79.6648 147.04 83.4355V117.368C147.04 121.14 148.926 123.025 152.696 123.024C156.467 123.022 158.354 121.137 158.358 117.368V106.058C158.358 102.287 156.473 98.5162 152.702 94.7455H175.318V117.378C175.318 132.466 167.778 140.007 152.696 140C137.615 139.993 130.071 132.452 130.064 117.378V83.4355C130.064 68.3555 137.608 60.8114 152.696 60.8032L169.662 60.8216Z" fill="white"/>
<path d="M180.975 60.8218H203.607C199.835 64.5925 197.95 68.3625 197.951 72.1318V91.9279H209.261V60.8218H231.893C228.124 64.5925 226.239 68.3625 226.239 72.1318V139.99H203.597C207.365 136.219 209.25 132.449 209.251 128.68V108.886H197.941V139.99H175.309C179.079 136.219 180.965 132.449 180.965 128.68L180.975 60.8218Z" fill="white"/>
<path d="M277.117 60.8218V83.4541C273.348 79.6834 269.578 77.798 265.807 77.798H262.979V128.68C262.979 132.451 264.864 136.221 268.635 139.99H240.357C244.126 136.219 246.012 132.449 246.013 128.68V77.7797H243.179C239.409 77.7797 235.639 79.665 231.867 83.4357V60.8218H277.117Z" fill="white"/>
<path d="M324.058 83.4355V89.0915H301.425L307.079 83.4355C307.079 79.6648 305.195 77.7795 301.425 77.7795C297.656 77.7795 295.775 79.6648 295.783 83.4355C295.783 87.2048 300.405 91.2576 309.648 95.5937C318.891 99.9299 323.699 107.188 324.07 117.368C324.07 132.456 316.526 139.996 301.437 139.99C286.349 139.983 278.805 132.442 278.805 117.368V111.714H301.437L295.783 117.368C295.783 121.14 297.669 123.025 301.439 123.024C305.21 123.022 307.095 121.137 307.093 117.368C307.093 113.597 302.381 109.544 292.955 105.209C283.53 100.875 278.817 93.6166 278.817 83.4355C278.817 68.3555 286.362 60.8114 301.45 60.8032C316.538 60.7951 324.074 68.3392 324.058 83.4355Z" fill="white"/>
</svg>
