<svg width="561" height="280" viewBox="0 0 561 280" fill="none" xmlns="http://www.w3.org/2000/svg">
<path d="M26.2541 75.0201C38.4941 75.0201 51.9581 67.7781 51.9581 52.6821C51.9581 42.6861 46.1441 36.7701 33.0881 31.5681L28.1921 29.6301C20.6441 26.5701 18.8081 24.1221 18.8081 20.9601C18.8081 16.8801 22.1741 14.8401 26.5601 14.8401C31.0481 14.8401 34.7201 17.1861 37.8821 22.6941L49.8161 15.9621C46.3481 8.31206 38.6981 0.560059 25.9481 0.560059C13.4021 0.560059 2.89614 8.21006 2.89614 20.7561C2.89614 32.4861 11.7701 37.7901 21.4601 41.6661L25.9481 43.4001C32.8841 46.1541 35.2301 48.1941 35.2301 52.4781C35.2301 58.0881 30.8441 60.4341 26.0501 60.4341C19.2161 60.4341 15.3401 55.7421 13.3001 50.8461L0.244141 56.8641C2.99814 67.4721 13.5041 75.0201 26.2541 75.0201Z" fill="#28282E"/>
<path d="M58.9738 15.3501H74.7838V1.58006H58.9738V15.3501ZM58.9738 74.0001H74.7838V20.9601H58.9738V74.0001Z" fill="#28282E"/>
<path d="M108.854 19.9401C95.1862 19.9401 81.8242 29.6301 81.8242 47.5821C81.8242 65.0241 95.0842 75.0201 109.772 75.0201C119.462 75.0201 127.01 71.0421 131.396 65.5341L124.256 58.0881C120.38 61.0461 116.198 62.1681 111.506 62.1681C104.468 62.1681 99.1642 59.3121 97.0222 53.6001H134.762C138.128 29.3241 122.318 19.9401 108.854 19.9401ZM109.058 33.2001C114.362 33.2001 119.768 36.1581 120.89 42.2781H96.7162C98.4502 35.9541 103.754 33.2001 109.058 33.2001Z" fill="#28282E"/>
<path d="M173.865 19.9401C166.317 19.9401 161.115 23.2041 158.157 27.6921V20.9601H142.347V74.0001H158.157V45.5421C158.157 38.9121 161.523 34.0161 167.949 34.0161C174.477 34.0161 177.843 38.9121 177.843 45.5421V74.0001H193.653V42.7881C193.653 26.5701 184.575 19.9401 173.865 19.9401Z" fill="#28282E"/>
<path d="M234.726 19.9401C227.178 19.9401 221.976 23.2041 219.018 27.6921V20.9601H203.208V74.0001H219.018V45.5421C219.018 38.9121 222.384 34.0161 228.81 34.0161C235.338 34.0161 238.704 38.9121 238.704 45.5421V74.0001H254.514V42.7881C254.514 26.5701 245.436 19.9401 234.726 19.9401Z" fill="#28282E"/>
<path d="M286.816 75.0201C296.2 75.0201 301.708 69.9201 302.524 67.9821H302.83V74.0001H318.64V20.9601H302.83V26.9781H302.524C301.708 25.0401 296.2 19.9401 286.816 19.9401C274.78 19.9401 261.52 29.0181 261.52 47.4801C261.52 65.9421 274.78 75.0201 286.816 75.0201ZM290.08 60.9441C283.348 60.9441 277.126 56.0481 277.126 47.4801C277.126 38.9121 283.348 34.0161 290.08 34.0161C297.016 34.0161 303.238 38.8101 303.238 47.4801C303.238 56.1501 297.016 60.9441 290.08 60.9441Z" fill="#28282E"/>
<path d="M35.7401 136.016C44.1041 133.364 47.2661 126.938 47.2661 120.41C47.2661 111.638 41.5541 103.58 27.9881 103.58H4.73214V176H26.9681C43.6961 176 51.2441 167.33 51.2441 155.702C51.2441 145.808 45.7361 138.158 35.7401 136.016ZM27.3761 107.966C37.7801 107.966 42.6761 113.168 42.6761 120.716C42.6761 128.672 37.0661 134.384 26.9681 134.384H9.52614V107.966H27.3761ZM26.7641 171.614H9.52614V138.464H26.7641C39.8201 138.464 46.5521 145.196 46.5521 155.6C46.5521 165.698 39.9221 171.614 26.7641 171.614Z" fill="#28282E"/>
<path d="M62.7048 108.476H67.3968V103.58H62.7048V108.476ZM62.7048 176H67.3968V122.96H62.7048V176Z" fill="#28282E"/>
<path d="M104.194 121.94C93.9941 121.94 87.9761 127.448 85.4261 132.65V122.96H80.7341V176H85.4261V145.196C85.4261 132.242 93.6881 126.326 103.276 126.326C112.864 126.326 120.718 132.242 120.718 145.196V176H125.41V144.788C125.41 128.978 115.618 121.94 104.194 121.94Z" fill="#28282E"/>
<path d="M162.674 177.02C172.772 177.02 181.34 171.512 184.808 163.76H185.114V176H189.806V122.96H185.114V135.2H184.808C181.34 127.448 172.772 121.94 162.674 121.94C149.21 121.94 136.256 131.528 136.256 149.48C136.256 167.432 149.21 177.02 162.674 177.02ZM163.082 172.634C152.168 172.634 141.05 165.086 141.05 149.48C141.05 133.874 152.168 126.326 163.082 126.326C173.996 126.326 185.216 133.976 185.216 149.48C185.216 164.984 173.996 172.634 163.082 172.634Z" fill="#28282E"/>
<path d="M226.614 121.94C216.414 121.94 210.396 127.448 207.846 132.65V122.96H203.154V176H207.846V145.196C207.846 132.242 216.108 126.326 225.696 126.326C235.284 126.326 243.138 132.242 243.138 145.196V176H247.83V144.788C247.83 128.978 238.038 121.94 226.614 121.94Z" fill="#28282E"/>
<path d="M285.706 177.02C294.886 177.02 303.76 172.532 308.248 163.964L304.474 161.924C300.7 168.86 293.458 172.634 285.91 172.634C274.792 172.634 263.47 164.474 263.47 149.582C263.47 134.486 274.792 126.326 285.91 126.326C293.458 126.326 300.7 130.1 304.474 137.036L308.248 134.996C303.76 126.428 294.886 121.94 285.706 121.94C272.14 121.94 258.676 131.834 258.676 149.582C258.676 167.126 272.14 177.02 285.706 177.02Z" fill="#28282E"/>
<path d="M341.663 121.94C328.403 121.94 315.653 131.63 315.653 149.378C315.653 167.228 328.403 177.02 342.377 177.02C350.435 177.02 358.187 173.756 363.083 167.738L360.329 164.984C356.453 169.88 350.027 172.634 342.887 172.634C331.259 172.634 320.957 165.086 320.141 151.112H366.857C368.387 131.834 355.127 121.94 341.663 121.94ZM341.663 126.326C352.475 126.326 362.267 133.874 362.675 147.134H320.243C321.161 133.466 331.157 126.326 341.663 126.326Z" fill="#28282E"/>
<path d="M25.5401 279.02C37.5761 279.02 47.4701 271.982 47.4701 259.538C47.4701 247.808 39.0041 242.912 27.8861 238.424L22.9901 236.486C13.8101 232.916 10.1381 228.122 10.1381 221.9C10.1381 214.046 16.5641 209.15 24.9281 209.15C33.7001 209.15 38.9021 214.148 41.6561 221.288L45.5321 219.452C42.9821 211.598 36.3521 204.56 24.8261 204.56C13.6061 204.56 5.24214 211.496 5.24214 221.9C5.24214 230.06 10.3421 236.384 21.4601 240.77L26.3561 242.708C35.7401 246.38 42.5741 250.256 42.5741 259.538C42.5741 269.228 34.8221 274.328 25.6421 274.328C15.9521 274.328 8.30214 268.718 6.26214 259.742L2.18214 261.578C4.42614 271.982 13.5041 279.02 25.5401 279.02Z" fill="#28282E"/>
<path d="M116.054 223.94C105.14 223.94 99.53 230.672 97.592 236.384C94.736 227.816 88.106 223.94 79.946 223.94C70.664 223.94 65.462 228.938 63.014 234.038V224.96H58.322V278H63.014V247.094C63.014 235.874 68.624 228.326 79.028 228.326C89.534 228.326 94.328 235.874 94.328 247.094V278H99.02V247.094C99.02 235.874 104.834 228.326 115.136 228.326C125.642 228.326 130.436 235.874 130.436 247.094V278H135.128V246.482C135.128 230.876 126.968 223.94 116.054 223.94Z" fill="#28282E"/>
<path d="M172.436 279.02C182.534 279.02 191.102 273.512 194.57 265.76H194.876V278H199.568V224.96H194.876V237.2H194.57C191.102 229.448 182.534 223.94 172.436 223.94C158.972 223.94 146.018 233.528 146.018 251.48C146.018 269.432 158.972 279.02 172.436 279.02ZM172.844 274.634C161.93 274.634 150.812 267.086 150.812 251.48C150.812 235.874 161.93 228.326 172.844 228.326C183.758 228.326 194.978 235.976 194.978 251.48C194.978 266.984 183.758 274.634 172.844 274.634Z" fill="#28282E"/>
<path d="M234.948 223.94C225.258 223.94 219.75 230.06 217.608 236.996V224.96H212.916V278H217.608V248.828C217.608 235.976 225.462 228.326 235.05 228.326C236.172 228.326 236.886 228.428 237.6 228.53V224.246C236.988 224.042 236.172 223.94 234.948 223.94Z" fill="#28282E"/>
<path d="M267.349 229.04V224.96H257.149V211.394H252.457V224.96H245.827V229.04H252.457V270.146C252.457 275.96 256.027 278.612 261.535 278.612C263.371 278.612 265.309 278.306 267.145 277.184V273.206C265.105 274.124 263.575 274.328 262.351 274.328C258.883 274.328 257.149 272.594 257.149 269.024V229.04H267.349Z" fill="#28282E"/>
<path d="M336.765 279.02C345.027 279.02 356.043 276.47 364.203 265.964L360.633 263.108C353.595 272.288 343.803 274.328 336.867 274.328C319.323 274.328 305.043 261.17 305.043 241.79C305.043 222.308 319.323 209.252 336.867 209.252C343.803 209.252 353.595 211.292 360.633 220.472L364.203 217.616C356.043 207.11 344.925 204.56 336.663 204.56C316.467 204.56 300.249 219.86 300.249 241.79C300.249 263.72 316.569 279.02 336.765 279.02Z" fill="#28282E"/>
<path d="M398.938 223.94C388.738 223.94 382.72 229.448 380.17 234.65V205.58H375.478V278H380.17V247.196C380.17 234.242 388.432 228.326 398.02 228.326C407.608 228.326 415.462 234.242 415.462 247.196V278H420.154V246.788C420.154 230.978 410.362 223.94 398.938 223.94Z" fill="#28282E"/>
<path d="M457.419 279.02C467.517 279.02 476.085 273.512 479.553 265.76H479.859V278H484.551V224.96H479.859V237.2H479.553C476.085 229.448 467.517 223.94 457.419 223.94C443.955 223.94 431.001 233.528 431.001 251.48C431.001 269.432 443.955 279.02 457.419 279.02ZM457.827 274.634C446.913 274.634 435.795 267.086 435.795 251.48C435.795 235.874 446.913 228.326 457.827 228.326C468.741 228.326 479.961 235.976 479.961 251.48C479.961 266.984 468.741 274.634 457.827 274.634Z" fill="#28282E"/>
<path d="M497.898 210.476H502.59V205.58H497.898V210.476ZM497.898 278H502.59V224.96H497.898V278Z" fill="#28282E"/>
<path d="M539.387 223.94C529.187 223.94 523.169 229.448 520.619 234.65V224.96H515.927V278H520.619V247.196C520.619 234.242 528.881 228.326 538.469 228.326C548.057 228.326 555.911 234.242 555.911 247.196V278H560.603V246.788C560.603 230.978 550.811 223.94 539.387 223.94Z" fill="#28282E"/>
</svg>
