<svg width="702" height="120" viewBox="0 0 702 120" fill="none" xmlns="http://www.w3.org/2000/svg">
<path d="M0 27.8789L27.2725 43.6364V70.3028L0 54.5454V27.8789Z" fill="black"/>
<path d="M47.8784 0L74.5448 15.1514L27.2725 43.636L0 27.8786L47.8784 0Z" fill="#28282E"/>
<path d="M74.5476 92.1213L47.2751 76.3639L47.2751 49.6974L74.5476 65.4549L74.5476 92.1213Z" fill="black"/>
<path d="M26.6682 120L0.00178395 104.849L47.2741 76.364L74.5466 92.1214L26.6682 120Z" fill="#28282E"/>
<path d="M142.63 88C154.63 88 167.83 80.9 167.83 66.1C167.83 56.3 162.13 50.5 149.33 45.4L144.53 43.5C137.13 40.5 135.33 38.1 135.33 35C135.33 31 138.63 29 142.93 29C147.33 29 150.93 31.3 154.03 36.7L165.73 30.1C162.33 22.6 154.83 15 142.33 15C130.03 15 119.73 22.5 119.73 34.8C119.73 46.3 128.43 51.5 137.93 55.3L142.33 57C149.13 59.7 151.43 61.7 151.43 65.9C151.43 71.4 147.13 73.7 142.43 73.7C135.73 73.7 131.93 69.1 129.93 64.3L117.13 70.2C119.83 80.6 130.13 88 142.63 88Z" fill="#28282E"/>
<path d="M174.708 29.5H190.208V16H174.708V29.5ZM174.708 87H190.208V35H174.708V87Z" fill="#28282E"/>
<path d="M223.61 34C210.21 34 197.11 43.5 197.11 61.1C197.11 78.2 210.11 88 224.51 88C234.01 88 241.41 84.1 245.71 78.7L238.71 71.4C234.91 74.3 230.81 75.4 226.21 75.4C219.31 75.4 214.11 72.6 212.01 67H249.01C252.31 43.2 236.81 34 223.61 34ZM223.81 47C229.01 47 234.31 49.9 235.41 55.9H211.71C213.41 49.7 218.61 47 223.81 47Z" fill="#28282E"/>
<path d="M287.346 34C279.946 34 274.846 37.2 271.946 41.6V35H256.446V87H271.946V59.1C271.946 52.6 275.246 47.8 281.546 47.8C287.946 47.8 291.246 52.6 291.246 59.1V87H306.746V56.4C306.746 40.5 297.846 34 287.346 34Z" fill="#28282E"/>
<path d="M347.014 34C339.614 34 334.514 37.2 331.614 41.6V35H316.114V87H331.614V59.1C331.614 52.6 334.914 47.8 341.214 47.8C347.614 47.8 350.914 52.6 350.914 59.1V87H366.414V56.4C366.414 40.5 357.514 34 347.014 34Z" fill="#28282E"/>
<path d="M398.082 88C407.282 88 412.682 83 413.482 81.1H413.782V87H429.282V35H413.782V40.9H413.482C412.682 39 407.282 34 398.082 34C386.282 34 373.282 42.9 373.282 61C373.282 79.1 386.282 88 398.082 88ZM401.282 74.2C394.682 74.2 388.582 69.4 388.582 61C388.582 52.6 394.682 47.8 401.282 47.8C408.082 47.8 414.182 52.5 414.182 61C414.182 69.5 408.082 74.2 401.282 74.2Z" fill="#28282E"/>
<path d="M457.973 87H470.473L485.473 42.6L500.573 87H513.073L535.273 16H518.673L505.773 59.9L491.773 16H479.273L465.173 59.9L452.273 16H435.673L457.973 87Z" fill="#28282E"/>
<path d="M573.3 34C563.9 34 558.9 40.7 557.2 49.1V35H541.7V87H557.2V65.6C557.2 55.8 563.1 48.9 573.4 48.9C574.7 48.9 575.8 49 577 49.2V34.5C575.7 34.1 574.5 34 573.3 34Z" fill="#28282E"/>
<path d="M604.723 88C613.923 88 619.323 83 620.123 81.1H620.423V87H635.923V35H620.423V40.9H620.123C619.323 39 613.923 34 604.723 34C592.923 34 579.923 42.9 579.923 61C579.923 79.1 592.923 88 604.723 88ZM607.923 74.2C601.323 74.2 595.223 69.4 595.223 61C595.223 52.6 601.323 47.8 607.923 47.8C614.723 47.8 620.823 52.5 620.823 61C620.823 69.5 614.723 74.2 607.923 74.2Z" fill="#28282E"/>
<path d="M676.513 34C667.313 34 661.913 39 661.113 40.9H660.813V35H645.313V106H660.813V81.1H661.113C661.913 83 667.313 88 676.513 88C688.313 88 701.313 79.1 701.313 61C701.313 42.9 688.313 34 676.513 34ZM673.313 74.2C666.513 74.2 660.413 69.5 660.413 61C660.413 52.5 666.513 47.8 673.313 47.8C679.913 47.8 686.113 52.6 686.113 61C686.113 69.4 679.913 74.2 673.313 74.2Z" fill="#28282E"/>
</svg>
