<svg width="32" height="32" viewBox="0 0 32 32" fill="none" xmlns="http://www.w3.org/2000/svg">
<path fill-rule="evenodd" clip-rule="evenodd" d="M11 2C9.93913 2 8.92172 2.42143 8.17157 3.17157C7.42143 3.92172 7 4.93913 7 6V26.5831L10.2929 23.2902C10.6834 22.8997 11.3166 22.8997 11.7071 23.2902C12.0976 23.6807 12.0976 24.3139 11.7071 24.7044L6.71066 29.7009C6.69857 29.7131 6.68616 29.725 6.67346 29.7366C6.59123 29.8116 6.49951 29.8704 6.4024 29.9131C6.27928 29.9673 6.14315 29.9973 6 29.9973C5.85685 29.9973 5.72072 29.9673 5.5976 29.9131C5.50049 29.8704 5.40877 29.8116 5.32654 29.7366C5.31382 29.725 5.3014 29.7131 5.28929 29.7008L0.292893 24.7044C-0.0976311 24.3139 -0.0976311 23.6807 0.292893 23.2902C0.683417 22.8997 1.31658 22.8997 1.70711 23.2902L5 26.5831V6C5 4.4087 5.63214 2.88258 6.75736 1.75736C7.88258 0.632141 9.4087 0 11 0C12.5913 0 14.1174 0.632141 15.2426 1.75736C16.3679 2.88258 17 4.4087 17 6V26C17 27.0609 17.4214 28.0783 18.1716 28.8284C18.9217 29.5786 19.9391 30 21 30C22.0609 30 23.0783 29.5786 23.8284 28.8284C24.5786 28.0783 25 27.0609 25 26V5.41156L21.7071 8.70445C21.3166 9.09498 20.6834 9.09498 20.2929 8.70445C19.9024 8.31393 19.9024 7.68076 20.2929 7.29024L25.2901 2.29299C25.4713 2.1104 25.7225 1.99733 26 1.99733C26.2776 1.99733 26.5288 2.11044 26.7099 2.29308L31.7071 7.29024C32.0976 7.68076 32.0976 8.31393 31.7071 8.70445C31.3166 9.09498 30.6834 9.09498 30.2929 8.70445L27 5.41156V26C27 27.5913 26.3679 29.1174 25.2426 30.2426C24.1174 31.3679 22.5913 32 21 32C19.4087 32 17.8826 31.3679 16.7574 30.2426C15.6321 29.1174 15 27.5913 15 26V6C15 4.93913 14.5786 3.92172 13.8284 3.17157C13.0783 2.42143 12.0609 2 11 2Z" fill="#28282E"/>
</svg>
