<svg width="31" height="24" viewBox="0 0 31 24" fill="none" xmlns="http://www.w3.org/2000/svg">
<g clip-path="url(#clip0)">
<path d="M30.0119 4.90127L27.192 3.69274L28.6691 0.469985L25.2315 1.61138C24.1365 0.590743 22.6998 0.0160391 21.203 0C19.6015 0.00354713 18.0666 0.641322 16.9341 1.77377C15.8017 2.90622 15.1639 4.44114 15.1604 6.04266V7.38547C10.4068 8.36573 6.25751 5.7741 2.40364 1.34281C1.73223 4.92365 2.40364 7.60928 4.41786 9.3997L0 8.72829C0.17068 10.1506 0.83569 11.4677 1.87884 12.4495C2.92198 13.4313 4.27694 14.0153 5.70696 14.0995L2.01422 15.4424C3.35703 18.128 5.80095 18.5443 9.06399 18.7994C6.39692 20.6185 3.22755 21.5575 0 21.485C17.1343 29.0988 27.192 17.9131 27.192 8.05688V6.94235L30.0119 4.90127Z" fill="#28282E"/>
</g>
<defs>
<clipPath id="clip0">
<rect width="31" height="24" fill="white"/>
</clipPath>
</defs>
</svg>
