<svg width="272" height="60" viewBox="0 0 272 60" fill="none" xmlns="http://www.w3.org/2000/svg">
<path fill-rule="evenodd" clip-rule="evenodd" d="M1.05116 1.33015C7.82737 9.63737 15.2675 20.0738 16.4709 21.7618C16.5351 21.8518 16.5815 21.9169 16.6091 21.9555C17.2506 22.8511 17.7802 23.5169 18.1824 24.0225L18.1824 24.0226C19.0753 25.1449 19.3401 25.478 18.8074 25.7839C18.3777 26.0306 17.9344 26.1119 17.4921 26.1119C16.9918 26.1119 16.4281 25.8686 16.0177 25.4753C15.7276 25.1974 13.7426 22.2854 11.0396 18.0491C8.97145 14.8077 7.24065 12.1187 7.19343 12.0737C7.08427 11.9696 7.08614 11.9731 10.8287 18.7371C13.1788 22.9844 14.7863 26.1231 14.7863 26.3239C14.7863 26.7323 14.6759 26.947 14.1771 27.509C13.3455 28.4462 12.9738 29.4991 12.7054 31.6781C12.4046 34.1207 11.5586 35.8464 9.2143 38.7994C7.84201 40.5282 7.61747 40.845 7.2712 41.5419C6.83506 42.4193 6.71511 42.9107 6.6665 44.0187C6.61513 45.1902 6.71519 45.947 7.06952 47.0669C7.37974 48.0474 7.70352 48.6951 8.53128 49.9902C9.24564 51.1075 9.65697 51.938 9.65697 52.263C9.65697 52.5215 9.70582 52.5218 10.8128 52.2695C13.4619 51.665 15.6129 50.6025 16.8227 49.3001C17.5714 48.4939 17.7472 48.0488 17.7529 46.9442C17.7566 46.2217 17.7314 46.0705 17.5381 45.6548C17.2233 44.978 16.6503 44.4157 15.3874 43.5437C13.7326 42.4009 13.0258 41.4811 12.8305 40.216C12.6704 39.1781 12.8562 38.4456 13.7716 36.5077C14.7192 34.5016 14.954 33.6468 15.1128 31.6247C15.2154 30.3183 15.3575 29.8032 15.7291 29.3898C16.1166 28.9586 16.4655 28.8125 17.4246 28.6799C18.9882 28.4643 19.9839 28.0557 20.8023 27.2939C21.5122 26.6331 21.8093 25.9963 21.8549 25.0378L21.8895 24.3113L21.4928 23.844C20.056 22.1519 0.088966 0 0.00054687 0C-0.018342 0 0.454453 0.59861 1.05116 1.33015ZM10.4635 45.3443C10.7884 44.763 10.6158 44.0161 10.0724 43.651C9.55894 43.3063 8.76138 43.4688 8.76138 43.9181C8.76138 44.0551 8.83644 44.1549 9.00565 44.243C9.29052 44.3911 9.3112 44.5575 9.08706 44.8978C8.86006 45.2425 8.87837 45.5455 9.13874 45.7512C9.55837 46.0832 10.1524 45.9007 10.4635 45.3443ZM20.2412 13.6556C19.6002 13.5551 19.5732 13.5433 19.8748 13.4965C20.4529 13.4067 21.8179 13.5291 22.7585 13.755C24.9544 14.2822 26.9525 15.6329 29.0854 18.0316L29.652 18.6688L30.4627 18.5372C33.8777 17.9828 37.3517 18.4234 40.2575 19.7792C41.0569 20.1523 42.3172 20.8948 42.4746 21.0856C42.5246 21.1464 42.617 21.5379 42.6792 21.9555C42.8951 23.4006 42.7872 24.5083 42.3494 25.3356C42.1115 25.7858 42.0982 25.9285 42.2582 26.3138C42.3859 26.6212 42.7422 26.8488 43.0952 26.8483C43.8172 26.8473 44.5943 25.6683 44.9545 24.0277L45.0975 23.3761L45.381 23.7003C46.9352 25.4791 48.1562 27.905 48.3659 29.6317L48.4204 30.0818L48.1593 29.6726C47.7094 28.9684 47.2579 28.4889 46.6791 28.1022C45.6364 27.4052 44.5335 27.168 41.6133 27.0126C38.9757 26.8722 37.4831 26.6446 36.003 26.1571C33.4843 25.3278 32.215 24.2232 29.2233 20.2588C27.8946 18.4979 27.0734 17.5236 26.2564 16.739C24.4001 14.9563 22.5761 14.0214 20.2412 13.6556ZM43.0695 17.5872C43.1359 16.4072 43.2944 15.6289 43.6129 14.9182C43.7389 14.6368 43.857 14.4066 43.8751 14.4066C43.8935 14.4066 43.8386 14.6142 43.7533 14.868C43.5219 15.5578 43.4837 16.5013 43.6434 17.5989C43.8457 18.9917 43.961 19.1927 45.4183 20.6972C46.1018 21.4029 46.897 22.2929 47.1852 22.675L47.7094 23.3698L47.1852 22.8732C46.5443 22.266 45.0704 21.0818 44.7449 20.9125C44.5264 20.799 44.4939 20.801 44.3594 20.9363C44.2354 21.0611 44.2091 21.2485 44.1919 22.1347C44.165 23.5159 43.9788 24.4024 43.5289 25.2888C43.2856 25.7682 43.2472 25.6659 43.4673 25.1248C43.6318 24.7207 43.6485 24.5431 43.6473 23.2061C43.6448 20.5196 43.3289 19.8738 41.4771 18.7674C41.0083 18.4872 40.2352 18.083 39.7596 17.8691C39.2843 17.6553 38.9065 17.4691 38.92 17.4552C38.9726 17.4025 40.7786 17.9349 41.5054 18.2173C42.5865 18.6374 42.7648 18.6918 42.8962 18.6411C42.9841 18.6072 43.0268 18.3483 43.0695 17.5872ZM19.5542 15.5247C19.3799 17.5988 20.1851 20.3733 21.4863 22.1829C22.4951 23.5856 24.0588 24.6757 25.2132 24.781C25.9691 24.8499 26.1963 24.6109 25.8543 24.1065C25.3796 23.4061 24.7956 22.3277 24.6411 21.8661C24.5451 21.5792 24.3365 20.732 24.1775 19.9834C23.6347 17.4275 23.1012 16.4321 21.8688 15.6761C21.4197 15.4005 20.4606 15.04 19.9043 14.9375L19.6081 14.8829L19.5542 15.5247ZM41.4912 35.6506C35.4098 33.1775 33.2679 31.0307 33.2679 27.4085C33.2679 26.8755 33.2862 26.4393 33.3083 26.4393C33.3306 26.4393 33.5657 26.6153 33.8311 26.8303C35.0642 27.8293 36.4452 28.2561 40.2682 28.8192C42.5176 29.151 43.7835 29.4186 44.9514 29.81C48.6631 31.0533 50.9597 33.5765 51.5073 37.0135C51.6664 38.0121 51.5731 39.8848 51.3152 40.8719C51.1114 41.6515 50.4897 43.0565 50.325 43.1105C50.2792 43.1254 50.2343 42.9485 50.2227 42.7078C50.1602 41.4172 49.5145 40.1609 48.4303 39.2196C47.1974 38.1495 45.5409 37.2978 41.4912 35.6506ZM36.9281 35.3785C37.0135 35.6354 37.1457 36.22 37.2217 36.6781C37.7089 39.6062 36.1872 41.9719 33.2272 42.8886C32.9138 42.9856 31.6795 43.2297 30.4842 43.4306C28.0646 43.8375 26.9846 44.1258 25.8997 44.6536C25.1304 45.028 24.1989 45.5887 24.2542 45.6444C24.272 45.6624 24.4477 45.6201 24.6444 45.5503C26.0125 45.0651 27.5351 44.8139 29.8484 44.6923C30.7665 44.6443 31.8106 44.5674 32.1689 44.5219C34.2298 44.2597 35.6582 43.6273 36.769 42.4854C37.3871 41.8499 37.7555 41.2579 38.0525 40.4231C38.2407 39.8936 38.2662 39.6969 38.2676 38.7587C38.2693 37.8028 38.2464 37.6278 38.0424 37.0398C37.7753 36.2689 37.4602 35.6905 37.0612 35.2381L36.773 34.9114L36.9281 35.3785ZM40.0097 41.6789C39.2015 39.9244 39.0161 38.2306 39.4586 36.651C39.5061 36.482 39.5821 36.3438 39.6282 36.3438C39.674 36.3438 39.8644 36.4481 40.0518 36.5752C40.4239 36.8284 41.1708 37.2548 43.1602 38.3504C45.6429 39.7175 47.0584 40.7761 48.0208 41.9858C48.8638 43.0449 49.3854 44.2512 49.6363 45.7223C49.7788 46.5557 49.6954 48.5609 49.4837 49.3998C48.8163 52.0456 47.2649 54.1237 45.0523 55.3366C44.7282 55.514 44.4371 55.6599 44.4055 55.6607C44.3741 55.6613 44.4922 55.3581 44.668 54.9865C45.4123 53.4148 45.4971 51.886 44.9345 50.1846C44.5897 49.1427 43.8872 47.8714 42.4687 45.7226C40.8196 43.2246 40.4152 42.5597 40.0097 41.6789ZM24.79 47.4334C22.2323 47.853 19.4244 49.2201 17.1676 51.1448L16.4958 51.7179L17.0862 51.8111C20.1675 52.2969 20.9972 52.7278 23.1345 54.9517C24.3644 56.2312 24.7798 56.5161 25.8 56.7792C27.2984 57.1654 28.7754 56.4556 29.2821 55.1054C29.5084 54.5021 29.4782 53.5032 29.2185 53.0016C28.6008 51.8072 26.8011 51.4211 25.9308 52.296C25.206 53.0248 25.4172 54.1226 26.3187 54.3114C26.5251 54.3549 26.5192 54.3456 26.2661 54.23C25.8716 54.0497 25.7002 53.7999 25.698 53.4023C25.6929 52.4701 26.7491 51.9467 27.7316 52.3944C28.451 52.7224 28.7367 53.1508 28.7367 53.9019C28.7367 55.0585 27.7622 55.93 26.628 55.7876C26.0218 55.7113 25.2804 55.3196 24.8828 54.8658C23.8825 53.7233 24.2722 51.9205 25.6688 51.2287C26.7321 50.7023 28.1454 50.832 29.2414 51.5568C30.5006 52.3898 31.0361 53.1511 32.1206 55.6497C32.4738 56.4632 32.9282 57.3791 33.1303 57.6848C34.1577 59.2382 35.3886 60 36.8713 60C37.6891 60 38.3043 59.8491 39.0783 59.4589C39.6533 59.1687 40.4686 58.6173 40.4098 58.5583C40.3931 58.5416 40.1546 58.6165 39.8797 58.7247C38.2608 59.3625 36.615 59.3187 35.6594 58.612C35.0575 58.1672 34.572 57.281 34.3225 56.1727C34.2792 55.9809 34.1368 55.1337 34.0057 54.2899C33.6734 52.1513 33.3543 51.19 32.6103 50.0868C31.849 48.9582 30.3856 48.011 28.7494 47.5879C27.7286 47.324 25.8923 47.2522 24.79 47.4334ZM21.2078 30.8987C21.4287 30.0747 22.1422 29.2889 22.8763 29.0611C23.3431 28.9164 24.3079 29.0089 24.7615 29.2417C25.6407 29.6933 26.2789 30.7216 26.1404 31.4639C25.9715 32.369 24.5183 33.0933 22.8466 33.1051C21.9928 33.1111 21.6774 32.9952 21.3514 32.5555C21.1495 32.2831 21.0731 31.4015 21.2078 30.8987ZM24.5371 29.5644C24.9755 29.8348 25.0883 30.2347 24.8305 30.6046C24.6529 30.8595 24.1032 31.1016 23.7015 31.1016C23.0979 31.1016 22.4395 30.6687 22.4395 30.2723C22.4395 29.4757 23.7021 29.0493 24.5371 29.5644ZM155.569 31.8454C154.206 27.3093 156.455 23.5467 161.254 22.3376C162.63 21.9907 168.861 22.1472 169.929 22.5557C170.321 22.7053 170.492 23.2798 170.496 24.4605C170.498 25.3903 170.6 26.5196 170.721 26.97C170.904 27.6526 170.797 27.7869 170.077 27.776C169.425 27.7658 169.031 27.384 168.481 26.2288C167.602 24.3837 166.538 23.7968 164.059 23.7899C160.894 23.7808 158.579 25.9117 158.956 28.4864C159.201 30.1618 160.875 31.8104 164.632 34.0766C168.206 36.2325 170.292 38.0054 171.124 39.5937C173.346 43.8404 171.448 48.3848 166.496 50.6746C163.954 51.8498 159.693 51.9713 156.698 50.954L154.78 50.3024V47.2375C154.78 44.4618 154.846 44.1721 155.479 44.1721C156.008 44.1721 156.237 44.5219 156.422 45.6178C156.885 48.3427 158.955 49.9969 161.905 49.9969C164.794 49.9969 166.813 48.4184 167.587 45.5562C167.917 44.3369 167.86 43.8873 167.206 42.5422C166.423 40.9295 165.074 39.8594 160.493 37.2167C157.951 35.7501 156.154 33.7893 155.569 31.8454ZM65.7711 24.1485C65.146 24.1485 64.9022 23.9442 64.9022 23.4203C64.9022 22.7268 65.146 22.6922 70.044 22.6922C74.5902 22.6922 75.172 22.7607 75.0677 23.2824C75.0024 23.6071 74.3743 24.0575 73.6709 24.2836L72.392 24.6946L72.2829 33.9783C72.2097 40.173 72.3126 43.7465 72.5915 44.7181C73.4208 47.6074 75.9508 49.269 79.5203 49.269C82.0053 49.269 83.457 48.688 85.2807 46.9626C87.2424 45.1077 87.5552 43.3453 87.549 34.1852C87.5431 25.1497 87.3857 24.404 85.4452 24.2165C84.5621 24.131 84.2663 23.9253 84.2663 23.3974C84.2663 22.7392 84.5576 22.6922 88.6505 22.6922C92.7912 22.6922 93.0347 22.7326 93.0347 23.4203C93.0347 23.8689 92.7892 24.1506 92.3953 24.1539C90.7032 24.1688 90.6721 24.3298 90.4443 34.2374C90.2081 44.5262 89.9874 45.7444 87.9022 48.2647C87.3009 48.9918 85.8668 50.0475 84.7156 50.611C82.8395 51.5291 82.2427 51.6345 78.9685 51.6286C75.9502 51.6223 74.9974 51.4765 73.4881 50.7896C71.2851 49.7867 69.8524 48.4888 68.7961 46.5384C68.0589 45.177 67.9959 44.4403 67.8252 35.216C67.6296 24.6575 67.535 24.1485 65.7711 24.1485ZM99.9594 24.1485C99.1241 24.1485 98.8805 23.9839 98.8805 23.4203C98.8805 22.7377 99.1139 22.6941 102.625 22.7221L106.37 22.7519L108.162 24.8154C109.147 25.9502 112.358 29.5003 115.297 32.7039C118.237 35.9078 121.611 39.6347 122.796 40.9863C123.981 42.3382 125.097 43.4439 125.275 43.4439C125.458 43.4439 125.549 39.6257 125.484 34.6743L125.369 25.9047L124.344 25.0266C123.78 24.5435 122.917 24.1485 122.426 24.1485C121.772 24.1485 121.533 23.9504 121.533 23.4101C121.533 22.6991 121.719 22.6755 126.556 22.773C130.669 22.856 131.58 22.9707 131.58 23.4054C131.58 23.7152 131.071 24.0404 130.359 24.1856C129.687 24.3225 128.947 24.624 128.714 24.8555C128.414 25.1544 128.261 29.019 128.187 38.1828L128.082 51.0891H127.023C126.112 51.0891 125.027 50.0633 119.225 43.7169C115.519 39.6618 111.192 34.8427 109.611 33.0076C108.029 31.1723 106.612 29.6568 106.462 29.6401C106.037 29.5927 106.14 45.9897 106.574 47.5461C106.912 48.759 107.145 48.9678 108.581 49.351C109.739 49.6593 110.207 49.9721 110.207 50.4366C110.207 51.0332 109.765 51.0891 105.092 51.0891C100.334 51.0891 99.9766 51.0416 99.9766 50.4067C99.9766 49.9418 100.321 49.6556 101.056 49.5089C103.287 49.0644 103.435 48.3588 103.56 37.5727C103.63 31.5317 103.528 27.3049 103.288 26.4199C102.868 24.8635 101.82 24.1485 99.9594 24.1485ZM138.269 24.1485C137.487 24.1485 137.243 23.9756 137.243 23.4203C137.243 22.7246 137.487 22.6922 142.723 22.6922C147.96 22.6922 148.204 22.7246 148.204 23.4203C148.204 23.9544 147.96 24.1485 147.29 24.1485C146.788 24.1485 146.041 24.4827 145.631 24.8912C144.908 25.6124 144.889 25.971 144.992 37.1172C145.093 47.998 145.135 48.6276 145.807 49.1167C146.197 49.4007 146.896 49.633 147.36 49.633C147.96 49.633 148.204 49.8429 148.204 50.3612C148.204 51.0569 147.96 51.0891 142.723 51.0891C137.611 51.0891 137.243 51.0433 137.243 50.4078C137.243 49.8952 137.602 49.6689 138.69 49.4954C140.852 49.1509 140.963 48.4456 140.828 35.8597C140.72 25.7806 140.674 25.1522 140.005 24.6647C139.614 24.3807 138.834 24.1485 138.269 24.1485ZM176.498 24.1485C175.998 24.1485 175.618 23.8714 175.499 23.4203C175.315 22.7163 175.489 22.6922 180.755 22.6922C185.957 22.6922 186.201 22.7246 186.201 23.4203C186.201 23.9799 185.957 24.1485 185.149 24.1485C182.849 24.1485 182.901 24.5649 186.382 34.086C188.154 38.9325 189.874 43.5363 190.205 44.3165L190.806 45.7353L193.596 38.3094C196.881 29.5684 197.308 27.9519 196.75 26.3576C196.361 25.2465 194.85 24.1485 193.709 24.1485C193.386 24.1485 193.142 23.8354 193.142 23.4203C193.142 22.7235 193.386 22.6922 198.806 22.6922C204.225 22.6922 204.469 22.7235 204.469 23.4203C204.469 23.9384 204.225 24.1485 203.625 24.1485C202.089 24.1485 201.412 24.9647 201.632 26.5506C201.86 28.1831 208.143 45.7283 208.407 45.4658C208.836 45.0388 215.795 26.1512 215.795 25.4151C215.795 24.5329 215.175 24.1485 213.755 24.1485C213.116 24.1485 212.872 23.9479 212.872 23.4203C212.872 22.7326 213.116 22.6922 217.256 22.6922C220.975 22.6922 221.64 22.7782 221.64 23.2573C221.64 23.5682 221.185 23.9806 220.628 24.174C219.376 24.609 219.061 25.1056 217.49 29.1281C216.8 30.8945 214.641 36.4229 212.691 41.4127C210.742 46.4031 209.063 50.7037 208.961 50.9696C208.858 51.2358 208.254 51.4534 207.618 51.4534H206.462L203.837 44.6271C202.394 40.873 200.688 36.4252 200.048 34.7433C198.95 31.8612 198.858 31.736 198.445 32.5586C198.203 33.0393 196.47 37.495 194.591 42.4605L191.175 51.489L189.901 51.3802L188.626 51.2714L183.764 38.5575C181.048 31.4543 178.55 25.4693 178.104 24.996C177.664 24.5297 176.942 24.1485 176.498 24.1485ZM249.551 24.3029C249.49 24.1646 249.491 23.6676 249.491 23.6676C249.491 23.6676 249.477 23.4883 249.552 23.3927C249.627 23.2974 249.653 23.2948 249.922 23.2693L249.925 23.269C250.911 23.1752 252.89 23.0173 254.542 22.9452C254.693 22.9386 254.861 22.931 255.044 22.9227L255.048 22.9225L255.05 22.9224L255.052 22.9224C256.869 22.8399 260.122 22.7296 262.358 22.8413C266.648 23.0556 269.699 25.1291 270.738 28.5556C271.778 31.9819 271.228 35.1982 269.811 37.2455C268.394 39.2928 266.011 41.0555 262.049 40.9408C258.779 40.8461 257.904 40.2338 257.205 39.7446C257.057 39.6412 256.917 39.5432 256.765 39.457V43.8265C256.799 46.8066 256.824 48.2379 257.055 48.7677C257.366 49.4809 258.068 49.9204 259.438 50.2572C259.438 50.2572 260.057 50.4024 260.217 50.5573C260.377 50.7121 260.377 51.056 260.377 51.056C260.377 51.056 260.41 51.3776 260.281 51.5415C260.153 51.7054 259.905 51.6726 259.905 51.6726L253.841 51.6238L250.184 51.6141C250.184 51.6141 249.801 51.6876 249.657 51.5333C249.513 51.3788 249.526 51.0569 249.526 51.0569C249.526 51.0569 249.558 50.7102 249.726 50.555C249.894 50.3996 250.518 50.2261 250.518 50.2261C251.928 49.8302 252.539 49.4114 252.859 48.6225C253.116 47.9864 253.118 46.8069 253.116 37.1814C253.113 28.0531 253.1 26.3504 252.89 25.8607C252.581 25.1358 251.805 24.9437 250.701 24.6703L250.7 24.6701C250.481 24.6159 250.249 24.5585 250.006 24.4931C250.006 24.4931 249.613 24.4412 249.551 24.3029ZM267.209 31.7513C267.209 33.2481 267.182 35.5916 265.589 37.0895C263.996 38.5875 260.858 38.9975 258.728 38.5804C258.057 38.449 257.673 38.2464 257.377 38.0901L257.348 38.0746L256.802 37.7875L256.771 32.5284C256.751 29.2332 256.785 27.0863 256.863 26.7794C256.934 25.0419 259.497 24.8258 260.749 24.8901C266.107 24.8901 267.052 29.4042 267.209 31.7513ZM232.728 22.8961C232.728 22.8961 232.466 22.9966 232.07 23.1469L230.639 23.8858L229.609 26.4575C229.043 27.8719 228.006 30.4684 227.306 32.2274C226.031 35.4313 225.189 37.5363 224.303 39.7333C224.042 40.3796 223.255 42.3475 222.554 44.1066C221.853 45.8653 221.152 47.5393 220.997 47.8264C220.971 47.8742 220.943 47.9256 220.914 47.9799C220.523 48.7169 219.841 49.9969 218.638 50.1905C218.638 50.1905 217.977 50.2555 217.732 50.4974C217.487 50.7396 217.511 50.9374 217.511 50.9374V51.2423C217.511 51.2423 217.533 51.3901 217.672 51.4635C217.811 51.5373 217.999 51.5415 217.999 51.5415L222.399 51.4915H226.946C226.946 51.4915 227.268 51.5291 227.392 51.4262C227.516 51.3234 227.55 51.1708 227.55 51.1708V50.8498C227.55 50.8498 227.487 50.5016 227.307 50.3657C227.127 50.2301 226.452 50.1371 226.452 50.1371C224.631 49.8978 224.318 48.5207 224.543 47.2825C224.653 46.6741 225.385 44.4236 226.209 42.1579L226.494 41.3748L231.259 41.3384C233.88 41.3183 236.143 41.3319 236.287 41.3686C236.494 41.4209 236.784 42.009 237.634 44.1034C238.922 47.2768 239.025 47.6634 238.74 48.2571C238.723 48.2933 238.704 48.3331 238.684 48.3761C238.417 48.9503 237.897 50.0659 236.587 50.1795C236.587 50.1795 235.893 50.2035 235.72 50.4112C235.547 50.6192 235.585 50.8582 235.585 50.8582V51.1759C235.585 51.1759 235.631 51.3621 235.72 51.4358C235.809 51.5096 235.96 51.4909 235.96 51.4909L240.286 51.4599L246.366 51.4596C246.366 51.4596 246.604 51.485 246.669 51.3935C246.734 51.3016 246.748 51.1937 246.748 51.1937V50.7718C246.748 50.7718 246.721 50.5474 246.604 50.4236C246.487 50.3001 245.699 50.1696 245.699 50.1696C244.692 50.0071 244.19 49.1758 243.816 48.5566C243.721 48.3987 243.634 48.2545 243.549 48.139C243.376 47.903 242.758 46.6099 242.274 45.3663C241.79 44.1227 240.697 41.3132 239.846 39.1235C238.995 36.9338 237.807 33.8791 237.207 32.3357C236.606 30.7919 235.465 27.8548 234.671 25.8086C234.541 25.4728 234.424 25.1711 234.319 24.9011L234.319 24.8998C233.786 23.5257 233.572 22.9712 233.512 22.8961C233.321 22.6524 232.728 22.8961 232.728 22.8961ZM232.445 31.2579C232.253 30.7914 231.915 29.9544 231.694 29.398C231.293 28.3866 231.141 28.1537 231.016 28.3626C230.98 28.4236 230.728 29.1148 230.455 29.8987C228.692 34.9738 227.893 37.2591 227.733 37.6897C227.633 37.9604 227.55 38.2393 227.55 38.3097C227.55 38.3905 228.985 38.4377 231.442 38.4377C233.582 38.4377 235.333 38.4111 235.333 38.3787C235.333 38.3462 235.143 37.8618 234.909 37.3017C234.676 36.7417 234.104 35.3437 233.64 34.195C233.175 33.0464 232.637 31.7247 232.445 31.2579Z" fill="#202024"/>
</svg>
