<svg width="442" height="177" viewBox="0 0 442 177" fill="none" xmlns="http://www.w3.org/2000/svg">
<path d="M23.1941 73.0001H27.2741L47.8781 9.25008L68.5841 73.0001H72.5621L94.1861 0.580078H89.0861L70.3181 64.0241L49.9181 0.580078H45.8381L25.5401 64.0241L6.67014 0.580078H1.67214L23.1941 73.0001Z" fill="white"/>
<path d="M126.573 18.9401C116.883 18.9401 111.375 25.0601 109.233 31.9961V19.9601H104.541V73.0001H109.233V43.8281C109.233 30.9761 117.087 23.3261 126.675 23.3261C127.797 23.3261 128.511 23.4281 129.225 23.5301V19.2461C128.613 19.0421 127.797 18.9401 126.573 18.9401Z" fill="white"/>
<path d="M162.376 74.0201C172.474 74.0201 181.042 68.5121 184.51 60.7601H184.816V73.0001H189.508V19.9601H184.816V32.2001H184.51C181.042 24.4481 172.474 18.9401 162.376 18.9401C148.912 18.9401 135.958 28.5281 135.958 46.4801C135.958 64.4321 148.912 74.0201 162.376 74.0201ZM162.784 69.6341C151.87 69.6341 140.752 62.0861 140.752 46.4801C140.752 30.8741 151.87 23.3261 162.784 23.3261C173.698 23.3261 184.918 30.9761 184.918 46.4801C184.918 61.9841 173.698 69.6341 162.784 69.6341Z" fill="white"/>
<path d="M229.885 18.9401C219.787 18.9401 211.219 24.4481 207.853 32.2001H207.547V19.9601H202.855V92.3801H207.547V60.7601H207.853C211.219 68.5121 219.787 74.0201 229.885 74.0201C243.349 74.0201 256.405 64.4321 256.405 46.4801C256.405 28.5281 243.349 18.9401 229.885 18.9401ZM229.477 69.6341C218.563 69.6341 207.343 61.9841 207.343 46.4801C207.343 30.9761 218.563 23.3261 229.477 23.3261C240.391 23.3261 251.509 30.8741 251.509 46.4801C251.509 62.0861 240.391 69.6341 229.477 69.6341Z" fill="white"/>
<path d="M293.237 18.9401C283.139 18.9401 274.571 24.4481 271.205 32.2001H270.899V19.9601H266.207V92.3801H270.899V60.7601H271.205C274.571 68.5121 283.139 74.0201 293.237 74.0201C306.701 74.0201 319.757 64.4321 319.757 46.4801C319.757 28.5281 306.701 18.9401 293.237 18.9401ZM292.829 69.6341C281.915 69.6341 270.695 61.9841 270.695 46.4801C270.695 30.9761 281.915 23.3261 292.829 23.3261C303.743 23.3261 314.861 30.8741 314.861 46.4801C314.861 62.0861 303.743 69.6341 292.829 69.6341Z" fill="white"/>
<path d="M354.014 18.9401C340.754 18.9401 328.004 28.6301 328.004 46.3781C328.004 64.2281 340.754 74.0201 354.728 74.0201C362.786 74.0201 370.538 70.7561 375.434 64.7381L372.68 61.9841C368.804 66.8801 362.378 69.6341 355.238 69.6341C343.61 69.6341 333.308 62.0861 332.492 48.1121H379.208C380.738 28.8341 367.478 18.9401 354.014 18.9401ZM354.014 23.3261C364.826 23.3261 374.618 30.8741 375.026 44.1341H332.594C333.512 30.4661 343.508 23.3261 354.014 23.3261Z" fill="white"/>
<path d="M436.429 0.580078V32.2001H436.123C432.655 24.4481 424.087 18.9401 413.989 18.9401C400.525 18.9401 387.571 28.5281 387.571 46.4801C387.571 64.4321 400.525 74.0201 413.989 74.0201C424.087 74.0201 432.655 68.5121 436.123 60.7601H436.429V73.0001H441.121V0.580078H436.429ZM414.397 69.6341C403.483 69.6341 392.365 62.0861 392.365 46.4801C392.365 30.8741 403.483 23.3261 414.397 23.3261C425.311 23.3261 436.531 30.9761 436.531 46.4801C436.531 61.9841 425.311 69.6341 414.397 69.6341Z" fill="white"/>
<path d="M26.2541 176.02C38.4941 176.02 51.9581 168.778 51.9581 153.682C51.9581 143.686 46.1441 137.77 33.0881 132.568L28.1921 130.63C20.6441 127.57 18.8081 125.122 18.8081 121.96C18.8081 117.88 22.1741 115.84 26.5601 115.84C31.0481 115.84 34.7201 118.186 37.8821 123.694L49.8161 116.962C46.3481 109.312 38.6981 101.56 25.9481 101.56C13.4021 101.56 2.89614 109.21 2.89614 121.756C2.89614 133.486 11.7701 138.79 21.4601 142.666L25.9481 144.4C32.8841 147.154 35.2301 149.194 35.2301 153.478C35.2301 159.088 30.8441 161.434 26.0501 161.434C19.2161 161.434 15.3401 156.742 13.3001 151.846L0.244141 157.864C2.99814 168.472 13.5041 176.02 26.2541 176.02Z" fill="white"/>
<path d="M58.9738 116.35H74.7838V102.58H58.9738V116.35ZM58.9738 175H74.7838V121.96H58.9738V175Z" fill="white"/>
<path d="M108.854 120.94C95.1862 120.94 81.8242 130.63 81.8242 148.582C81.8242 166.024 95.0842 176.02 109.772 176.02C119.462 176.02 127.01 172.042 131.396 166.534L124.256 159.088C120.38 162.046 116.198 163.168 111.506 163.168C104.468 163.168 99.1642 160.312 97.0222 154.6H134.762C138.128 130.324 122.318 120.94 108.854 120.94ZM109.058 134.2C114.362 134.2 119.768 137.158 120.89 143.278H96.7162C98.4502 136.954 103.754 134.2 109.058 134.2Z" fill="white"/>
<path d="M173.865 120.94C166.317 120.94 161.115 124.204 158.157 128.692V121.96H142.347V175H158.157V146.542C158.157 139.912 161.523 135.016 167.949 135.016C174.477 135.016 177.843 139.912 177.843 146.542V175H193.653V143.788C193.653 127.57 184.575 120.94 173.865 120.94Z" fill="white"/>
<path d="M234.726 120.94C227.178 120.94 221.976 124.204 219.018 128.692V121.96H203.208V175H219.018V146.542C219.018 139.912 222.384 135.016 228.81 135.016C235.338 135.016 238.704 139.912 238.704 146.542V175H254.514V143.788C254.514 127.57 245.436 120.94 234.726 120.94Z" fill="white"/>
<path d="M286.816 176.02C296.2 176.02 301.708 170.92 302.524 168.982H302.83V175H318.64V121.96H302.83V127.978H302.524C301.708 126.04 296.2 120.94 286.816 120.94C274.78 120.94 261.52 130.018 261.52 148.48C261.52 166.942 274.78 176.02 286.816 176.02ZM290.08 161.944C283.348 161.944 277.126 157.048 277.126 148.48C277.126 139.912 283.348 135.016 290.08 135.016C297.016 135.016 303.238 139.81 303.238 148.48C303.238 157.15 297.016 161.944 290.08 161.944Z" fill="white"/>
</svg>
