<svg width="225" height="50" viewBox="0 0 225 50" fill="none" xmlns="http://www.w3.org/2000/svg">
<path d="M0 49.9076L22.1231 8.64614L41.6615 0L19.5076 41.2615L0 49.9076Z" fill="url(#paint0_linear)"/>
<path d="M22.0615 40.4922L38.8614 9.13847L48.4612 18.5846L31.846 50L22.0615 40.4922Z" fill="url(#paint1_linear)"/>
<path d="M50.3076 19.5078L62.7384 24.0615L56.523 35.5078L41.446 36.0308L50.3076 19.5078Z" fill="url(#paint2_linear)"/>
<path d="M78.0611 41.2307H69.7842V17.8769H78.1226C80.4611 17.8769 82.492 18.3384 84.1842 19.2615C85.8764 20.1845 87.1996 21.5383 88.0919 23.2615C89.0149 25.0153 89.4456 27.0767 89.4456 29.5077C89.4456 31.9384 88.9841 34.0306 88.0611 35.7845C87.1381 37.5383 85.8457 38.8615 84.1227 39.8152C82.4612 40.7692 80.4303 41.2307 78.0611 41.2307ZM74.7074 36.9845H77.8458C80.0303 36.9845 81.692 36.3998 82.8305 35.1998C83.9687 34.0306 84.5227 32.1229 84.5227 29.5077C84.5227 26.923 83.9687 25.046 82.8305 23.846C81.692 22.6768 80.0303 22.0923 77.8458 22.0923H74.7074V36.9845Z" fill="#2B2D42"/>
<path d="M93.1381 41.2306H87.8458L95.9074 17.9075H102.276L110.307 41.2306H105.015L103.292 35.9075H94.8611L93.1381 41.2306ZM96.1226 32.0613H102.061L99.1996 23.2307H99.015L96.1226 32.0613Z" fill="#2B2D42"/>
<path d="M130.554 29.569C130.554 32.1227 130.061 34.2767 129.107 36.0612C128.154 37.8459 126.831 39.1998 125.2 40.1536C123.538 41.0766 121.692 41.569 119.631 41.569C117.569 41.569 115.692 41.1073 114.061 40.1536C112.4 39.1998 111.108 37.8459 110.154 36.0612C109.2 34.2767 108.708 32.1227 108.708 29.5998C108.708 27.0458 109.2 24.8921 110.154 23.1074C111.108 21.3229 112.4 19.969 114.061 19.0152C115.723 18.0921 117.569 17.5998 119.631 17.5998C121.692 17.5998 123.538 18.0613 125.2 19.0152C126.861 19.9382 128.154 21.3229 129.107 23.1074C130.092 24.8306 130.554 27.0151 130.554 29.569ZM125.569 29.569C125.569 27.1075 125.015 25.1998 123.938 23.9074C122.861 22.6152 121.415 21.9382 119.631 21.9382C117.846 21.9382 116.4 22.5844 115.323 23.9074C114.246 25.2306 113.692 27.1075 113.692 29.569C113.692 32.0305 114.246 33.9382 115.323 35.2304C116.4 36.5229 117.846 37.1996 119.631 37.1996C121.415 37.1996 122.861 36.5536 123.938 35.2304C125.015 33.9074 125.569 32.0305 125.569 29.569Z" fill="#2B2D42"/>
<path d="M137.169 17.8769H143.261L149.692 33.5691H149.969L156.399 17.8769H162.461V41.2307H157.661V26.0307H157.476L151.446 41.1075H148.184L142.153 25.9692H141.969V41.2307H137.169V17.8769Z" fill="#2B2D42"/>
<path d="M169.63 41.5385C167.969 41.5385 166.584 41.1077 165.477 40.2153C164.369 39.3538 163.815 38.0308 163.815 36.3076C163.815 35.0154 164.123 33.9692 164.738 33.2307C165.354 32.4924 166.154 31.9384 167.169 31.6C168.153 31.2615 169.23 31.0154 170.4 30.9232C171.907 30.7692 173.015 30.6155 173.661 30.4307C174.307 30.2462 174.646 29.9077 174.646 29.323V29.2615C174.646 28.5538 174.431 27.9693 173.969 27.6C173.507 27.2 172.892 27.0155 172.061 27.0155C171.2 27.0155 170.492 27.2 169.969 27.6C169.446 27.9693 169.107 28.4615 168.953 29.0462L164.461 28.677C164.8 27.077 165.631 25.8153 166.954 24.8923C168.277 23.9693 170 23.4769 172.092 23.4769C173.384 23.4769 174.615 23.6923 175.723 24.0923C176.861 24.4923 177.754 25.1386 178.461 26C179.169 26.8615 179.507 28 179.507 29.3847V41.2308H174.892V38.8H174.769C174.338 39.6 173.723 40.277 172.861 40.8C172 41.2923 170.923 41.5385 169.63 41.5385ZM171.015 38.2153C172.092 38.2153 172.954 37.9076 173.63 37.2923C174.307 36.6769 174.646 35.9076 174.646 34.9846V33.1384C174.461 33.2616 174.154 33.3847 173.754 33.4769C173.354 33.5692 172.923 33.6616 172.492 33.7231C172.03 33.7846 171.63 33.8462 171.292 33.9077C170.43 34.0307 169.754 34.2769 169.23 34.6154C168.707 34.9846 168.461 35.5076 168.461 36.1846C168.461 36.8616 168.707 37.3538 169.2 37.6923C169.661 38.0308 170.277 38.2153 171.015 38.2153Z" fill="#2B2D42"/>
<path d="M181.353 41.2307V17.8769H186.215V30.3384H186.492L192.092 23.6923H197.661L191.169 31.2614L198 41.1999H192.307L187.507 34.1538L186.184 35.6615V41.2307H181.353Z" fill="#2B2D42"/>
<path d="M205.015 41.5691C203.23 41.5691 201.692 41.1999 200.369 40.4614C199.077 39.7229 198.061 38.6767 197.384 37.3537C196.677 35.9997 196.338 34.3998 196.338 32.5538C196.338 30.7691 196.677 29.1691 197.384 27.8151C198.092 26.4614 199.077 25.3844 200.338 24.6459C201.6 23.8767 203.107 23.5075 204.83 23.5075C206.369 23.5075 207.753 23.8459 209.015 24.4922C210.246 25.1384 211.231 26.1229 211.97 27.4461C212.708 28.7691 213.076 30.3998 213.076 32.3998V33.723H201.169C201.169 35.0152 201.538 36.0614 202.246 36.7997C202.954 37.5382 203.938 37.9382 205.138 37.9382C205.938 37.9382 206.646 37.7537 207.23 37.4152C207.815 37.0767 208.246 36.5537 208.492 35.9075L212.984 36.2152C212.645 37.8459 211.783 39.1382 210.4 40.1229C208.984 41.0766 207.2 41.5691 205.015 41.5691ZM201.138 30.7076H208.492C208.492 29.6613 208.153 28.7998 207.476 28.1229C206.8 27.4461 205.969 27.1076 204.892 27.1076C203.815 27.1076 202.923 27.4461 202.246 28.1536C201.569 28.8613 201.2 29.7228 201.138 30.7076Z" fill="#2B2D42"/>
<path d="M214.277 41.2308V23.7231H218.984V26.7693H219.168C219.476 25.6923 220.03 24.8616 220.768 24.3078C221.507 23.7539 222.4 23.4769 223.354 23.4769C223.906 23.4769 224.4 23.5386 224.892 23.6616V27.9693C224.676 27.9078 224.337 27.8463 223.938 27.7845C223.538 27.723 223.168 27.723 222.831 27.723C221.754 27.723 220.86 28.0615 220.185 28.7385C219.476 29.4155 219.139 30.277 219.139 31.3539V41.2308H214.277Z" fill="#2B2D42"/>
<defs>
<linearGradient id="paint0_linear" x1="0.04483" y1="49.8774" x2="64.2159" y2="-0.117218" gradientUnits="userSpaceOnUse">
<stop stop-color="#48D5FF"/>
<stop offset="1" stop-color="#4086FF"/>
</linearGradient>
<linearGradient id="paint1_linear" x1="0.55302" y1="50.0224" x2="67.4206" y2="-0.195616" gradientUnits="userSpaceOnUse">
<stop stop-color="#48D5FF"/>
<stop offset="1" stop-color="#4086FF"/>
</linearGradient>
<linearGradient id="paint2_linear" x1="0.333825" y1="49.8345" x2="65.1959" y2="0.976066" gradientUnits="userSpaceOnUse">
<stop stop-color="#48D5FF"/>
<stop offset="1" stop-color="#4086FF"/>
</linearGradient>
</defs>
</svg>
