<svg width="601" height="118" viewBox="0 0 601 118" fill="none" xmlns="http://www.w3.org/2000/svg">
<path d="M53.1001 58.7C53.1001 61.9 55.6001 64.4 58.8001 64.4C62.0001 64.4 64.5001 61.9 64.5001 58.7C64.5001 55.5 62.0001 53 58.8001 53C55.6001 53.1 53.1001 55.6 53.1001 58.7ZM100.9 53.1C97.7001 53.1 95.2001 55.6 95.2001 58.8C95.2001 62 97.7001 64.5 100.9 64.5C104.1 64.5 106.6 62 106.6 58.8C106.6 55.6 104.1 53.1 100.9 53.1ZM100.9 95.9C97.7001 95.9 95.2001 98.4 95.2001 101.6C95.2001 104.8 97.7001 107.3 100.9 107.3C104.1 107.3 106.6 104.8 106.6 101.6C106.6 98.4 104.1 95.9 100.9 95.9Z" fill="#101820"/>
<path d="M113 5.99994C107.3 -1.10006 97.1001 -1.40005 91.1001 4.19995L90.4001 4.89996L89 5.99994C83.3 10.5999 74.8 10.2 69.5 4.89996V4.49994C67.7 2.69994 65.3001 1.29995 62.8001 0.599945C62.4001 0.599945 61.7001 0.199951 61.4001 0.199951H55.7C55.3 0.199951 55 0.199945 54.6 0.599945H53.9001C53.5001 0.599945 53.2001 0.999939 52.8001 0.999939C52.8001 0.999939 52.4001 0.999963 52.4001 1.39996C52.0001 1.39996 51.7001 1.79996 51.3001 1.79996C51.3001 1.79996 50.9001 1.79995 50.9001 2.19995C50.5001 2.59995 50.2001 2.59996 49.8001 2.89996C49.8001 2.89996 49.4001 2.89996 49.4001 3.29996C49.0001 3.69996 48.7001 3.69994 48.3001 3.99994L47.9001 4.39996L47.2 5.09995L45.8001 6.19995C40.1001 10.8 31.6001 10.3999 26.7001 5.09995C26.7001 5.09995 26.3 5.09995 26.3 4.69995L25.6 3.99994C23.5 2.19994 21.0001 0.799939 18.2001 0.499939H11.8C11.8 0.899939 11.4 0.899951 11.1 1.19995H11C9.20005 1.89995 7.50005 2.59994 6.00005 3.99994L5.60005 4.39996L4.50005 5.49994C3.10005 6.89994 2.40005 8.69995 1.70005 10.0999C1.70005 10.4999 1.30005 10.8 1.30005 11.2C1.30005 11.6 0.900049 11.8999 0.900049 12.5999C0.500049 15.0999 0.500049 17.5999 1.30005 19.9999C1.30005 20.3999 1.70005 20.6999 1.70005 21.0999V21.4999C1.70005 21.8999 2.10005 22.1999 2.10005 22.5999C2.50005 22.9999 2.50005 23.2999 2.80005 23.9999C3.50005 24.3999 4.20005 25.1 4.60005 25.4L5.30005 26.0999L6.00005 26.8C11.3 32.1 11.3 41.2999 5.60005 46.9999C4.90005 47.6999 3.80005 48.7999 3.50005 49.4999C3.10005 49.8999 3.10005 50.2 2.80005 50.9V51.3C2.40005 51.7 2.40005 52 2.10005 52.4V52.8C2.10005 53.2 1.70005 53.5 1.70005 53.9V54.3C1.70005 54.7 1.70005 55 1.30005 55.4V60.7C1.30005 61.1 1.30005 61.4 1.70005 61.8V62.2C2.40005 64.7 3.80005 67.2 5.90005 69.3C11.6 75 11.6 84.2 5.90005 89.8L5.50005 90.2L4.80005 90.9V91.3C4.40005 91.7 4.10005 92 4.10005 92.4C4.10005 92.4 4.10005 92.8 3.70005 92.8C3.30005 93.2 3.30005 93.5 3.00005 93.9L2.60005 94.3C2.60005 94.7 2.20005 94.6999 2.20005 94.9999C2.20005 95.2999 1.80005 95.4 1.80005 95.7C1.80005 96.1 1.80005 96.1 1.40005 96.4C0.700049 97.8 0.300049 99.5999 0.300049 101V103.8C0.700049 104.9 0.700049 105.9 1.40005 106.6C1.40005 107 1.80005 107.3 1.80005 107.3C1.80005 107.3 1.80005 107.7 2.20005 107.7C2.20005 108.1 2.60005 108.4 2.60005 108.8C2.60005 108.8 2.60005 109.2 3.00005 109.2C3.40005 109.9 3.70005 110.3 4.10005 110.6C4.10005 110.6 4.10005 111 4.50005 111C4.50005 111 4.50005 111.4 4.90005 111.4C4.90005 111.8 5.30005 111.8 5.30005 111.8L5.70005 112.2C6.10005 112.6 6.40005 112.6 6.40005 112.9L6.80005 113.3C6.80005 113.3 7.20005 113.3 7.20005 113.7C7.60005 114.1 7.90005 114.4 8.30005 114.4C8.30005 114.4 8.70005 114.4 8.70005 114.8C9.10005 115.2 9.40005 115.2 9.80005 115.5H10C10.4 115.9 10.7 115.9 11.4 115.9C11.8 115.9 12.5 116.3 12.8 116.3H13.2001C13.6001 116.3 13.9 116.3 14.3 116.7H17.5C18.6 116.7 19.3 116.3 20.3 116.3H20.7001C21.1001 116.3 21.4 115.9 21.8 115.9H22C22.4 115.9 22.7 115.5 23.1 115.5H23.5C24.2 115.1 25.3 114.4 26 114.1L27.1 113L27.5 112.6C33.2 106.6 42.4 106.6 48 112.6C54.4 119.3 65 119 71 111.5C75.2 106.2 75.2 98.4 71 92.7C65.3 85.6 55.1 85.3 49.1 90.9L48.4001 91.5999L47 92.7C41.3 97.3 32.8 96.8999 27.5 91.5999L26.8 90.9L25.7001 89.4999C21.1001 83.7999 21.5 75.2999 26.8 69.9999C30 67.1999 31.4001 63.3 31.4001 59.4V58.3C31.4001 54.8 30.0001 51.2 27.2001 48.7C27.2001 48.3 26.8 48.2999 26.8 47.9999L25.7001 46.5999C21.1001 40.8999 21.5 32.3999 26.8 27.0999L27.2001 26.7L27.6 26.3C33.3 20.3 42.5 20.3 48.1 26.3L48.5 26.7L48.9001 27.0999L49.6 27.8C50 27.8 50.0001 28.2 50.3001 28.2C50.6001 28.2 50.7 28.5999 51 28.5999C51.3 28.5999 51.4 28.9999 51.7 28.9999C52 28.9999 52.1001 29.4 52.4001 29.4C52.7001 29.4 52.8 29.8 53.1 29.8C53.4 29.8 53.5001 30.2 53.8001 30.2C54.1001 30.2 54.2 30.1999 54.5 30.5999C54.9 30.5999 54.9 30.5999 55.2 30.9999H61.2C61.6 30.9999 61.9001 30.9999 62.3001 30.5999H63C63.4 30.5999 63.7 30.2 64.1 30.2H64.5C64.9 30.2 65.2001 29.7999 65.9001 29.4999C67.3001 28.7999 68.7 27.7 69.8 26.7L70.2 26.3C75.9 20.3 85.1 20.3 90.7 26.3C96.7 33.4 107.7 32.9999 113.4 25.5999C117.2 19.0999 117.2 11.2999 113 5.99994Z" fill="#101820"/>
<path d="M193.7 49.9C191.6 47.8 189.8 46.4 187.3 45.3C185.2 44.2 182.7 43.5 179.5 43.5C176.7 43.5 173.8 44.2 171.7 45.3C169.6 46.4 167.8 47.8 166.4 49.9C165 51.7 163.9 53.8 163.2 56.3C162.5 58.8 162.1 61.3 162.1 63.7C162.1 66.1 162.5 68.7 163.5 71.1C164.2 73.6 165.6 75.3 167 77.1C168.4 78.9 170.5 80.3 172.7 81.3C174.8 82.4 177.3 82.7 180.1 82.7C183.3 82.7 185.8 82 187.9 80.9C190 79.8 192.1 78.4 193.9 76.3L201.3 84.1C198.5 87.3 195.3 89.4 191.7 90.8C188.2 92.2 184.3 92.9 180 92.9C175.8 92.9 171.5 92.2 168 90.8C164.5 89.4 161.3 87.3 158.8 84.8C156.3 82.3 154.2 79.1 152.8 75.6C151.4 72.1 150.7 67.8 150.7 63.6C150.7 59.4 151.4 55.1 152.8 51.6C154.2 48.1 156.3 44.9 158.8 42C161.3 39.5 164.5 37.4 168 36C171.5 34.6 175.8 33.9 180 33.9C184.2 33.9 188.1 34.6 191.7 36C195.6 37.4 198.8 39.9 201.6 42.7L193.7 49.9ZM217.7 63C217.7 65.8 218.1 68.7 219.1 70.8C219.8 73.3 221.2 75.4 222.6 77.2C224 79 226.1 80.4 228.3 81.1C230.4 82.2 233.3 82.5 236.1 82.5C238.9 82.5 241.4 82.1 243.9 81.1C246 80 248.1 78.6 249.6 77.2C251 75.4 252.4 73.3 253.1 70.8C253.8 68.3 254.5 65.8 254.5 63C254.5 60.2 254.1 57.3 253.1 55.2C252.4 52.7 251 50.6 249.6 48.8C248.2 47 246.1 45.6 243.9 44.9C241.8 43.8 238.9 43.5 236.1 43.5C233.3 43.5 230.8 43.9 228.3 44.9C226.2 46 224.1 47.4 222.6 48.8C221.2 50.6 219.8 52.7 219.1 55.2C218.4 57.7 217.7 60.2 217.7 63ZM206.4 63C206.4 58.8 207.1 54.9 208.5 51.3C209.9 47.8 212 44.6 214.9 41.7C217.7 38.9 220.6 36.7 224.5 35.3C228 33.9 231.9 32.8 236.2 32.8C240.5 32.8 244.3 33.5 247.9 35.3C251.4 36.7 254.6 38.8 257.5 41.7C260.3 44.5 262.1 47.7 263.9 51.3C265.3 54.8 266 58.7 266 63C266 67.2 265.3 71.1 263.9 74.7C262.5 78.2 260.4 81.4 257.5 84.3C254.7 87.1 251.8 88.9 247.9 90.7C244.4 92.1 240.5 93.2 236.2 93.2C232 93.2 228.1 92.5 224.5 90.7C221 89.3 217.8 87.2 214.9 84.3C212.1 81.5 210.3 78.6 208.5 74.7C207.5 71.1 206.4 67.2 206.4 63ZM276.9 91.7H287.5V35.1H276.9V91.7ZM274.4 14.5C274.4 12.4 275.1 10.6 276.5 8.80002C277.9 7.40002 279.7 6.30002 281.8 6.30002C283.9 6.30002 285.7 7.00002 287.1 8.80002C288.5 10.2 289.2 12.3 289.2 14.5C289.2 16.7 288.5 18.4 287.1 20.2C285.7 21.6 283.9 22.7 281.8 22.7C279.7 22.7 277.9 22 276.5 20.2C275.1 18.7 274.4 16.6 274.4 14.5ZM302.3 35H313V43.8H313.4C314.8 40.6 316.9 38.1 320.5 36.4C323.7 34.6 327.6 33.6 332.2 33.6C335 33.6 337.5 34 340 35C342.5 35.7 344.6 37.1 346.4 38.9C348.2 40.7 349.6 42.8 351 45.6C352.1 48.4 352.8 51.6 352.8 55.5V92H342V58.4C342 55.9 341.6 53.4 340.9 51.7C340.2 49.9 339.1 48.2 338.1 47.1C337 46 335.6 45 333.9 44.6C332.5 44.2 330.7 43.9 328.9 43.9C326.8 43.9 324.7 44.3 322.9 45C321.1 45.7 319.4 46.8 317.9 48.5C316.5 49.9 315.4 52 314.7 54.5C314 57 313.6 59.8 313.6 63V92.4H303V35.1L302.3 35ZM391.9 82.8C394.7 82.8 397.2 82.4 399.7 81.4C402.2 80.3 403.9 78.9 405.7 77.2C407.1 75.4 408.5 73.3 409.2 70.8C409.9 68.3 410.6 65.8 410.6 62.7C410.6 59.9 410.2 57 409.2 54.6C408.5 52.1 407.1 50 405.7 48.2C403.9 46.4 402.2 45 399.7 44C397.2 42.9 394.7 42.6 391.9 42.6C389.1 42.6 386.6 43 384.1 44C381.6 45.1 379.9 46.5 378.1 48.2C376.7 50 375.3 52.1 374.6 54.6C373.9 57.1 373.2 59.6 373.2 62.7C373.2 65.5 373.6 68.4 374.6 70.8C375.3 73.3 376.7 75.4 378.1 77.2C379.5 79 381.6 80.4 384.1 81.4C386.2 82.1 389.1 82.8 391.9 82.8ZM421.3 91.3H410.7V83.2H410.3C408.2 86.4 405.3 88.5 401.8 90.3C398.3 92.1 394.4 92.8 390.5 92.8C386.3 92.8 382 92.1 378.5 90.7C375 89.3 371.8 87.2 369.3 84.3C366.8 81.5 364.7 78.3 363.6 74.7C362.2 71.2 361.5 67.3 361.5 63C361.5 58.7 362.2 54.9 363.6 51C365 47.5 366.8 44.3 369.3 41.4C371.8 38.6 375 36.4 378.5 35C382 33.6 385.9 32.9 390.5 32.9C394.4 32.9 398.3 33.6 401.8 35.4C405.3 37.2 408.2 39.6 409.9 42.5H410.3V0H420.9V91.3H421.3ZM475.4 58.4C475.4 55.9 475 53.8 474.3 51.7C473.6 49.6 472.5 47.8 471.1 46.4C469.7 45 467.9 43.9 466.1 42.9C464 42.2 461.9 41.5 459 41.5C456.5 41.5 454 41.9 451.9 42.9C449.8 44 448 45 446.2 46.8C444.8 48.2 443.4 50 442.7 52.1C442 54.2 441.3 56 441.3 57.8H475.3L475.4 58.4ZM441.5 67.2C441.5 69.7 442.2 71.8 443.3 73.9C444.4 76 445.8 77.8 447.5 79.2C449.3 80.6 451.4 81.7 453.5 82.4C456 83.1 458.1 83.5 460.6 83.5C463.8 83.5 467 82.8 469.4 81C471.9 79.6 474 77.5 476.1 75L484.2 81.4C478.2 89.2 469.7 93.1 459.1 93.1C454.5 93.1 450.6 92.4 447.1 91C443.6 89.6 440.4 87.5 437.9 84.6C435.4 81.8 433.3 78.9 432.2 75C430.8 71.5 430.1 67.6 430.1 63.3C430.1 59.1 430.8 55.2 432.2 51.6C433.6 48.1 435.7 44.9 438.2 42C440.7 39.2 443.9 37.4 447.4 35.6C450.9 34.2 454.8 33.5 459.1 33.5C464.1 33.5 468.3 34.2 471.8 36C475.3 37.8 478.2 39.9 480.3 42.7C482.4 45.5 484.2 48.7 485.3 52.3C486.4 55.8 486.7 59.4 486.7 63.3V67.2H441.5V67.2ZM528.5 49.2C527.1 47.8 525.7 46.4 523.9 45.3C522.1 44.2 519.7 43.5 517.2 43.5C514.7 43.5 512.6 44.2 510.5 45.3C508.7 46.4 507.7 47.8 507.7 49.9C507.7 51.7 508.4 53.1 509.5 53.8C510.6 54.9 512 55.6 513.4 56.3C514.8 57 516.6 57.4 518 57.7C519.8 58.1 521.2 58.4 522.2 58.4C524.3 59.1 526.8 59.5 528.6 60.5C530.7 61.2 532.5 62.3 533.9 63.7C535.3 65.1 536.4 66.5 537.4 68.3C538.1 70.1 538.8 72.2 538.8 75C538.8 78.2 538.1 81 536.7 83.1C535.3 85.2 533.5 87.3 531.4 88.8C529.3 90.3 526.8 91.3 524 92C521.2 92.7 518.3 93.1 515.9 93.1C511.3 93.1 507.1 92.4 503.5 91C500 89.6 496.8 87.1 493.9 83.2L502 76.5C503.8 78.3 505.5 79.7 507.7 81.1C509.9 82.5 512.3 83.2 515.5 83.2C516.9 83.2 518.3 83.2 519.7 82.8C521.1 82.4 522.2 82.1 523.2 81.4C524.3 80.7 525 80 525.7 79.3C526.4 78.2 526.8 77.2 526.8 76.1C526.8 74.7 526.4 73.3 525.4 72.2C524.3 71.1 523.3 70.4 521.9 69.7C520.5 69 519.1 68.6 517.7 68.3L513.5 67.2C511.4 66.5 508.9 66.1 507.1 65.4C505 64.7 503.2 63.6 501.8 62.6C500.4 61.5 499 59.8 497.9 58C496.8 56.2 496.5 53.8 496.5 51.3C496.5 48.5 497.2 45.6 498.3 43.5C499.4 41.4 501.1 39.6 503.3 38.2C505.4 36.8 507.5 35.7 510 35C512.5 34.3 515.3 33.9 517.8 33.9C521.7 33.9 525.2 34.6 528.8 36C532.3 37.4 535.2 39.9 537.3 43.1L528.5 49.2ZM549.1 1.40002H559.7V58.7L583.8 34.6H598.3L572.5 60.1L600.8 90.5H585.6L559.8 61.5V90.5H549.2V1.40002" fill="#101820"/>
</svg>
