<svg width="97" height="27" viewBox="0 0 97 27" fill="none" xmlns="http://www.w3.org/2000/svg">
<path d="M4.35827 4.07398V9.06364H12.7361V12.1351H4.35827V19.6183H1V1H13.7487V4.0714H4.35827V4.07398Z" fill="#202024" stroke="#202024" stroke-width="0.25" stroke-miterlimit="10"/>
<path d="M16.2219 19.6184V5.96411H19.5267V19.6184H16.2219Z" fill="#202024" stroke="#202024" stroke-width="0.25" stroke-miterlimit="10"/>
<path d="M35.0023 21.4314C35.0023 22.325 34.8039 23.0672 34.4045 23.663C34.005 24.2588 33.4936 24.7262 32.8703 25.0677C32.247 25.4093 31.5423 25.6507 30.7638 25.7894C29.9827 25.9306 29.2195 26 28.4741 26C27.6421 26 26.8127 25.9383 25.991 25.815C25.1667 25.6918 24.4008 25.3785 23.6885 24.87C23.1695 24.5027 22.765 24.0739 22.48 23.5834C22.1951 23.0929 22.05 22.5254 22.05 21.8756C22.05 21.2799 22.19 20.7329 22.4673 20.2347C22.7446 19.7364 23.1441 19.3564 23.663 19.0919C23.2306 18.848 22.8947 18.5089 22.6607 18.0801C22.4266 17.6512 22.3096 17.2095 22.3096 16.7524C22.3096 15.5788 22.8464 14.662 23.9226 13.9943C23.5053 13.5732 23.1771 13.0853 22.9354 12.5228C22.6912 11.963 22.5716 11.3338 22.5716 10.6328C22.5716 9.82639 22.7192 9.10986 23.0143 8.47817C23.3094 7.8464 23.7088 7.32256 24.2126 6.90141C24.7163 6.48018 25.3015 6.16179 25.968 5.94351C26.6347 5.72522 27.3495 5.61479 28.1128 5.61479C28.6674 5.61479 29.2068 5.68929 29.7257 5.83824C30.2447 5.98718 30.7307 6.19263 31.1836 6.45451C31.4786 5.85874 31.8679 5.42734 32.3538 5.15512C32.8398 4.88291 33.369 4.74939 33.9414 4.74939C34.0457 4.74939 34.1932 4.74939 34.3841 4.74939C34.5749 4.74939 34.7225 4.76731 34.8268 4.80073V7.34824L34.5673 7.32256C34.1856 7.32256 33.8422 7.38416 33.5394 7.50743C33.2367 7.6307 33.0306 7.85924 32.9289 8.19054C33.397 8.96092 33.631 9.78272 33.631 10.6584C33.631 11.4468 33.4784 12.1479 33.1756 12.7591C32.8729 13.3728 32.4684 13.8891 31.9672 14.3076C31.4634 14.7288 30.8782 15.0523 30.2117 15.2784C29.5426 15.5069 28.8455 15.6199 28.1178 15.6199C27.3546 15.6199 26.627 15.4967 25.9324 15.2526C25.7772 15.34 25.6246 15.4684 25.4771 15.6328C25.3295 15.7996 25.2557 15.9974 25.2557 16.2234C25.2557 16.6266 25.416 16.8936 25.7365 17.0246C26.0571 17.1556 26.3904 17.2224 26.7389 17.2224H28.9753C29.3035 17.2224 29.6596 17.2275 30.0413 17.2352C30.4228 17.2455 30.8096 17.2789 31.1988 17.3405C31.5881 17.4021 31.9697 17.4946 32.3437 17.6153C32.7176 17.7385 33.0586 17.9131 33.3715 18.1392C33.9617 18.5423 34.3815 19.0252 34.6334 19.5824C34.8776 20.1525 35.0023 20.7663 35.0023 21.4314ZM31.934 21.511C31.934 21.0898 31.8221 20.7663 31.5957 20.5402C31.3693 20.3117 31.0971 20.1473 30.7765 20.0421C30.4559 19.9368 30.1074 19.8751 29.7359 19.8597C29.3619 19.8418 29.0211 19.834 28.7081 19.834H26.1589C25.8104 19.9393 25.5203 20.1371 25.2862 20.4247C25.0522 20.7149 24.9352 21.077 24.9352 21.5136C24.9352 21.9501 25.0522 22.2917 25.2862 22.5382C25.5203 22.7822 25.8104 22.9722 26.1589 23.1032C26.5049 23.2342 26.8788 23.3164 27.2783 23.3523C27.6777 23.3882 28.0339 23.4036 28.3443 23.4036C28.6724 23.4036 29.0464 23.3908 29.4637 23.3651C29.8809 23.3395 30.2702 23.2649 30.634 23.1417C30.9979 23.0184 31.3057 22.831 31.5576 22.5767C31.8069 22.32 31.934 21.9656 31.934 21.511ZM30.5017 10.6379C30.5017 9.90341 30.288 9.29481 29.8631 8.81198C29.4383 8.32923 28.8531 8.09036 28.1077 8.09036C27.3623 8.09036 26.7771 8.33181 26.3522 8.81198C25.9273 9.29222 25.7137 9.90083 25.7137 10.6379C25.7137 11.3723 25.9248 11.9784 26.3522 12.4509C26.7771 12.9234 27.3623 13.1597 28.1077 13.1597C28.8531 13.1597 29.4383 12.9234 29.8631 12.4509C30.2905 11.9784 30.5017 11.3749 30.5017 10.6379Z" fill="#202024" stroke="#202024" stroke-width="0.25" stroke-miterlimit="10"/>
<path d="M52.8496 19.6184V11.1362C52.8496 10.2964 52.7071 9.64412 52.4196 9.17929C52.1346 8.71705 51.5825 8.48334 50.7684 8.48334C50.3003 8.48334 49.9009 8.59378 49.5727 8.81206C49.2445 9.03035 48.9697 9.32056 48.7535 9.67754C48.5373 10.037 48.3769 10.4351 48.2726 10.8717C48.1684 11.3108 48.1175 11.737 48.1175 12.1582V19.6158H44.8915V11.1362C44.8915 10.2964 44.749 9.64412 44.4615 9.17929C44.1766 8.71705 43.6245 8.48334 42.8103 8.48334C42.3422 8.48334 41.9428 8.59378 41.6146 8.81206C41.2864 9.03035 41.0066 9.32056 40.7826 9.67754C40.5562 10.037 40.3934 10.4351 40.2891 10.8717C40.1848 11.3108 40.1339 11.737 40.1339 12.1582V19.6158H36.908V5.9641H39.6124L39.8718 7.77714C40.2535 7.14796 40.7649 6.63179 41.406 6.22864C42.0471 5.82541 42.8205 5.62512 43.7211 5.62512C44.6752 5.62512 45.474 5.8229 46.1152 6.2158C46.7563 6.6087 47.2525 7.15829 47.5984 7.85674C47.9978 7.14029 48.5474 6.58812 49.2496 6.20296C49.9518 5.81774 50.7633 5.62512 51.6818 5.62512C53.1396 5.62512 54.2362 6.06686 54.974 6.95284C55.7118 7.83882 56.0806 8.98668 56.0806 10.4068V19.6235H52.8496V19.6184Z" fill="#202024" stroke="#202024" stroke-width="0.25" stroke-miterlimit="10"/>
<path d="M70.8521 12.8979C70.8343 13.0211 70.8266 13.1341 70.8266 13.2394V13.8172H61.7746C61.7746 14.3437 61.856 14.8418 62.0214 15.3143C62.1867 15.7869 62.4361 16.1798 62.7617 16.4957C63.006 16.7242 63.2883 16.9194 63.6089 17.0863C63.9295 17.2532 64.3136 17.3354 64.7665 17.3354C65.2346 17.3354 65.6214 17.2866 65.9241 17.1916C66.2268 17.0966 66.5016 16.9245 66.7433 16.6806C67.0537 16.3647 67.2725 15.9795 67.3946 15.525H70.5163C70.4807 15.9281 70.3458 16.3698 70.1118 16.8526C69.8777 17.3354 69.6309 17.7309 69.3714 18.0468C68.799 18.7299 68.1146 19.2204 67.3158 19.5183C66.5169 19.8162 65.6849 19.9651 64.8199 19.9651C63.8811 19.9651 63.0721 19.811 62.3877 19.5054C61.7008 19.1998 61.0902 18.7915 60.5534 18.2856C59.8767 17.6205 59.3602 16.8243 59.004 15.8974C58.6478 14.9703 58.4697 13.9456 58.4697 12.8259C58.4697 11.7242 58.63 10.7022 58.9506 9.76735C59.2712 8.83003 59.7622 8.03139 60.4186 7.3637C60.9223 6.83978 61.5329 6.41863 62.2529 6.10282C62.9729 5.78694 63.7997 5.63025 64.7385 5.63025C65.746 5.63025 66.6797 5.8357 67.5498 6.2466C68.4148 6.6575 69.1271 7.29177 69.6843 8.1495C70.1855 8.90195 70.5061 9.66983 70.646 10.448C70.7808 11.2209 70.8521 12.0401 70.8521 12.8979ZM67.6007 11.4264C67.5803 10.43 67.303 9.63124 66.7662 9.03806C66.5424 8.7941 66.2599 8.60149 65.9215 8.46022C65.5832 8.3216 65.1812 8.24968 64.7105 8.24968C64.2093 8.24968 63.7667 8.34728 63.3825 8.53989C63.0034 8.73243 62.6879 8.98672 62.4463 9.3026C62.202 9.60048 62.029 9.91637 61.9247 10.2476C61.8229 10.5789 61.7594 10.9744 61.7441 11.4289H67.6007V11.4264Z" fill="#202024" stroke="#202024" stroke-width="0.25" stroke-miterlimit="10"/>
<path d="M81.6492 19.6183V11.2413C81.6492 10.4375 81.4913 9.80581 81.1814 9.35124C80.8685 8.89667 80.2806 8.66813 79.4132 8.66813C78.8405 8.66813 78.362 8.8299 77.9808 9.15346C77.5987 9.47709 77.2964 9.89308 77.0701 10.4016C76.8438 10.9101 76.7139 11.5007 76.6805 12.1735C76.6448 12.8489 76.6273 13.4729 76.6273 14.0508V19.6183H73.3757V5.96401H76.1078L76.3425 7.72313C76.742 7.0066 77.3094 6.47502 78.0469 6.13346C78.7843 5.7919 79.5431 5.61987 80.3216 5.61987C81.0515 5.61987 81.6979 5.74314 82.2599 5.9871C82.8219 6.23364 83.3004 6.57003 83.6924 6.99893C84.0812 7.42776 84.382 7.94393 84.5901 8.54744C84.799 9.15095 84.903 9.80323 84.903 10.5043V19.6157H81.6492V19.6183Z" fill="#202024" stroke="#202024" stroke-width="0.25" stroke-miterlimit="10"/>
<path d="M95.8789 19.436C94.9425 19.68 94.0136 19.8032 93.0953 19.8032C91.7244 19.8032 90.7013 19.4308 90.0246 18.6861C89.3478 17.9414 89.0099 16.9142 89.0099 15.6019V8.66822H86.5369V5.96403H89.0099V2.4972L92.2614 1.68311V5.96403H95.6701V8.66822H92.2614V15.3117C92.2614 15.8382 92.3806 16.2182 92.6252 16.4545C92.869 16.6908 93.251 16.8089 93.7698 16.8089C94.1153 16.8089 94.4412 16.8012 94.7442 16.7832C95.0465 16.7652 95.4232 16.7319 95.8759 16.678V19.436H95.8789Z" fill="#202024" stroke="#202024" stroke-width="0.25" stroke-miterlimit="10"/>
<path fill-rule="evenodd" clip-rule="evenodd" d="M19.7961 2.93627C19.7961 1.9142 18.977 1.01538 17.8677 1.01538C16.7356 1.01538 15.9392 1.9142 15.9392 2.93627C15.9392 4.00712 16.7356 4.80841 17.8677 4.80841C18.977 4.80841 19.7961 4.00712 19.7961 2.93627Z" fill="#202024"/>
</svg>
