<svg width="149" height="40" viewBox="0 0 149 40" fill="none" xmlns="http://www.w3.org/2000/svg">
<path d="M10.0249 0.0596426V0.0795235C10.0411 0.178928 10.0411 0.298213 10.0411 0.417498V14.7516C10.0249 14.8311 9.97625 14.851 9.92759 14.8908C9.58695 15.0896 9.26254 15.2685 8.9219 15.4474C8.4515 15.7059 7.96488 15.9842 7.49448 16.2427L5.7913 17.197C5.3209 17.4554 4.8505 17.7139 4.39632 17.9723C3.84481 18.2904 3.27709 18.5886 2.72558 18.9067C2.25518 19.1652 1.78478 19.4435 1.29816 19.7019C0.908863 19.9206 0.519566 20.1194 0.146489 20.3381C0.114048 20.358 0.0816065 20.3779 0.0491651 20.3779C0.0329444 20.3779 0.0329444 20.3779 0.0167236 20.358L0.454683 19.4634C1.29816 17.7536 2.12542 16.0637 2.9689 14.354C3.86104 12.5249 4.7694 10.6959 5.66154 8.86687C6.48879 7.17699 7.33227 5.48712 8.15953 3.79725C8.75969 2.56463 9.37608 1.33202 9.97625 0.0994044C9.99247 0.0596426 10.0087 0.0397617 10.0087 0H10.0249C10.0087 0.0198809 10.0249 0.0397617 10.0249 0.0596426Z" fill="#8A92B2"/>
<path d="M19.9839 20.3578L20.0001 20.3776L17.6157 22.1073L10.1217 27.5348C10.0893 27.5546 10.0568 27.5745 10.0406 27.5944C9.99194 27.5944 9.99194 27.5348 9.99194 27.5149V27.3359V15.0496C9.99194 14.9899 9.99194 14.9104 10.0082 14.8508C10.0244 14.7712 10.073 14.7911 10.1217 14.811C10.3326 14.9303 10.5597 15.0496 10.7705 15.1689C11.4031 15.5267 12.0358 15.8846 12.6684 16.2225C13.2199 16.5207 13.7552 16.8388 14.3067 17.1371C14.8582 17.4353 15.4097 17.7534 15.9612 18.0516C16.4316 18.31 16.9182 18.5884 17.3886 18.8468C17.859 19.1053 18.3456 19.3836 18.816 19.642C19.1891 19.8409 19.5622 20.0595 19.9353 20.2584C19.9353 20.318 19.9515 20.3379 19.9839 20.3578Z" fill="#454A75"/>
<path d="M10.0241 39.9404C10.0241 39.9602 10.0078 39.9801 10.0078 40H9.99162C9.99162 39.9602 9.95918 39.9404 9.94296 39.9006C8.93727 38.171 7.93159 36.4214 6.9259 34.6918C5.90399 32.9224 4.86587 31.1331 3.84396 29.3637C2.8545 27.654 1.84881 25.9243 0.859347 24.2146C0.599815 23.7573 0.340284 23.32 0.0807521 22.8627C0.0645313 22.8229 0.0483106 22.8031 0.0158691 22.7434C0.0645313 22.7434 0.0969728 22.7832 0.113194 22.8031C1.5244 23.817 2.91938 24.8309 4.33058 25.8448C5.95266 27.0178 7.55851 28.1908 9.18058 29.3637L10.0078 29.9602C10.0403 29.9999 10.0403 30.0397 10.0403 30.0794V39.662C10.0403 39.7614 10.0403 39.8608 10.0241 39.9404Z" fill="#8A92B2"/>
<path d="M0 20.3977V20.3778C0.519063 20.0995 1.02191 19.8012 1.54097 19.5229C2.20602 19.1452 2.87107 18.7873 3.53612 18.4096C4.03896 18.1312 4.55802 17.833 5.06087 17.5547C5.80702 17.1372 6.53695 16.7396 7.28311 16.3221C7.78595 16.0438 8.28879 15.7654 8.80785 15.4672C9.16471 15.2684 9.53779 15.0696 9.89464 14.8708C9.92708 14.8509 9.97575 14.831 9.99197 14.7913C10.0082 14.7913 10.0082 14.8111 9.99197 14.831V27.4554C9.99197 27.515 9.97575 27.5747 10.0082 27.6144C9.97575 27.6741 9.9433 27.6144 9.92708 27.5945C9.7811 27.4951 9.63511 27.3957 9.48912 27.2764C6.35852 25.01 3.2117 22.7237 0.0811036 20.4573C0.0648829 20.4374 0.0324414 20.4175 0 20.3977Z" fill="#62688F"/>
<path d="M19.9511 22.7434H19.9673C19.9673 22.7832 19.9349 22.8229 19.9187 22.8627C16.9341 28.0118 13.9494 33.1809 10.9648 38.33C10.6566 38.8668 10.3322 39.4036 10.024 39.9404C10.0078 39.9205 10.0078 39.9006 10.0078 39.8807V39.7614V30.1192V29.9403C10.6891 29.4433 11.3541 28.9661 12.0354 28.4691C14.6632 26.5605 17.2909 24.6719 19.9025 22.7633C19.9187 22.7832 19.9349 22.7633 19.9511 22.7434Z" fill="#62688F"/>
<path d="M10.008 14.8314V14.7917V14.6724V0.238881C10.008 0.179238 9.99181 0.139477 10.0242 0.079834C13.3171 6.77969 16.6099 13.4597 19.8865 20.1595C19.9189 20.2192 19.9676 20.2987 19.9838 20.3782C19.7567 20.2788 19.5458 20.1396 19.335 20.0203C19.0754 19.8812 18.7997 19.7221 18.5401 19.583C18.3779 19.4836 18.1995 19.404 18.0373 19.3046C17.7615 19.1456 17.4858 19.0064 17.21 18.8474C17.0478 18.7679 16.8856 18.6685 16.7234 18.569L15.6528 17.9726C15.4744 17.8732 15.296 17.7738 15.1013 17.6744L14.3227 17.2569C14.1605 17.1774 13.9983 17.078 13.8361 16.9786L12.7656 16.3821C12.5871 16.2827 12.4087 16.1833 12.214 16.0839L11.4355 15.6664C11.257 15.567 11.0948 15.4676 10.9164 15.3682C10.6082 15.1893 10.3 15.0104 9.97559 14.8513C10.0242 14.8314 10.008 14.8314 10.008 14.8314Z" fill="#62688F"/>
<path d="M44.5227 29L54.4432 29V28.0114L45.5881 28.0114L45.5881 20.7585L53.7188 20.7585V19.7699L45.5881 19.7699V12.5341L54.2386 12.5341V11.5455L44.5227 11.5455L44.5227 29ZM62.9169 15.9091H60.1641V12.7727H59.1328V15.9091L57.1982 15.9091V16.8381H59.1328V26.0938C59.1328 28.0795 60.6754 29.2131 62.3118 29.2131C62.8402 29.2131 63.1982 29.1193 63.522 29L63.2663 28.054C63.0107 28.1392 62.755 28.2074 62.38 28.2074C61.2209 28.2074 60.1641 27.4915 60.1641 25.9063V16.8381H62.9169V15.9091ZM68.0945 20.5114C68.0945 18.2273 69.6882 16.7017 71.8956 16.7017C74.0774 16.7017 75.5263 18.1676 75.5263 20.4091V29H76.5575V20.3665C76.5575 17.4943 74.7337 15.7386 72.0916 15.7386C70.1996 15.7386 68.8104 16.6165 68.1967 17.9801H68.0945V11.5455H67.0547V29H68.0945V20.5114ZM85.9645 29.2727C88.5469 29.2727 90.1321 27.7642 90.7287 26.4432L89.7827 26.0597C89.2969 27.0313 88.0952 28.3097 85.9645 28.3097C82.9901 28.3097 81.2088 25.9063 81.1662 22.6847H91.1548V22.0369C91.1548 18.1506 88.6491 15.7131 85.7173 15.7131C82.4702 15.7131 80.1349 18.6023 80.1349 22.5142C80.1349 26.4176 82.4105 29.2727 85.9645 29.2727ZM81.1832 21.7386C81.3878 18.8835 83.2372 16.6847 85.7173 16.6847C88.206 16.6847 90.1151 18.9006 90.1151 21.7386H81.1832ZM94.7344 29H95.7741V20.375C95.7741 18.2614 97.3509 16.7358 99.5327 16.7358C99.8054 16.7358 99.9844 16.7699 100.121 16.7869V15.7386C99.9588 15.7301 99.7798 15.7301 99.5923 15.7301C97.8622 15.7301 96.4048 16.6165 95.8423 17.9545H95.7486V15.9091H94.7344V29ZM107.621 29.2727C110.203 29.2727 111.788 27.7642 112.385 26.4432L111.439 26.0597C110.953 27.0313 109.751 28.3097 107.621 28.3097C104.646 28.3097 102.865 25.9063 102.822 22.6847H112.811V22.0369C112.811 18.1506 110.305 15.7131 107.374 15.7131C104.126 15.7131 101.791 18.6023 101.791 22.5142C101.791 26.4176 104.067 29.2727 107.621 29.2727ZM102.839 21.7386C103.044 18.8835 104.893 16.6847 107.374 16.6847C109.862 16.6847 111.771 18.9006 111.771 21.7386H102.839ZM124.777 24.3551C124.777 26.6903 123.038 28.1563 120.993 28.1563C118.896 28.1563 117.43 26.6818 117.43 24.5V15.9091H116.391V24.5426C116.391 27.4063 118.214 29.1705 120.78 29.1705C122.646 29.1705 124.078 28.2244 124.692 26.8778H124.777V29H125.817V15.9091L124.777 15.9091V24.3551ZM130.125 29H131.165V20.4091C131.165 18.2443 132.469 16.7017 134.54 16.7017C136.594 16.7017 137.608 18.108 137.608 20.1449V29H138.648V20.2983C138.648 18.2102 139.841 16.7017 142.006 16.7017C144.026 16.7017 145.091 18.0227 145.091 20.2131V29H146.131V20.2131C146.131 17.4432 144.759 15.7386 142.227 15.7386C140.284 15.7386 138.912 16.7273 138.401 18.2699H138.307C137.795 16.7188 136.645 15.7386 134.753 15.7386C133.023 15.7386 131.744 16.5739 131.241 17.8864H131.139V15.9091H130.125V29Z" fill="white"/>
</svg>
