<svg width="347" height="80" viewBox="0 0 347 80" fill="none" xmlns="http://www.w3.org/2000/svg">
<path d="M272.752 40.0074C272.752 37.9643 272.752 36.0424 272.686 34.2676C272.641 32.5932 272.475 30.9242 272.19 29.2737C271.923 27.7665 271.452 26.3028 270.79 24.9229C270.091 23.5001 269.157 22.2056 268.027 21.0939C266.424 19.4518 264.517 18.1375 262.412 17.2245C260.135 16.302 257.696 15.8447 255.239 15.8795C252.773 15.8477 250.325 16.3048 248.037 17.2245C245.919 18.125 244 19.4336 242.389 21.0755C241.261 22.1866 240.33 23.4814 239.636 24.9045C238.98 26.2847 238.516 27.7487 238.258 29.2553C237.98 30.9063 237.82 32.5753 237.781 34.2492C237.736 36.0241 237.714 37.9459 237.725 39.989C237.736 42.0321 237.725 43.9393 237.781 45.7252C237.82 47.3991 237.98 49.068 238.258 50.7191C238.516 52.2257 238.98 53.6896 239.636 55.0699C240.333 56.4914 241.263 57.7857 242.389 58.8989C243.998 60.5421 245.918 61.8487 248.037 62.7426C250.323 63.6683 252.772 64.128 255.239 64.0948C257.697 64.1311 260.136 63.6711 262.412 62.7426C264.517 61.8417 266.425 60.5357 268.027 58.8989C269.154 57.785 270.088 56.4909 270.79 55.0699C271.452 53.6899 271.923 52.2262 272.19 50.7191C272.472 49.0732 272.636 47.4092 272.679 45.7399C272.734 43.954 272.76 42.0432 272.745 40.0037L272.752 40.0074ZM263.492 40.0074C263.492 42.271 263.459 44.1561 263.382 45.6554C263.339 46.8869 263.216 48.1143 263.015 49.33C262.877 50.14 262.63 50.9275 262.28 51.6708C261.996 52.2699 261.624 52.8235 261.177 53.3134C260.487 54.103 259.632 54.7304 258.671 55.1507C257.59 55.6132 256.426 55.8484 255.25 55.8417C254.068 55.8467 252.898 55.6117 251.81 55.1507C250.826 54.7382 249.947 54.1104 249.238 53.3134C248.789 52.8257 248.417 52.2717 248.136 51.6708C247.796 50.9267 247.561 50.1389 247.438 49.33C247.241 48.1136 247.119 46.8865 247.07 45.6554C247.004 44.1561 246.971 42.2734 246.971 40.0074C246.971 37.7438 247.004 35.855 247.07 34.3558C247.119 33.1246 247.242 31.8975 247.438 30.6811C247.561 29.8722 247.796 29.0844 248.136 28.3403C248.418 27.7399 248.789 27.186 249.238 26.6978C249.948 25.9018 250.827 25.2742 251.81 24.8604C252.897 24.3942 254.068 24.1589 255.25 24.1696C256.426 24.1574 257.592 24.3927 258.671 24.8604C259.631 25.282 260.486 25.9092 261.177 26.6978C261.623 27.1883 261.995 27.7417 262.28 28.3403C262.63 29.0837 262.877 29.8711 263.015 30.6811C263.216 31.8968 263.338 33.1243 263.382 34.3558C263.463 35.8514 263.492 37.7401 263.492 40.0074Z" fill="#23AF91"/>
<path d="M346.539 17.1068C346.535 16.6599 346.174 16.2987 345.727 16.2947H338.088C337.64 16.2967 337.278 16.6591 337.275 17.1068V45.3282L318.645 16.5225C318.52 16.3277 318.41 16.2947 318.134 16.2947H311.049C310.603 16.3006 310.243 16.6607 310.237 17.1068V62.9005C310.243 63.3459 310.604 63.7049 311.049 63.7089H318.685C319.131 63.7069 319.492 63.3461 319.494 62.9005V34.6055L338.128 63.4774C338.257 63.6722 338.36 63.7052 338.639 63.7052H345.72C346.166 63.7032 346.528 63.343 346.532 62.8968L346.539 17.1068Z" fill="#23AF91"/>
<path d="M295.33 17.1068C295.328 16.6591 294.965 16.2967 294.518 16.2947H286.885C286.438 16.2967 286.075 16.6591 286.073 17.1068V62.8968C286.075 63.3445 286.438 63.7069 286.885 63.7089H294.518C294.965 63.7069 295.328 63.3445 295.33 62.8968V17.1068Z" fill="#23AF91"/>
<path d="M203.962 40.0084C203.962 37.7301 203.988 35.834 204.054 34.3237C204.099 33.0923 204.221 31.865 204.421 30.649C205.127 26.5702 208.25 24.1633 212.237 24.1633C214.839 24.1853 217.198 25.1481 218.705 27.3382C219.387 28.3606 219.884 29.4949 220.175 30.6895C220.197 30.8153 220.312 30.9031 220.439 30.8916H229.424C229.552 30.8916 229.6 30.8034 229.578 30.6784C228.597 25.1187 225.631 20.1248 220.391 17.6517C217.816 16.4594 215.005 15.8627 212.167 15.9063C207.109 15.9063 202.847 17.6383 199.383 21.1023C197.406 23.0297 196.056 25.5092 195.51 28.2164C194.981 30.8818 194.714 34.8112 194.709 40.0047C194.704 45.1983 194.971 49.1265 195.51 51.7894C196.051 54.5001 197.397 56.9846 199.372 58.9183C202.834 62.3798 207.095 64.1106 212.156 64.1106C214.994 64.1535 217.804 63.5582 220.38 62.3688C225.62 59.8957 228.586 54.9018 229.567 49.3421C229.589 49.2135 229.541 49.1289 229.413 49.1289H220.424C220.297 49.1156 220.181 49.2042 220.16 49.331C219.869 50.5242 219.372 51.6572 218.69 52.6787C217.183 54.8835 214.824 55.8352 212.223 55.8536C208.236 55.8536 205.112 53.4504 204.407 49.3715C204.207 48.1555 204.084 46.9282 204.039 45.6968C203.988 44.1792 203.962 42.2794 203.962 40.0084Z" fill="#23AF91"/>
<path d="M164.673 55.8525C160.377 55.8525 156.482 51.8765 156.482 47.1288V17.1068C156.48 16.6591 156.118 16.2967 155.67 16.2947H148.038C147.59 16.2967 147.228 16.6591 147.226 17.1068V47.0112C147.226 57.4656 155.045 64.1094 164.673 64.1094C174.301 64.1094 182.12 57.4656 182.12 47.0112V17.1068C182.116 16.6599 181.755 16.2987 181.308 16.2947H173.672C173.226 16.2987 172.866 16.6605 172.864 17.1068V47.1288C172.864 51.8728 168.965 55.8525 164.673 55.8525Z" fill="#23AF91"/>
<path d="M109.068 17.1068C109.066 16.6591 108.704 16.2967 108.256 16.2947H100.624C100.176 16.2967 99.8135 16.6591 99.8115 17.1068V62.9005C99.8155 63.3467 100.177 63.7069 100.624 63.7093H108.256C108.702 63.7069 109.064 63.3467 109.068 62.9005V49.4585L115.194 42.1349L127.776 63.4664C127.873 63.6237 128.047 63.7164 128.231 63.7093H137.506C137.933 63.7093 138.01 63.4443 137.797 63.0805L121.323 35.1531L136.437 17.0223C136.742 16.6548 136.613 16.3057 136.136 16.3057H125.997C125.874 16.2984 125.755 16.3537 125.681 16.4527L109.068 36.3767V17.1068Z" fill="#23AF91"/>
<path fill-rule="evenodd" clip-rule="evenodd" d="M23.0916 40.0081L46.7859 63.706L61.7418 48.7501C64.4161 46.3421 68.5075 46.4492 71.0521 48.9939C73.5968 51.5385 73.7039 55.6299 71.2959 58.3043L51.5593 78.0446C48.9082 80.6518 44.6562 80.6518 42.0051 78.0446L13.5301 49.5622V66.4914C13.5301 70.2277 10.5013 73.2565 6.76506 73.2565C3.02882 73.2565 0 70.2277 0 66.4914V13.5027C0 9.76648 3.02882 6.73766 6.76506 6.73766C10.5013 6.73766 13.5301 9.76648 13.5301 13.5027V30.4319L42.0014 1.95691C44.6517 -0.652305 48.9053 -0.652305 51.5556 1.95691L71.3069 21.6935C73.7149 24.3679 73.6078 28.4593 71.0631 31.0039C68.5185 33.5486 64.4271 33.6557 61.7528 31.2477L46.7969 16.2918L23.0916 40.0081ZM46.7969 33.2357C44.0574 33.2342 41.5868 34.8833 40.5374 37.4139C39.488 39.9444 40.0665 42.8579 42.0031 44.7956C43.9397 46.7333 46.8529 47.3134 49.3841 46.2653C51.9152 45.2173 53.5656 42.7476 53.5656 40.0081C53.5666 38.2119 52.854 36.489 51.5846 35.2182C50.3152 33.9474 48.593 33.233 46.7969 33.232V33.2357Z" fill="#23AF91"/>
</svg>
