<svg width="225" height="40" viewBox="0 0 225 40" fill="none" xmlns="http://www.w3.org/2000/svg">
<path d="M20 40C31.0457 40 40 31.0457 40 20C40 8.9543 31.0457 0 20 0C8.9543 0 0 8.9543 0 20C0 31.0457 8.9543 40 20 40Z" fill="white"/>
<path d="M39.5 20C39.5 30.7695 30.7695 39.5 20 39.5C9.23046 39.5 0.5 30.7695 0.5 20C0.5 9.23046 9.23046 0.5 20 0.5C30.7695 0.5 39.5 9.23046 39.5 20Z" stroke="black" stroke-linecap="round"/>
<path fill-rule="evenodd" clip-rule="evenodd" d="M25.7654 14.795C26.0202 15.05 26.4372 15.0191 26.6573 14.7371C26.8426 14.4937 26.8156 14.1538 26.5916 13.9414C24.4605 11.9019 22.5108 10.8512 19.3527 11.0173C15.9823 11.195 13.0365 12.9371 13.2296 16.653C13.4016 19.941 16.5848 21.1518 19.3597 22.2073C21.504 23.0229 23.4046 23.7459 23.4838 25.2629C23.5725 26.9509 21.8545 27.9668 20.3527 28.044C17.5227 28.1908 15.8549 27.1943 14.0094 25.402C13.7855 25.1857 13.4303 25.1741 13.1987 25.3827C12.9439 25.6106 12.9323 26.0084 13.1755 26.2479C15.2642 28.3183 17.3915 29.3574 20.5187 29.1951C23.6806 29.0291 27.495 27.2677 27.302 23.5518C27.1332 20.3254 24.0871 19.1443 21.3253 18.0734C19.0346 17.1853 16.9395 16.3729 16.8432 14.5324C16.7699 13.1882 18.3605 12.2341 19.5187 12.1723C22.2792 12.0294 24.005 13.0298 25.7654 14.795ZM26.1438 23.6136C26.1438 25.0389 25.36 26.2711 24.1826 26.9934L24.1246 26.9702C24.5454 26.3908 24.6265 25.6222 24.6265 24.9346C24.6265 22.8332 22.3156 21.9966 19.8878 21.1177C17.2016 20.1453 14.3723 19.1211 14.3723 16.2744C14.3723 14.9804 14.9708 13.5744 16.0981 12.9332L16.129 12.9834C15.8433 13.6053 15.7043 14.2736 15.7043 14.9611C15.7043 17.2891 18.2772 18.2491 20.8684 19.2159C23.4967 20.1965 26.1438 21.1841 26.1438 23.6136Z" fill="black"/>
<path d="M63.9318 14.9091H64.9801C64.8352 12.233 62.679 10.2813 59.5597 10.2812C56.4574 10.2812 54.1136 12.2159 54.1136 14.9091C54.1136 17.0398 55.5795 18.446 58.3153 19.2812L60.3523 19.8949C62.8494 20.6534 64.1705 21.625 64.1705 23.4574C64.1705 25.7415 62.2188 27.2841 59.4062 27.2841C56.7983 27.2841 54.9403 25.9375 54.7699 23.7727H53.679C53.8665 26.4403 56.0312 28.2812 59.4062 28.2812C62.9517 28.2812 65.2188 26.2358 65.2188 23.4659C65.2188 20.9432 63.2585 19.6903 60.6506 18.9062L58.7415 18.3438C56.6364 17.7131 55.1619 16.6818 55.1619 14.875C55.1619 12.7869 56.9858 11.2699 59.5341 11.2699C62.0398 11.2699 63.7528 12.7443 63.9318 14.9091ZM74.1676 28.2727C76.75 28.2727 78.3352 26.7642 78.9318 25.4432L77.9858 25.0597C77.5 26.0313 76.2983 27.3097 74.1676 27.3097C71.1932 27.3097 69.4119 24.9063 69.3693 21.6847H79.358V21.0369C79.358 17.1506 76.8523 14.7131 73.9205 14.7131C70.6733 14.7131 68.3381 17.6023 68.3381 21.5142C68.3381 25.4176 70.6136 28.2727 74.1676 28.2727ZM69.3864 20.7386C69.5909 17.8835 71.4403 15.6847 73.9205 15.6847C76.4091 15.6847 78.3182 17.9006 78.3182 20.7386H69.3864ZM87.8466 28.2727C90.4034 28.2727 92.3295 26.6023 92.7045 24.1818H91.6477C91.3068 26.0824 89.7642 27.3097 87.8466 27.3097C85.1108 27.3097 83.2443 24.8125 83.2443 21.4801C83.2443 18.1051 85.1875 15.6847 87.8466 15.6847C89.8153 15.6847 91.2898 16.9972 91.6222 18.7614H92.679C92.2955 16.3494 90.3182 14.7131 87.8381 14.7131C84.5227 14.7131 82.2131 17.6108 82.2131 21.4972C82.2131 25.3835 84.5057 28.2727 87.8466 28.2727ZM96.25 28H97.2898V19.375C97.2898 17.2614 98.8665 15.7358 101.048 15.7358C101.321 15.7358 101.5 15.7699 101.636 15.7869V14.7386C101.474 14.7301 101.295 14.7301 101.108 14.7301C99.3778 14.7301 97.9205 15.6165 97.358 16.9545H97.2642V14.9091H96.25V28ZM109.136 28.2727C111.719 28.2727 113.304 26.7642 113.901 25.4432L112.955 25.0597C112.469 26.0313 111.267 27.3097 109.136 27.3097C106.162 27.3097 104.381 24.9063 104.338 21.6847L114.327 21.6847V21.0369C114.327 17.1506 111.821 14.7131 108.889 14.7131C105.642 14.7131 103.307 17.6023 103.307 21.5142C103.307 25.4176 105.582 28.2727 109.136 28.2727ZM104.355 20.7386C104.56 17.8835 106.409 15.6847 108.889 15.6847C111.378 15.6847 113.287 17.9006 113.287 20.7386L104.355 20.7386ZM122.534 14.9091H119.781V11.7727H118.75V14.9091H116.815V15.8381H118.75V25.0938C118.75 27.0795 120.293 28.2131 121.929 28.2131C122.457 28.2131 122.815 28.1193 123.139 28L122.884 27.054C122.628 27.1392 122.372 27.2074 121.997 27.2074C120.838 27.2074 119.781 26.4915 119.781 24.9063V15.8381H122.534V14.9091ZM146.845 10.5455H145.788V26.0824H145.686L134.555 10.5455H133.507V28H134.572V12.4801H134.675L145.805 28H146.845V10.5455ZM156.621 28.2727C159.203 28.2727 160.788 26.7642 161.385 25.4432L160.439 25.0597C159.953 26.0313 158.751 27.3097 156.621 27.3097C153.646 27.3097 151.865 24.9063 151.822 21.6847H161.811V21.0369C161.811 17.1506 159.305 14.7131 156.374 14.7131C153.126 14.7131 150.791 17.6023 150.791 21.5142C150.791 25.4176 153.067 28.2727 156.621 28.2727ZM151.839 20.7386C152.044 17.8835 153.893 15.6847 156.374 15.6847C158.862 15.6847 160.771 17.9006 160.771 20.7386L151.839 20.7386ZM170.018 14.9091L167.266 14.9091V11.7727H166.234V14.9091H164.3V15.8381H166.234V25.0938C166.234 27.0795 167.777 28.2131 169.413 28.2131C169.942 28.2131 170.3 28.1193 170.624 28L170.368 27.054C170.112 27.1392 169.857 27.2074 169.482 27.2074C168.322 27.2074 167.266 26.4915 167.266 24.9063V15.8381L170.018 15.8381V14.9091ZM176.73 28H177.889L181.23 16.6051H181.341L184.682 28H185.841L189.761 14.9091H188.67L185.295 26.4659H185.21L181.835 14.9091H180.753L177.369 26.4744H177.276L173.901 14.9091H172.81L176.73 28ZM197.421 28.2727C200.66 28.2727 203.012 25.4261 203.012 21.4972C203.012 17.5682 200.651 14.7131 197.421 14.7131C194.183 14.7131 191.83 17.5597 191.83 21.4972C191.83 25.4261 194.183 28.2727 197.421 28.2727ZM197.421 27.3097C194.668 27.3097 192.862 24.7443 192.862 21.4972C192.862 18.267 194.685 15.6847 197.421 15.6847C200.165 15.6847 201.981 18.2585 201.981 21.4972C201.981 24.7443 200.174 27.3097 197.421 27.3097ZM206.594 28H207.634V19.375C207.634 17.2614 209.21 15.7358 211.392 15.7358C211.665 15.7358 211.844 15.7699 211.98 15.7869V14.7386C211.818 14.7301 211.639 14.7301 211.452 14.7301C209.722 14.7301 208.264 15.6165 207.702 16.9545H207.608V14.9091H206.594V28ZM214.773 28H215.813V22.7585L217.407 21.2159L222.776 28H224.106L218.165 20.5341L223.833 14.9091L222.478 14.9091L215.933 21.3949H215.813V10.5455L214.773 10.5455V28Z" fill="white"/>
</svg>
