<svg width="701" height="120" viewBox="0 0 701 120" fill="none" xmlns="http://www.w3.org/2000/svg">
<path d="M0.0703125 27.8789L27.3428 43.6364V70.3028L0.0703125 54.5454V27.8789Z" fill="black"/>
<path d="M47.9487 0L74.6152 15.1514L27.3428 43.636L0.0703125 27.8786L47.9487 0Z" fill="#28282E"/>
<path d="M74.6182 92.1211L47.3457 76.3637L47.3457 49.6972L74.6182 65.4546L74.6182 92.1211Z" fill="black"/>
<path d="M26.7388 120L0.0723379 104.849L47.3447 76.364L74.6172 92.1214L26.7388 120Z" fill="#28282E"/>
<path d="M142.7 96C154.7 96 167.9 88.9 167.9 74.1C167.9 64.3 162.2 58.5 149.4 53.4L144.6 51.5C137.2 48.5 135.4 46.1 135.4 43C135.4 39 138.7 37 143 37C147.4 37 151 39.3 154.1 44.7L165.8 38.1C162.4 30.6 154.9 23 142.4 23C130.1 23 119.8 30.5 119.8 42.8C119.8 54.3 128.5 59.5 138 63.3L142.4 65C149.2 67.7 151.5 69.7 151.5 73.9C151.5 79.4 147.2 81.7 142.5 81.7C135.8 81.7 132 77.1 130 72.3L117.2 78.2C119.9 88.6 130.2 96 142.7 96ZM174.778 37.5H190.278V24H174.778V37.5ZM174.778 95H190.278V43H174.778V95ZM223.68 42C210.28 42 197.18 51.5 197.18 69.1C197.18 86.2 210.18 96 224.58 96C234.08 96 241.48 92.1 245.78 86.7L238.78 79.4C234.98 82.3 230.88 83.4 226.28 83.4C219.38 83.4 214.18 80.6 212.08 75H249.08C252.38 51.2 236.88 42 223.68 42ZM223.88 55C229.08 55 234.38 57.9 235.48 63.9H211.78C213.48 57.7 218.68 55 223.88 55ZM287.416 42C280.016 42 274.916 45.2 272.016 49.6V43H256.516V95H272.016V67.1C272.016 60.6 275.316 55.8 281.616 55.8C288.016 55.8 291.316 60.6 291.316 67.1V95H306.816V64.4C306.816 48.5 297.916 42 287.416 42ZM347.084 42C339.684 42 334.584 45.2 331.684 49.6V43H316.184V95H331.684V67.1C331.684 60.6 334.984 55.8 341.284 55.8C347.684 55.8 350.984 60.6 350.984 67.1V95H366.484V64.4C366.484 48.5 357.584 42 347.084 42ZM398.152 96C407.352 96 412.752 91 413.552 89.1H413.852V95H429.352V43H413.852V48.9H413.552C412.752 47 407.352 42 398.152 42C386.352 42 373.352 50.9 373.352 69C373.352 87.1 386.352 96 398.152 96ZM401.352 82.2C394.752 82.2 388.652 77.4 388.652 69C388.652 60.6 394.752 55.8 401.352 55.8C408.152 55.8 414.252 60.5 414.252 69C414.252 77.5 408.152 82.2 401.352 82.2ZM461.743 96C473.743 96 486.943 88.9 486.943 74.1C486.943 64.3 481.243 58.5 468.443 53.4L463.643 51.5C456.243 48.5 454.443 46.1 454.443 43C454.443 39 457.743 37 462.043 37C466.443 37 470.043 39.3 473.143 44.7L484.843 38.1C481.443 30.6 473.943 23 461.443 23C449.143 23 438.843 30.5 438.843 42.8C438.843 54.3 447.543 59.5 457.043 63.3L461.443 65C468.243 67.7 470.543 69.7 470.543 73.9C470.543 79.4 466.243 81.7 461.543 81.7C454.843 81.7 451.043 77.1 449.043 72.3L436.243 78.2C438.943 88.6 449.243 96 461.743 96ZM561.094 43L550.194 76.7L538.894 43H524.894L513.594 76.7L502.694 43H487.294L506.294 95H520.394L531.894 62.7L543.394 95H557.494L576.494 43H561.094ZM601.668 96C610.868 96 616.268 91 617.068 89.1H617.368V95H632.868V43H617.368V48.9H617.068C616.268 47 610.868 42 601.668 42C589.868 42 576.868 50.9 576.868 69C576.868 87.1 589.868 96 601.668 96ZM604.868 82.2C598.268 82.2 592.168 77.4 592.168 69C592.168 60.6 598.268 55.8 604.868 55.8C611.668 55.8 617.768 60.5 617.768 69C617.768 77.5 611.668 82.2 604.868 82.2ZM673.459 42C664.259 42 658.859 47 658.059 48.9H657.759V43H642.259V114H657.759V89.1H658.059C658.859 91 664.259 96 673.459 96C685.259 96 698.259 87.1 698.259 69C698.259 50.9 685.259 42 673.459 42ZM670.259 82.2C663.459 82.2 657.359 77.5 657.359 69C657.359 60.5 663.459 55.8 670.259 55.8C676.859 55.8 683.059 60.6 683.059 69C683.059 77.4 676.859 82.2 670.259 82.2Z" fill="black"/>
<path d="M142.7 96C154.7 96 167.9 88.9 167.9 74.1C167.9 64.3 162.2 58.5 149.4 53.4L144.6 51.5C137.2 48.5 135.4 46.1 135.4 43C135.4 39 138.7 37 143 37C147.4 37 151 39.3 154.1 44.7L165.8 38.1C162.4 30.6 154.9 23 142.4 23C130.1 23 119.8 30.5 119.8 42.8C119.8 54.3 128.5 59.5 138 63.3L142.4 65C149.2 67.7 151.5 69.7 151.5 73.9C151.5 79.4 147.2 81.7 142.5 81.7C135.8 81.7 132 77.1 130 72.3L117.2 78.2C119.9 88.6 130.2 96 142.7 96Z" fill="#28282E"/>
<path d="M174.778 37.5H190.278V24H174.778V37.5ZM174.778 95H190.278V43H174.778V95Z" fill="#28282E"/>
<path d="M223.681 42C210.281 42 197.181 51.5 197.181 69.1C197.181 86.2 210.181 96 224.581 96C234.081 96 241.481 92.1 245.781 86.7L238.781 79.4C234.981 82.3 230.881 83.4 226.281 83.4C219.381 83.4 214.181 80.6 212.081 75H249.081C252.381 51.2 236.881 42 223.681 42ZM223.881 55C229.081 55 234.381 57.9 235.481 63.9H211.781C213.481 57.7 218.681 55 223.881 55Z" fill="#28282E"/>
<path d="M287.417 42C280.017 42 274.917 45.2 272.017 49.6V43H256.517V95H272.017V67.1C272.017 60.6 275.317 55.8 281.617 55.8C288.017 55.8 291.317 60.6 291.317 67.1V95H306.817V64.4C306.817 48.5 297.917 42 287.417 42Z" fill="#28282E"/>
<path d="M347.085 42C339.685 42 334.585 45.2 331.685 49.6V43H316.185V95H331.685V67.1C331.685 60.6 334.985 55.8 341.285 55.8C347.685 55.8 350.985 60.6 350.985 67.1V95H366.485V64.4C366.485 48.5 357.585 42 347.085 42Z" fill="#28282E"/>
<path d="M398.153 96C407.353 96 412.753 91 413.553 89.1H413.853V95H429.353V43H413.853V48.9H413.553C412.753 47 407.353 42 398.153 42C386.353 42 373.353 50.9 373.353 69C373.353 87.1 386.353 96 398.153 96ZM401.353 82.2C394.753 82.2 388.653 77.4 388.653 69C388.653 60.6 394.753 55.8 401.353 55.8C408.153 55.8 414.253 60.5 414.253 69C414.253 77.5 408.153 82.2 401.353 82.2Z" fill="#28282E"/>
<path d="M461.743 96C473.743 96 486.943 88.9 486.943 74.1C486.943 64.3 481.243 58.5 468.443 53.4L463.643 51.5C456.243 48.5 454.443 46.1 454.443 43C454.443 39 457.743 37 462.043 37C466.443 37 470.043 39.3 473.143 44.7L484.843 38.1C481.443 30.6 473.943 23 461.443 23C449.143 23 438.843 30.5 438.843 42.8C438.843 54.3 447.543 59.5 457.043 63.3L461.443 65C468.243 67.7 470.543 69.7 470.543 73.9C470.543 79.4 466.243 81.7 461.543 81.7C454.843 81.7 451.043 77.1 449.043 72.3L436.243 78.2C438.943 88.6 449.243 96 461.743 96Z" fill="#28282E"/>
<path d="M561.094 43L550.194 76.7L538.894 43H524.894L513.594 76.7L502.694 43H487.294L506.294 95H520.394L531.894 62.7L543.394 95H557.494L576.494 43H561.094Z" fill="#28282E"/>
<path d="M601.668 96C610.868 96 616.268 91 617.068 89.1H617.368V95H632.868V43H617.368V48.9H617.068C616.268 47 610.868 42 601.668 42C589.868 42 576.868 50.9 576.868 69C576.868 87.1 589.868 96 601.668 96ZM604.868 82.2C598.268 82.2 592.168 77.4 592.168 69C592.168 60.6 598.268 55.8 604.868 55.8C611.668 55.8 617.768 60.5 617.768 69C617.768 77.5 611.668 82.2 604.868 82.2Z" fill="#28282E"/>
<path d="M673.459 42C664.259 42 658.859 47 658.059 48.9H657.759V43H642.259V114H657.759V89.1H658.059C658.859 91 664.259 96 673.459 96C685.259 96 698.259 87.1 698.259 69C698.259 50.9 685.259 42 673.459 42ZM670.259 82.2C663.459 82.2 657.359 77.5 657.359 69C657.359 60.5 663.459 55.8 670.259 55.8C676.859 55.8 683.059 60.6 683.059 69C683.059 77.4 676.859 82.2 670.259 82.2Z" fill="#28282E"/>
</svg>
